<?xml version="1.0" encoding="utf-8"?>
<!-- Generator: Adobe Illustrator 28.3.0, SVG Export Plug-In . SVG Version: 6.00 Build 0)  -->
<svg version="1.1" id="Layer_1" xmlns="http://www.w3.org/2000/svg" xmlns:xlink="http://www.w3.org/1999/xlink" x="0px" y="0px"
	 viewBox="0 0 216 216" style="enable-background:new 0 0 216 216;" xml:space="preserve">
<style type="text/css">
	.st0{fill:#FFFFFF;}
	.st1{fill:#EE0000;}
</style>
<circle class="st0" cx="108" cy="108" r="72"/>
<path class="st1" d="M108,48.8c-32.7,0-59.2,26.6-59.2,59.2s26.6,59.2,59.2,59.2s59.2-26.6,59.2-59.2S140.7,48.8,108,48.8z
	 M134.3,134.9c-1.3,1.1-3.2,1.1-4.6,0.1l-32.1-24.1l-10.2,22.7c-0.6,1.4-2,2.2-3.4,2.2c-0.5,0-1-0.1-1.5-0.3c-1.9-0.9-2.7-3.1-1.9-5
	l12.1-26.9c0,0,0-0.1,0-0.1l11.8-26.2c1.2-2.7,5.6-2.7,6.8,0l24,53.2C136.1,132,135.7,133.9,134.3,134.9z"/>
<path class="st1" d="M162,0H54C24.2,0,0,24.2,0,54v108c0,29.8,24.2,54,54,54h108c29.8,0,54-24.2,54-54V54C216,24.2,191.8,0,162,0z
	 M108,174.8c-36.8,0-66.8-29.9-66.8-66.8S71.2,41.2,108,41.2s66.8,29.9,66.8,66.8S144.8,174.8,108,174.8z"/>
<polygon class="st1" points="100.8,103.9 122.6,120.2 108,87.9 "/>
</svg>
