<?xml version="1.0" encoding="utf-8"?>
<!-- Generator: Adobe Illustrator 28.3.0, SVG Export Plug-In . SVG Version: 6.00 Build 0)  -->
<svg version="1.1" id="Layer_1" xmlns="http://www.w3.org/2000/svg" xmlns:xlink="http://www.w3.org/1999/xlink" x="0px" y="0px"
	 viewBox="0 0 216 216" enable-background="new 0 0 216 216" xml:space="preserve">
<path d="M54,0h108c29.823,0,54,24.177,54,54v108c0,29.823-24.177,54-54,54H54c-29.823,0-54-24.177-54-54V54C0,24.177,24.177,0,54,0z
	"/>
<path fill="#4D4D4D" d="M162,7.5c25.64,0,46.5,20.86,46.5,46.5v108c0,25.64-20.86,46.5-46.5,46.5H54c-25.64,0-46.5-20.86-46.5-46.5
	V54C7.5,28.36,28.36,7.5,54,7.5H162 M162,0H54C24.177,0,0,24.177,0,54v108c0,29.823,24.177,54,54,54h108c29.823,0,54-24.177,54-54
	V54C216,24.177,191.823,0,162,0L162,0z"/>
<path fill="#FFFFFF" d="M84,135.75c-0.516,0-1.043-0.105-1.541-0.334c-1.887-0.85-2.73-3.07-1.875-4.957l12.123-26.889
	c0.018-0.035,0.035-0.07,0.047-0.105l11.83-26.215c1.207-2.695,5.625-2.695,6.832,0l24,53.209c0.709,1.559,0.264,3.398-1.072,4.471
	c-1.336,1.066-3.217,1.096-4.6,0.07l-32.098-24.129l-10.23,22.67C86.795,134.93,85.43,135.75,84,135.75z M100.805,103.863
	l21.773,16.365L108,87.914C108,87.914,100.805,103.863,100.805,103.863z"/>
<path fill="#EE0000" d="M108,174.75c-36.809,0-66.75-29.941-66.75-66.75S71.191,41.25,108,41.25s66.75,29.941,66.75,66.75
	S144.809,174.75,108,174.75z M108,48.75c-32.672,0-59.25,26.578-59.25,59.25s26.578,59.25,59.25,59.25s59.25-26.578,59.25-59.25
	S140.672,48.75,108,48.75z"/>
<g>
</g>
<g>
</g>
<g>
</g>
<g>
</g>
<g>
</g>
<g>
</g>
</svg>
