<?xml version="1.0" encoding="utf-8"?>
<!-- Generator: Adobe Illustrator 28.3.0, SVG Export Plug-In . SVG Version: 6.00 Build 0)  -->
<svg version="1.1" id="Layer_1" xmlns="http://www.w3.org/2000/svg" xmlns:xlink="http://www.w3.org/1999/xlink" x="0px" y="0px"
	 viewBox="0 0 216 216" enable-background="new 0 0 216 216" xml:space="preserve">
<circle cx="108" cy="108" r="100.8"/>
<path fill="#FFFFFF" d="M68.851,153.167c-0.834,0-1.688-0.171-2.493-0.54c-3.053-1.375-4.418-4.968-3.034-8.02l19.615-43.505
	c0.028-0.057,0.057-0.114,0.076-0.171l19.141-42.415c1.953-4.361,9.101-4.361,11.054,0l38.831,86.091
	c1.147,2.522,0.427,5.499-1.735,7.234c-2.162,1.725-5.205,1.773-7.442,0.114l-51.933-39.04l-16.553,36.679
	C73.373,151.84,71.165,153.167,68.851,153.167z M96.041,101.575l35.229,26.479L107.683,75.77
	C107.683,75.77,96.041,101.575,96.041,101.575z"/>
<path fill="#EE0000" d="M107.683,216.268c-59.556,0-108-48.444-108-108s48.444-108,108-108s108,48.444,108,108
	S167.238,216.268,107.683,216.268z M107.683,12.403c-52.862,0-95.865,43.003-95.865,95.865s43.003,95.865,95.865,95.865
	s95.865-43.003,95.865-95.865S160.545,12.403,107.683,12.403z"/>
<g>
</g>
<g>
</g>
<g>
</g>
<g>
</g>
<g>
</g>
<g>
</g>
</svg>
