<svg xmlns="http://www.w3.org/2000/svg" viewBox="0 0 571 701"><title>DaWGs2</title><g id="Layer_15" data-name="Layer 15"><path d="M155.06,146.55a60.1,60.1,0,1,1-44.73-72.28,60.1,60.1,0,0,1,44.73,72.28" fill="#68c8c6"/><path d="M118.78,163.38l-10.09-61.53a3.86,3.86,0,0,0-3-3.32,4,4,0,0,0-4.29,1.6l-40,55.46,8.74,2.06,16.08-23,24.45,31.5a5,5,0,0,0,2.89,2.19,4.29,4.29,0,0,0,5.26-3.17,5.69,5.69,0,0,0,0-1.82m-16.07-52.31L109.05,152l-18.63-23.4,12.28-17.53Z" fill="#fff"/></g><g id="Layer_6" data-name="Layer 6"><path d="M217.78,551.9c.28-5.74-2.49-11.13-4.66-16.31-1-2.41-1.9-4.92-3-7.28-1.55-3.19-3.15-4.25-6.31-5.6V535.2c21.2-9.73,43.11-15.59,66.15-18.9,8.29-1.19,7.85-14.73,0-16.31-12.64-2.54-27-1.33-37.88,6.17-7,4.86-3,18.1,6.24,14.79,17.07-6.13,36.53-8,54.55-7.58V497.44l-11.13.27V514c16.34-1.48,32.74-2.65,49-4.59,4.7-.56,8.77-3.63,8.77-8.77,0-4.4-4-9.21-8.77-8.77-16.38,1.53-32.7,3.83-49,5.82-4.37.53-8.15,3.36-8.15,8.15,0,4.22,3.73,8.39,8.15,8.15l11.13-.62c10.17-.57,10.34-16,0-15.94a240.09,240.09,0,0,0-29.68,2c-9.91,1.33-19.42,3.81-29.17,5.9l4.3,15.61c8.83-3.58,17.51-6.22,27.15-4.65V500c-23.72,4.32-47.19,12.41-69,22.72-6.29,3-3.38,11.12,1.73,13.22q1.51.63,3,1.23l-4.3-3.3c3.37,7,6.23,16.48,12.44,21.52,3.3,2.68,8.19,1,8.4-3.48Z" fill="#5bbdbf"/><path d="M329,502.59c2.61-2.42,7.46-3.5,10.73-4.74,4.29-1.62,8.66-2.89,12.91-4.59,8.71-3.48,17.34-6.4,25.55-11.06,17.37-9.85,33.9-21.8,50.4-33L420.27,435c-8.14,6-16.46,12.31-26.06,15.78l6.52,15.47a194.76,194.76,0,0,0,32.72-25.55A191.31,191.31,0,0,0,447,425.85c4.45-5.41,9.38-11.09,12.58-17.35,4-7.91-6.47-17.41-13-10-4.21,4.82-7.68,10.26-11.8,15.17a198.32,198.32,0,0,1-42.68,37.93c-7.59,4.94-2.91,19,6.52,15.47,11.1-4.2,20.48-10.76,29.87-17.9,3.53-2.69,5.39-7.09,3-11.26-2.1-3.59-7.6-5.52-11.26-3-17.85,12.53-34.94,26.87-54.39,36.91-8.79,4.54-18.09,6.25-27.2,9.75-7.15,2.75-21.77,8.62-19.45,18.38,1.06,4.44,6.66,5.44,9.76,2.58Z" fill="#5bbdbf"/><path d="M210.72,544.49c-1.32,4,0,7.55.65,11.5.3,1.85.23,3.79.67,5.56-.22-.9,3.93-3.1-1.09-.56-7.86,4-8.19,17.06,1.75,18.81,3.7.65,8.33-.37,10.15-4.13l.23-.47c4-8.3-4-16-12.19-12.19q-1,.47-2.07,1c-6.27,3-4.91,14,2,15.23q2.31.58.64-.06a17,17,0,0,1,1.11,1.8c.82,1.44,1.47,3,2.17,4.46,1.31,2.81,2.48,5.66,3.73,8.5,2.87,6.48,6.92,12.12,10.9,18A184,184,0,0,1,240,628.77c3.19,6,5.22,12.05,7.27,18.47s11,5,11.51-1.56c1.3-15.59-8-30.83-15.74-43.63-4-6.66-8.47-13-12.55-19.65-4.23-6.88-5.8-14-13.27-18.43L213,579.5q1.18.07,2.36.1l-6.3-15.21-.36.37,8.75-2.31-.6-.12,4,2.31-.52-.48,2.64,6.36-.05-.66-2.64,6.36q-3.13,1.88.76,0a4.49,4.49,0,0,0,1.7-.89,14.82,14.82,0,0,0,6.62-15c-.77-4-3-6.44-5.52-9.57s-4.08-6.61-7.9-8.37a3.63,3.63,0,0,0-5.23,2.13Z" fill="#5bbdbf"/><path d="M254.63,643c3.79,8,18.64-.81,23.31-3.37,8.32-4.56,15.55-10.84,22.76-16.93,14.09-11.89,27.67-24.46,40.71-37.48,26-25.94,50.95-53.64,70.42-84.89,5.4-8.66,11.49-17.87,14.66-27.64,3.23-10,.92-23.24-10.15-26.77-7.77-2.48-11.51,7.15-7.25,12.46,5.17,6.46.86,12.78-2.62,19.17q-5.88,10.79-12.42,21.2a389.25,389.25,0,0,1-28.86,40.53c-21.21,25.62-45.64,48.27-71.05,69.65-7.37,6.2-14.69,12.45-22.61,18-4,2.79-8.5,4.78-12.55,7.47-2.67,1.78-6,5.17-4.34,8.64Z" fill="#5bbdbf"/><path d="M421.34,443.88a7.32,7.32,0,0,0,.7,5.28c.4.68,4.09,4.6,5.1,3.41-1.13,1.34-2.34-7.3-3.73-3.58a6.65,6.65,0,0,0-.2,2.09c0,2.51,1.06,4.67,1.64,7v-4.51l.11-.17,3.06-3.06.4-.18,6.61.86-.69-.5c-8.08-5.93-17,6.69-10.41,13.5,3,3.13,6.19,4.16,10.39,4.71l-7.5-13.07a36.06,36.06,0,0,0-2.31,5.12c-2.24,5.88,4.76,13.1,10.71,10.71,2-.79,3.88-1.65,5.78-2.57l-11.64-11.64q2.12-1.37-.28-.58l6.48,15.38c7.6-5.51,17.36-10.7,23-18.37,5-6.87,5.86-15.93,3.74-24-1-3.75-2.5-8.51-5.32-11.32a10.45,10.45,0,0,0-14.35-.26c-6.68,5.89-11.69,15.31-15.4,23.28-4.24,9.11,4.37,18.17,13.63,13.63,7.61-3.72,12.92-11.17,15.14-19.2,2.15-7.77-7.42-16.74-14.74-11.33-6.26,4.62-14.19,12.12-13.36,20.68.77,8,9.43,12,15.68,6.5,3.22-2.84,4.29-7.26,7.8-9.86L436.6,430.53c-1,3.49-2.83,5.48-5.85,7.33l14.64,11.25c2.11-6.3,4.94-13.67,9.49-18.65L451,432.69l1.29-.37-6.66-.87.82.47-3.09-3.09c3,4,4.37,10.08,1.58,14.56-1.69,2.72-4.92,4.59-7.44,6.45l-10.48,7.74c-7.54,5.57-3.26,17.42,6.48,15.38a17.53,17.53,0,0,0,9.17-5.34c5.65-5.91.09-16.89-8.28-14.22-1.31.42-2.58.82-3.86,1.33l10.71,10.71.51-1c3.43-6.25-1-12.32-7.5-13.07l1.76.51-10.41,13.5c4.49,3,10.1,1.46,13.37-2.48,4-4.78,1.94-8.87.26-13.84-1.1-3.25-1.2-6.93-4.88-9.1s-8.56-1.18-11.55,1.62l4.31-1.78-.48,0c-2.22.1-4.94,1.63-5.33,4.06Z" fill="#5bbdbf"/><path d="M458.06,422.73c.53-1.32,1-2.69,1.56-4a19.82,19.82,0,0,1,1.17-2c.82-1.33-.06.21-1,.5h-3.89l.38.06L453,415.35c-2.2-2-1.45-5.14-1.33-2.43,0,.6,0,1.19,0,1.79a17.37,17.37,0,0,0,1.32,6c2.5,5.91,8.73,8.79,14.65,5.67a8.53,8.53,0,0,0,4.24-7.4v-.44a8.25,8.25,0,0,0-8.12-8.12,4.62,4.62,0,0,0-1,0l4.39,1.19c-1.12-.75,1.05,1.06,1.23,1.38,1,1.82.3.71.06,0-.33-1-.65-2.1-1-3.13a12.29,12.29,0,0,0-3.09-5.2c-2.5-2.33-6.79-3.14-9.8-1.2a8.51,8.51,0,0,0-3.93,6.07,19.85,19.85,0,0,0,.1,3.19c0-1.08-.13,1-.13,1.18,0,3.28.54,6.73,2.47,9.43a2.81,2.81,0,0,0,5.05-.66Z" fill="#5bbdbf"/><path d="M460.07,418.32a8.27,8.27,0,0,0-8.54,8.43c0,5.81,5.31,8.93,10.52,9.3,6,.42,10.21-1.85,13.32-6.84a38.57,38.57,0,0,1,9.1-10.52L474.2,405.38q-3.08,2.86-6.18,5.7c-7.35,6.76,2,18.19,10.45,13.54a44.68,44.68,0,0,0,22.29-32.06,54.42,54.42,0,0,0-1.83-22.81c-1-3.43-2.74-6.53-3.82-9.88a58.45,58.45,0,0,1-2.22-11.7c-.52-4.79-4.12-7.87-9-6.87-11,2.23-22.73,4.8-31.56,12.24-8.46,7.14-10.22,18.25-11.56,28.61L453.19,375c-1.26-.89,0-3.76.59-4.62,1.8-2.48,5.62-3.54,8.47-3.84l-5.76-13.91c-7.55,7.46-12.26,17.1-12.63,27.8s5.41,20.06,5.84,30.49l17-4.6a14.46,14.46,0,0,1,.2-12.48l-14.52,1.87c1.24,1.12,1.09,4.09,1.4,5.8a21.84,21.84,0,0,0,3,8c3.86,6,11.19,8.69,17.86,5.9,12.84-5.38,14.28-25.21,13.21-37-.59-6.56-1.63-15.41-5.78-20.81C476.45,350.31,468,353,462,358c-9.89,8.36-13.66,22.68-10,34.94,2.39,8,11.29,9.34,17.26,4.56,6.67-5.34,9.78-13.09,10.61-21.39.89-8.94-12-13.72-17.72-7.34-6.5,7.22-15.67,26.85,0,30.17,5,1,8.87-.82,11.75-4.78l.41-.56c3.31-4.55.77-11.6-3.73-14.24-5.25-3.07-10.94-.83-14.24,3.73l-.41.56,11.75-4.78-.79-.16,7.27,7.27c1.12,2.8-.29,2.74.68.47a11.28,11.28,0,0,1,2-3l-17.72-7.34c-.29,3-2.31,5-4.45,6.78l17.26,4.56c-1.86-5.76-.38-13,5.48-16l-5,1.36,1.12,0-7-2.91c-1.14-.93-.42-.92,0,.68.4,1.43.85,2.83,1.19,4.27a38.92,38.92,0,0,1,1.05,7.07c.27,5.33-1,9.88-1.56,15,0,.17-.64,1.5-.61,1.55-.12-.21,5.31,1.19,5.66.58.25-.43-.52-2.65-.62-3.25-.87-5-2.19-9.73-6.15-13.25-4.13-3.66-11.76-3.79-14.52,1.87-4.92,10.08-5.11,21,0,31,4,7.84,17.68,4.39,17-4.6-.74-9.33-4.95-17.36-6.62-26.41A22.22,22.22,0,0,1,468,364.15c4.91-4.61,1.34-14.47-5.76-13.91-9.58.76-19.73,4.55-24.09,13.81a19.9,19.9,0,0,0,6.68,25.23c5.73,3.93,11.79-1.5,12.45-7.14.74-6.37,1.64-13.43,7-17.67a47.45,47.45,0,0,1,21.46-9.18l-7.13-7.13c-1.16,12.75,5.06,25,5.15,37.67.07,9.94-5.62,18.84-14,23.89l10.45,13.54q3-3,6-5.9a8.6,8.6,0,0,0,0-12c-3.54-3.54-8.39-2.86-12,0a46.11,46.11,0,0,0-13.89,17.79l2.88-2.88c-1.52.81.51,1-.86.26l3.3,4.29-.1,1.78-3,3.94.77-.45c5.6-3.29,2.93-11.48-3.19-11.79Z" fill="#5bbdbf"/><path d="M412.69,458.89c-7.67.18-14.86,3.09-21.67,6.47s-12.56,8.12-19.06,12a151.33,151.33,0,0,1-42.44,17.45l8.06,19.12c12.12-9,24.85-13.07,39.42-16.31s27.94-8.5,36.87-21c6.59-9.22-8.76-21.25-15.84-12.23-20,25.52-42.8,48.84-66.21,71.25-4.23,4.05-4.08,11.26,0,15.34,4.45,4.45,10.83,3.77,15.34,0,12.71-10.65,25.3-21.44,37.94-32.18l-14.64-14.64c-25.77,29.26-53.27,57.39-86.31,78.41l13.21,17.12a102,102,0,0,1,22.52-15.09L306,570.65c-8.56,11.23-19.66,21.1-31.27,29.07-11,7.59-24.46,14.42-27.59,28.72l20.61,2.79a5.53,5.53,0,0,1,1.21-2.67l-19.52-5.29c.57,4.91,1.63,9.21,4.3,13.45,2.76,4.39,9.64,7.21,14.31,3.75,23.39-17.32,46.65-34.86,65.28-57.45,18.4-22.31,32.52-47.27,46.92-72.22,4.94-8.56-5-18.71-13.6-13.6-39.19,23.22-71.69,55.48-103.6,87.57l15,15c25-25.65,49.62-51.6,74.42-77.4,5-5.18,3.43-15.92-4.58-17.34-11.17-2-18.71,5.28-26.72,12a243.08,243.08,0,0,0-19.29,18,260.17,260.17,0,0,0-33.38,43.13c-6.3,10.15,8.13,21.19,16.47,12.71a290.49,290.49,0,0,0,48.68-66.08A10.67,10.67,0,0,0,332,512.19c-7.51-7.68-17-3.16-24.27,2a117.81,117.81,0,0,0-19,16.62,120.33,120.33,0,0,0-25,42.62c-1.45,4.29,1,9.44,4.74,11.65,4.15,2.43,9,1.4,12.5-1.61a25.11,25.11,0,0,0,7.58-12.11c3.85-12.73-16-18.17-19.89-5.48-.47,1.55-1.07,2-2.27,3l17.24,10a93.87,93.87,0,0,1,16.12-29.39,105.24,105.24,0,0,1,11.93-12.31,79.85,79.85,0,0,1,6.47-5.14c1.2-.85,2.9-1.57,3.88-2.61,1.65-1.75,1.8.23-.94-.76l-4.58-2.67.77.8-1.62-12.58A276,276,0,0,1,270.07,576l16.47,12.71a232.64,232.64,0,0,1,26.51-35.26q7.48-8.17,15.68-15.63,4.1-3.73,8.36-7.26c1.31-1.09,2.63-2.17,4-3.22a20.34,20.34,0,0,1,1.89-1.44q3.06-1.42-.64-.9l-4.58-17.34c-24.91,25.69-50,51.25-74.72,77.09-9.42,9.84,5.43,24.76,15,15,30.38-31.18,61.12-62.74,98.66-85.37L363,500.77c-13.27,23.36-27.09,47-44.29,67.71-17.59,21.17-39.23,37.73-61.29,53.93l14.31,3.75a7.26,7.26,0,0,1-1.41-2.89c-1.12-10.06-13.56-14.6-19.52-5.29a27.29,27.29,0,0,0-4.11,13.24c-1,11.78,18.06,14.28,20.61,2.79,1-4.34,4-7,7.56-9.68,5.48-4.06,11.27-7.64,16.67-11.82A203.14,203.14,0,0,0,321.93,583c7.75-9.12-1.76-20.57-12.33-16a115.67,115.67,0,0,0-27.67,17.25c-9.7,8,2.75,23.23,13.21,17.12,35.61-20.81,62.43-52.61,90-82.58,9.18-10-4.45-22.94-14.64-14.64-12.88,10.49-25.82,20.91-38.63,31.48L347.16,551c23.68-22.33,44.79-47,65.14-72.32l-15.84-12.23c-6.87,9.4-21.54,10.57-31.92,12.82A97.1,97.1,0,0,0,327,495.82c-9.21,6.83-4.13,22,8.06,19.12,15.14-3.54,30.48-9.2,43.65-17.56a143.34,143.34,0,0,0,18.41-13.61c5.76-5.12,9.14-10.59,17.25-12.26,7.12-1.47,5.48-12.78-1.71-12.61Z" fill="#5bbdbf"/><path d="M287.35,515.63c-20.4,12.9-36.44,31-45.92,53.32-4.31,10.12-11.19,25.42-.94,34.26,11.61,10,24.34-6.33,29.19-15.68,5.57-10.74,7.93-23.53,5.41-35.47-1.24-5.9-5-11.73-11.05-13.54-7.38-2.21-13.76,2.62-18.1,8a59.25,59.25,0,0,0-6.22,63.57c3.46,6.7,9.18,14.55,17.91,12.15,8.31-2.29,9.85-10.81,10.56-18.17a196,196,0,0,0-2.06-50.34c-1.37-8.42-15-10.1-18.61-2.43a74.71,74.71,0,0,0-6.2,44.68c1.17,6.89,3.35,14,7.65,19.63,4.94,6.41,14,11.11,21.74,6.32,6.53-4.06,7-11.63,6.13-18.48a148.41,148.41,0,0,0-5-23.8,153.3,153.3,0,0,0-8.11-20.92c-3.24-6.89-6.87-13.14-14.59-15.54-5.09-1.58-11.53,1.87-12.67,7.19a87.34,87.34,0,0,0,3.6,50.09c1.83,4.7,5.81,8.06,11.12,7.26,4.45-.67,9.45-4.9,8.79-10a140.59,140.59,0,0,0-6.15-27.93c-2.72-7.86-6-16.88-14.7-19.76-9.06-3-16.7,3.6-18.18,12.39-1.6,9.48,0,18.36,3.95,27.06,1.85,4.08,7.55,5.83,11.6,4.72a10.6,10.6,0,0,0,7.54-9.91,109.44,109.44,0,0,0-2.41-29.29c-.94-4.4-5.62-7.59-10-7.59-4.94,0-8.17,3.33-10,7.59a76.15,76.15,0,0,0-5.37,22.47c-1.14,11.61,18,14.16,20.39,2.76,1.27-6.09,2.35-12.21,3.21-18.37.79-5.7,2.06-11.78,1.81-17.56s-2.2-10.82-6.52-14.58a42.13,42.13,0,0,0-5.95-4.12,14.28,14.28,0,0,0-1.92-1.17q.83.75.08,0-2-2.06,1.27,3.58c-.63-5.66-4.39-10.55-10.55-10.55a10.68,10.68,0,0,0-10.55,10.55c0,10.95,8.57,17.49,18.15,20.68,5.62,1.87,11.86,2.76,17.09-.65,4-2.58,6.82-6.51,10.85-9.09,15.3-9.79,34.47-11.07,52.11-12.22,13.48-.88,13.73-21.61,0-21.18-20.45.64-40,5.24-59.74,10.39-11.94,3.12-9.81,22.61,3,21.91,17-.93,34-2.48,50.9-4.4l-3-21.94a114.34,114.34,0,0,0-58.41,29.62c-8,7.54.23,22.71,11,18.94,16.62-5.79,33.11-12,49.65-18l-10.68-18.34c-9.88,8.13-20.34,16.52-32.38,21.2l13.61,13.61c3-7.3,6.31-14.55,9-22s1.23-15.85-5.89-20.12c-5.93-3.56-12.6-2.76-19-1.36-7.52,1.63-15.07,3.21-22.55,5l8.68,20.6a84.59,84.59,0,0,1,16.41-9.54c4.38-1.93,6.23-8.12,5.05-12.42-1.36-4.94-5.74-7.63-10.6-8.07-13.31-1.19-27.25-.27-39.92,4.25-11.53,4.11-10,21.34,2.94,21.71l9.41.27c5.82.17,10.78-5.08,10.78-10.78,0-6.25-5-10.27-10.78-10.78l-9.41-.82,2.94,21.71c11.3-3.3,22.26-4.94,34-3.58L248,511.21a96.87,96.87,0,0,0-19.31,10.17c-10.44,7.29-4.15,23.29,8.68,20.6,5-1.05,10-2.25,15-3.39,2.5-.57,5-1.16,7.5-1.71,1.69-.37,3-.45,3.11-.52q1.26,0-.08,0-4-11.45-5.57-5.54c-1.4,1.83-2.09,5.19-3,7.34l-5.9,14.67c-3,7.49,6.14,16.57,13.61,13.61,15.87-6.3,28.78-16.45,42-27,8.58-6.85-.69-21.79-10.68-18.34-16.61,5.75-33.3,11.32-49.84,17.28l11,18.94a91.89,91.89,0,0,1,48.32-24.1c12.27-2.12,9.58-23.31-3-21.94C283,513.08,266,514.48,249,515.67l3,21.91c17.56-4.87,35.49-10.09,53.81-10.72V505.67c-13.59.93-27.42,2-40.59,5.73a87,87,0,0,0-19,7.66,62.79,62.79,0,0,0-7.31,4.86c-2.64,2-5.24,5.3-8,7l5.29-1.43a13.73,13.73,0,0,1-6-1.23c-.8-.32-1.67-1.11-1.9-1.08-.91.1.38-.37.37,1H207.63c.63,5,2.14,9,6.12,12.3a46.05,46.05,0,0,0,5.94,4c.49.3,1.63.73,1.94,1.21-.16-.24-.62-.52-.63-.68.33,3.95-.8,8.85-1.33,12.85-.75,5.7-1.79,11.37-2.93,17l20.39,2.76a58.7,58.7,0,0,1,4.54-17H221.73a88.34,88.34,0,0,1,1.79,23.8l19.14-5.18a22.11,22.11,0,0,1-1.88-7.43,19.25,19.25,0,0,1,.09-4.91c.11-.6,1-2,.46-1.24l-3.67,3.67q-9.54.37-6.38-.71.36-.16.42.54c.29.88.91,1.82,1.26,2.7,1.15,2.86,2.11,5.82,3,8.77a106.22,106.22,0,0,1,3.78,17.23l19.92-2.7a67.84,67.84,0,0,1-3.3-39.23l-12.67,7.19c-2.21-.7-1.37-1-.16,1.28,1.13,2.11,2.13,4.3,3.11,6.49a121.5,121.5,0,0,1,5,13.49,138.49,138.49,0,0,1,3.55,13.93c.44,2.19.85,4.39,1.16,6.6.13.9.14,1.85.32,2.74.74,3.72-3,0,2.73-3l5.21-1.41c1.36-.06.28.26-.2-1.42-.44-1.51-1.27-3-1.73-4.55a48.5,48.5,0,0,1-2-11.62,51.83,51.83,0,0,1,4.44-24l-18.61-2.43A170,170,0,0,1,248.77,584q.12,6.21-.18,12.42-.14,2.86-.37,5.72-.15,1.91-.35,3.81-.43,2.17,2-2.1l5.07-1.37-1,0,5.07,1.37c2,1.23.15-.2-.6-1.44-.61-1-1.16-2-1.68-3.05a32.37,32.37,0,0,1-2.23-6.05,40.84,40.84,0,0,1-1.25-14,38.38,38.38,0,0,1,3.16-12.49,36.74,36.74,0,0,1,3.44-6.05,25.12,25.12,0,0,1,1.88-2.41l.92-1.06q2.44-2.22-1.18.16l-4.87-1.32c-.35-.15,0-1.49,0,1,0,1.67.31,3.35.29,5a34.89,34.89,0,0,1-1.4,9.48,35.47,35.47,0,0,1-3.91,8.85,30.63,30.63,0,0,1-3,4.18q-1,1.14-2.1,2.21-4,3.1,4.65.48l3.45,3.45c-1-1.29-.46.62-.47-1.46,0,.19.62-2.53.71-2.86q1.38-5.33,3.29-10.51A113.27,113.27,0,0,1,267,557.54a117.84,117.84,0,0,1,27.89-32.12c5.56-4.42-1.64-13.54-7.55-9.79Z" fill="#5bbdbf"/></g><g id="Layer_9" data-name="Layer 9"><path d="M90.58,245.5a136.73,136.73,0,0,0,11.95,18.57c6.15,8.33,20.24,3.78,17.43-7.35L118,249c-.44-1.73-.57-4.3-1.48-5.77q-.25-3.74-1.53-.2-2.25,2.87.2,1c1.74-.42,3.79-2.23,5.39-3.1,5.82-3.2,12.77-6.77,19.6-5.36,11.11,2.29,18.14-12.47,7.88-18.69l-5.24-3.17-8,18.9a28.61,28.61,0,0,1,15.49,9.51l7.73-18.65A77.6,77.6,0,0,0,135,227.67c-7.42,2.71-16.29,6.2-20.77,13.13-4.28,6.62-4.19,14.88-1,21.91s9.2,11.63,15.39,15.93c10.57,7.34,23.51-9.36,13.8-17.89q-8.29-7.28-16.67-14.44c-6.45-5.48-16.53-3.68-19.05,5-5.84,20.19,11.68,34.58,29,39.78,17.68,5.31,36.32,3.65,54.47,5.15a68.91,68.91,0,0,1,22.22,5.26c7.82,3.46,15.36,7.92,23.74,9.93,9.64,2.31,19.83,1.88,27.51-5,6.54-5.88,10.93-15.33,14.55-23.19,2.42-5.25,5.31-10.65,4.05-16.6-1.33-6.3-6-10.24-12-12.16-10-3.22-23.38-3.89-33.3-.23-11.2,4.13-10.16,21.61,2.93,21.64,4.75,0,9.48-.5,14.23-.3,3.35.14,8.11.5,10,1.93l-4.22-4.22-.32-.4v-6.26c-1.25,6.51-5.75,13.13-9.19,18.7-.51.83-2.1,3.63-2.65,3.89-1.69.8-5.83-.54-7.65-1.09-6.3-1.91-12-5.31-18-7.93a84.89,84.89,0,0,0-21.81-6.3c-15.29-2.23-30.73-1.35-46.07-2.93-6.3-.65-28.57-3.49-25.46-13.59l-19.05,5q8.28,7.29,16.68,14.43L140.12,259c-2.78-1.89-4.49-4.19-6.79-6.38,1,.92-2.62-1.18.1-1.05,2.49.11-3.82,3.67,1.26.69a54.41,54.41,0,0,1,23.39-6.94c9.43-.67,14.43-11.46,7.73-18.65a46.77,46.77,0,0,0-25.45-14c-5-1-10.18,1-12.2,6-1.87,4.65-.35,10.36,4.23,12.91l5.35,3,7.88-18.69c-14.07-2.36-26.24,2.55-38.13,9.75-5.93,3.58-11.12,7.78-11.25,15.34-.12,6.77,3.46,14.46,5.33,20.88l15.94-9.28a137.21,137.21,0,0,0-15.22-16.05c-6.36-5.54-15.68,1.33-11.71,9Z" fill="#fff"/><path d="M130.72,247.14c2.46,17.32,14.35,31.25,29.92,38.7,11.8,5.64,22.3-7.85,13.81-17.89-3.56-4.21-7.2-8.3-10.93-12.36l-5.24-5.72a19.84,19.84,0,0,0-2.62-2.86c-3.15-2.22,4.48-1.09-1.16,6.68L147.57,259l.8-.29h-6.17q-2.38-1.44.72.31l3.47,1.88c2.31,1.25,4.63,2.5,6.94,3.76,4.33,2.37,8.64,4.76,13,7.15l26.78,14.77c13.46,7.42,24.75-12.18,12-20.51-15.09-9.84-30.28-19.51-45.45-29.22-5.4-3.46-13.09-1.11-16.23,4.26-3.53,6-.91,12.41,4.26,16.23,22,16.26,47.68,25.81,74.7,29.29,5.75.74,11-5.07,11.63-10.27.75-6.34-2.88-10.63-8.48-13-15-6.33-29.81-13.32-44.37-20.68l-9,21.45a272.29,272.29,0,0,0,46.45,9.15c9.76,1.08,16.08-13.93,8.32-20.1-9.79-7.78-20.73-12.47-32.46-16.61-9.11-3.22-18.17-6.53-24.86-13.78L158.3,242.09A147.45,147.45,0,0,0,210.23,250c8.18-.23,14.05-9.29,9.55-16.65l-.1,4.6q-1.85,1.64-.37.68c-.77.09,3.86-1.63,1.9-.89l-8.52-20.22-7.57,4.7,13.38,17.34c7.91-7.27,19-8.56,29.44-10.3,12.27-2.05,24.24-4.1,35.43-9.86,5.42-2.79,7-10.38,4-15.44-3.3-5.64-9.91-6.67-15.44-4a315.4,315.4,0,0,0-37.52,21c-11,7.2-25.57,15-29.22,28.67-2.59,9.65,8,17.58,16.62,12.78,15.3-8.54,30.45-17.36,45.33-26.61l-14-18.11a268.52,268.52,0,0,1-23,18.52c-5,3.6-7.41,9.91-4.09,15.58,3,5.07,10.44,7.52,15.58,4.09a240.07,240.07,0,0,0,27.81-21.88c9.7-8.79-2.87-25-14-18.11-14.89,9.25-29.89,18.3-45.11,27l16.62,12.78c.77-3,4.61-5.34,7.48-7.41q7.8-5.61,15.94-10.73a321,321,0,0,1,32.89-18L272,199.88c-10.29,5.32-22.88,6.23-34.33,8.4-12.71,2.41-25.06,6.86-34.77,15.64-9.33,8.43,2.73,23.86,13.38,17.34l7.59-4.67a11.1,11.1,0,0,0,4.53-13.81c-2-4.65-7.82-8.39-13.05-6.41-5.55,2.1-11.07,4.53-14.33,9.8a17.23,17.23,0,0,0-.32,18.31l9.55-16.65a116.43,116.43,0,0,1-45.81-8c-4.69-1.8-10.62,1.2-13,5.29-2.71,4.64-1.56,10,1.8,14,7.62,8.86,18.19,13.86,28.85,18.08,9.37,3.71,20,6.38,28.11,12.68l8.32-20.1a207.88,207.88,0,0,1-40.22-8.24c-12.58-3.85-20.93,15.25-9,21.45,16.3,8.5,33,16.14,49.92,23.25L222.31,263c-22.83-2.92-44.36-12.41-62.72-26.1l-12,20.49c15.13,9.77,30.23,19.59,45.44,29.23l12-20.51-28.72-15.37c-4.64-2.48-9.29-4.95-13.92-7.46-4.45-2.42-9.09-5.75-14-6.92-13.65-3.21-19.59,12.77-12.92,22.6,3.22,4.75,7.75,8.87,11.6,13.11,3.7,4.07,7.44,8.07,11.29,12l8.06-19.45c-10.16-1-19.86-11.18-23.2-20.91-2.76-8.06-13.62-4.66-12.48,3.44Z" fill="#fff"/><path d="M399.69,419.85c-6.31,4.37-12.16,9.32-18.56,13.56-4,2.64-5.92,7.49-3.93,12,1.76,4,6.82,7.35,11.35,5.57s8.8-3.78,13.18-5.74c4.76-2.13,5.89-9,3.46-13.2-2.87-4.9-8.42-5.59-13.2-3.46a336,336,0,0,0-35.25,18.23c-9.17,5.47-3.23,20.86,7.4,17.56l18.39-5.7-5.11-18.53a313.55,313.55,0,0,0-43.31,20.7c-7.57,4.38-4.68,17.71,4.63,17.11a62.19,62.19,0,0,0,20.9-5.11c9.22-3.92,2.64-19.3-6.83-16.19-11.65,3.82-21.89,11.81-34,14.22-7,1.39-14.27.4-21.28-.11a159.83,159.83,0,0,0-21-.12,298.71,298.71,0,0,0-40.71,5.28c-12.15,2.41-24.32,6.67-32,16.91-4.91,6.57,4.78,16.09,11.35,11.35,9.1-6.56,18.18-9.62,29.2-11.49a259.69,259.69,0,0,1,39.73-4c13.34-.18,27.08,2,40.24-1,11.81-2.7,21.66-10.25,33.07-14l-4.71-17.09a41.83,41.83,0,0,1-14.07,2.94l4.63,17.11a376.47,376.47,0,0,1,39.15-18c4.83-1.89,8.19-6.45,6.71-11.82-1.35-4.9-6.84-8.25-11.82-6.71L359,445.84l7.4,17.56a309.66,309.66,0,0,1,35.29-18.16L392,428.58c-3.63,1.58-7.3,3.08-10.85,4.82l11.65,15.1c6.32-5.75,12.12-11.77,16.27-19.3,3.1-5.63-3.46-13.46-9.36-9.36Z" fill="#fff"/><path d="M202.92,518.41c8.74-2,16.46-8.74,24.72-12.23,8.93-3.77,18.06-5.55,27.52-7.27,10.38-1.88,20.87-3.11,31.29-4.78,10.78-1.72,23.63-2.82,33.35-8,7.59-4.07,4.5-17.7-4.57-16.86-5.8.54-11.4,2.48-17.1,3.68s-11.74,2.21-17.64,3.13c-11.18,1.75-22.33,3.44-33.29,6.31a151.91,151.91,0,0,0-28,10.55c-8.35,4.12-19,10.44-21.8,20a4.55,4.55,0,0,0,5.54,5.54Z" fill="#fff"/><path d="M211.65,506c.86-8.5.92-17.6-1.71-25.82a87.83,87.83,0,0,0-12-23.48c-7-9.93-20.74-1.51-16,9.37A138.32,138.32,0,0,1,190,492.74c1,5,6.88,7.85,11.56,6.56,5.43-1.49,7.26-6.51,6.56-11.56-2.1-15.32-10.24-29.07-20.65-40.34-7-7.52-17.69,2-13.54,10.45l9.16,18.57,15.76-9.21c-3.83-5.64-7.74-11.21-11.39-17-6.39-10.06-20.22-1.33-15.63,9.14a53.92,53.92,0,0,0,7.7,12.11c5.52,6.89,18.2-.55,15-8.75-3.41-8.82-8.82-16.24-15.09-23.26s-13.25-13.24-23.33-11.73l2.7.35c-1.42-.88-2.85-1.73-4.28-2.58-2.9-1.72-6.39,2.5-3.69,4.79,1.27,1.08,2.5,2.18,3.73,3.3l-1-2.48c1.19,15.24,18,22.78,23.65,36.4l15-8.75a25.08,25.08,0,0,1-3.87-6.37l-16.54,7a198.92,198.92,0,0,0,11.26,17c6.89,9.15,21.63,1.35,15.76-9.21l-10-18.06L175.3,459.6c8.43,8.28,13,18.92,14.39,30.65l18.46-2.5a137.58,137.58,0,0,0-10.22-31l-16,9.37a106.22,106.22,0,0,1,11.35,20.22c3.06,7,6.39,13.72,8.64,21,1.73,5.6,9.21,4.12,9.76-1.32Z" fill="#fff"/><path d="M146.89,431c10.8,9,27.87,9.74,38.63.58,5.43-4.62.72-12.91-5.47-13.2a19.09,19.09,0,0,0-11.79,3.47c-7,4.76-2.88,17.83,6.14,14.58,10.9-3.92,22.29-12.42,17.3-25.56a25.08,25.08,0,0,0-11.38-12.57,94.18,94.18,0,0,1-9.39-5.34c-3.16-2.1-5.88-4.52-9.65-5.36-4.95-1.1-10.25,4.37-7,9.16,2.49,3.71,6.09,5.65,9.68,8.18a106,106,0,0,1,9.52,8c1.16,1,3.64,2.66,3.13,4.4s-4.91,3.1-6.43,3.69l6.14,14.58a7.73,7.73,0,0,1,3.74-1.78l-5.47-13.2c-6.41,7.16-16,1.5-23.88,1.15-4.44-.2-7.42,6.2-3.81,9.2Z" fill="#fff"/><path d="M134.77,392l-.3.37a4.84,4.84,0,0,0-.73,5.64c1.23,2.06,2.68,2.72,5,2.9,1.49.11,2.48-.38,4,0,2.21.5,4.36,1.43,6.55,2,3.77,1,7.63,1.83,11.43,2.73,4.37,1,7.11,1.94,11.25-.24,3.39-1.79,3.22-6,1.11-8.61-2.59-3.18-6-3.36-9.82-4-3.5-.62-7-1.31-10.52-1.83a67.53,67.53,0,0,0-10.21-1.05,11.3,11.3,0,0,0-4.59,1c-.67.3-4,1.76-1.13.66l3.68.48-.47-.34,2.14,5.26.12-.48c1-4.08-4.6-8.15-7.6-4.42Z" fill="#fff"/><path d="M142.74,398.17c6.54,5.3,16.46-1.94,22.32-5.67a89.14,89.14,0,0,0,19.16-15.87c5.31-6,12.65-14.39,11-23C193.61,345.36,188,336,180,333c-5.33-2-10,3.88-8.76,8.76.91,3.68,2.59,6.25,4.52,9.44a24.23,24.23,0,0,1,2.72,4.82c.34,1.12,1.53-1.34-.31,1-4,5.15-7.28,10.15-12.15,14.66a140.35,140.35,0,0,1-15.32,11.92c-2.53,1.77-5.6,3.57-7.57,6-1.74,2.1-3,6.41-.36,8.54Z" fill="#fff"/><path d="M104.45,273.36c-1.24,10.2,3.82,20.87,10.55,28.29,7.42,8.18,17.78,11.59,26.54,17.88,7.75,5.56,13.93,13.27,19.54,20.89,4.77,6.49,13.32,15.19,10.65,24-2.12,7,8,13.71,12.93,7.53,3.81-4.75,5.68-9.23,5-15.4a42.18,42.18,0,0,0-5.87-16.29A148.46,148.46,0,0,0,163,313c-8-8.43-17.67-13.51-27.32-19.73-9.09-5.85-13.45-14-18.07-23.48-3.42-7-12.38-2.59-13.13,3.56Z" fill="#fff"/><path d="M140.55,308.44c22,9.21,45.74,13.88,69.47,15.48,4.59.31,10.17-3.74,11-8.38,2.27-12.54-7-18.41-17.73-21.11-10.25-2.57-20.52-5.08-30.71-7.84l-3,21.81c14,.46,31.62.09,43.67,8.39,10.42,7.17,3.45,26.87,2.12,36.94-2.08,15.7.59,30.62,8.89,44.24,7.66,12.57,18.45,22.88,29.81,32.08,8.2,6.63,19.35,2.31,20.25-8.39,1.57-18.59-9.76-34.48-19-49.54a507.63,507.63,0,0,1-26.84-50.2c-2.78-6-12.28-6.86-16.5-2.13-23,25.84-18.85,64.29,4.82,88.26,11.73,11.88,27.31,20.12,43.38,24.35,17.85,4.7,36.46,4.27,54.64,6.7,16.22,2.17,33.46,6.42,46.06,17.48l5.22-19.77c-4.87,1.51-9.46,3.88-14.38,5.16q-7.83,2-15.68,4-15.24,3.84-30.64,7c-20.14,4.11-40.46,7.42-60.89,9.74-6.16.7-11.48,4.78-11.48,11.48,0,5.66,5.28,12.2,11.48,11.48,21.83-2.52,43.55-5.88,65.05-10.45Q325,472,340.23,468c5.22-1.36,10.44-2.74,15.59-4.35,5.48-1.71,11.15-2.37,16.66-4,8.08-2.44,12.11-13.65,5.22-19.77-25.06-22.27-58.13-24.14-89.9-27-26.08-2.34-58-12.64-66.74-40.2-3.92-12.34-3.71-27.82,5.87-38l-16.5-2.13a509.67,509.67,0,0,0,23.67,47.65c7.23,12.81,17.87,26,16.55,41.48l20.25-8.39C260,404.4,249.12,394.65,242.58,382c-7.21-14-2.73-28.24-1.1-43.32,1.92-17.73-3.11-35.33-20.22-43.47-16.18-7.7-34-8.63-51.64-9-12.49-.26-15.12,18.67-3,21.81,6.72,1.73,13.39,3.59,20.07,5.44l9.54,2.65c1.36.38,3.34,1.4,4.77,1.32,2.58-.14-.54,3.39-1.87-3v-6.07l-.19,1.09,11-8.38c-21.92-1.39-43.38-4.89-64.88-9.27-11.14-2.27-14.64,12.42-4.59,16.63Z" fill="#fff"/><path d="M228.05,445c-8.06-6.57-15.46-.15-18.07,8.08-2.76,8.7-1.46,17.12,2.22,25.28,2.26,5,9.53,6.15,13.87,3.64,6.78-3.93,13.32-11.12,13.78-19.32.53-9.38-7.53-17.12-17-14-8.14,2.68-13.08,12.85-15.65,20.36-2.86,8.37-3.65,19.09,5.28,24.07,8.74,4.87,17.44-1.26,24.58-6.1a157.86,157.86,0,0,0,17.8-14,138,138,0,0,0,14.57-15.53c5.87-7.31,12.88-16.21,6.7-25.72-2.63-4-8.32-7.28-13.28-5.4-14.41,5.45-27.27,14-37.08,25.95-6.65,8.13-2.3,19.43,8.39,20.25,37.76,2.91,75.24-4.05,109.9-19.06,5.38-2.33,7-10,4.89-14.92-2.56-5.81-8-7.9-14.09-6.92L252.64,445,259,468l54.24-9.64,27.12-4.82c7.92-1.41,17-3,20.77-11.14,3.63-7.81-.56-18.2-10.3-18l-46.17,1.14-22.59.56c-3.71.09-7.45.3-11.16.26-.38,0-3.18-.17-2.5-.09s.33,0-1-.32a3.27,3.27,0,0,1,2.24,1.75l-7.13,17.52c19.55-7.53,41.31-2.25,61.2-8.87,5.6-1.86,9.44-7.06,8.54-13.08-1-6.35-5.64-9.54-11.71-10.34a204.25,204.25,0,0,0-57.52.91,180.55,180.55,0,0,0-27,6.16c-9.43,3-18.37,9.17-18.16,20.13.09,5.06,3.62,10.3,8.75,11.49a47.21,47.21,0,0,0,31.5-3.36c10.74-5.15,20.56-16.47,13.79-28.72-6.23-11.29-20-12.14-31-8.17a52.15,52.15,0,0,0-24.41,18.32c-6.32,8.55-12.64,22.8-3.42,31.63,8.56,8.2,21.47,3.12,29.78-2.72s15.39-13.71,17.32-23.83c2.3-12-2.55-24.82-15.2-28.42-11.86-3.37-24.62,1.35-34,8.61-9.9,7.66-16.37,18.4-22.24,29.27-3.34,6.18-.77,16.08,7.11,17.47,12.33,2.17,26.92,1.49,32.66-11.8,5.42-12.55-3.53-23.6-13.74-30-4.83-3-10.39-5.09-16.14-4.26-7.22,1-12.6,6.52-14.38,13.53A33.3,33.3,0,0,0,193,460.73c9.71,9.85,24.83-2.63,18.67-14.41a80,80,0,0,0-12-16.9c-9.21-10.07-25.37,2.85-18.67,14.41,5.07,8.75,12,19.52,21.09,24.53,11.74,6.49,23.73-.42,28.17-12,3.41-8.9,3.28-19.89,2.74-29.29A123.37,123.37,0,0,0,226.59,394c-3.76-10.92-19.43-11.63-22.91,0a83.16,83.16,0,0,0-.69,44.86c1.37,5.26,6.26,8.44,11.45,8.72,18.92,1,21.52-21.85,20.9-35.63-.71-15.94-4.61-33.56-13-47.34-5.92-9.69-18.88-9.67-24.89,0-4.19,6.73-5.33,16.69-4.81,24.41.57,8.42,2.61,17.88,8.3,24.41,6.26,7.2,17.48,9.43,24.56,2,6.92-7.27,5.13-19.48,3.49-28.47a67.76,67.76,0,0,0-10.25-25c-4-6.07-13.21-8.33-18.63-2.4a45.14,45.14,0,0,0-11.8,25.65c-1,8.65.12,20.51,6.79,26.9,4.77,4.57,11.79,6,17.65,2.55,5-2.93,6.71-8.62,7.22-14A35.4,35.4,0,0,0,211.12,374c-8.26-9-22.53-9.45-29.12,1.84-4.76,8.14-2.7,21.05,3.95,27.7,9.28,9.28,28.15,1.77,24.26-12.37-2.51-9.12-14.85-15.39-23.27-17.37-10.6-2.49-17.53,8.07-13.29,17.28,4.42,9.62,16.42,14.26,26.43,11.93a21.65,21.65,0,0,0,16.73-23.34c-1.23-11.92-11.89-22.18-24.42-19.05a22,22,0,0,0-13.5,10.34c-3.44,6.14-2.9,12.35-.17,18.54,2.93,6.65,14,7.77,18.51,2.39,11.29-13.41,17.67-29.64,17.7-47.26a12.08,12.08,0,0,0-8.7-11.43c-5.43-1.49-10.22,1.17-13.38,5.45C186.26,347.54,183,358,182.16,369c-.88,11.67,17,16.33,22.15,6a76.26,76.26,0,0,0,6.54-51.28c-1.11-5.09-6.49-8.78-11.53-8.78-5.69,0-9.49,3.84-11.53,8.78-4,9.69-.89,19.77,5.33,27.59,2.44,3.07,8,4.34,11.63,3.07,15.87-5.55,19.14-24.78,8.48-37-9.26-10.57-32-18-37.77-.08-1.31,4.06.2,8.64,3.07,11.61a40.13,40.13,0,0,0,28,12.21c9,.3,15-10.39,10.3-18a46,46,0,0,0-28.52-20.86C177,299.7,168,313.65,176.72,322.29s21.2,14.52,33.62,13.76c7.4-.45,14.5-4.61,16.42-12.23s-2-14.75-6.86-20.45c-3.08-3.64-10.49-4.79-14.44-1.86-7.31,5.42-10.77,15.22-4.42,23a15.63,15.63,0,0,0,23.37.83,12.15,12.15,0,0,0,0-16.84,53.32,53.32,0,0,0-14.12-10.69c-5.71-3-12.93-1.47-16.29,4.27-3.13,5.35-1.46,13.32,4.27,16.29a33.2,33.2,0,0,1,9.3,7V308.51l6.82-2,5.26,3.06,1.26,8.9-4.27,4.27.85-.63L203,320.23c1.9,2.25-.64.82.28-1.59l3.06-5.26q1.28-.61,2.6-1.12-1.57,0-3.13-.18a26,26,0,0,1-4.46-1.31,23,23,0,0,1-7.82-5.34L182,325.36c6.11,1.44,10.93,4.53,14.26,9.91l10.3-18a15.6,15.6,0,0,1-11.11-5.23l3.07,11.61.31-1L195.74,328l-6.58,1.93,1.11.31c.74.59,1.19.48,1.78.78a12,12,0,0,1,3.85,2.75c-.95-1,.08,1.24-.12-.19s-.37.41-.07.12c1.33-1.31-1.11-1,2.69-2.37L210,334.41c.91,1.15-.22-1.94-.09-.62-.15-1.51.13-1.81.91-3.72H187.81a50,50,0,0,1-4,32.92l22.15,6c.5-6.9,3.32-12.89,7.38-18.4l-22.08-6a47.43,47.43,0,0,1-10.67,30.59l18.51,2.39a5,5,0,0,1,.15,5.25q-1.14,1.06.39-.42c-2.39,1.66-3.72,1.38-6-.29q-.73-1.3-.1-.23t-.06-.23q0-1.88,0,.28.37-1.83-.16.25a4.55,4.55,0,0,1,2.09-2.28l-1,.29q2-.21-.13-.13,1.95.35-.13-.12,1.63.84-.18-.14,1.37,1.18-.09-.23,1.18,1.38.15-.4l-13.29,17.28a16.94,16.94,0,0,1,9.81,6.15l-3-11.47-.25.84,3-5.21-.63.61,5.21-3,5.44.61,4.24,4.24c-1.24-1.62-.15.45-.77-1-.22-.54-.33-1.9-.7-2.3,2.6,2.75-9.67,3.14-9.7,3.72,0,.1,1.2,1.59,1.35,1.82a11.62,11.62,0,0,1,1.72,4.88c0,.35-.9,3.52.12,2.14l7.09-5.45-1.1.39h6.31q5.12,6.24,3.82,2.74a14.82,14.82,0,0,1-.41-1.44c0-.18-.59-3.05-.45-2a26,26,0,0,1,.09-5.79,20,20,0,0,1,5-10.55L198.23,374a49.56,49.56,0,0,1,7,15.24c1.13,4.39,2.18,11,.87,14.16l3.05-5.24,2.25-1.25h6.31c-3.46-.5,1.4.7,1,.93.07,0-.55-.76-.59-1.33-.16-2.17-1.41-4.4-1.69-6.62a29.59,29.59,0,0,1-.06-6.76,26.82,26.82,0,0,1,.65-3.36l.44-1.61q1.6-3.93-1.89,1.09l-6,1.62,1.14.08-8.39-3.48q-.92-1.62-.08-.06.41.76.79,1.54c.65,1.29,1.29,2.58,1.86,3.9,1,2.23,1.78,4.54,2.53,6.85a89.73,89.73,0,0,1,3.6,15.27,86.07,86.07,0,0,1,.57,15.68c0,.43-.39,4.26-.19,3.08s-.63,2.14-.61,2.06c.31-1.3.11.41-.34.5,1.15-.24,2.39-2.5,4-2.41l11.45,8.72a58.85,58.85,0,0,1,.7-32.23H203.68a101.84,101.84,0,0,1,5.46,41.12,25.69,25.69,0,0,1-1.3,7.35l.16-.43q-1.11,1.92-.34.54c.62-.16,5.68-2.47,5.63-1.61.07-1.08-5-5.36-5.89-6.54a77.2,77.2,0,0,1-5.85-8.93l-18.67,14.41a55.92,55.92,0,0,1,8.3,12.09l18.67-14.41a10.32,10.32,0,0,1-2.88-5.74q.29-2.26-.15-1.15,1.82-5.74-7.17,2c.2.28,2.53,1.18,3.05,1.51,1.11.69,1.95,1.45,3,2.19,2.09,1.51-.05,1,.88-1.82,1.07-3.23,2.33-1.16.26-1.52-1.57-.27-3.13-.31-4.71-.59l7.11,17.47c3.65-6.76,7.3-13.81,12.7-19.36a28.56,28.56,0,0,1,7.41-5.7,18.25,18.25,0,0,1,4.28-1.65c.94-.22,2.83,0,3.66-.43,0,0,1-.38.51-.24q-1.62-3.22-.65-.32-.22-.91-.13.33a10,10,0,0,1-1.84,4.87,22.17,22.17,0,0,1-5.58,5.15c-1.41.92-3,1.57-4.42,2.51q-2.09,1.07-1,.41a9.89,9.89,0,0,1,4.9,1.82l3.06,5.25c.78,2.51-.21,1.3.37.33.74-1.25,1.27-2.61,2-3.86a24.17,24.17,0,0,1,4.46-5.54,26.13,26.13,0,0,1,11.64-6.53c4.78-1.23-.26-.67-.4-5.12s2.47-4-.24-2.65c-1.37.68-2.57,1.62-4,2.21a22,22,0,0,1-13.14,1l8.75,11.49c.12,6.33-3.94,4-1.16,3.48a20.6,20.6,0,0,1,2.72-.91c3.53-1.09,7.12-2,10.71-2.88a166.58,166.58,0,0,1,21.42-3.75,194.28,194.28,0,0,1,45.18.7l-3.17-23.41c-19.81,6.59-41.48,1.26-61.21,8.86-6.71,2.59-11.76,10.54-7.13,17.52,5.14,7.74,12.92,10.37,21.9,10.48,8.62.11,17.28-.41,25.9-.62l54-1.32-10.3-18c.65-1.4,4.66-1.72,1.72-1.39-1.76.2-3.57.74-5.32,1l-11.62,2.06-24.21,4.3L252.64,445c-6.35,1.13-9.93,8.89-8.34,14.69,1.86,6.77,8.3,9.38,14.69,8.34l82.24-13.36L332,432.84c-30.71,13.29-64.56,18.36-97.84,16l8.39,20.25c7.1-8.77,15.94-16,26.55-20l-13.28-5.4.7,1.07-1.6-5.93c-.13-1.24,1.68-2.76,0-.73-.71.88-1.33,1.86-2,2.75-1.37,1.76-2.81,3.47-4.28,5.15a137.43,137.43,0,0,1-10.29,10.57,110.78,110.78,0,0,1-9.68,8.06q-3,2.18-6.07,4.19-1.72,1.12-3.47,2.18c-1.58,1-3.43,1-.22.84l5.84,1.58.48.45,3,5.11c.3,1-.6,2.41.34-.52a48,48,0,0,1,1.48-4.8c.48-1.1,1.12-2.25,1.7-3.3l.83-1.45q1.76-2.6.1-.41l-8.51,1.11.87.18-4.85-2.83c-5.34-4.79.23-8.4-2.74-4.18a6.83,6.83,0,0,1-1.63,1.78l13.87,3.64a20.69,20.69,0,0,1-2.55-6.94c-.18-1.07.06-5.53-.55-4.88L223,458.41l.85-.35-6.27-.82.73.4C226,461.8,235.44,451,228.05,445Z" fill="#fff"/><path d="M165.7,322.74a83.65,83.65,0,0,0,15.53,18.87c5.68,5.12,14.12-3.27,8.42-8.42A72.57,72.57,0,0,1,176,316.73c-4-6.55-14.26-.57-10.28,6Z" fill="#fff"/><path d="M167.32,395.11c6.2,1.52,12.64,3,18.13,6.36a21.16,21.16,0,0,1,5.61,4.9,16.68,16.68,0,0,1,2.19,3.72c.34.84.25,3.36.88,2.26l3.56-2.74q2.19.43.81-.58a7,7,0,0,1-1.4-1.77,12.77,12.77,0,0,1-1.5-4.22c-1.45-6.66-11.64-5-11.69,1.58-.05,6.26.05,12.55-.19,18.8-.19,5-.92,10.22-5.78,12.65l8.15,2.14a17.49,17.49,0,0,0-4.69-6.31l-4.21,10.16a33.92,33.92,0,0,0,9.83-1.34c7.35-2.12,4.22-13.62-3.17-11.48a22.1,22.1,0,0,1-6.66.91c-4.91,0-8.18,6.71-4.21,10.16a9.54,9.54,0,0,1,2.83,3.9c1.35,3.07,5.54,3.44,8.15,2.14,14.84-7.42,11.75-28.1,11.87-41.73l-11.69,1.58c1.32,6.06,5.79,14,12.51,15.22,8.47,1.55,10.31-7.55,8.33-13.81-4.8-15.19-20.49-20.58-34.47-24-7.44-1.82-10.62,9.66-3.17,11.48Z" fill="#fff"/><path d="M159.68,408.4l9.67,1.9c3,.6,6.57-.86,7.32-4.16.67-3-.89-6.68-4.16-7.32l-9.67-1.9c-3-.6-6.57.86-7.32,4.16-.67,3,.89,6.68,4.16,7.32Z" fill="#fff"/></g><g id="Layer_4" data-name="Layer 4"><path d="M298,228.81c-2.53-2.25-6.06-3.16-9.17-1.34-3,1.73-4.57,5.26-5.57,8.4-1.78,5.55-2.38,14.86,4.78,16.83,13.08,3.59,24.16-25.69,8.41-25.41-11.45.2-22.05,22.58-9.16,28.23,13.45,5.9,26.07-20.79,11.27-25.18-8.16-2.42-13.54,7.09-14.13,13.89-.67,7.75,6.53,15.25,14.23,10.66,6.63-4,.6-14.33-6.06-10.36h3c.7.11.33,1.72.78,1.19a14.77,14.77,0,0,0,.32-2,3.39,3.39,0,0,1,1.92-2.49l-3,.82.26.07-2.65-1.54c-.23-.21.76-.86-.07.18-.38.48-.57,1.38-.95,1.93s-1.24,1.07-1.36,1.52,2.24,1.81,2.63,1.56.9-2.68,1.19-3.18a11.85,11.85,0,0,1,1.36-1.89l.78-.79q1.9-1.3-.58-.5l-2.65-1.54.48.55-1.54-2.65c0-.06-1,1.94-1.25,2.44a14.58,14.58,0,0,1-1,1.51,15.24,15.24,0,0,1-1.12,1.23q-1,.86.52,0l3,.82-.75-.41,2.15,2.15c.52.74,0,1.22.06-.23a16.46,16.46,0,0,1,.25-2.48c.26-1.33.67-3,1.73-3.86l-2.65,1.54.7-.18h-3.19l.7.13L289,236.85l.51.45c5.75,5.12,14.27-3.34,8.49-8.49Z" fill="#161b1f"/><path d="M235,257.44l-2.24,1,7.27,9.42c11.64-11.66,39.2-30.23,52.33-11l9.42-7.27-.64-.82c-4.75-6.08-13.19,2.47-8.49,8.49l.64.82c4.17,5.33,13.26-1.66,9.42-7.27-18.37-26.88-53.19-9.44-71.18,8.57-5.08,5.09,1.32,12.15,7.27,9.42l2.24-1c7-3.21.92-13.56-6.06-10.36Z" fill="#161b1f"/><path d="M244.26,269.85a39.2,39.2,0,0,1,31.5-14.36c6.59.17,8.4-10.74,1.6-11.79A44.1,44.1,0,0,0,257,245l3.19,11.57c6.78-2.77,13.4-2.28,19.54,1.8l3-11.18a63.42,63.42,0,0,1-11.36-1.63c-7.58-1.78-10.44,9-3.19,11.57a19.16,19.16,0,0,1,9.35,6.92l9.42-7.27a5.46,5.46,0,0,1-1.47-3.14l-11,4.62a36.34,36.34,0,0,1,3.23,18.58l11.79-1.6a46.1,46.1,0,0,1-.69-16.72h-12l-.9,25.48c-.28,7.9,11.1,7.45,12,0,1.57-13,3.71-25.82,6.33-38.6l-11.79-1.6a417.87,417.87,0,0,0-.85,43.55c.21,6.43,10.61,8.55,11.79,1.6a157.13,157.13,0,0,1,11.44-38.18l-11-4.62q-6.52,23.27-10.84,47.06c-1.36,7.48,9.61,10.78,11.57,3.19l10.23-39.57c2-7.56-9-10.4-11.57-3.19a463,463,0,0,1-17.82,43.11l11,4.62c3.59-14-16.67-19.49-26-24l-4.62,11a101.49,101.49,0,0,0,24.76,5.1c6.7.56,8.21-10.44,1.6-11.79a143.79,143.79,0,0,0-23.26-2.8c-6.61-.25-8.37,10.72-1.6,11.79l15.44,2.43c7.66,1.21,10.41-8.7,3.19-11.57q-17.61-7-35.64-12.87c-6.46-2.1-10.58,7.72-4.62,11a80.06,80.06,0,0,0,26.28,9c6.13.94,11.26-7.67,4.62-11a273.21,273.21,0,0,0-28.33-12.13c-5.69-2.07-10.08,6.08-5.84,10a49.08,49.08,0,0,0,16.47,10.13c5.84,2.21,9.78-6,5.84-10s-7.6-8.65-11.94-12-8.8-2.47-13.18.25c-8.07,5-15,13.65-11.4,23.59,2.1,5.84,9.36,5.5,11.57,0a12.32,12.32,0,0,0,.05-9.2c-1.88-4.94-7.9-5.85-11-1.43-4.17,6-4.18,13.34-.82,19.69l3.59-8.81q2.45,1.45,2.65-.52.34-1.17.78-2.3c.57-1.54,1.22-3,1.93-4.52a65.88,65.88,0,0,1,4.41-7.73,64.06,64.06,0,0,1,12.58-13.75c6-5-2.53-13.16-8.49-8.49a76.51,76.51,0,0,0-13.29,13.38l9.42,7.27a77.46,77.46,0,0,1,16.88-18.56L239,245.25A202.52,202.52,0,0,0,219.3,277c-2.53,5,2.83,11.65,8.21,8.21a43.74,43.74,0,0,0,10-8.59L229,268.09a51.69,51.69,0,0,0-9.22,17.75c-1.23,4.29,3,8.75,7.38,7.38a29.47,29.47,0,0,0,16.36-12.45c3.37-5.18-3.18-11.05-8.21-8.21a33.2,33.2,0,0,0-12.12,11.76c-2.34,3.8.67,9.18,5.18,9a62,62,0,0,0,16-2.61c7.51-2.28,4.32-12.87-3.19-11.57a28.39,28.39,0,0,0-13.4,6.47c-3.46,2.84-1.52,9.11,2.65,10a11.23,11.23,0,0,0,8.42-1.13c6.14-3.28,1.85-12.52-4.62-11A23.88,23.88,0,0,0,221.76,291c-3.7,4.16-.21,12.09,5.84,10a34.4,34.4,0,0,0,10.63-5.91c5.52-4.39-1.51-12.48-7.27-9.42A49.66,49.66,0,0,0,214.52,300l10.36,6.06c2.54-4.34,5.71-9,10.49-11.09,3.51-1.55,8.69-1.51,11.11,1.93l8.21-8.21a37.77,37.77,0,0,0-16.84-4.42c-7.73-.21-7.72,11.77,0,12,5.57.16,9.56,4.09,10.65,9.41l11.57-3.19-3.88-9.2c-2.91-6.91-14.28-4.21-11.57,3.19a80.05,80.05,0,0,1,4.85,21.94c.46,6.31,10.44,8.66,11.79,1.6a95.13,95.13,0,0,0,.5-33l-7.38,7.38c7.8,2.22,7.82,11.78,6.69,18.28l11.79,1.6-1.07-15.81c-.46-6.71-9.64-8.19-11.79-1.6-2.61,8-8,25.92,2.53,30.68,2.23,1,5.52,1.25,7.27-.94A68,68,0,0,0,284,296.4c1-5.42-5.7-10.67-10-5.84a25,25,0,0,0-6,22.49c.82,4,5.6,5.28,8.81,3.59a23.07,23.07,0,0,0,11.74-15c1.58-6.31-8.12-11.07-11-4.62a228,228,0,0,1-10.65,21.07c-3.84,6.71,6.52,12.77,10.36,6.06A228,228,0,0,0,287.9,303l-11-4.62a11.36,11.36,0,0,1-6.23,7.86l8.81,3.59a12.16,12.16,0,0,1,3-10.81l-10-5.84a55.88,55.88,0,0,1-11.13,25l7.27-.94q.13.83,0,0a4.92,4.92,0,0,1-.06-1.56,46.13,46.13,0,0,1,.49-5.39,62.45,62.45,0,0,1,2.54-10.22l-11.79-1.6,1.07,15.81c.43,6.3,10.55,8.67,11.79,1.6,2.3-13.2-.27-28.84-15.07-33-4.79-1.36-8.06,3.05-7.38,7.38a77.81,77.81,0,0,1-.5,26.58l11.79,1.6a91.53,91.53,0,0,0-5.28-25.13l-11.57,3.19,3.88,9.2c2.94,7,13.17,4.59,11.57-3.19a23.18,23.18,0,0,0-22.22-18.22v12a24,24,0,0,1,10.79,2.78c4.91,2.57,11.89-3,8.21-8.21-5-7.19-13.53-10.18-22.11-8.26-9.15,2.05-15.69,9.67-20.22,17.41-4,6.86,5.83,12,10.36,6.06A36.21,36.21,0,0,1,237,296l-7.27-9.42a17.49,17.49,0,0,1-5.33,2.82l5.84,10a12.84,12.84,0,0,1,7.16-4.34l-4.62-11,.83-.08,2.65,10a16.67,16.67,0,0,1,8.1-3.38l-3.19-11.57a48.89,48.89,0,0,1-12.82,2.18l5.18,9a20.61,20.61,0,0,1,7.82-7.45l-8.21-8.21a16.47,16.47,0,0,1-9.18,6.93l7.38,7.38a36.41,36.41,0,0,1,6.14-12.45c4.62-5.95-3.41-14.48-8.49-8.49a33.09,33.09,0,0,1-7.54,6.71l8.21,8.21a202.52,202.52,0,0,1,19.73-31.71c4.45-5.86-4.58-11.16-9.42-7.27a87.37,87.37,0,0,0-18.75,21c-3.62,5.62,5.21,12.71,9.42,7.27a76.51,76.51,0,0,1,13.29-13.38l-8.49-8.49a73.14,73.14,0,0,0-20.2,26.86c-2,4.65-4.6,10.29-2.93,15.45a10,10,0,0,0,12.46,6.58,6.09,6.09,0,0,0,3.59-8.81c-1.45-2.73-.89-5.12.82-7.58l-11-1.43a2.09,2.09,0,0,1-.05,2.82h11.57c-2.09-5.83,3.72-7.84,7.25-10.88-1.08.93-2.19-1.41-.29,1.08a32.19,32.19,0,0,0,2.71,2.76l6.79,6.91,5.84-10a33.88,33.88,0,0,1-11.18-7l-5.84,10a245.22,245.22,0,0,1,25.46,10.92l4.62-11a70.67,70.67,0,0,1-23.42-7.79l-4.62,11q18,5.86,35.64,12.87l3.19-11.57-15.44-2.43-1.6,11.79a123.57,123.57,0,0,1,20.07,2.37l1.6-11.79a88.67,88.67,0,0,1-21.57-4.67c-6.36-2.19-10.78,8-4.62,11,1.85.88,20.9,8.88,20.5,10.41-1.63,6.34,8,11,11,4.62a494.18,494.18,0,0,0,19-46l-11.57-3.19L283,293.23l11.57,3.19q4.31-23.78,10.84-47.06c1.78-6.34-8.11-11-11-4.62a168.71,168.71,0,0,0-12.65,41l11.79,1.6a417.87,417.87,0,0,1,.85-43.55c.48-6.7-10.43-8.23-11.79-1.6-2.83,13.84-5.05,27.77-6.75,41.79h12l.9-25.48c.28-7.93-11-7.41-12,0a55.2,55.2,0,0,0,1.12,19.91c1.61,6.91,11.32,4.87,11.79-1.6a48.48,48.48,0,0,0-4.87-24.64c-3-6.43-12.31-1.7-11,4.62a17.18,17.18,0,0,0,4.55,8.43c4.55,4.88,13.46-1.66,9.42-7.27a33,33,0,0,0-16.52-12.43l-3.19,11.57a81.86,81.86,0,0,0,14.55,2.05c6.31.32,7.67-8.09,3-11.18A31.06,31.06,0,0,0,257,245c-6.93,2.84-4.38,13.94,3.19,11.57a30.59,30.59,0,0,1,14-1.29l1.6-11.79a50.67,50.67,0,0,0-40,17.88c-4.93,5.88,3.51,14.41,8.49,8.49Z" fill="#161b1f"/><path d="M215.09,306a55.46,55.46,0,0,0,2.83,14.8c2.14,6.25,11.72,5.42,11.79-1.6q0-4.28,0-8.56a6.07,6.07,0,0,0-9-5.18,8.26,8.26,0,0,0-4.17,9.34c1,4.29,4.79,6,8.48,7.4,7.88,3.09,15.46,7.78,24.25,6.82,5.17-.56,9.09-8.45,3-11.18A167.81,167.81,0,0,1,227.46,304l-4.62,11a127.38,127.38,0,0,0,28.29,7.94l-2.65-10-.83.66,4.24-1.76-1.06,0c-7.71.13-7.74,12.13,0,12a8.92,8.92,0,0,0,6.14-2.44c3.38-2.68,1.6-9.35-2.65-10A127.38,127.38,0,0,1,226,303.41c-6.61-2.71-9.93,7.39-4.62,11a167.81,167.81,0,0,0,24.78,13.8l3-11.18c-4.14.45-7.63-.66-11.4-2.3-1.75-.76-3.47-1.58-5.22-2.32q-1.46-.63-2.93-1.21-3.82-2.26-2.95,4.64l-9-5.18q.06,4.28,0,8.56l11.79-1.6a43.12,43.12,0,0,1-2.4-11.61c-.46-7.67-12.46-7.73-12,0Z" fill="#161b1f"/><path d="M225,315.09l-1.43-1.78c-3-3.75-8.76-1.23-10,2.65-5.47,16.66-3.11,34.15.35,51,1.58,7.66,2.85,15.8,7.49,22.32a33,33,0,0,0,17.09,12.33c7.36,2.39,10.52-9.2,3.19-11.57-13.18-4.28-14.64-18.08-16.93-29.89-2.64-13.63-4-27.55.38-41l-10,2.65,1.43,1.78c4.85,6,13.29-2.53,8.49-8.49Z" fill="#161b1f"/><path d="M365.14,438.52l5.06,6c1.81,2.16,5,2,7.27.94,11.3-5.29,19.23-17.35,27-26.67q13.19-15.79,25.64-32.19c4.68-6.14-5.73-12.12-10.36-6.06Q408.21,395.7,396,410.32q-5.75,6.88-11.63,13.64c-3.85,4.41-7.57,8.64-13,11.16l7.27.94-5.06-6c-5-5.92-13.43,2.61-8.49,8.49Z" fill="#161b1f"/><path d="M421,386.3c.52,5.85-2.27,10.64-4.77,15.72a137.39,137.39,0,0,0-6.76,16.38c-2.5,7.33,9.09,10.47,11.57,3.19a165.81,165.81,0,0,1,7.81-18c2.62-5.49,4.7-11.09,4.16-17.27-.68-7.63-12.68-7.7-12,0Z" fill="#161b1f"/><path d="M413.93,432.23h.49a6.19,6.19,0,0,0,4.24-1.76,6,6,0,0,0,0-8.49,6.23,6.23,0,0,0-4.24-1.76h-.49a6.19,6.19,0,0,0-4.24,1.76,6,6,0,0,0,0,8.49,6.23,6.23,0,0,0,4.24,1.76Z" fill="#161b1f"/><path d="M414.48,435.8l1-.49a6,6,0,0,0-1.43-11l-1.6-.21a6,6,0,0,0-3,.82l-1,.49a6,6,0,0,0,1.43,11l1.6.21a6,6,0,0,0,3-.82Z" fill="#161b1f"/><path d="M423.51,427.4A107,107,0,0,0,438,408.62c4-6.62-6.36-12.66-10.36-6.06A92.51,92.51,0,0,1,415,418.91c-5.36,5.56,3.11,14.06,8.49,8.49Z" fill="#161b1f"/><path d="M428.79,419.43c5.91-7.6,11.56-15.38,16.87-23.42,4.27-6.46-6.12-12.48-10.36-6.06-4.74,7.18-9.72,14.2-15,21-2,2.58-2.47,6,0,8.49,2,2.09,6.5,2.55,8.49,0Z" fill="#161b1f"/><path d="M439.51,407.9c8.55-5,8.9-15.59,4.27-23.46-5.25-8.93-14-15.32-17.52-25.37-2.52-7.25-14.11-4.13-11.57,3.19s6.65,13.06,11.43,18.89c2.23,2.71,13,13.09,7.34,16.39-6.67,3.89-.64,14.26,6.06,10.36Z" fill="#161b1f"/><path d="M398.38,320.44c7.66,3.91,15.64,9.39,24.59,7.22,7.5-1.81,4.33-13.39-3.19-11.57-4.71,1.14-11.33-4-15.35-6-6.86-3.5-12.94,6.85-6.06,10.36Z" fill="#161b1f"/><path d="M418.86,315.26l-7.75.06a6,6,0,0,0-5.89,5.2c-.32,2.65,1.31,6.15,4.3,6.58a29.81,29.81,0,0,0,13.22-.74,6.12,6.12,0,0,0,4.19-7.38c-1-3.47-4.16-4.63-7.38-4.19a13.74,13.74,0,0,1-5.91-.76L412,325.83l13.71.6c7.72.34,7.7-11.66,0-12l-13.71-.6c-6.94-.31-7.9,9.83-1.6,11.79a27.66,27.66,0,0,0,12.29.76l-3.19-11.57a15.79,15.79,0,0,1-6.84.74l-1.6,11.79,7.75-.06c7.72-.06,7.74-12.06,0-12Z" fill="#161b1f"/><path d="M426.25,314.28l-1.33,0a6.08,6.08,0,0,0-4.24,1.76,6.17,6.17,0,0,0-1.65,3.45,5.74,5.74,0,0,0,.71,3.83,5.83,5.83,0,0,0,3.59,2.76,16.93,16.93,0,0,0,2.27.28,12.73,12.73,0,0,0,2.27-.25,10.38,10.38,0,0,0,2.91-1.07,6,6,0,0,0-1.43-11,6.6,6.6,0,0,0-4.62.6l-.35.17,1.43-.6a5.16,5.16,0,0,1-1.12.3l1.6-.21a5.13,5.13,0,0,1-1.16,0l1.6.21-.19,0-1.6,11.79,1.33,0a6.16,6.16,0,0,0,4.24-1.76,6,6,0,0,0,0-8.49,6.29,6.29,0,0,0-4.24-1.76Z" fill="#161b1f"/><path d="M430.19,325.29c7.72,0,7.73-12,0-12s-7.73,12,0,12Z" fill="#161b1f"/><path d="M422.11,320.57a34.5,34.5,0,0,0-8.48,20.81c-.48,7.26,9.49,7.43,11.79,1.6a85,85,0,0,1,6.78-13.37l-10.36-6.06a143.44,143.44,0,0,0-7.6,22.63c-1.82,7.58,9,10.42,11.57,3.19L432,331.94l-11.57-3.19A95.33,95.33,0,0,0,416.62,364c.47,5.8,7.9,8.34,11.18,3,4.1-6.64,1.77-17.55,1.55-25-.23-7.7-12-7.75-12,0,0,11.57.49,22.86,5.49,33.5,2.88,6.12,13.15,1.8,11-4.62l-1.18-3.46c-2.47-7.27-14.07-4.15-11.57,3.19l1.18,3.46,11-4.62c-4-8.54-3.88-18.2-3.85-27.44h-12l.3,10.07c.07,2.39,1.07,6.77-.21,8.84l11.18,3A85.8,85.8,0,0,1,432,331.94c2.25-7.47-9-10.39-11.57-3.19l-6.19,17.43,11.57,3.19a125.41,125.41,0,0,1,6.39-19.77c2.94-6.91-6.2-12.84-10.36-6.06a102.4,102.4,0,0,0-8,16.24l11.79,1.6a20.87,20.87,0,0,1,5-12.32c5-5.85-3.48-14.38-8.49-8.49Z" fill="#161b1f"/><path d="M373.33,432a34.32,34.32,0,0,0-7.7-8.94c-3.15-2.54-6.72-3.67-10.07-5.77s-5.44-5.17-9-6.94c-3.67-1.84-7.76-2.48-11.23-4.73L329.32,416q9.22,5.2,17.87,11.28c6.35,4.46,12.27-5.9,6.06-10.36a84.33,84.33,0,0,0-29.45-13.45c-7.5-1.81-10.71,9.76-3.19,11.57a75.45,75.45,0,0,1,26.58,12.24l6.06-10.36q-8.66-6.09-17.87-11.28c-6.77-3.82-12.51,6.17-6.06,10.36,3.08,2,6.44,2.93,9.82,4.22s5.17,3.49,7.84,5.66,6,3.13,9,5a21.31,21.31,0,0,1,7,7.24c4,6.57,14.41.55,10.36-6.06Z" fill="#161b1f"/><path d="M231.54,400.73a57.79,57.79,0,0,0,15.12,14.19c6,3.82,11.66-4.53,7.27-9.42l-3.57-4L241.88,410c10.92,12,29.37,14.38,44.62,16.22,8.79,1.06,17.78,1,26.36-1.42,5-1.42,9.43-3.39,14.68-3.51s10.2.9,15.2,2c7.7,1.7,10.23-8.73,3.19-11.57A38.92,38.92,0,0,0,330.7,409c-5.74.08-8.44,8.33-3,11.18a27.48,27.48,0,0,0,12.27,3.27c7.82.27,7.58-11.32,0-12a37.67,37.67,0,0,0-11.66.86c-4.73,1-6.19,8.87-1.43,11a23.9,23.9,0,0,0,15.83,1.66c7.52-1.73,4.34-13.3-3.19-11.57a10.1,10.1,0,0,1-6.58-.45l-1.43,11a27.06,27.06,0,0,1,8.47-.43v-12a13.54,13.54,0,0,1-6.21-1.63l-3,11.18a29.79,29.79,0,0,1,12,2.33l3.19-11.57c-9-2-18.28-3.5-27.39-1.3-4.18,1-8.1,2.82-12.32,3.68a51.41,51.41,0,0,1-12.55.75,134,134,0,0,1-23.89-3.68c-7.29-1.68-14.23-4-19.41-9.65s-13.63,2.76-8.49,8.49l3.57,4,7.27-9.42a41.54,41.54,0,0,1-10.82-9.88c-4.59-6.09-15-.12-10.36,6.06Z" fill="#161b1f"/><path d="M246.55,252.21c9.49-5.87,19.49-11.33,28-18.55,8.25-7,14.62-15.89,20.91-24.59,4-5.46-5.23-12.65-9.42-7.27-7,9-14.11,18.16-23.55,24.69l7.27,9.42q8.81-10.4,18.59-19.9l-8.49-8.49q-8.12,8.32-15.48,17.3c-4.81,5.87,2.81,14,8.49,8.49a125.37,125.37,0,0,0,26.31-36.54,6,6,0,0,0-10.36-6.06l-13.47,19.54,10.36,6.06A195.1,195.1,0,0,0,297.1,195.8c3.29-6.88-6.7-13-10.36-6.06l-12.33,23.2L284.76,219a201.39,201.39,0,0,0,12-33.57L287.9,189l.69.4-2.76-3.59c.14.41-3,6.32-3.52,7.47l-4,9.32,11.18,3A18.6,18.6,0,0,1,298.72,191c6.62-4,.59-14.34-6.06-10.36a31.17,31.17,0,0,0-15.22,25c-.42,5.72,8.81,8.49,11.18,3,2.57-5.93,5.17-11.85,7.72-17.79,1.91-4.45,2.42-9.47-2.4-12.23a6.06,6.06,0,0,0-8.81,3.59,184,184,0,0,1-10.74,30.71c-3.14,6.89,6.68,13,10.36,6.06l12.33-23.2-10.36-6.06a195.1,195.1,0,0,1-11.35,20.52c-4.18,6.59,6,12.35,10.36,6.06l13.47-19.54-10.36-6.06a116.08,116.08,0,0,1-24.44,34.11l8.49,8.49q7.37-9,15.48-17.3c5.4-5.53-2.94-13.87-8.49-8.49q-9.78,9.5-18.59,19.9c-4.09,4.83,1.27,13.57,7.27,9.42,10.4-7.18,18.27-16.68,26-26.56L285.14,203c-5.71,7.89-11.52,15.85-19,22.16-7.74,6.5-17,11.37-25.61,16.67-6.56,4.06-.54,14.44,6.06,10.36Z" fill="#161b1f"/><path d="M290.15,172.64A21.66,21.66,0,0,0,279.63,187a6,6,0,1,0,11.57,3.19,12.62,12.62,0,0,1,2.83-4.91L284.61,178a38.38,38.38,0,0,0-4.22,8.48c-1.11,3,1.25,6.57,4.19,7.38,3.34.92,6.26-1.14,7.38-4.19a28.38,28.38,0,0,1,3-5.62c3.84-5.65-4.79-12.2-9.42-7.27A25.42,25.42,0,0,0,279.63,187l11.57,3.19c.1-.51.21-1,.36-1.51,0-.1.37-1.14.22-.75a20,20,0,0,1,1.32-2.29c.58-.82-.46.49.21-.25.35-.39.72-.74,1.09-1.11a6.89,6.89,0,0,1,1.81-1.23,6,6,0,1,0-6.06-10.36Z" fill="#161b1f"/><path d="M267.34,239.73c5.58,6,13,8,20.92,6.88,6.65-.93,4.64-9.64,0-11.57l-14.44-6-3.19,11.57c16.35,5.91,32.21-9.91,26.67-26.27-2.15-6.35-11.56-5.34-11.79,1.6A68.75,68.75,0,0,0,291.95,247c2.72,6,10.7,2.23,11.18-3L306.07,212h-12l2.72,58.36h12a148.69,148.69,0,0,1,.26-34h-12a291.87,291.87,0,0,1-11.37,76.75l11.79,1.6c-1.17-13.14,3.68-25.31,8.76-37.17,3-7-7.32-13.14-10.36-6.06l-14,32.7c-4.17,9.71-7.53,21.46-14.92,29.28l10,5.84a146.67,146.67,0,0,1,11.89-27.65c3.18-5.7-5-12.76-9.42-7.27a176.58,176.58,0,0,1-31,30.18c-6,4.55-.36,14.86,6.06,10.36s13.08-8.7,19.93-12.55c5.79-3.25,1.91-13.28-4.62-11a75.39,75.39,0,0,1-32.7,4c-6.76-.63-8.11,10.25-1.6,11.79a134.73,134.73,0,0,0,25.42,3.49c6.63.27,8.35-10.65,1.6-11.79a115.3,115.3,0,0,1-28.32-8.45c-6.89-3.11-13,6.55-6.06,10.36a132.14,132.14,0,0,0,26.79,11.18l1.6-11.79a45.3,45.3,0,0,1-27.64-9.43c-4.8-3.6-11.49,3.43-8.21,8.21a72.27,72.27,0,0,1,8,14.87c2.75,7.11,13.24,4.49,11.57-3.19a23.64,23.64,0,0,0-7.64-13c-3.66-3.19-8.28-1.62-10,2.65-7,17.15-5.3,37.87,5.12,53.32a58.93,58.93,0,0,0,44,25.52v-12a29.21,29.21,0,0,1-14.86-5.81c-6-4.36-11,4.56-7.27,9.42C263,418.25,285.81,426,307.11,421.7c6.17-1.25,5.23-9.84,0-11.57A46.26,46.26,0,0,0,294,407.85c-7.84-.26-7.54,11.24,0,12a134.54,134.54,0,0,0,34.48-1.13c2.94-.46,4.66-3.93,4.3-6.58-.43-3.17-2.88-4.85-5.89-5.2l-10.55-1.24,4.24,10.24c4-3.31,8.5-6.93,13.94-5,5,1.78,9.86,4.77,14.39,7.52a137.9,137.9,0,0,1,25.89,20.37,6.14,6.14,0,0,0,8.49,0,158.33,158.33,0,0,0,38.1-50c2-4.08,4.37-8.39,4-13.06-.38-5.42-3.63-10.66-5-15.92a64.66,64.66,0,0,1,.71-34.15,6.08,6.08,0,0,0-4.19-7.38,32.87,32.87,0,0,1-14.53-8c-4.07-3.84-12.17-.09-10,5.84,9.2,25.44,2.09,53.21,6.8,79.44,1.13,6.29,9.81,5.08,11.57,0a90,90,0,0,0,3.74-43.3c-1-6.65-12.28-5.13-11.79,1.6a171.34,171.34,0,0,1,.21,23c-.42,7-.79,14.66-4.86,20.59-3.41,5-8.79,8.31-13.85,11.38-5.51,3.33-12.32,8.19-19.1,7l-1.6,11.79a42.19,42.19,0,0,1,17.33,1.27L384,417.27c-20.77-4.4-36.89-20-57.45-25.12a50,50,0,0,0-30,1.63c-10.79,3.93-21,6.32-32.56,4.2l-3.19,11.57a195.59,195.59,0,0,0,62.65.37c7.16-1.11,4.61-11.2-1.6-11.79a268.24,268.24,0,0,0-34.05-1.06c-7.8.25-7.63,11.39,0,12a145.7,145.7,0,0,0,29.25-.58q5.33-.64,6-6a19.88,19.88,0,0,0-3.06-13.2c-4.08-6.53-14.47-.52-10.36,6.06a9.7,9.7,0,0,1,1.42,7.14l6-6a145.7,145.7,0,0,1-29.25.58v12a268.24,268.24,0,0,1,34.05,1.06l-1.6-11.79A177.16,177.16,0,0,1,264,398c-7.52-1.26-10.83,10.16-3.19,11.57A65.14,65.14,0,0,0,292.25,408c5-1.58,9.84-3.95,15-5a36.37,36.37,0,0,1,16.11.7c20.51,5.14,36.59,20.7,57.45,25.12,7.51,1.59,10.67-9.42,3.19-11.57a50.89,50.89,0,0,0-20.52-1.7c-3,.37-5.46,2-5.89,5.2-.37,2.71,1.35,6.06,4.3,6.58,9.55,1.69,17.62-1.91,25.73-6.65,6.47-3.78,13.14-7.87,18-13.64,5.6-6.58,7.65-14.33,8.6-22.75a164.59,164.59,0,0,0,.42-30.45l-11.79,1.6a77.24,77.24,0,0,1-3.74,36.92h11.57c-4.73-26.35,2.51-53.72-6.8-79.44l-10,5.84a45.49,45.49,0,0,0,19.83,11.1l-4.19-7.38a76.81,76.81,0,0,0-2.46,31.18,73,73,0,0,0,3.55,15.24c.82,2.3,2.6,5.07,2.67,7.5.07,2.17-1.39,4.42-2.32,6.35a149.66,149.66,0,0,1-36.22,47.59h8.49a149.48,149.48,0,0,0-34.32-25.68c-5.61-3-11.75-6.59-18.32-6.41-7.24.19-13.21,4.83-18.55,9.2-4.51,3.7-.29,9.71,4.24,10.24l10.55,1.24-1.6-11.79a122.64,122.64,0,0,1-31.29.7v12a34.52,34.52,0,0,1,10,1.85V410.13c-17.4,3.52-35.17-3.82-45.92-17.7l-7.27,9.42a40.75,40.75,0,0,0,20.92,7.45c7.7.65,7.64-11.32,0-12a46,46,0,0,1-34.42-20.85c-8.14-12.93-8.81-28.82-3.08-42.8l-10,2.65a12.94,12.94,0,0,1,4.56,7.67l11.57-3.19A85.18,85.18,0,0,0,231,323l-8.21,8.21a56,56,0,0,0,33.7,11.07c6.81,0,8.09-9.88,1.6-11.79a117.32,117.32,0,0,1-23.92-10l-6.06,10.36a126.8,126.8,0,0,0,31.19,9.66l1.6-11.79a117.28,117.28,0,0,1-22.23-3.06l-1.6,11.79A83.86,83.86,0,0,0,273,333.06l-4.62-11q-10.28,5.78-19.93,12.55L254.49,345A188.22,188.22,0,0,0,287.88,313l-9.42-7.27a162.41,162.41,0,0,0-13.1,30.51c-1.78,5.7,6,10.15,10,5.84,7.89-8.35,11.58-19.57,16-29.94l14.8-34.47-10.36-6.06c-5.89,13.75-11.76,28-10.4,43.23.58,6.49,9.82,8.44,11.79,1.6a304.73,304.73,0,0,0,11.8-79.94c.11-7.93-11.09-7.45-12,0a148.69,148.69,0,0,0-.26,34c.8,7.51,12.37,7.86,12,0L306.07,212c-.36-7.81-11.3-7.62-12,0L291.13,244l11.18-3a55.36,55.36,0,0,1-4.79-25l-11.79,1.6c2.73,8.08-4,14.37-11.91,11.51-7.39-2.67-10.14,8.69-3.19,11.57l14.44,6V235c-3.64.51-6.84-1.23-9.24-3.79-5.28-5.66-13.76,2.84-8.49,8.49Z" fill="#161b1f"/><path d="M398.93,318.5,401.88,337c1.06,6.64,12.3,5.14,11.79-1.6a91.11,91.11,0,0,1,4.12-35.14L406,298.67a97.94,97.94,0,0,1-2.59,22.8L415,324.66a221.19,221.19,0,0,1,10.15-40.81l-11.57-3.19L406.92,314c-1.5,7.5,9.68,10.75,11.57,3.19,4.35-17.45,8.62-35,10-53a303,303,0,0,0-1.2-53.91c-.81-7.6-12.82-7.68-12,0a310.67,310.67,0,0,1,1.33,52c-1.11,17.56-5.41,34.67-9.66,51.69l11.57,3.19,6.65-33.32a6,6,0,0,0-11.57-3.19,221.19,221.19,0,0,0-10.15,40.81c-1.11,7.43,9.76,10.89,11.57,3.19a112.36,112.36,0,0,0,3-26c0-6.9-9.74-8-11.79-1.6a100.41,100.41,0,0,0-4.55,38.33l11.79-1.6-2.95-18.51c-1.21-7.61-12.78-4.38-11.57,3.19Z" fill="#161b1f"/><path d="M426,215.79a162.06,162.06,0,0,0-.49-23.25c-.27-2.94-2.54-6.39-6-6-7.88.89-15.33,3.79-22.79,6.39s-14.89,5.43-22.15,8.61c-14.15,6.2-27.45,14.19-38.57,25-5.55,5.39,2.94,13.87,8.49,8.49,10-9.72,22-16.78,34.64-22.46,6.28-2.81,12.74-5.23,19.23-7.52,6.72-2.37,14-5.7,21.15-6.51l-6-6a162.06,162.06,0,0,1,.49,23.25c-.39,7.72,11.61,7.7,12,0Z" fill="#161b1f"/><path d="M354.35,215.38c-9.33-7.21-19.12-14.08-27.81-22.07-5.68-5.22-14.19,3.24-8.49,8.49,8.69,8,18.48,14.86,27.81,22.07,2.58,2,6,2.47,8.49,0,2.09-2,2.56-6.51,0-8.49Z" fill="#161b1f"/><path d="M293.33,188.52l5.6-8.46L288.57,174a132.61,132.61,0,0,0-15.72,50.55c-.67,6.39,8.2,7.51,11.18,3a28.24,28.24,0,0,0,3.62-8l-11.57-3.19a144,144,0,0,0-2.1,16.21,6,6,0,0,0,4.4,5.79c8,1.68,10.42-7,12.89-12.83a157,157,0,0,0,7.66-23c1.87-7.49-9.7-10.69-11.57-3.19A155,155,0,0,1,282.65,215c-.85,2.34-1.76,4.67-2.75,7-.6,1.38-1.23,2.75-1.87,4.11-.53,1.13-2.29,2.93-.33,1.59l4.62-.6-.74-.15,4.4,5.79a115.15,115.15,0,0,1,1.67-13c1.4-7.5-9.41-10.72-11.57-3.19a17.49,17.49,0,0,1-2.41,5.09l11.18,3a117.62,117.62,0,0,1,14.08-44.49c3.75-6.81-6.11-12.47-10.36-6.06l-5.6,8.46c-4.28,6.46,6.11,12.47,10.36,6.06Z" fill="#161b1f"/><path d="M286.68,177.55l-2.2,1.63,8.21,8.21c5.67-10.14,16.22-18,24.49-25.94,5.57-5.37-2.92-13.85-8.49-8.49-9.07,8.75-20.13,17.23-26.37,28.37-2.71,4.84,3.12,12,8.21,8.21l2.2-1.63c6.14-4.54.16-15-6.06-10.36Z" fill="#161b1f"/><path d="M302.26,177.57l17.33-19.14c5.17-5.71-3.29-14.22-8.49-8.49l-17.33,19.14c-5.17,5.71,3.29,14.22,8.49,8.49Z" fill="#161b1f"/><path d="M316.15,161.39l8.3-9.92c2.08-2.48,2.43-6.05,0-8.49-2.14-2.14-6.39-2.5-8.49,0l-8.3,9.92c-2.08,2.48-2.43,6.05,0,8.49,2.14,2.14,6.39,2.5,8.49,0Z" fill="#161b1f"/><path d="M314.3,156a101.94,101.94,0,0,0-2.36,32.68c.59,6.41,9.93,8.53,11.79,1.6,2.33-8.72,3.2-17.68,4-26.64h-12c.54,11.53,1.22,23,2.83,34.43l11.57-3.19A99,99,0,0,1,328.79,178L317,179.57q2.52,12.55,3.81,25.26c.75,7.53,12.14,7.87,12,0q-.24-13.48-1.74-26.87l-11.79,1.6,3.49,25.82,11.57-3.19-3.74-24.67L319,180.71l6,28.19,7.38-7.38-1.06-.33,3.59,2.76-.49-1C331,196,320.69,202.1,324.1,209c1.16,2.35,2.72,3.32,5.14,4.09,4.6,1.45,8.29-3.12,7.38-7.38l-6-28.19c-1.64-7.68-12.7-4.27-11.57,3.19l3.74,24.67c1.16,7.66,12.59,4.33,11.57-3.19l-3.49-25.82c-.9-6.63-12.54-5.13-11.79,1.6q1.5,13.4,1.74,26.87h12q-1.42-14.33-4.24-28.45c-1.35-6.74-11.77-5-11.79,1.6a117.75,117.75,0,0,0,1.76,20.12c1.31,7.68,12.63,4.3,11.57-3.19-1.46-10.35-1.92-20.81-2.4-31.24-.36-7.8-11.33-7.63-12,0-.7,7.92-1.5,15.75-3.56,23.45l11.79,1.6a91.51,91.51,0,0,1,1.93-29.49c1.76-7.51-9.81-10.72-11.57-3.19Z" fill="#161b1f"/><path d="M319.31,175.45c1-2.85.48-5.2-.71-7.91-1.67-3.79-6.82-3.48-9.42-1.21A50.48,50.48,0,0,0,293,193.91c-1,4.53,4.28,10.2,8.81,6.78,8.93-6.75,14.2-16.37,14.31-27.67,0-4.84-6.86-8.39-10.24-4.24A72.62,72.62,0,0,0,289.11,215c0,4.19,5.25,8,9,5.18,11.07-8.14,17-19.85,22.46-32.16,3-6.91-6.25-12.82-10.36-6.06a125.92,125.92,0,0,0-17.43,51.55c-.66,5.82,6.7,7,10.24,4.24,5.45-4.28,7.41-11.8,10-18l9.55-23.11c2.57-6.23-8.32-10.88-11-4.62a215.21,215.21,0,0,0-14.95,52.59c-.44,3,.5,5.82,3.47,7.08,2.46,1,6.32.3,7.49-2.45,6.42-15.09,12.14-30.42,17-46.07,2.32-7.41-9.13-10.47-11.57-3.19a199.39,199.39,0,0,0-10.31,62.23c0,6.74,10,8.18,11.79,1.6l14.29-53.52c2-7.48-9.36-10.58-11.57-3.19a218.83,218.83,0,0,0-8.9,52.7c-.29,6.25,8.12,7.76,11.18,3a74.22,74.22,0,0,0,10.77-52.15c-1.06-6.87-11.64-4.93-11.79,1.6L318,237.54c-.17,7.73-.51,15.5,2,22.94,1.68,5.08,10.59,6.3,11.57,0q3.83-24.51,6.41-49.2c.71-6.77-10.22-8.09-11.79-1.6-3.9,16.22-6.34,32.86-2.28,49.3,1.74,7,11.09,4.73,11.79-1.6l4.24-38.54h-12a257.21,257.21,0,0,0,.26,37.54c.51,6.37,10.14,8.59,11.79,1.6a313,313,0,0,0,6.15-35.42h-12a198.11,198.11,0,0,0,.06,40.76c.65,6.19,10.29,8.76,11.79,1.6a314.26,314.26,0,0,0,5.34-36.13h-12l-.73,36.74c-.14,6.9,9.82,8,11.79,1.6a138.68,138.68,0,0,0,5.9-33.9c.33-6.63-10.85-8.36-11.79-1.6l-4,28.69c-.42,3,.48,5.82,3.47,7.08,2.54,1.07,6.21.25,7.49-2.45a177.63,177.63,0,0,0,12.22-34.51c1.82-7.62-8.91-10.35-11.57-3.19a88.28,88.28,0,0,1-7.83,15.81c-3.74,6,4.48,11.61,9.42,7.27a108.94,108.94,0,0,1,38.77-21.87l-4.62-11L357,230.91l8.81,6.78c.61-1.7,3.56-2.72,5-3.49,2.92-1.52,5.85-3,8.78-4.53l16.67-8.6c7-3.62.85-13.31-6.06-10.36l-26,11.11,6.06,10.36a212.3,212.3,0,0,1,31.92-17.9c6.14-2.78,1.77-13.31-4.62-11a276.38,276.38,0,0,0-37.84,17.14c-6.82,3.74-.81,13.77,6.06,10.36A422.83,422.83,0,0,1,409.69,212a6,6,0,0,0-3.19-11.57c-4,.73-6.23,4-6.17,7.94.07,4.76,5,7.19,9,5.18a36.9,36.9,0,0,0,9.62-7l-9.42-7.27a126.69,126.69,0,0,0-6.79,17.13c-2.36,7.57,8.7,10.1,11.57,3.19L419.17,208l-11.79-1.6a388.88,388.88,0,0,1-7.83,54q-2.85,13-6.57,25.86c-2.57,8.85-5.89,17.54-7.36,26.67-1.05,6.52,7.09,10.65,11,4.62,15.68-24.37,20.9-53.13,25.61-81.23,1.25-7.47-9.82-10.84-11.57-3.19q-8.4,36.69-15.82,73.6c-1.51,7.51,9.84,10.77,11.57,3.19q4.5-19.68,10.69-38.89l-11.79-1.6A148.5,148.5,0,0,1,399,299.22l11.57,3.19a181.2,181.2,0,0,1,10.56-32l-11-4.62-11.51,36,11.79,1.6c-1.23-31.16,9.35-62.55-3.83-92.46-2-4.48-8.09-3.29-10.36,0a53.92,53.92,0,0,0-5.74,11c-2.18,5.48,6.33,10.38,10,5.84a13.84,13.84,0,0,0,3.36-6.62c.7-3.93-2.71-9.3-7.38-7.38a283.28,283.28,0,0,0-42.26,21.49c-5.48,3.41-1.91,13.69,4.62,11L385.82,235l-4.62-11-32.95,23.83c-6.14,4.44-.51,14.66,6.06,10.36a218.32,218.32,0,0,1,28.86-15.92l-7.27-9.42a165.88,165.88,0,0,1-24.8,17.85l6.06,10.36A255.13,255.13,0,0,1,389.5,242.6l-7.27-9.42q-13.43,11.11-25.77,23.42c-5.51,5.5,2.76,13.61,8.49,8.49a178.54,178.54,0,0,1,33-23.37l-7.27-9.42-32.29,30.51,8.49,8.49q15.61-16.34,30.07-33.71c4-4.81-1.33-13.73-7.27-9.42l-7,5.06L391.5,240a10.33,10.33,0,0,1,2.94-3.7l-10-5.84a101.32,101.32,0,0,0-7.35,30.07c-.59,6.34,8.2,7.58,11.18,3a250.81,250.81,0,0,0,16.1-28.41l-11-4.62a346.75,346.75,0,0,0-15.43,64.73c-1,7.4,9.47,10.88,11.57,3.19q9.1-33.21,18.79-66.25c2.18-7.44-9.27-10.54-11.57-3.19-7.91,25.26-12.21,51.38-16.41,77.46-1.2,7.45,9.65,10.84,11.57,3.19L402,269.52c1.9-7.54-9.11-10.47-11.57-3.19a202.18,202.18,0,0,0-9.85,47.75l11.18-3-3.64-6.6c-3.73-6.76-14.1-.72-10.36,6.06l3.64,6.6c3.08,5.58,10.7,2.55,11.18-3A188.92,188.92,0,0,1,402,269.52l-11.57-3.19-10.1,40.12,11.57,3.19c4.2-26.08,8.5-52.2,16.41-77.46L396.73,229q-9.69,33-18.79,66.25l11.57,3.19a346.75,346.75,0,0,1,15.43-64.73c2.18-6.37-8-10.77-11-4.62a250.81,250.81,0,0,1-16.1,28.41l11.18,3A91.14,91.14,0,0,1,396,233.64c2.51-6-6-9.42-10-5.84a23.23,23.23,0,0,0-6,9c-2,4.73,4.75,9.72,8.81,6.78l7-5.06-7.27-9.42Q374,246.45,358.39,262.79c-5.34,5.6,2.86,13.79,8.49,8.49l32.29-30.51c5-4.76-1.39-12.67-7.27-9.42a192.49,192.49,0,0,0-35.43,25.25l8.49,8.49q12.33-12.31,25.77-23.42c5.57-4.61-1.52-12.17-7.27-9.42a255.13,255.13,0,0,0-32.35,18.49c-6.35,4.27-.67,14.33,6.06,10.36a182.84,182.84,0,0,0,27.23-19.73c5.5-4.8-1.5-12.06-7.27-9.42a218.32,218.32,0,0,0-28.86,15.92l6.06,10.36,32.95-23.83c5-3.62,2.16-13.79-4.62-11l-26.89,11.2,4.62,11a265.24,265.24,0,0,1,39.39-20.28l-7.38-7.38-.28,1.32,10,5.84a40.85,40.85,0,0,1,4.53-8.14H396.28c11.93,27.09,1.07,58.13,2.19,86.4a6,6,0,0,0,11.79,1.6l11.51-36c2-6.35-8.19-10.91-11-4.62A197.37,197.37,0,0,0,399,299.22c-1.75,7.53,9.25,10.56,11.57,3.19a164,164,0,0,0,6.67-33c.71-7-9.8-7.74-11.79-1.6q-6.19,19.21-10.69,38.89l11.57,3.19q7.42-36.9,15.82-73.6l-11.57-3.19c-4.53,27.07-9.29,54.89-24.4,78.36l11,4.62c1.52-9.43,5-18.43,7.63-27.58q3.82-13.28,6.71-26.81a412.86,412.86,0,0,0,7.86-55.35c.55-7.35-9.42-7.29-11.79-1.6l-4.82,11.63,11.57,3.19a105,105,0,0,1,5.58-14.26c2.84-5.92-4.35-12.32-9.42-7.27a26.67,26.67,0,0,1-7.2,5.1l9,5.18v-1.09l-1.76,4.24-.86.48-3.19-11.57a450.72,450.72,0,0,0-46.75,20l6.06,10.36a255.43,255.43,0,0,1,35-15.93l-4.62-11a212.3,212.3,0,0,0-31.92,17.9c-6.53,4.44-.94,13.35,6.06,10.36l26-11.11-6.06-10.36L368.29,222c-6,3.11-11.65,5.72-14.07,12.47-2,5.5,4.53,8.64,8.81,6.78l30.82-13.4c6.24-2.71,1.8-13-4.62-11a123.48,123.48,0,0,0-44.06,25l9.42,7.27a103.88,103.88,0,0,0,9-18.68l-11.57-3.19a162.59,162.59,0,0,1-11,31.64l11,4.62,4-28.69-11.79-1.6a125.3,125.3,0,0,1-5.47,30.71l11.79,1.6.73-36.74c.16-7.83-11.32-7.57-12,0a286.31,286.31,0,0,1-4.91,32.94l11.79,1.6a198.11,198.11,0,0,1-.06-40.76c.78-7.72-11.12-7.56-12,0a285.09,285.09,0,0,1-5.72,32.23l11.79,1.6a257.21,257.21,0,0,1-.26-37.54c.52-7.81-11.17-7.53-12,0l-4.24,38.54,11.79-1.6c-3.53-14.31-1.1-28.83,2.28-42.92l-11.79-1.6q-2.41,23.08-6,46h11.57c-2.32-7-1.64-14.41-1.48-21.69l.51-23.29-11.79,1.6a61.64,61.64,0,0,1-9.56,42.9l11.18,3a205.16,205.16,0,0,1,8.48-49.51l-11.57-3.19L303,260.66l11.79,1.6a188.47,188.47,0,0,1,9.88-59L313.08,200c-4.59,14.64-9.83,29.08-15.83,43.2l11,4.62A204.11,204.11,0,0,1,322,198.12l-11-4.62-8.08,19.55c-2.15,5.2-3.76,12.61-8.34,16.21l10.24,4.24A112,112,0,0,1,320.6,188L310.24,182c-4.41,10-9.06,21.16-18.16,27.85l9,5.18a59.63,59.63,0,0,1,13.22-37.74L304.09,173a21.74,21.74,0,0,1-8.37,17.31l8.81,6.78a39.85,39.85,0,0,1,13.13-22.28l-9.42-1.21-.5-1.34c-2.66,7.26,8.93,10.39,11.57,3.19Z" fill="#161b1f"/><path d="M356,279a20.58,20.58,0,0,0-19.65,2.8c-5.53,4.28-7.7,9.89-8.6,16.57-1.75,13,1.8,28.65,17.24,30.72,22.62,3,33-24.14,33.4-42.3.27-12.94-6.12-25.85-20.66-26.41-15.81-.6-21.54,15.6-22.3,28.47a47.71,47.71,0,0,0,6.89,27.39c6.9,10.77,20.71,17.31,32.71,10,10.64-6.47,11.7-20.56,14.35-31.6,3-12.68,9.05-27-1.11-37.95-6.42-6.92-19-7-25.46,0a18.38,18.38,0,0,0,0,25.46l.68.73L358.86,275l.15,1.1V266.5c-.91,6.24-2.88,12.47-4.35,18.6l-2.09,8.73-1.16,4.85-.46,1.94q-2.09,7,4.86-5l9.08-2.46q-7.35.61,8.91,5.54a25.2,25.2,0,0,1-1.58-2.73c1.57,3-.68-2.67-.88-3.58q.3,3,.05-.19a31.82,31.82,0,0,1,0-3.34q-.53,3,.08-.17,1.48-4.7-2.14,2.56l-12.73,5.27-2.65-.33L346,291.58,342.34,283l.06,1.52c-.09,1.27,0,2.57-.06,3.85,0,.41-.37,3.7-.05,1.44.36-2.51-.51,2.09-.52,2.13-.25,1-.62,1.93-.88,2.9.4-1.52,1-1.8,0-.19-.29.47-2.68,3.51-1.11,1.87q1-1.26-.07-.12-4,3.86,7.69-3l9.08,2.46-1-.55,6.46,6.46q1.62,9.56,1.33,5.15-.09-1.32,0-2.65l.08-1.77a9.32,9.32,0,0,1-3.28,6.14L352,313.32l1.28-.33h-9.57a6.93,6.93,0,0,1,2.69.75c8.79,3.43,20.14-3.76,22.14-12.57,2.35-10.33-3.16-18.47-12.57-22.14Z" fill="#161b1f"/><path d="M376.56,227.57c-5.81,8.33-6.53,19.18-7.69,28.95-1,8.59-2,17.89,1.43,26.1,2.82,6.84,7.17,11.85,15,12.89a18,18,0,0,0,17.94-8.59c4.46-7.93,6.52-15.82,7.45-24.79,1-9.4-9-18.4-18-18-10.58.47-17,7.93-18,18,.41-4-.77,2.57-1,3.35q-1.08,3,0,.34-.71,1.5-1.56,2.93L405,273a21.65,21.65,0,0,1-1.38-4.5c.48,2.61.27.91.3-.77.05-3.15.39-6.31.73-9.45,0-.4.64-5,.36-3s.43-2.62.5-3c.3-1.71.63-3.37,1.08-5-.67,2.49.35-.5,1-1.49,5.41-7.74,1.66-20.34-6.46-24.63-9.21-4.86-18.86-1.81-24.63,6.46Z" fill="#161b1f"/><path d="M393.87,222.41c-7.63,6-9.09,16.18-9.55,25.19-.44,8.68-1.22,18.22,1.42,26.62,2.29,7.3,9.32,13.58,17.36,13.21,7.77-.35,15.43-5.31,17.36-13.21a32.84,32.84,0,0,0,1.09-10.11c-.68-9.37-7.79-18.46-18-18-9.17.41-18.73,7.94-18,18q.12,3.31.2.54h34.71c-.42-1.35-.62-2.19-.38-.28a35.05,35.05,0,0,1-.08-4.43q0-4.27.16-8.54c0-.79-.22-6.75.35-7l-.29,2.1q.7-2.42-.15-.38c-.49.59-3.15,3.65-.75,1.77,7.45-5.83,6.57-19.43,0-25.46-7.9-7.26-17.5-6.22-25.46,0Z" fill="#161b1f"/><path d="M394.38,223.56q2.09-.88-.94.38l-3.51,1.42q-3.52,1.4-7.07,2.72-7.1,2.64-14.3,5c-9.61,3.12-19.35,5.79-29.18,8.1l13.87,32.9c3-1.76,6.09-3.36,9.27-4.81,5.06-2.32-3.1,1.07,2.13-.86,1.64-.6,3.27-1.21,4.93-1.78,6.62-2.28,13.38-4.13,20.13-6a18,18,0,0,0,12.89-19.75c-1.07-8-8.78-16.68-17.68-15.61L321.05,233c-9.31,1.12-18.47,7.47-18,18,.41,9.12,7.95,18.79,18,18l18.65-1.46c9-.71,16.43-6.31,17.68-15.61a18.08,18.08,0,0,0-12.89-19.75,55.85,55.85,0,0,0-32.75-.13c-7.31,2.21-13.57,9.38-13.21,17.36.35,7.72,5.3,15.51,13.21,17.36A292.54,292.54,0,0,0,344,272.22c9.39,1.11,18.4-9.07,18-18-.48-10.7-7.94-16.81-18-18q-3.32-.42-.75-.06-1.84-.26-3.68-.54-2.76-.43-5.51-.92c-4.28-.77-8.52-1.67-12.75-2.66v34.71a35.82,35.82,0,0,1,5.28-1.3c-2.58.36.47.14,1.54.14.61,0,4.49.41,1.53-.08a38.56,38.56,0,0,1,5.26,1.36l4.79-35.36L321.05,233v36l63.88-7.7-4.79-35.36c-15.51,4.25-31.08,8.9-45.06,17.06a18,18,0,0,0-7.36,22.48c3.54,8.39,12.4,12.5,21.23,10.42a389.81,389.81,0,0,0,63.6-21.23c8.7-3.7,11.27-17.17,6.46-24.63-5.83-9-15.32-10.42-24.63-6.46Z" fill="#161b1f"/><path d="M354.17,247.56c-8.39-5.54-19.49-2.38-25.32,5.17-3.74,4.84-5.44,11.41-7.2,17.25a194.2,194.2,0,0,0-6.7,33.93,168.07,168.07,0,0,0-.77,30.66c.37,5.6.42,12.18,2.09,17.51,2.58,8.25,10.67,16.58,20.06,15.34,7.71-1,15.42-4.85,17.36-13.21l13.75-59.49c2-8.8-2-17.68-10.42-21.23-8-3.36-18.17-.55-22.48,7.36-15.94,29.31-21.1,61.78-16.59,94.66.94,6.88,8.79,12.06,15,12.89,7.68,1,13.47-2.62,17.94-8.59,6-8,7.9-18.58,7.91-28.37,0-10.39-1.55-20.88-8.72-28.85-9.43-10.48-26.35-9.1-35.8.45-7.17,7.25-11.17,17.69-12.87,27.61-3.25,18.94-1.83,58.87,26.64,55,13.5-1.81,18.67-14.79,21.7-26.34,2.84-10.83,3.81-22,.77-32.95-2.53-9.06-12.87-15.57-22.14-12.57S313,346.25,315.74,356c.13.45,1,4.84.73,2.72-.2-1.86,0,1.59,0,1.93a37.68,37.68,0,0,1-.24,4.36c.31-2.64-.13.19-.38,1.33-.57,2.62-1.29,5.21-2.06,7.77-.22.73-.5,2.89-1.06,3.39,1.73-1.54,1.28-3.75,3.82-5L325.6,370l2.65.47,7.94,4.63q3.41,7.66,1.7,2.92-.39-1.2-.7-2.42c-.44-1.63-.7-3.28-1.09-4.92q-.33-2,.06.63-.17-1.67-.25-3.35c-.07-1.68-.08-3.36,0-5,0-.39.62-5.73,0-1.9.26-1.66.6-3.31,1-4.94s1-3.21,1.42-4.83q1.13-3,0-.39a16.5,16.5,0,0,1,1-1.94q1-1.63-.7.6,1.88-1.85.29-.49-3.71,3.27-9.48,1.68-9.68-9.58-6.37-4.29c-1.66-3.06.12-.93-.31.76l-.34-2.16q.12,1.59.2,3.18c.07,1.61.1,3.22.06,4.83,0,1.39-.58,4.76,0,1.57a39.28,39.28,0,0,1-1.15,4.54c1.16-3.61-1.17,1.55-1.87,2.48l32.9,4.3c.5,3.67-.14-1.91-.16-2.13q-.23-2.6-.35-5.21-.21-4.35-.11-8.7c.07-3.49.36-6.95.64-10.42s-.21.75.12-1.26c.28-1.72.55-3.44.87-5.15a130.65,130.65,0,0,1,4.93-18.49c.48-1.37,1-2.73,1.49-4.09,1.94-5.24-1.46,3,.86-2.13,1.45-3.17,3-6.28,4.67-9.34l-32.9-13.87L319,344.62l17.36-13.21-.87.12,9.08,2.46q7.58,17,6.49,9.57-.17-1.34-.31-2.69-.28-2.69-.48-5.4-.33-4.5-.4-9a168.39,168.39,0,0,1,.92-20.74c.11-1.07.51-4.07.14-1.49.25-1.79.54-3.57.86-5.35q.86-4.89,2-9.73t2.59-9.59q.79-2.59,1.65-5.16l.59-1.71q2-5.05-2.16,3l-7.94,4.63.76-.26-13.87-1.81.61.4c7.88,5.2,20.26,1.82,24.63-6.46,4.77-9,1.95-19.08-6.46-24.63Z" fill="#161b1f"/><path d="M313.55,382.29c1.48,8.89,3.69,18.13,9.11,25.52,6.15,8.39,15.61,16.14,26.59,16.23,14.74.13,23.49-13.73,19-27.3a64.74,64.74,0,0,0-15-24.5c-6.23-6.48-16.72-6.75-23.63-1.41A18,18,0,0,0,325,394.05a105.2,105.2,0,0,0,16,21.09c7.36,7.48,16.54,15.53,27.79,14,14.25-1.92,22.23-15.74,17.59-29.23-3.26-9.47-11.47-17.52-20.34-21.89-5.89-2.9-12.31-3.43-18.17,0-5.08,3-9.49,9.4-8.92,15.54,1,11.06,4.51,22.59,12.67,30.64,9.55,9.42,24.9,11.3,34.68,1,7.33-7.7,8.22-18.94,8.17-29a107,107,0,0,0-4.65-30.34A18.07,18.07,0,0,0,370,353c-8.25,1.11-16.3,8.73-15.61,17.68a104.16,104.16,0,0,0,5.51,27.77c3.95,10.8,9,20.77,20.94,24.18,8.84,2.52,20.26-3.07,22.14-12.57,3-15.09,3-30.71,3.76-46s1.45-29.74-5.22-44.08c-3.19-6.87-13.31-10.54-20.33-8.27C373,314.31,368.93,320.76,368,329a137,137,0,0,0,8.36,64.81c2.67,6.86,7.31,11.86,15,12.89,7.3,1,14-2.43,17.94-8.59,8.69-13.45,6.2-32.35,4.36-47.45-1.94-15.94-3.33-39.61-18.39-49.2-21-13.4-36.65,12-41.65,29a151.67,151.67,0,0,0-5.61,48.17c.37,9.4,8,18.45,18,18,10.53-.47,17-7.93,18-18a148.35,148.35,0,0,0-.07-30.07c-1.12-10.44-2.21-22.17-8.75-30.85-3.95-5.24-8.62-8.92-15.54-8.92-6.66,0-11.93,3.56-15.54,8.92-11.77,17.46-14.77,41.14-7.42,60.91,2.24,6,6.11,10.79,12.57,12.57,6,1.66,13.19,0,17.51-4.63,5.18-5.57,7.42-11.42,8-19,.75-9.41-8.81-18.41-18-18-10.39.47-17.2,7.92-18,18a9.65,9.65,0,0,1,2.52-6.47l30.08,7.94a54,54,0,0,1-1.91-6.06c-.13-.54-.94-5.61-.46-1.47a53.18,53.18,0,0,1,0-11.11c-.38,4,.19-.58.4-1.49.48-2.08,1.14-4.07,1.8-6.09,1.14-3.49-1.36,1.88.73-1.52,1.11-1.81,2.09-3.67,3.28-5.44H344a17.51,17.51,0,0,1,1.73,2.52q1.4,2.75,0-.09c.41,1.51.85,3,1.17,4.51q.31,1.52.55,3.06.45,3.06.21,1.33t.14,1.34q.2,1.87.35,3.75a149,149,0,0,1-.29,26.32h36a145.79,145.79,0,0,1,.16-15.43c.17-2.56.39-5.14.73-7.68-.26,2,.06-.2.19-.95.28-1.58.56-3.17.88-4.74,1-4.69,2.52-9.15,3.66-13.76.62-2.51-1.15,1.95.08-.31.53-1,1-2,1.54-2.92.17-.29,2-3,.91-1.56q-.88,1.09.16-.08,2.6-2.65-3.64,2.06H379l-6.58-4.91q1.29,2.46.59.72c-.88-1.59.4,1.24.53,1.68.76,2.53,1.3,5.13,1.85,7.72q1,4.68,1.74,9.4c.2,1.26.4,2.52.57,3.78-.33-2.45.09,1,.19,1.86q.93,8.56,1.13,17.17c.06,2.59-.06,5.17-.07,7.76,0-1.68.33-1.76-.07,0-.92,4.1,1.5-2-.77,1.48l32.9,4.3a129,129,0,0,1-4.51-13.66q-.92-3.48-1.64-7-.36-1.76-.67-3.54c-.07-.4-.7-5-.47-2.94.2,1.7-.15-1.76-.18-2.08q-.16-1.79-.28-3.59-.22-3.59-.24-7.19A128.58,128.58,0,0,1,404,329l-33.54,9.08c-1.69-3.64,1.3,6.46.66,2a53.72,53.72,0,0,1,.34,8.41c-.08,5.8-.5,11.6-.79,17.39q-.47,9.19-.93,18.38c-.16,3.19-.3,6.39-.55,9.58-.1,1.27-.2,2.54-.35,3.81.34-2.95-.54,2.76-.54,2.76l22.14-12.57c.83.24,5.83,2.78,5.69,4.2,0,.23-1.71-3.54-1.06-2,.57,1.32-.63-1.78-.73-2.08q-.76-2.14-1.4-4.31-1-3.48-1.73-7c-.08-.4-.81-4.95-.55-3,.24,1.82-.25-3.14-.24-3L355,375.44c.72,2.37,1.39,4.74,1.93,7.16.14.64,1.26,7.42.89,4.36a82.36,82.36,0,0,1,.39,14.82q-.11,1.85-.3,3.7.6-4-.11-1,3.09-9.87,17.8-6.6a4.42,4.42,0,0,1,2.23,2.11c-.55.37-3.35-7.07-2-3.06-.3-.88-1.39-7.19-1-3.32l-27.08,15.54c1.14.56,2.22,1.32,3.36,1.85,2.16,1-2.64-2.41.56.53,2.09,1.92-.1.37.19-.15q1.4,2.41.52.33a11.78,11.78,0,0,1,.74-10.15l6.46-6.46,1.91-1h9.57c-3.18-.52.32.67.9.8,1.69.4-1.32-1.16-2-1.75a83.09,83.09,0,0,1-6-5.94c-.76-.83-1.48-1.69-2.21-2.54-3.35-3.9.78,1.44-.8-1-1.68-2.61-3.44-5.1-5-7.8L327.77,397.7c.2.21,3.63,4.17,1.45,1.34a37.73,37.73,0,0,1,2.69,4.12c.39.68,2.38,5,1,1.61l.57,1.54q1.08,3.7,0-1.19L336,396l-.53.76,10.76-8.27c2.54-.76,5.5-.11,7.9.5q-2.22-1.41-.68-.22,1.2,1,.06,0c-.23-.27-2.39-2.64-1.12-1s-1.05-1.95-1.08-2c.9,1.58.05.31-.27-.69s-.71-2.31-1-3.47c-.76-2.93-1.25-5.93-1.74-8.92-1.55-9.31-13.56-15.35-22.14-12.57-10.07,3.26-14.23,12.16-12.57,22.14Z" fill="#161b1f"/><path d="M221.72,345.56c1.64,15.74,6.39,30.8,16,43.59,6.95,9.27,19.16,12.4,28.27,3.64,15.87-15.25-2.06-38.15-12.3-51.1-4.39-5.55-13.75-6.22-19.66-3.72-6.21,2.62-11.53,9.35-11.06,16.45,1.13,17.3,9.51,31.92,23.57,42,14.63,10.46,38.72,13,51.41-1.89,7.54-8.85,9.81-21.16,4-31.62-6-10.73-19.28-16.09-30.78-11.24-13.5,5.7-15.91,21.26-9.33,33.2,4.77,8.67,13.82,14.19,23.44,15.48,21.91,2.94,43.64-18,36.37-40.36-3.34-10.28-11-17.68-20.79-21.8-8.35-3.52-19.72-5.27-28.65-2.94a21.52,21.52,0,0,0-14.93,14.43c-1.58,5.12-.78,10.77.16,15.91,1.57,8.58,6,16.39,11.54,23,5.31,6.39,13,11.9,21.14,14,12.69,3.2,24.16-2.73,31.34-13,6-8.63,7.12-19.88,5-30-2.21-10.59-9.08-19.09-17.59-25.36-16.17-11.92-38.18-10.89-56.32-4.7-8.89,3-15.69,12.51-12.57,22.14C243.19,361.79,252,365.75,262,364.2l29.49-4.57c5.54-.86,11.42-1.19,16.25-4.4,6.19-4.11,10.31-10.78,10.19-18.41-.27-16.35-17.93-23.26-31.82-19.74-11.45,2.9-19.05,11.08-23.28,21.79-2.6,6.59,1.32,15,6.45,18.92,6.1,4.71,13.21,4.51,20,1.41,20.55-9.4,31.57-30.87,38.64-51.16,2.5-7.19-1.6-16.8-8.27-20.33s-16.73-3.51-21.81,2.81c-13.1,16.3-18.18,35.49-14.17,56.12,2.44,12.52,21.83,18.32,30.08,7.94,7.71-9.7,12.11-20.24,16.31-31.82,4-10.91,8.89-21.88,12-33.06,2.4-8.76,0-17.63-7.29-23.22-9.11-7-20.62-3.59-28.48,3.42-8.44,7.53-12.29,18.69-14.92,29.36-2.25,9.13,2.92,19.94,12.57,22.14,10.5,2.39,18.27-3.23,22.14-12.57a188.64,188.64,0,0,0,12.32-44.21c1.17-7.72-.7-16.33-8.27-20.33-6.65-3.52-16.59-3.42-21.81,2.81-6.82,8.14-12,17.13-14.26,27.61-3,13.83,8.37,25,22.14,22.14,6.39-1.35,11.17-5.6,14.63-10.93,5.14-7.91,1.86-20.23-6.46-24.63a18.41,18.41,0,0,0-24.63,6.46l6.88-5.62,22.14,22.14c.34-1.56.76-3.05,1.18-4.6,1.21-4.51-1.59,2.58.54-1.57.72-1.41,1.59-2.74,2.32-4.14,1.68-3.23-1.58,1.61,1-1.42l-30.08-17.51a188.64,188.64,0,0,1-12.32,44.21l34.71,9.57c.47-1.92,1-3.85,1.51-5.75.25-.85,2.6-6.64.72-2.69a28.36,28.36,0,0,1,2.87-5q-2,2.65,0,.45-2.82,1.93.16.28l-9.08,2.46,1.59.06-12.73-5.27.76.63L307.26,286l.24-6.44-.32,1.08a23.85,23.85,0,0,0-1.31,3.61l-2.95,8.13-5.57,15.36c-1.63,4.49-3.22,9-4.94,13.45-.51,1.32-.92,1.95-.11.29-.6,1.24-1.17,2.49-1.81,3.71-.51,1-1.05,1.92-1.63,2.86-.34.55-2.5,3.53-.52,1l30.08,7.94c-1-4.9-.06,3.51-.22-1.48,0-1.32-.11-2.63-.08-3.95s.12-2.63.25-3.94c-.39,4.12.31-.83.46-1.44.31-1.28.69-2.54,1.12-3.79.49-1.44,1.44-3.07.26-.83.74-1.41,1.43-2.81,2.26-4.16.43-.69,3.18-4.36.87-1.49l-30.08-17.51c-.64,1.84-1.32,3.66-2,5.48s-.48,1.22.14-.21c-.39.9-.79,1.8-1.21,2.7a81.91,81.91,0,0,1-6,10.89c-.54.8-1.11,1.58-1.66,2.37-1.42,2.07,1.94-2,.14-.27-1.36,1.31-2.53,2.81-3.93,4.1-.3.28-2.63,2.34-.87.87s-.66.42-1,.66a42.71,42.71,0,0,1-5.64,3.05l26.44,20.33c-.13.32-3,5.32-1,2.41L295.08,352q2.21-1.19.26-.28c-3.2,1.14,4.66-.57-1.75.37,3.33-.49-2.76-.89.31.32L286,347.82l.91.76-4.63-7.94-.34-2.76,2.46-9.08q11.52-6.33,6.2-5.22-1.34.24-2.69.43l-3.93.61-10.81,1.67-20.64,3.2L262,364.2c2.25-.77,4.5-1.49,6.81-2.08,1.15-.29,2.31-.54,3.47-.8s2.44-.39.47-.17c2.65-.29,5.3,0,7.94-.19s-2.15-.64.05,0c1,.26,1.94.41,2.89.68s1.88.62,2.83.91c2.22.69-2.08-1.4-.24,0a16.7,16.7,0,0,0,2.54,1.5c2,1-1.59-1.79-.15-.13a27.8,27.8,0,0,0,2.07,2.08c1.51,1.39-.88-2.05-.18-.11.13.36,1.42,3.25.72,1.17-.79-2.35.4,2.1.4,2.1-.42-1.42-.2-2.5-.21-.37s-.25.94.21-.41c-.31.91-.48,1.88-.79,2.8.54-1.61,1-1.81-.16-.41,2.73-3.29,4.68-2.45,8.88-2.9-1.66.18-1.54-1,0,.09-.79-.58-1.71-1.08-2.54-1.62,1.32.85,1.57,1.39.27,0-.67-.7-1.36-1.39-2-2.09-2.22-2.33.51,1.32-.26-.43a14.42,14.42,0,0,0-1.47-2.52c-1.39-1.85.72,2.52,0,.31-.29-.93-.63-1.83-.89-2.77-.11-.42-1-3.54-.41-1.17q.18,1.79,0,.23-.18-3.8-1.53,4.53l-6.46,6.46c-1.16.7-8.15,1-3.85,1.54,1.11.13,2.3.09,3.42.14,3.24.16-.58-.51,1.11.2.27.11,3.56,1,1.86.37-2.29-.82,2.86,1.31.26-.06-1.73-.91.45.53.93.95,1.39,1.2-.68-1.32-.93-1.61q-.54-1.63-.09-.18.55,2-.08-1.34a8.08,8.08,0,0,1,1-3.49l1.1-1.17-1,1.1c-.16-1.57,2.45-.05-.2,0l1.3-.58-1.57.39a24.44,24.44,0,0,1,3.17-.08q-2.38-.74-.32,0a2.87,2.87,0,0,1,1.69,1q1.35,1.19.27.17t.13.32c1.65,3.89,4.13,5.42-.09,11.41L286,384.35c-8,5.07-19-2.38-16.35-11,.71-2.27,1.72-2.86,3.42-4.3-1.27,1.07-1.31.54.17,0,3.38-1.17-2.62,0,.77.23a16.4,16.4,0,0,1-3.1-.69c-1.27-.35-4.22-2.1-.89-.13-1-.59-2.05-1.05-3-1.65s-3.24-2.54-.32,0c-.87-.76-1.75-1.51-2.57-2.33s-1.57-1.7-2.35-2.56c1.56,1.73,1,1.39,0-.3-.62-1-1.15-2-1.71-3-1.59-2.92.35,1.82,0-.18a33.45,33.45,0,0,0-.93-3.33c-1.12-3.59.18,3.36-.08-.71l-30.73,12.73c-2-2.48,2,2.81,2.3,3.33q1.44,2.16,2.76,4.4t2.52,4.54q.8,1.54,1.54,3.1a10.79,10.79,0,0,1-.71-7.94l4.63-7.94-.74.71L268.78,371A72.89,72.89,0,0,1,264,363.9q-1.07-1.85-2-3.76c-.28-.55-1.71-4-.61-1.16a73.06,73.06,0,0,1-2.38-7.3c-.36-1.38-.61-2.78-1-4.16-1-3.79.11,2.27-.33-2-1-9.34-7.58-18.47-18-18-8.92.4-19,8-18,18Z" fill="#161b1f"/><path d="M93.39,234.72l-2.84-.8,2.1,3.69a88.51,88.51,0,0,1,7-20.2c1.85-3.73,8.44-10.67,5.78-15.08C98.93,191.57,90.68,217.9,90,221.58l5.89.8c.57-4.92,1.48-12.47,7.4-13.84s13,3.71,18,6.11l3-5.18a41.35,41.35,0,0,1-7.18-4c-2.57-1.84-4.41-4.41-6.87-6.3-2.87-2.2-6-1.84-8.05,1.06a3,3,0,0,0,1.08,4.1A149.46,149.46,0,0,0,129,212.78V207a4.85,4.85,0,0,1-4.47-.24l-1.6,5.79c3,.59,6,1.31,8.9,2.16a3,3,0,0,0,3.39-1.38l-.14-.16-2.31-5.48c-4,1.82-7,4.75-10.34,7.41A69,69,0,0,1,110,222.51c-8,3.94-16.12,7.46-23,13.3-2.29,1.94.15,5.92,2.92,5a96.89,96.89,0,0,0,23.41-11.26l-3-5.18a126.12,126.12,0,0,1-18.14,11.33l3,5.18L125.59,222c3-1.85,1-6.12-2.31-5.48-5.85,1.14-10.83,4-15.62,7.42l3,5.18a142.1,142.1,0,0,0,16-13.85c2.26-2.29-.11-5.47-2.92-5-4.7.77-8.17,4.24-11.75,7.14q-7.06,5.71-14,11.53l4.24,4.24,19.89-18.56c2.58-2.41-.7-6.22-3.64-4.71a73.11,73.11,0,0,0-21.39,16.54l4.24,4.24,11.83-15a3,3,0,0,0-4.24-4.24L95.3,222.31l4.71,3.64A74.32,74.32,0,0,1,109.33,212l-4.24-4.24-11.46,14.8,4.71,3.64a85.11,85.11,0,0,0,4.82-13.14c.76-2.79-3-5.2-5-2.92A59.54,59.54,0,0,0,87.31,227.5c-1.13,2.74,3.17,5.17,5,2.92q5.71-7,10.79-14.37c2.19-3.21-3-6.14-5.18-3s-14.81,18.25-6.45,20.75c3.4,1,6.83-3.17,8.85-5.34a43.41,43.41,0,0,0,8-12.52c1-2.37-1.37-6.12-4.1-4.1a32.14,32.14,0,0,0-12.46,18.24,3,3,0,0,0,4.41,3.39,82.86,82.86,0,0,0,17.52-12.06c2.21-2-.11-6-2.92-5a30.84,30.84,0,0,0-13.52,8.85,3,3,0,0,0,3.64,4.71,95.13,95.13,0,0,0,16.71-10.08,3.1,3.1,0,0,0,1.38-3.39l-.29-2.3c.73-3.77-5.05-5.39-5.79-1.6a9.58,9.58,0,0,0,.29,5.49l1.38-3.39a95.13,95.13,0,0,1-16.71,10.08l3.64,4.71a24.8,24.8,0,0,1,10.87-7.31l-2.92-5a76.73,76.73,0,0,1-16.31,11.12l4.41,3.39A25.67,25.67,0,0,1,107.3,217l-4.1-4.1a41.5,41.5,0,0,1-4.58,8.26c-.5.68-5.59,6.83-5.88,6.7l2.1,2.1c-.51-1.45,3.16-6.19,3.83-7.26,1.41-2.26,2.91-4.46,4.45-6.63l-5.18-3q-4.64,6.8-9.86,13.15l5,2.92a51,51,0,0,1,9.3-14.7l-5-2.92a75.47,75.47,0,0,1-4.21,11.71c-1.29,2.82,2.46,6.55,4.71,3.64L109.33,212c2.3-3-1.69-7.24-4.24-4.24a81.15,81.15,0,0,0-10.26,15.13c-1.65,3.16,2.11,5.73,4.71,3.64l13.59-10.9-4.24-4.24-11.83,15c-2.33,3,1.62,7.19,4.24,4.24a68.44,68.44,0,0,1,20.18-15.6l-3.64-4.71L98,228.91c-2.86,2.67,1.32,6.68,4.24,4.24q5.5-4.59,11.05-9.12c3.54-2.88,7.44-7.25,12.07-8l-2.92-5a131.89,131.89,0,0,1-14.74,12.91c-3,2.27-.13,7.46,3,5.18,4.38-3.16,8.83-5.77,14.19-6.81l-2.31-5.48L92.17,235.71c-3.29,2-.4,6.94,3,5.18a126.12,126.12,0,0,0,18.14-11.33c3-2.26.26-7.35-3-5.18a91,91,0,0,1-22,10.65l2.92,5c6.86-5.81,15.27-9.07,23.21-13.06a68.85,68.85,0,0,0,10.73-6.47c3.52-2.66,6.58-5.8,10.64-7.66,3.06-1.41.89-6.64-2.31-5.48-1.86.68-2.63,1.09-3.45,2.91l3.39-1.38c-2.94-.85-5.89-1.56-8.9-2.16a3,3,0,0,0-1.6,5.79,10.92,10.92,0,0,0,7.66.24c2.72-.82,3-5.1,0-5.79a141.26,141.26,0,0,1-24.29-7.87l1.08,4.1c-2.2,3.07,12,10.57,13.9,11.43,3.47,1.56,6.54-3.49,3-5.18-7.19-3.46-16.7-9.8-24.92-5.89-7.2,3.43-8.67,11.65-9.49,18.79-.38,3.33,5.32,4.13,5.89.8A45.63,45.63,0,0,1,98.32,214c.88-2.21,2.58-7.25,4.8-8.38h-3c-1.65-.72-7.23,12.14-7.93,13.78A95.19,95.19,0,0,0,86.86,236,3.06,3.06,0,0,0,89,239.7l2.84.8c3.72,1,5.31-4.74,1.6-5.79Z" fill="#161b1f"/><path d="M110.15,206.07a4.23,4.23,0,0,0-4.39,1.22,3,3,0,0,0,0,4.24,20,20,0,0,0,7.12,4.1c3.22,1.06,5.31-3.89,2.31-5.48a14.37,14.37,0,0,0-10.75-1.22c-2.36.66-3.08,4.3-.72,5.48,3.27,1.64,12.11,5,13.3-.71,1-4.88-6.41-7.83-10.06-8.66l-.8,5.89h3.71c3.86,0,3.87-6,0-6h-3.71c-3.31,0-4.17,5.13-.8,5.89a13.84,13.84,0,0,1,3.52,1.22c.61.32,2.21,1,2.35,1.65v-1.6l-.06.38.77-1.32-.25.32,1.32-.77c-1.68.68-4.78-.73-6.27-1.48l-.72,5.48a8.07,8.07,0,0,1,6.13.62l2.31-5.48a12.7,12.7,0,0,1-4.48-2.55v4.24l0,0-1.51.41,0-.05c3.74,1,5.34-4.82,1.6-5.79Z" fill="#161b1f"/><path d="M257.85,316.61a13.43,13.43,0,0,0-4.69,5.21c-.8,1.63-2,4.44-.61,6.07s3.45.76,4.73-.39c2.39-2.16,4.39-5,6.49-7.49a1.51,1.51,0,0,0-1.82-2.36,17.9,17.9,0,0,0-9.28,10.74,1.52,1.52,0,0,0,2.2,1.69A18.45,18.45,0,0,0,263.6,319a1.52,1.52,0,0,0-2.2-1.69,14.31,14.31,0,0,0-7.39,9,1.5,1.5,0,0,0,2.89.8,11.34,11.34,0,0,1,6-7.19l-2.2-1.69a15.39,15.39,0,0,1-7.34,9.29l2.2,1.69a14.94,14.94,0,0,1,7.9-8.95l-1.82-2.36-3.33,3.87-1.67,1.94c-.15.17-1.19,1.65-1.49,1.68s1-2.88,1.21-3.15a10.25,10.25,0,0,1,3-3c1.6-1.07.1-3.67-1.51-2.59Z" fill="#161b1f"/><path d="M428.79,390.6c-.45,2.54-1.13,11.18,3.74,10.24,2-.39,2.42-2.86,2.71-4.5a21.75,21.75,0,0,0,0-7.38c-.22-1.34-2.12-1.36-2.74-.36a12.4,12.4,0,0,0-1.19,10.74c.45,1.28,2.59,1.57,2.89,0a39.74,39.74,0,0,0,.64-10.45c-.1-1.39-2.05-2.16-2.8-.76a17.26,17.26,0,0,0-2.05,9.15,1.51,1.51,0,0,0,2.8.76,7.42,7.42,0,0,0,.29-7.33c-.83-1.74-3.42-.22-2.59,1.51a4.33,4.33,0,0,1-.29,4.3l2.8.76a14.25,14.25,0,0,1,1.64-7.63l-2.8-.76a36.68,36.68,0,0,1-.53,9.65h2.89a9.5,9.5,0,0,1,.88-8.43l-2.74-.36A17.68,17.68,0,0,1,432,397l-.2.71.05-.21c-.32-.17-.37-1.56-.4-1.84a15.51,15.51,0,0,1,.2-4.24c.33-1.89-2.56-2.7-2.89-.8Z" fill="#161b1f"/><path d="M227.39,538.37c6.22-2.46,13.29-.68,20.66,4.92,9.28,7.05,16.31,17.1,22.09,27.14a122.7,122.7,0,0,1,9.34,19.66,66.64,66.64,0,0,1,3.92,17.36,25.44,25.44,0,0,1-.91,9.78,17.76,17.76,0,0,1-4.94,7.52l-12.68,11.83L261,629.88l2.28-3.11-.51-2.73L221.2,552.48l-2.12-1.8-3.66.74-3.92-6.76Zm-.24,9.15,42.53,73.23,2.58-2.26c3.52-3.09,4.49-8.42,2.88-15.54-2.23-9.86-7.14-19.42-12.33-28s-10.52-17.59-18-24.32c-5.32-4.75-10.25-6.31-14.5-4.48Z" fill="#fff"/><path d="M306,588.7a44.39,44.39,0,0,1-.87,9.15,9.82,9.82,0,0,1-2.44,5c-1.66,1.57-3.82,1.47-6.52-.36s-5.36-5-7.93-9.44c-3.17-5.46-4.79-10.32-4.8-14.45s2.14-10.07,6.65-17.42l-1.87-3.21c-2.26-3.9-4.29-6.51-6.11-7.88s-3.57-1.6-5.24-.69a4.8,4.8,0,0,0-1,.79,8.73,8.73,0,0,0-1,1.2L281,561.86l-4.53,2.84a2.06,2.06,0,0,1-2.3.06,8.09,8.09,0,0,1-2.41-2.89,16.58,16.58,0,0,1-2.27-11.17,10.32,10.32,0,0,1,5.69-8,9.24,9.24,0,0,1,9.9.35c3,2,6.52,6.39,10.49,13.22l15.69,27,1.44,1,2.65-1.58,2.62,4.51-7.72,7.2Zm-2.57-4.43-10.22-17.6c-2.22,3.76-3.32,7.05-3.33,9.81a18.51,18.51,0,0,0,2.91,9.17,16.6,16.6,0,0,0,4.5,5.43c1.48,1,2.72,1.06,3.74.18a5.71,5.71,0,0,0,1.44-2.5A24.52,24.52,0,0,0,303.46,584.27Z" fill="#fff"/><path d="M328.22,577.52q-21.39-27.12-42.49-54.47c-1.68,0-2.52,0-4.2,0l-2.9-5,14.28-5.65,2.69,4.63-3,2,.35,1.56q14.21,18.15,28.55,36.21c-6.24-16.1-12.43-32.21-18.46-48.39l5.48-2.17q15.78,18.92,31.8,37.64-7.38-18.54-14.55-37.16l-1.28-.8-4.1.54-2.32-4,11.86-4.69,2.14,3.69c-1.1,1-1.65,1.51-2.74,2.54q10.16,26.68,20.67,53.22l-4.22,3.94c-11.17-13-22.18-26.07-33.14-39.21q9.76,25.88,19.82,51.63Z" fill="#fff"/><path d="M364.4,511.07l14.26-9.1,1.61,2.76-2.63,2.17-.29,1.31,7.88,13.57a61.17,61.17,0,0,1-3.94,6.44,34.32,34.32,0,0,1-4.36,5.1c-4.52,4.27-9.43,5.58-15.06,3.4S351,529.28,346.5,521.51s-6.39-14.84-5.45-20.89,4.57-10,10.58-12.32a35.13,35.13,0,0,1,5.91-1.68,57,57,0,0,1,6.76-.89l5.74,9.88-3.76,2-4.71-5.92-1.44-.74a11.69,11.69,0,0,0-2.58.18,11.54,11.54,0,0,0-2.44.75,9.92,9.92,0,0,0-6.5,9.16c-.27,4.48,1.45,9.9,5,16,3.64,6.27,7.54,10.46,11.54,12.29s7.64,1.09,11.09-1.94q.35-.3.95-.9t1.37-1.41l-7.32-12.6-1.24-.33-3.74,2.11Z" fill="#fff"/><path d="M389.14,475.65l4.5,6.61-3,2-3-3.4-1-.14a10.12,10.12,0,0,0-2,.54,8.55,8.55,0,0,0-1.75.91,5.3,5.3,0,0,0-2.25,2.68,3.19,3.19,0,0,0,.5,2.87,3.48,3.48,0,0,0,2.14,1.48,18.08,18.08,0,0,0,5.45-.27l.13,0q9.48-1.43,11.91,2.13a8.84,8.84,0,0,1,1.38,7.83q-1.21,4-5.93,7.25a31,31,0,0,1-4.1,2.33,44.49,44.49,0,0,1-4.94,2l-5-7.34,3-2,3.48,3.86.89.21a11.17,11.17,0,0,0,2.54-.59,10.48,10.48,0,0,0,2.34-1.2,5.59,5.59,0,0,0,2.44-3.06,4,4,0,0,0-.66-3.39q-1.44-2.11-7-1.12-1.9.34-3,.47a16.35,16.35,0,0,1-6.38-.07,6.43,6.43,0,0,1-3.65-2.67,7.77,7.77,0,0,1-1-7.16,13.72,13.72,0,0,1,5.7-6.86,28,28,0,0,1,8.32-3.86Z" fill="#fff"/></g><g id="Layer_2" data-name="Layer 2"><path d="M277,198c1,29-87.5,70.5-58,100,0,0-41,128,87,128,0,0,35.5-11.5,66,19,0,0,7,13,45-40l-13.84,37.81C420.32,448,426.87,461.42,426,480.5c-43.14,71.64-99.26,132.34-176.76,175-10.61-32-25.57-60.65-48.93-83,7.85-4.07,11.12-8.74,10-14,0,0-30.83-33-10.83-36,13-12-56-99-56-99s23.87-.13,29.65-5.9-47.65-19-47.65-19c2.94-3,44.57-17.49,44.88-39.1.15-9.9-8.49-17.85-25-33-24.16-22.23-37.16-23.15-41.94-39-2.84-9.42.6-12.92-4-26a48.19,48.19,0,0,0-3.12-7.25C94.8,251.34,93.17,249.08,90,244a22.39,22.39,0,0,1-1.9-3.77s-.33-.85-.6-1.73c-2.47-8.19,5-44,14-41,1.48.49,20.15,1.83,38.36,11,15.94,8.06,39.11,17.36,59.5,17,11.12-15.45,44.41-21.77,77.89-28,2.57-18.18,25.45-38.2,45.94-58,0,0,13,52,13,58s19,16,19,16c15.42-14.27,41.68-22.91,70.9-30,2.2,41.28,5.67,82.13-9,129h22s-29.51,43,9,79c-2.16,3.44-4.4,6.77-6.7,10-45.86,64.7-121.86,90.18-122.12,90.49-47.92,1.1-89.41,9.44-119.18,31" fill="none" stroke="#161b1f" stroke-miterlimit="10" stroke-width="6"/><path d="M247,269l28,10S279.5,236.5,247,269Z" fill="none" stroke="#161b1f" stroke-miterlimit="10" stroke-width="6"/><path d="M99,262s24,34,58,33,33.51-3.07,60.25,9.46" fill="none" stroke="#161b1f" stroke-miterlimit="10" stroke-width="6"/><path d="M227,304l20,5S245,286,227,304Z" fill="none" stroke="#161b1f" stroke-miterlimit="10" stroke-width="6"/><path d="M140,209c-4.88,6.71-11.43,12.58-18.18,17.5A155,155,0,0,1,90,244" fill="none" stroke="#161b1f" stroke-miterlimit="10" stroke-width="6"/><path d="M426,481c31.49-22,41.07-32.12,37-45" fill="none" stroke="#161b1f" stroke-miterlimit="10" stroke-width="6"/><path d="M448,392c-4.2,12,5,27.89,15,44,48-29,44.2-53,28-97C451.85,345.66,419.73,355.44,448,392Z" fill="none" stroke="#161b1f" stroke-miterlimit="10" stroke-width="6"/><path d="M451.36,415.24c11.35-4.11,17.08-15.49,18.64-32.24l-19,25" fill="none" stroke="#161b1f" stroke-miterlimit="10" stroke-width="6"/><path d="M408,442c20.53,0,26.66,11.77,20,34" fill="none" stroke="#161b1f" stroke-miterlimit="10" stroke-width="6"/></g></svg>