<?xml version="1.0" encoding="UTF-8"?>
<svg xmlns="http://www.w3.org/2000/svg" xmlns:xlink="http://www.w3.org/1999/xlink" version="1.1" viewBox="0 0 400 400">
  <g id="Layer_1" data-name="Layer 1" display="none">
    <g id="Qo7Z73.tif">
      <image id="Layer_0" data-name="Layer 0" width="444" height="459" transform="translate(-4769.03 -1636.566) scale(2.42)" xlink:href="ansible-ai-connect-01b-1.png"/>
    </g>
  </g>
  <g id="Layer_2" data-name="Layer 2">
    <g>
      <path d="M239.976,252.951c-24.159,0-46.892-4.496-64.01-12.658-17.407-8.301-26.994-19.445-26.994-31.379,0-12.189,10.039-25.983,26.854-36.898,8.475-5.501,18.452-10.055,28.853-13.169,11.447-3.427,23.323-5.165,35.297-5.165s23.851,1.738,35.297,5.165c10.401,3.114,20.378,7.668,28.853,13.169,16.815,10.915,26.854,24.708,26.854,36.898,0,11.934-9.587,23.078-26.994,31.379-17.118,8.163-39.851,12.658-64.011,12.658ZM239.976,156.134c-11.736,0-23.375,1.703-34.594,5.062-10.18,3.048-19.939,7.5-28.221,12.877-7.883,5.117-14.426,11.049-18.92,17.154-4.459,6.058-6.816,12.174-6.816,17.686,0,10.936,9.09,21.294,25.597,29.165,16.795,8.009,39.153,12.42,62.955,12.42s46.16-4.411,62.955-12.42c16.506-7.871,25.597-18.229,25.597-29.165,0-5.513-2.357-11.628-6.816-17.686-4.494-6.105-11.037-12.037-18.92-17.154-8.282-5.376-18.041-9.829-28.221-12.877-11.219-3.359-22.858-5.062-34.594-5.062Z" fill="#000" stroke-width="0"/>
      <path d="M238.679,57.034s-8.016-16.449,2.278-24.429c10.294-7.98,19.47-1.995,19.47-1.995,0,0-10.544.714-16.78,9.018-6.215,8.278-4.969,17.407-4.969,17.407Z" fill="#565656" stroke-width="0"/>
      <path d="M238.529,54.856s-2.825-12.796,5.247-16.966c8.073-4.17,13.269,1.385,13.269,1.385,0,0-7.13-1.009-12.55,3.973-5.403,4.967-5.967,11.608-5.967,11.608Z" fill="#565656" stroke-width="0"/>
      <polygon points="86.243 205.042 80.243 205.042 82.243 165.042 84.243 165.042 86.243 205.042" fill="#333233" stroke-width="0"/>
      <g>
        <path d="M334.58,176.817s-2.453,7.358-4.905,9.811-9.811,7.358-9.811,7.358l-4.905-7.358s7.358-2.453,9.811-4.905c2.453-2.453,9.811-9.811,9.811-9.811v4.905Z" fill="#333233" stroke-width="0"/>
        <path d="M319.524,195.686l-6.476-9.714,1.523-.508c1.971-.658,7.49-2.768,9.332-4.609l11.904-11.904v8.065l-.063.189c-.104.312-2.575,7.663-5.202,10.29-2.51,2.51-9.693,7.308-9.998,7.511l-1.02.68ZM316.85,187.254l3.349,5.024c2.085-1.424,6.801-4.711,8.608-6.517,1.786-1.787,3.825-7.033,4.546-9.145v-1.743l-7.717,7.717c-1.933,1.933-6.424,3.782-8.786,4.665Z" fill="#000" stroke-width="0"/>
      </g>
      <g>
        <path d="M329.754,208.913c0-23.644-40.195-54.005-89.778-54.005s-89.778,30.361-89.778,54.005c0,12.043,10.432,22.923,27.218,30.702l5.098,47.573s35.663-14.311,56.412-14.841c40.112-1.026,58.865,14.841,58.865,14.841l3.166-46.858c17.709-7.82,28.798-19,28.798-31.417Z" fill="#565656" stroke-width="0"/>
        <path d="M298.85,289.691l-1.852-1.567c-.045-.038-4.729-3.932-14.18-7.653-8.728-3.436-23.425-7.426-43.861-6.898-20.289.519-55.632,14.611-55.987,14.753l-1.503.603-5.197-48.497c-17.611-8.316-27.298-19.492-27.298-31.519,0-12.189,10.039-25.983,26.854-36.898,8.475-5.501,18.452-10.055,28.853-13.169,11.447-3.427,23.323-5.165,35.297-5.165s23.851,1.738,35.297,5.165c10.401,3.114,20.378,7.668,28.853,13.169,16.815,10.915,26.854,24.708,26.854,36.898,0,6.391-2.722,12.538-8.089,18.27-4.96,5.297-11.941,9.993-20.761,13.965l-3.28,48.542ZM239.976,156.134c-11.736,0-23.375,1.703-34.594,5.062-10.18,3.048-19.939,7.5-28.221,12.877-7.883,5.117-14.426,11.049-18.92,17.154-4.459,6.058-6.816,12.174-6.816,17.686,0,5.573,2.354,10.999,6.997,16.127,4.576,5.054,11.14,9.583,19.51,13.462l.63.292,5,46.667c3.029-1.17,10.317-3.912,19.006-6.663,15.384-4.871,27.606-7.454,36.326-7.677,20.931-.531,35.999,3.577,44.957,7.121,6.391,2.529,10.637,5.103,12.867,6.629l3.065-45.364.678-.299c8.836-3.902,15.781-8.512,20.64-13.701,4.929-5.263,7.427-10.846,7.427-16.594,0-5.513-2.357-11.628-6.816-17.686-4.494-6.105-11.037-12.037-18.92-17.154-8.282-5.376-18.041-9.829-28.221-12.877-11.219-3.359-22.858-5.062-34.594-5.062Z" fill="#000" stroke-width="0"/>
      </g>
      <path d="M294.797,242.442c20.689-7.843,33.957-19.947,33.957-33.529,0-17.096-21.016-37.7-51.399-47.804l-68.863,10.802s49.054,19.622,73.581,24.527,22.074,14.716,22.074,24.527c0,8.529-7.413,18.909-9.351,21.477Z" fill="#333233" stroke-width="0"/>
      <g>
        <path d="M113.243,288.792c-26.881,0-48.75-21.869-48.75-48.75s21.869-48.75,48.75-48.75,48.75,21.869,48.75,48.75-21.869,48.75-48.75,48.75Z" fill="#ddd" stroke-width="0"/>
        <path d="M113.243,192.542c26.191,0,47.5,21.308,47.5,47.5s-21.309,47.5-47.5,47.5-47.5-21.308-47.5-47.5,21.309-47.5,47.5-47.5M113.243,190.042c-27.614,0-50,22.386-50,50s22.386,50,50,50,50-22.386,50-50-22.386-50-50-50h0Z" fill="#000" stroke-width="0"/>
      </g>
      <path d="M65.743,239.792c0-26.234,21.266-47.5,47.5-47.5s47.5,21.266,47.5,47.5c0,0-1.63-30.734-47.5-31.35s-47.5,31.35-47.5,31.35Z" fill="#fff" stroke-width="0"/>
      <g>
        <path d="M113.243,279.042c-21.505,0-39-17.495-39-39s17.495-39,39-39,39,17.495,39,39-17.495,39-39,39Z" fill="#abd9f3" stroke-width="0"/>
        <path d="M113.243,202.042c20.953,0,38,17.047,38,38s-17.047,38-38,38-38-17.047-38-38,17.047-38,38-38M113.243,200.042c-22.091,0-40,17.909-40,40s17.909,40,40,40,40-17.909,40-40-17.909-40-40-40h0Z" fill="#4a8bc9" stroke-width="0"/>
      </g>
      <path d="M153.243,240.042c0,22.091-17.909,40-40,40s-40-17.909-40-40c0,0,4.126,29.836,40,30s40-30,40-30Z" fill="#4a8bc9" stroke-width="0"/>
      <g>
        <g>
          <ellipse cx="313.311" cy="104.037" rx="12.678" ry="7.787" transform="translate(-15.408 73.515) rotate(-13.064)" fill="#333233" stroke-width="0"/>
          <path d="M310.588,113.375c-1.839,0-3.592-.263-5.155-.785-3.084-1.032-5.097-2.954-5.668-5.411h0c-.57-2.457.391-5.069,2.706-7.354,2.159-2.131,5.285-3.754,8.801-4.57,7.596-1.763,14.44.714,15.582,5.638.57,2.457-.391,5.069-2.706,7.354-2.159,2.131-5.285,3.754-8.801,4.57-1.606.373-3.214.558-4.76.558ZM315.997,97.159c-1.335,0-2.745.156-4.17.487-3.081.715-5.792,2.109-7.633,3.927-1.685,1.663-2.41,3.458-2.039,5.053h0c.37,1.595,1.811,2.888,4.056,3.639,2.453.82,5.5.879,8.582.164,3.081-.715,5.792-2.109,7.633-3.927,1.685-1.663,2.41-3.458,2.039-5.053-.614-2.648-4.141-4.29-8.468-4.29Z" fill="#000" stroke-width="0"/>
        </g>
        <g>
          <ellipse cx="166.642" cy="103.974" rx="7.787" ry="12.678" transform="translate(27.691 242.799) rotate(-76.936)" fill="#333233" stroke-width="0"/>
          <path d="M169.412,113.321c-1.533,0-3.152-.183-4.807-.567-3.516-.816-6.642-2.439-8.801-4.57-2.315-2.285-3.276-4.896-2.706-7.354.57-2.457,2.583-4.378,5.668-5.41,2.877-.962,6.398-1.043,9.915-.227,7.595,1.762,12.649,7,11.507,11.924h0c-.894,3.85-5.275,6.204-10.774,6.204ZM163.915,97.085c-1.571,0-3.057.221-4.372.661-2.245.751-3.686,2.043-4.056,3.639-.37,1.595.354,3.39,2.039,5.053,1.841,1.817,4.552,3.211,7.633,3.926,6.046,1.404,11.833-.338,12.638-3.803h0c.804-3.464-3.625-7.577-9.672-8.98-1.429-.332-2.851-.497-4.21-.497Z" fill="#000" stroke-width="0"/>
        </g>
      </g>
      <g>
        <g>
          <path d="M319.252,115.904c3.106,14.794,5.635,36.101-1.627,47.516-14.076,22.124-49.557,28.477-78.89,28.477-30.202,0-62.662.264-76.44-22.955-6.509-10.968-5.378-40.522-1.721-53.038,11.609-39.725,21.12-67.991,77.182-66.987,59.026,1.057,72.937,26.223,81.497,66.987Z" fill="#565656" stroke-width="0"/>
          <path d="M319.252,115.904c-8.559-40.764-22.47-65.93-81.497-66.987-12.766-.229-23.117,1.061-31.63,3.657,54.48,2.814,68.001,25.69,76.464,61.756,3.214,13.696,5.831,33.423-1.683,43.992-14.563,20.483-51.274,26.364-81.624,26.364-6.394,0-12.885.01-19.289-.158,16.099,7.492,37.955,7.368,58.742,7.368,29.334,0,64.815-6.352,78.89-28.477,7.262-11.415,4.733-32.723,1.627-47.516Z" fill="#333233" stroke-width="0"/>
        </g>
        <path d="M236.723,193.123c-14.7,0-29.835-.062-43.076-2.893-15.526-3.32-26.127-10.079-32.407-20.662-4.099-6.908-4.795-19.603-4.844-26.556-.073-10.189,1.105-20.964,3.001-27.452,6.267-21.445,11.527-37.531,22.191-49.248,11.992-13.176,29.843-19.098,56.19-18.621,28.422.509,47.647,6.53,60.503,18.947,13.096,12.649,18.396,31.034,22.171,49.014h0c5.951,28.342,2.31,41.978-1.792,48.427-6.584,10.348-18.158,18.103-34.401,23.05-16.271,4.955-33.737,5.995-45.524,5.995h-1.006c-.335,0-.67,0-1.005,0ZM234.903,50.118c-24.038,0-40.448,5.7-51.502,17.845-10.31,11.328-15.477,27.158-21.651,48.285-3.73,12.762-4.512,41.771,1.599,52.068,5.912,9.963,15.99,16.346,30.811,19.516,13.289,2.842,28.68,2.839,43.568,2.839h1.007c11.621,0,28.828-1.022,44.81-5.888,15.667-4.771,26.785-12.179,33.046-22.02,7.358-11.565,4.074-34.164,1.461-46.606h0c-3.695-17.598-8.854-35.563-21.475-47.754-12.382-11.96-31.08-17.762-58.844-18.259-.954-.017-1.9-.026-2.831-.026Z" fill="#000" stroke-width="0"/>
      </g>
      <ellipse cx="240.788" cy="231.617" rx="34.338" ry="35.564" fill="#707070" stroke-width="0"/>
      <g>
        <g>
          <ellipse cx="301.365" cy="144.414" rx="13.012" ry="10.493" fill="#f6bdc0" stroke-width="0"/>
          <path d="M291.965,142.477c-.182,0-.365-.046-.534-.141-.522-.295-.708-.954-.416-1.477.073-.131.761-1.318,2.435-2.717,1.653-1.382,3.537-1.718,3.616-1.731.591-.101,1.157.297,1.259.89.101.592-.295,1.154-.886,1.258-.033.006-1.411.27-2.591,1.256-1.367,1.144-1.927,2.104-1.933,2.113-.202.352-.571.549-.95.55Z" fill="#fff" stroke-width="0"/>
        </g>
        <g>
          <ellipse cx="178.587" cy="144.414" rx="13.012" ry="10.493" fill="#f6bdc0" stroke-width="0"/>
          <path d="M169.186,142.477c-.182,0-.365-.046-.534-.141-.522-.295-.708-.954-.416-1.477.073-.131.761-1.318,2.435-2.717,1.653-1.382,3.537-1.718,3.616-1.731.593-.101,1.157.297,1.259.89.101.592-.295,1.154-.886,1.258-.033.006-1.411.27-2.591,1.256-1.367,1.144-1.927,2.104-1.933,2.113-.202.352-.571.549-.95.55Z" fill="#fff" stroke-width="0"/>
        </g>
      </g>
      <circle cx="196.687" cy="124.425" r="13.06" fill="#000" stroke-width="0"/>
      <circle cx="197.119" cy="128.273" r="3.755" fill="#fff" stroke-width="0"/>
      <path d="M187.389,116.794c-.058,0-.117-.005-.176-.014-.101-.017-1.033-.181-2.647-.872-1.729-.741-2.883-1.964-2.931-2.016-.411-.44-.387-1.13.053-1.541.44-.411,1.13-.387,1.541.053.007.007.903.946,2.196,1.5,1.366.585,2.138.724,2.145.725.591.103.99.665.89,1.256-.09.532-.549.909-1.071.909Z" fill="#000" stroke-width="0"/>
      <circle cx="283.266" cy="124.425" r="13.06" fill="#000" stroke-width="0"/>
      <circle cx="282.464" cy="128.273" r="3.755" fill="#fff" stroke-width="0"/>
      <path d="M292.563,116.794c-.525,0-.987-.38-1.075-.915-.097-.592.304-1.151.895-1.25.025-.005.795-.147,2.145-.725,1.293-.554,2.189-1.493,2.198-1.502.412-.436,1.102-.458,1.54-.047.438.411.461,1.098.052,1.537-.048.052-1.202,1.275-2.931,2.016-1.614.691-2.546.856-2.647.872-.059.01-.118.014-.177.014Z" fill="#000" stroke-width="0"/>
      <g>
        <ellipse cx="239.976" cy="160.241" rx="45.234" ry="29.268" fill="#f6bdc0" stroke-width="0"/>
        <g>
          <ellipse cx="222.447" cy="150.03" rx="6.536" ry="3.775" transform="translate(-29.453 57.628) rotate(-13.854)" fill="#000" stroke-width="0"/>
          <ellipse cx="257.506" cy="150.03" rx="3.775" ry="6.536" transform="translate(50.182 364.121) rotate(-76.146)" fill="#000" stroke-width="0"/>
        </g>
        <g>
          <path d="M264.863,135.8" fill="#dd9099" stroke-width="0"/>
          <path d="M264.863,135.8c5.245,5.46,8.363,12.281,8.363,19.682,0,20.376-26.441,29.91-48.982,29.91-3.407,0-6.527-.276-9.374-.802,7.183,3.107,15.817,4.92,25.106,4.92,24.982,0,45.234-13.104,45.234-29.268,0-10.215-8.09-19.206-20.348-24.441Z" fill="#dd9099" stroke-width="0"/>
        </g>
        <g>
          <path d="M194.76,159.425" fill="#000" stroke-width="0"/>
          <path d="M244.516,131.119c-1.493-.096-3.008-.146-4.54-.146-24.561,0-44.548,12.665-45.216,28.452,6.215-14.443,27.621-27.233,49.756-28.306Z" fill="#fff" stroke-width="0"/>
        </g>
        <path d="M239.976,190.735c-12.316,0-23.912-3.114-32.652-8.769-8.905-5.762-13.809-13.477-13.809-21.725s4.904-15.963,13.809-21.725c8.74-5.655,20.336-8.769,32.652-8.769s23.912,3.114,32.652,8.769c8.905,5.762,13.809,13.477,13.809,21.725s-4.904,15.964-13.809,21.725c-8.74,5.655-20.336,8.769-32.652,8.769ZM239.976,132.2c-24.266,0-44.008,12.579-44.008,28.041s19.742,28.041,44.008,28.041,44.008-12.579,44.008-28.041-19.742-28.041-44.008-28.041Z" fill="#000" stroke-width="0"/>
      </g>
      <path d="M279.153,248.52l-3.355-4.401.847-.756c.075-.067,7.54-6.769,10.608-12.91,3.038-6.081,2.678-21.05,2.674-21.201l2.452-.065c.017.639.38,15.734-2.932,22.363-2.679,5.362-8.218,10.876-10.334,12.872l1.067,1.4c2.922-.598,13.906-3,21.992-6.821l1.048,2.217c-9.647,4.559-22.771,7.057-23.325,7.161l-.743.14Z" fill="#000" stroke-width="0"/>
      <path d="M200.799,248.52l-.743-.14c-.554-.104-13.677-2.602-23.325-7.161l1.048-2.217c8.086,3.821,19.07,6.223,21.992,6.821l1.068-1.4c-2.115-1.997-7.655-7.51-10.334-12.872-3.312-6.629-2.949-21.723-2.932-22.363l2.452.065c-.004.15-.364,15.119,2.674,21.201,3.068,6.141,10.533,12.843,10.608,12.91l.847.756-3.355,4.401Z" fill="#000" stroke-width="0"/>
      <g>
        <path d="M280.506,244.164c-3.148-4.695-10.298-5.418-15.97-1.615-4.254,2.852-6.465,7.44-5.978,11.536.058.492.466.867.961.867h4.613c.402,0,.672.412.512.78l-1.706,3.93c-.206.475,0,1.026.464,1.255,3.574,1.765,8.439,1.38,12.535-1.366,5.672-3.803,7.718-10.692,4.57-15.387Z" fill="#333233" stroke-width="0"/>
        <path d="M268.22,263.23c-1.883,0-3.714-.4-5.361-1.213-1.052-.519-1.512-1.768-1.046-2.842l1.301-2.996h-3.594c-1.111,0-2.047-.838-2.179-1.949-.557-4.688,1.999-9.672,6.513-12.699,6.224-4.174,14.151-3.299,17.671,1.95h0c3.52,5.249,1.319,12.915-4.905,17.088-2.622,1.758-5.57,2.661-8.4,2.661ZM264.163,259.921c3.261,1.496,7.585.962,11.091-1.389,5.101-3.42,7-9.56,4.234-13.686h0c-2.766-4.126-9.167-4.699-14.268-1.279-3.685,2.471-5.812,6.437-5.466,10.158h4.379c.603,0,1.161.301,1.492.806.331.505.385,1.136.144,1.69l-1.606,3.7Z" fill="#000" stroke-width="0"/>
      </g>
      <g>
        <path d="M339.485,152.29s7.358,9.811,4.905,19.622c-2.453,9.811-9.811,7.358-14.716,4.905-4.905-2.453-4.905-9.811,0-14.716,4.905-4.905,9.811-9.811,9.811-9.811Z" fill="#333233" stroke-width="0"/>
        <path d="M337.062,180.24c-2.857,0-5.761-1.24-7.935-2.327-2.293-1.147-3.795-3.254-4.23-5.934-.588-3.627.91-7.745,3.912-10.746l10.811-10.811.848,1.131c.315.42,7.679,10.396,5.114,20.655-.932,3.729-2.652,6.193-5.112,7.324-1.093.503-2.246.707-3.407.707ZM339.297,154.213l-8.755,8.755c-2.453,2.454-3.689,5.756-3.224,8.62.305,1.881,1.337,3.348,2.906,4.133,4.083,2.042,7.1,2.56,9.22,1.585,1.751-.805,3.015-2.72,3.758-5.691,1.802-7.21-2.143-14.587-3.904-17.401Z" fill="#000" stroke-width="0"/>
      </g>
      <g>
        <path d="M200.429,244.164c3.148-4.695,10.298-5.418,15.97-1.615,4.254,2.852,6.465,7.44,5.978,11.536-.058.492-.466.867-.961.867h-4.613c-.402,0-.672.412-.512.78l1.706,3.93c.206.475,0,1.026-.464,1.255-3.574,1.765-8.439,1.38-12.535-1.366-5.672-3.803-7.718-10.692-4.57-15.387Z" fill="#333233" stroke-width="0"/>
        <path d="M212.716,263.23c-2.83,0-5.778-.902-8.4-2.661-6.224-4.174-8.425-11.84-4.905-17.088h0c3.52-5.249,11.447-6.124,17.671-1.95,4.514,3.026,7.07,8.011,6.513,12.699-.132,1.111-1.069,1.948-2.179,1.948h-3.594l1.301,2.996c.466,1.074.007,2.323-1.045,2.842-1.647.814-3.478,1.214-5.361,1.214ZM201.448,244.847c-2.766,4.126-.867,10.265,4.234,13.686,3.506,2.351,7.829,2.886,11.091,1.389l-1.607-3.7c-.24-.553-.186-1.185.145-1.689.331-.505.889-.806,1.492-.806h4.379c.345-3.721-1.781-7.687-5.466-10.158-5.101-3.42-11.502-2.847-14.269,1.279h0Z" fill="#000" stroke-width="0"/>
      </g>
      <path d="M331.295,238.46l-4.948,1.339c-1.938.525-3.935-.621-4.46-2.56l-1.361-5.028c-.308-1.136-1.298-1.97-2.473-2.04-10.138-.602-21.273,5.598-27.98,16.632-8.957,14.735-6.627,32.509,5.204,39.7,11.831,7.191,28.682,1.076,37.638-13.658,6.896-11.344,7.1-24.489,1.43-33.22-.656-1.01-1.888-1.481-3.051-1.166Z" fill="#333233" stroke-width="0"/>
      <path d="M337.547,247.175c-1.642,6.349-6.14,19.523-16.771,28.932-6.922,6.126-18.678,9.185-25.332,10.496,11.822,7.035,28.557.91,37.472-13.756,5.114-8.412,6.544-17.813,4.631-25.672Z" fill="#1e1f1e" stroke-width="0"/>
      <path d="M148.658,238.46l4.948,1.339c1.938.525,3.935-.621,4.46-2.56l1.361-5.028c.308-1.136,1.298-1.97,2.473-2.04,10.138-.602,21.273,5.598,27.98,16.632,8.957,14.735,6.627,32.509-5.204,39.7-11.831,7.191-28.682,1.076-37.638-13.658-6.896-11.344-7.1-24.489-1.43-33.22.656-1.01,1.888-1.481,3.051-1.166Z" fill="#333233" stroke-width="0"/>
      <path d="M192.413,251.724s1.088,21.401-14.281,28.378c-7.052,3.201-14.869,3.814-21.265,3.54,8.774,6.407,19.522,7.899,27.808,2.862,10.538-6.406,13.538-21.209,7.737-34.781Z" fill="#1e1f1e" stroke-width="0"/>
      <path d="M306.287,290.756c-4.173,0-8.144-1.074-11.647-3.203-6.046-3.675-9.944-10.036-10.976-17.91-1.019-7.774.885-16.111,5.361-23.475,6.753-11.109,18.175-17.867,29.101-17.22,1.694.101,3.135,1.284,3.584,2.943l1.361,5.028c.347,1.282,1.673,2.045,2.956,1.697l4.948-1.339.32,1.184-.32-1.184c1.681-.455,3.45.221,4.399,1.682,2.96,4.558,4.41,10.209,4.194,16.341-.219,6.225-2.157,12.513-5.605,18.184-4.476,7.364-11.001,12.893-18.371,15.567-3.14,1.139-6.276,1.705-9.305,1.705ZM316.666,231.357c-9.627,0-19.533,6.192-25.545,16.084-4.187,6.889-5.972,14.66-5.025,21.883.934,7.123,4.42,12.852,9.818,16.133,5.398,3.281,12.089,3.739,18.842,1.288,6.847-2.485,12.925-7.647,17.112-14.536,3.23-5.313,5.045-11.19,5.249-16.996.198-5.627-1.116-10.786-3.8-14.919-.367-.565-1.051-.827-1.701-.65l-4.948,1.339c-2.589.702-5.264-.836-5.964-3.423l-1.361-5.028c-.174-.641-.721-1.098-1.362-1.136-.437-.026-.876-.039-1.314-.039Z" fill="#000" stroke-width="0"/>
      <path d="M173.693,290.731c-10.191,0-21.072-6.339-27.704-17.248-3.447-5.671-5.385-11.959-5.605-18.184-.216-6.133,1.234-11.783,4.194-16.341.949-1.462,2.717-2.138,4.399-1.682l4.948,1.339c1.282.348,2.608-.414,2.956-1.697l1.361-5.028c.45-1.66,1.89-2.843,3.584-2.943,10.922-.653,22.348,6.11,29.101,17.219,9.293,15.289,6.774,33.855-5.615,41.386-3.549,2.157-7.529,3.178-11.62,3.178ZM147.93,239.59c-.514,0-1.004.257-1.294.705-2.684,4.133-3.998,9.292-3.8,14.919.205,5.806,2.02,11.683,5.249,16.996,8.591,14.133,24.72,20.076,35.954,13.247,11.234-6.828,13.384-23.882,4.793-38.016-6.287-10.343-16.832-16.643-26.86-16.045-.641.038-1.188.494-1.362,1.136l-1.361,5.028c-.701,2.588-3.375,4.124-5.964,3.423l-4.948-1.339c-.135-.037-.272-.054-.407-.054Z" fill="#000" stroke-width="0"/>
      <g>
        <g>
          <path d="M286.108,63.558s2.52,4.848,5.968,7.52c3.447,2.672,8.984,3.718,9.935,3.282s5.117-11.243,6.565-15.097c1.447-3.854,1.95-11.554-.989-10.816-2.939.738-2.608,6.277-10.577,10.252s-10.901,4.858-10.901,4.858Z" fill="#fff" stroke-width="0"/>
          <path d="M301.312,75.529c-2.381,0-7.023-1.358-9.904-3.591-3.595-2.786-6.16-7.672-6.267-7.879l-.607-1.167,1.259-.379c.067-.021,3.041-.954,10.729-4.79,4.491-2.24,6.188-5.02,7.427-7.049.944-1.545,1.759-2.88,3.371-3.285.915-.229,1.758.022,2.372.71,1.96,2.195.979,8.684-.097,11.546-5.643,15.023-6.648,15.483-7.131,15.705-.263.121-.66.179-1.153.179ZM301.356,73.501h0ZM287.699,64.144c.925,1.531,2.793,4.327,5.045,6.072,2.894,2.242,7.507,3.244,8.717,3.153.817-1.162,3.319-7.102,6.094-14.489,1.199-3.191,1.476-8.247.511-9.328-.06-.067-.073-.083-.215-.047-.714.179-1.191.914-2.041,2.307-1.299,2.128-3.263,5.343-8.315,7.863-5.17,2.579-8.243,3.87-9.796,4.469Z" fill="#000" stroke-width="0"/>
        </g>
        <g>
          <path d="M199.598,63.558s-2.52,4.848-5.968,7.52c-3.447,2.672-8.984,3.718-9.935,3.282s-5.117-11.243-6.565-15.097c-1.447-3.854-1.95-11.554.989-10.816,2.939.738,2.608,6.277,10.577,10.252s10.901,4.858,10.901,4.858Z" fill="#fff" stroke-width="0"/>
          <path d="M184.411,75.542c-.458,0-.868-.053-1.168-.191-.484-.221-1.489-.682-7.132-15.705-1.075-2.863-2.056-9.352-.096-11.546.613-.688,1.455-.939,2.372-.71,1.612.405,2.427,1.74,3.371,3.286,1.239,2.029,2.936,4.809,7.427,7.049,7.739,3.861,10.701,4.781,10.73,4.79l1.254.382-.603,1.164c-.107.207-2.672,5.092-6.267,7.879-2.175,1.686-4.867,2.6-6.278,2.995-.613.171-2.304.608-3.61.608ZM184.351,73.501h0ZM184.246,73.368c1.208.092,5.823-.91,8.717-3.153,2.251-1.745,4.12-4.541,5.045-6.072-1.553-.598-4.626-1.89-9.796-4.469-5.052-2.52-7.015-5.735-8.315-7.863-.851-1.393-1.328-2.128-2.042-2.307-.141-.035-.155-.02-.214.047-.965,1.081-.688,6.137.511,9.328,2.775,7.387,5.277,13.327,6.094,14.489Z" fill="#000" stroke-width="0"/>
        </g>
      </g>
      <rect x="190.743" y="295.542" width="105" height="5" rx="2.5" ry="2.5" fill="#565656" stroke-width="0"/>
      <g>
        <path d="M193.243,297.292c-4.825,0-8.75-3.925-8.75-8.75v-.096l-9.5-61.996c.05-4.783,3.956-8.658,8.75-8.658h119c4.794,0,8.7,3.875,8.75,8.658l-9.5,61.996v.096c0,4.825-3.925,8.75-8.75,8.75h-100Z" fill="#ddd" stroke-width="0"/>
        <path d="M302.743,219.042c4.077,0,7.404,3.269,7.498,7.323l-9.469,61.798-.029.188v.19c0,4.135-3.364,7.5-7.5,7.5h-100c-4.136,0-7.5-3.365-7.5-7.5v-.19l-.029-.188-9.469-61.798c.094-4.054,3.421-7.323,7.498-7.323h119M302.743,216.542h-119c-5.5,0-10,4.5-10,10l9.5,62c0,5.5,4.5,10,10,10h100c5.5,0,10-4.5,10-10l9.5-62c0-5.5-4.5-10-10-10h0Z" fill="#000" stroke-width="0"/>
      </g>
      <g>
        <path d="M260.743,257.042c0,9.665-7.835,17.5-17.5,17.5-9.665,0-17.5-7.835-17.5-17.5,0-9.665,7.835-17.5,17.5-17.5h0c9.664,0,17.499,7.834,17.5,17.498v.002" fill="#ec6458" stroke-width="0"/>
        <path d="M243.538,250.483l4.529,11.177-6.841-5.388,2.312-5.789ZM251.583,264.235l-6.966-16.764c-.164-.452-.598-.75-1.079-.74-.488-.011-.931.284-1.109.74l-7.646,18.388h2.616l3.026-7.582,9.032,7.297c.364.294.625.427.966.427.69.016,1.262-.53,1.278-1.22,0-.01,0-.02,0-.03-.012-.177-.052-.352-.119-.516" fill="#fff" stroke-width="0"/>
      </g>
      <path d="M243.262,223.42h52s5.347.243,8,3c2.653,2.757,1.833,8.546,1.833,8.546l-3.833,24.454s4.703-24.456-10.546-29.5c-15.249-5.044-47.454-6.5-47.454-6.5Z" fill="#fff" stroke-width="0"/>
      <g>
        <circle cx="83.243" cy="165.042" r="5.75" fill="#ddd" stroke-width="0"/>
        <path d="M83.243,160.042c2.761,0,5,2.239,5,5s-2.239,5-5,5-5-2.239-5-5,2.239-5,5-5M83.243,158.542c-3.584,0-6.5,2.916-6.5,6.5s2.916,6.5,6.5,6.5,6.5-2.916,6.5-6.5-2.916-6.5-6.5-6.5h0Z" fill="#000" stroke-width="0"/>
      </g>
      <circle cx="84.743" cy="163.697" r="2.5" fill="#fff" stroke-width="0"/>
      <g>
        <path d="M123.595,336.488h-9.186l-1.531,3.317h-5.032l7.82-15.642c.254-.507.772-.828,1.339-.828h3.994c.568,0,1.086.321,1.34.829l7.797,15.64h-5.01l-1.53-3.317ZM122.203,333.495l-2.11-4.523c-.256-.58-.789-1.972-1.068-2.83h-.045c-.279.858-.812,2.25-1.068,2.83l-2.11,4.523h6.401Z" fill="#3f1f10" stroke-width="0"/>
        <path d="M135.018,323.335h3.489l8.606,9.349c.487.533.975,1.229,1.299,1.879h.094v-11.228h4.245v14.976c0,.825-.669,1.494-1.494,1.494h-3.169l-8.931-9.464c-.465-.511-1.067-1.345-1.299-1.879h-.094v11.343h-4.245v-14.971c0-.828.671-1.498,1.498-1.498Z" fill="#3f1f10" stroke-width="0"/>
        <path d="M155.856,336.163l3.34-2.342c1.369,1.925,3.897,3.224,7.284,3.224,2.992,0,4.383-.603,4.383-1.902,0-1.021-.696-1.438-2.667-1.647l-5.057-.557c-4.036-.441-5.962-1.925-5.962-4.964,0-3.27,3.178-5.196,8.815-5.196,4.175,0,7.423,1.091,9.464,3.387l-2.946,2.482c-1.23-1.623-3.596-2.621-6.751-2.621-2.551,0-3.944.603-3.944,1.716,0,1.021.696,1.415,2.807,1.647l4.547.441c4.546.465,6.425,1.81,6.425,4.872,0,3.642-3.41,5.66-9.349,5.66-4.87,0-8.698-1.601-10.392-4.199Z" fill="#3f1f10" stroke-width="0"/>
        <path d="M179.469,339.804v-16.47h4.686v16.47h-4.686Z" fill="#3f1f10" stroke-width="0"/>
        <path d="M208.301,335.119c0,2.412-1.647,4.685-6.192,4.685h-11.217c-.826,0-1.495-.67-1.495-1.495v-13.479c0-.826.67-1.495,1.495-1.495h11.123c4.082,0,5.87,1.81,5.87,4.176,0,1.67-1.021,3.177-3.248,3.641,2.506.371,3.665,1.81,3.665,3.967ZM194.083,326.398v3.595h6.634c1.926,0,2.32-.975,2.32-1.902,0-.812-.465-1.693-2.32-1.693h-6.634ZM203.454,334.748c0-1.137-.766-1.926-2.506-1.926h-6.866v3.92h6.843c1.787,0,2.529-.858,2.529-1.994Z" fill="#3f1f10" stroke-width="0"/>
        <path d="M212.429,323.335h4.686v12.804h11.156v3.665h-14.348c-.825,0-1.494-.669-1.494-1.494v-14.975Z" fill="#3f1f10" stroke-width="0"/>
        <path d="M248.845,336.534v1.771c0,.828-.671,1.5-1.5,1.5h-13.794c-.828,0-1.5-.671-1.5-1.5v-13.47c0-.828.671-1.5,1.5-1.5h13.632c.828,0,1.5.671,1.5,1.5v1.771h-11.945v3.318h8.558v3.061h-8.558v3.549h12.107Z" fill="#3f1f10" stroke-width="0"/>
        <path d="M277.595,336.488h-9.186l-1.531,3.317h-5.032l7.82-15.642c.254-.507.772-.828,1.339-.828h3.994c.568,0,1.086.321,1.34.829l7.797,15.64h-5.01l-1.53-3.317ZM276.203,333.495l-2.11-4.523c-.256-.58-.789-1.972-1.068-2.83h-.045c-.279.858-.812,2.25-1.068,2.83l-2.11,4.523h6.401Z" fill="#3f1f10" stroke-width="0"/>
        <path d="M287.469,339.804v-16.47h4.686v16.47h-4.686Z" fill="#3f1f10" stroke-width="0"/>
      </g>
      <g>
        <path d="M124.747,357.452c-.011-4.977,4.252-8.459,10.446-8.471,5.11-.011,8.809,2.193,9.856,5.863l-4.622.829c-.602-2.145-2.441-3.314-5.273-3.308-3.539.007-5.725,1.936-5.719,5.011.006,3.03,2.245,4.994,5.785,4.987,2.787-.006,4.598-1.115,5.258-3.196l4.559.964c-1.298,3.564-4.855,5.606-9.987,5.617-6.282.014-10.294-3.253-10.304-8.297Z" fill="#3f1f10" stroke-width="0"/>
        <path d="M147.375,357.237c-.01-5.088,4.12-8.393,10.513-8.406,6.371-.014,10.538,3.273,10.548,8.361.011,5.088-4.141,8.393-10.513,8.406-6.393.013-10.537-3.297-10.548-8.362ZM163.745,357.202c-.006-3.03-2.355-5.062-5.85-5.054-3.495.007-5.836,2.048-5.83,5.078.006,3.03,2.355,5.061,5.85,5.054,3.496-.008,5.836-2.048,5.83-5.078Z" fill="#3f1f10" stroke-width="0"/>
        <path d="M172.625,348.98h3.489l8.606,9.349c.487.533.975,1.229,1.299,1.879h.094v-11.228h4.245v14.976c0,.825-.669,1.494-1.494,1.494h-3.169l-8.931-9.464c-.465-.511-1.067-1.345-1.299-1.879h-.094v11.343h-4.245v-14.971c0-.828.671-1.498,1.498-1.498Z" fill="#3f1f10" stroke-width="0"/>
        <path d="M195.625,348.98h3.489l8.606,9.349c.487.533.975,1.229,1.299,1.879h.094v-11.228h4.245v14.976c0,.825-.669,1.494-1.494,1.494h-3.169l-8.931-9.464c-.465-.511-1.067-1.345-1.299-1.879h-.094v11.343h-4.245v-14.971c0-.828.671-1.498,1.498-1.498Z" fill="#3f1f10" stroke-width="0"/>
        <path d="M233.452,362.179v1.771c0,.828-.671,1.5-1.5,1.5h-13.794c-.828,0-1.5-.671-1.5-1.5v-13.47c0-.828.671-1.5,1.5-1.5h13.632c.828,0,1.5.671,1.5,1.5v1.771h-11.945v3.318h8.558v3.061h-8.558v3.549h12.107Z" fill="#3f1f10" stroke-width="0"/>
        <path d="M234.747,357.452c-.011-4.977,4.252-8.459,10.446-8.471,5.11-.011,8.809,2.193,9.856,5.863l-4.622.829c-.602-2.145-2.441-3.314-5.273-3.308-3.539.007-5.725,1.936-5.719,5.011.006,3.03,2.245,4.994,5.785,4.987,2.787-.006,4.598-1.115,5.258-3.196l4.559.964c-1.298,3.564-4.855,5.606-9.987,5.617-6.282.014-10.294-3.253-10.304-8.297Z" fill="#3f1f10" stroke-width="0"/>
        <path d="M275.253,352.381l-6.982.014.028,13.045-4.765.01-.028-13.045-6.958.014-.004-1.739c-.002-1.084.875-1.965,1.96-1.968l14.776-.03c1.086-.002,1.968.876,1.971,1.962l.004,1.736Z" fill="#3f1f10" stroke-width="0"/>
      </g>
      <line x1="75.898" y1="241.335" x2="142.816" y2="241.335" fill="none" stroke="#fff" stroke-linecap="round" stroke-miterlimit="10" stroke-width=".5"/>
      <line x1="76.698" y1="231.335" x2="149.686" y2="231.335" fill="none" stroke="#fff" stroke-linecap="round" stroke-miterlimit="10" stroke-width=".5"/>
      <line x1="80.604" y1="221.335" x2="145.734" y2="221.335" fill="none" stroke="#fff" stroke-linecap="round" stroke-miterlimit="10" stroke-width=".5"/>
      <line x1="88.84" y1="211.335" x2="137.639" y2="211.335" fill="none" stroke="#fff" stroke-linecap="round" stroke-miterlimit="10" stroke-width=".5"/>
      <line x1="77.828" y1="251.335" x2="140.016" y2="251.335" fill="none" stroke="#fff" stroke-linecap="round" stroke-miterlimit="10" stroke-width=".5"/>
      <line x1="86.44" y1="261.335" x2="140.363" y2="261.335" fill="none" stroke="#fff" stroke-linecap="round" stroke-miterlimit="10" stroke-width=".5"/>
      <rect x="93.243" y="216.042" width="10" height="30" rx="5" ry="5" fill="#333233" stroke-width="0"/>
      <rect x="123.243" y="216.042" width="10" height="30" rx="5" ry="5" fill="#333233" stroke-width="0"/>
      <circle cx="130.243" cy="226.042" r="3" fill="#fff" stroke-width="0"/>
      <circle cx="100.243" cy="226.042" r="3" fill="#fff" stroke-width="0"/>
      <g>
        <g>
          <path d="M82.862,298.141c-6.296,0-13.359-3.305-18.895-8.84-4.542-4.542-7.571-10.031-8.528-15.458-.929-5.263.216-9.817,3.225-12.826,2.313-2.313,5.561-3.536,9.39-3.536,6.297,0,13.36,3.305,18.896,8.84,4.542,4.542,7.57,10.031,8.528,15.458.929,5.263-.217,9.817-3.226,12.826-2.313,2.313-5.561,3.536-9.39,3.536Z" fill="#ddd" stroke-width="0"/>
          <path d="M68.055,256.231v2.5c5.971,0,12.704,3.168,18.01,8.474,4.362,4.363,7.268,9.615,8.181,14.791.856,4.849-.166,9.014-2.878,11.725-2.074,2.074-5.015,3.17-8.506,3.17-5.972,0-12.705-3.168-18.011-8.474-4.362-4.363-7.268-9.615-8.181-14.791-.856-4.85.166-9.014,2.878-11.726,2.074-2.074,5.015-3.17,8.506-3.17v-2.5M68.054,256.231c-4.015,0-7.637,1.266-10.273,3.902-6.834,6.834-4.46,20.289,5.303,30.052,5.997,5.997,13.386,9.206,19.778,9.206,4.015,0,7.637-1.266,10.273-3.903,6.834-6.834,4.46-20.289-5.303-30.052-5.997-5.997-13.386-9.206-19.778-9.206h0Z" fill="#000" stroke-width="0"/>
        </g>
        <path d="M63.991,287.481c-8.338-8.338-10.366-19.83-4.529-25.667,5.837-5.837,17.328-3.809,25.667,4.529l-21.137,21.137Z" fill="#fff" stroke-width="0"/>
      </g>
      <g>
        <g>
          <path d="M144.054,298.141c-3.829,0-7.076-1.223-9.39-3.536-3.009-3.009-4.153-7.563-3.225-12.826.957-5.427,3.986-10.916,8.528-15.458,5.535-5.535,12.599-8.84,18.895-8.84,3.829,0,7.076,1.223,9.39,3.536,3.009,3.009,4.154,7.563,3.226,12.826-.958,5.427-3.986,10.916-8.528,15.458-5.535,5.535-12.599,8.84-18.896,8.84Z" fill="#ddd" stroke-width="0"/>
          <path d="M158.863,258.731h0c3.49,0,6.431,1.096,8.505,3.17,2.712,2.712,3.734,6.876,2.878,11.726-.913,5.176-3.819,10.428-8.181,14.791-5.306,5.306-12.039,8.474-18.011,8.474-3.491,0-6.432-1.096-8.506-3.17-2.712-2.712-3.734-6.876-2.878-11.725.913-5.176,3.819-10.428,8.181-14.791,5.306-5.306,12.039-8.473,18.012-8.474M158.862,256.231c-6.392,0-13.782,3.209-19.778,9.206-9.763,9.763-12.138,23.218-5.303,30.052,2.637,2.637,6.258,3.903,10.273,3.903,6.392,0,13.782-3.209,19.778-9.206,9.763-9.763,12.138-23.218,5.303-30.052-2.637-2.636-6.258-3.903-10.273-3.902h0Z" fill="#000" stroke-width="0"/>
        </g>
        <path d="M141.788,266.344c8.338-8.338,19.83-10.366,25.667-4.529,5.837,5.837,3.809,17.328-4.529,25.667l-21.137-21.137Z" fill="#fff" stroke-width="0"/>
      </g>
      <g>
        <path d="M71.35,159.721s1.06-4.108,4.505-6.14c3.445-2.032,7.553-.972,7.553-.972" fill="none" stroke="#abd9f3" stroke-linecap="round" stroke-miterlimit="10" stroke-width="2"/>
        <path d="M66.044,156.631s1.514-5.869,6.436-8.772c4.922-2.903,10.791-1.389,10.791-1.389" fill="none" stroke="#abd9f3" stroke-linecap="round" stroke-miterlimit="10" stroke-width="2"/>
        <path d="M60.739,153.541s1.969-7.629,8.367-11.403c6.399-3.774,14.028-1.805,14.028-1.805" fill="none" stroke="#abd9f3" stroke-linecap="round" stroke-miterlimit="10" stroke-width="2"/>
      </g>
    </g>
  </g>
</svg>