<?xml version="1.0" encoding="utf-8"?>
<!-- Generator: Adobe Illustrator 26.5.0, SVG Export Plug-In . SVG Version: 6.00 Build 0)  -->
<svg version="1.1" xmlns="http://www.w3.org/2000/svg" xmlns:xlink="http://www.w3.org/1999/xlink" x="0px" y="0px"
	 viewBox="0 0 1296 1728" enable-background="new 0 0 1296 1728" xml:space="preserve">
<g id="Layer_1">
</g>
<g id="Layer_2">
	<g id="Layer_3">
		<circle fill="#FFFFFF" cx="648" cy="1001.9" r="61.4"/>
		<g>
			<path fill="#221F20" d="M648.6,978.7l15.8,38.9l-23.8-18.7L648.6,978.7L648.6,978.7z M676.5,1026.6l-24.2-58.3
				c-0.7-1.7-2.1-2.6-3.8-2.6c-1.7,0-3.2,0.9-3.9,2.6l-26.6,64h9.1l10.5-26.4l31.4,25.4c1.3,1,2.2,1.5,3.4,1.5
				c2.4,0,4.4-1.8,4.4-4.3C677,1027.9,676.8,1027.3,676.5,1026.6L676.5,1026.6z"/>
			<path fill="#221F20" d="M647.5,942.3c-32.8,0-59.5,26.7-59.5,59.5c0,32.8,26.7,59.5,59.5,59.5c32.8,0,59.5-26.7,59.5-59.5
				C707.1,969,680.4,942.3,647.5,942.3L647.5,942.3z M647.5,1064.1c-34.3,0-62.2-27.9-62.2-62.2c0-34.3,27.9-62.2,62.2-62.2
				c34.3,0,62.2,27.9,62.2,62.2C709.8,1036.2,681.8,1064.1,647.5,1064.1L647.5,1064.1z"/>
		</g>
	</g>
	<g>
		<path d="M482.1,503.4c0,0-30.9-0.9-66.1-21s-44.2-39.1-35.2-64.8c9-25.8,18.1-47.9,55.9-69.4c37.4-21.2,102.9-28.5,102.9-28.5
			s-26.8,21.1-38.3,40.6c-11.4,19.2-21.8,39.7,6.6,60.7c28.3,21,63.9,9.4,63.9,9.4L482.1,503.4z"/>
		<g>
			<defs>
				<path id="XMLID_00000016786572442136032720000001766681984825574545_" d="M523.4,443.5c0,0-14.7-3.9-23.7-10
					s-13.9-15.8-13.9-15.8s-3.4,6.6,0,12.9c3.4,6.3,9.5,12.9,9.5,12.9s-30.5-10.2-26.6-44.2c5.4-46.7,43.2-68.7,43.2-68.7
					s-39.7,1.1-68.7,21.6c-29,20.5-35.8,33.4-40.5,55c-4.7,21.6,10.8,41.6,30.5,51.9c19.7,10.3,66.3,20.8,66.3,20.8L523.4,443.5z"/>
			</defs>
			<use xlink:href="#XMLID_00000016786572442136032720000001766681984825574545_"  overflow="visible" fill="#FFFFFF"/>
			<clipPath id="XMLID_00000145045864237804178230000008753272628447188921_">
				<use xlink:href="#XMLID_00000016786572442136032720000001766681984825574545_"  overflow="visible"/>
			</clipPath>
			<path clip-path="url(#XMLID_00000145045864237804178230000008753272628447188921_)" fill="#DDDDDD" d="M503.1,492.5l-80-32.1
				l-30.3-38.2l6.8-8.4c0,0,2.9,13.9,32.9,30c30,16.1,59.5,15.5,59.5,15.5s-34.5-11.8-49.7-33.4c-15.3-21.6,6.8-45.8,6.8-45.8
				s-9.2,28.4,6.6,43.2c15.8,14.7,29,21.3,29,21.3s-16.8-15.8-19-30.8c-2.1-15,17.4-33.7,17.4-33.7l-2.4,47.6l9,11.6l5.5,4.2
				c0,0,15.4,6.4,27.6,8C535,453.2,503.1,492.5,503.1,492.5z"/>
		</g>
	</g>
	<g>
		<path d="M807.7,503.4c0,0,30.9-0.9,66.1-21s44.2-39.1,35.2-64.8c-9-25.8-18.1-47.9-55.9-69.4c-37.4-21.2-102.9-28.5-102.9-28.5
			s26.8,21.1,38.3,40.6c11.4,19.2,21.8,39.7-6.6,60.7c-28.3,21-63.9,9.4-63.9,9.4L807.7,503.4z"/>
		<g>
			<defs>
				<path id="XMLID_00000142857179771692959280000001035502138155132576_" d="M766.5,443.5c0,0,14.7-3.9,23.7-10
					s13.9-15.8,13.9-15.8s3.4,6.6,0,12.9c-3.4,6.3-9.5,12.9-9.5,12.9s30.5-10.2,26.6-44.2c-5.4-46.7-43.2-68.7-43.2-68.7
					s39.7,1.1,68.7,21.6c29,20.5,35.8,33.4,40.5,55c4.7,21.6-10.8,41.6-30.5,51.9c-19.7,10.3-66.3,20.8-66.3,20.8L766.5,443.5z"/>
			</defs>
			<use xlink:href="#XMLID_00000142857179771692959280000001035502138155132576_"  overflow="visible" fill="#FFFFFF"/>
			<clipPath id="XMLID_00000129171670135577688350000008134907310370278840_">
				<use xlink:href="#XMLID_00000142857179771692959280000001035502138155132576_"  overflow="visible"/>
			</clipPath>
			<path clip-path="url(#XMLID_00000129171670135577688350000008134907310370278840_)" fill="#DDDDDD" d="M786.7,492.5l80-32.1
				l30.3-38.2l-6.8-8.4c0,0-2.9,13.9-32.9,30c-30,16.1-59.5,15.5-59.5,15.5s34.5-11.8,49.7-33.4c15.3-21.6-6.8-45.8-6.8-45.8
				s9.2,28.4-6.6,43.2c-15.8,14.7-29,21.3-29,21.3s16.8-15.8,19-30.8c2.1-15-17.4-33.7-17.4-33.7l2.4,47.6l-9,11.6l-5.5,4.2
				c0,0-15.4,6.4-27.6,8S786.7,492.5,786.7,492.5z"/>
		</g>
	</g>
	<path fill="#323133" d="M1064.6,677.5c0,0-3.9,12.3-9.4,20.4c-5.5,8.1-7,10.1-13.1,10.3c-6.1,0.2-18.3-12.2-27.2-13
		c-8.8-0.8-15.8,0.8-20.9,9.4c-5,8.6-6.5,15.4-6.5,15.4l-12.7-19.8c0,0,4.1-8.6,9.6-17.1c5.5-8.5,13.1-11.9,20.5-9.2
		c7.5,2.8,17,11.5,24.2,14.5c7.2,3,10.9,3.9,16.3,0.9c5.4-3,13.4-15.6,13.4-15.6L1064.6,677.5z"/>
	<g>
		<path d="M895.8,1144c0,0,10.2-37.6,0-44.8c-10.2-7.2-29.7,2.4-49.5,15.9c-19.9,13.6-30.8,22.8-32.3,31.5
			c-3.9,22.1,21.8,55,21.8,55H852l-0.1,11.3c0,0,4.4,8.4,9,14.5c4.6,6.1,9.4,12.9,13.2,12.2s22-25,32.6-42.1l8.7-13.9
			c1.3-2.2,2.3-4.5,2.9-7c1.9-8.6,5.7-28.8,1-36C913.2,1131.4,895.8,1144,895.8,1144z"/>
		<polygon fill="#FFFFFF" points="912.4,1147.7 865.5,1212.2 876.3,1227.3 907.7,1174.7 		"/>
	</g>
	<g>
		<path d="M401.2,1144c0,0-10.2-37.6,0-44.8c10.2-7.2,29.7,2.4,49.5,15.9c19.9,13.6,30.8,22.8,32.3,31.5c3.9,22.1-21.8,55-21.8,55
			H445l0.1,11.3c0,0-4.4,8.4-9,14.5c-4.6,6.1-9.4,12.9-13.2,12.2s-22-25-32.6-42.1l-8.7-13.9c-1.3-2.2-2.3-4.5-2.9-7
			c-1.9-8.6-5.7-28.8-1-36C383.8,1131.4,401.2,1144,401.2,1144z"/>
		<polygon fill="#FFFFFF" points="475.1,1145.1 469.4,1169 417.8,1107.7 		"/>
	</g>
	<g>
		<defs>
			<path id="XMLID_00000132810157011928972590000014050002531829369482_" d="M1019.8,752c-46.5-77.4-147.9-123.7-147.9-123.7H424.4
				c0,0-101.4,46.2-147.9,123.7c-46.5,77.4-63.4,163.2-14.9,257.2c54.7,105.8,145.4,142.7,145.4,142.7s-61.1-139.6,1.7-165.9
				c63.7-13.1,120,113.4,123.9,163.7c3.9,50.3,8.8,134.9,8.8,134.9h5.8c-0.1-1.8-0.1-3.6-0.1-5.5c0-55.8,45.3-101.1,101.1-101.1
				c55.8,0,101.1,45.3,101.1,101.1c0,1.8-0.1,3.7-0.1,5.5h5.8c0,0,5-84.6,8.8-134.9c3.9-50.3,60.2-176.8,123.9-163.7
				c62.7,26.3,1.7,165.9,1.7,165.9s90.8-36.8,145.4-142.7C1083.2,915.2,1066.2,829.4,1019.8,752z"/>
		</defs>
		<use xlink:href="#XMLID_00000132810157011928972590000014050002531829369482_"  overflow="visible" fill="#323133"/>
		<clipPath id="XMLID_00000078750010877236198180000010819028454124922303_">
			<use xlink:href="#XMLID_00000132810157011928972590000014050002531829369482_"  overflow="visible"/>
		</clipPath>
		<path clip-path="url(#XMLID_00000078750010877236198180000010819028454124922303_)" fill="#555555" d="M938.2,1031.8
			c-7.4-53.3-29.3-70.4-62.3-76.2c-43.8-7.8-85.3,46.3-93.8,57.3s-21.4,42.2-24.8,50.2c-3.5,7.9-5.2,26.5-37.2,42.7
			c-29.7,15-68.7,14-71.7,13.9v0c0,0,0,0-0.1,0c-0.1,0-0.1,0-0.1,0v0c-3.1,0.1-42.1,1.1-71.7-13.9c-32.1-16.2-33.8-34.8-37.2-42.7
			c-3.5-7.9-16.4-39.2-24.8-50.2c-8.4-10.9-49.9-65-93.8-57.3c-33.1,5.8-54.9,22.9-62.3,76.2c-7.4,53.3,16.8,117.6,16.8,117.6
			l4,186.3h269h0.2h269l4-186.3C921.3,1149.4,945.5,1085.1,938.2,1031.8z"/>
	</g>
	<g>
		<path fill="#555555" d="M835.7,659c0,0,101.4,46.2,147.9,123.7c45.1,75.2,62.5,158.4,18.9,249.2c3-5.1,5.9-10.4,8.7-15.8
			c48.5-93.9,31.5-179.7-14.9-257.2c-46.5-77.4-147.9-123.7-147.9-123.7L835.7,659z"/>
	</g>
	<g>
		<ellipse cx="648.2" cy="748.5" rx="269" ry="214.8"/>
		<ellipse fill="#323133" cx="648.2" cy="547.2" rx="171.7" ry="153.8"/>
		<ellipse fill="#323133" cx="648.2" cy="721.4" rx="243.3" ry="201.4"/>
		<g>
			<ellipse fill="#555555" cx="648.2" cy="775.6" rx="197.7" ry="147.2"/>
			<g>
				<ellipse fill="#555555" cx="682.2" cy="693.2" rx="90.1" ry="79.9"/>
				<ellipse fill="#555555" cx="614.2" cy="693.2" rx="90.1" ry="79.9"/>
			</g>
		</g>
		<g>
			<ellipse transform="matrix(0.4593 -0.8883 0.8883 0.4593 -293.649 1087.5764)" cx="746.6" cy="785" rx="49.6" ry="34.4"/>
			<ellipse transform="matrix(0.8883 -0.4593 0.4593 0.8883 -299.1514 340.2409)" cx="549.8" cy="785" rx="34.4" ry="49.6"/>
		</g>
		<path fill="#323133" d="M641.2,400.7c-0.5-7.1,6.5-13.4,15.5-13.9c4.5-0.3,8.6,0.9,11.7,3c-2.1-5.9-10.8-10-20.9-9.3
			c-11.4,0.7-20.2,7.1-19.7,14.2c0.4,5.8,6.8,10.3,15.3,11.4C642,404.5,641.3,402.6,641.2,400.7z"/>
		<g>
			<g>
				
					<ellipse transform="matrix(0.1946 -0.9809 0.9809 0.1946 158.7237 1282.3478)" fill="#323133" cx="860.3" cy="544.5" rx="19.6" ry="48.6"/>
				<ellipse transform="matrix(0.1946 -0.9809 0.9809 0.1946 153.8945 1285.1636)" cx="859.6" cy="548.9" rx="15.2" ry="45.4"/>
			</g>
			<g>
				
					<ellipse transform="matrix(0.9809 -0.1946 0.1946 0.9809 -97.6357 95.2825)" fill="#323133" cx="436.1" cy="544.5" rx="48.6" ry="19.6"/>
				<ellipse transform="matrix(0.9809 -0.1946 0.1946 0.9809 -98.4686 95.5019)" cx="436.8" cy="548.9" rx="45.4" ry="15.2"/>
			</g>
		</g>
		<g>
			<g>
				
					<ellipse transform="matrix(6.974687e-02 -0.9976 0.9976 6.974687e-02 94.4361 1216.311)" cx="699.4" cy="557.5" rx="39.1" ry="19.5"/>
				<circle fill="#FFFFFF" cx="701" cy="544.7" r="13.6"/>
			</g>
			<g>
				
					<ellipse transform="matrix(0.9976 -6.974687e-02 6.974687e-02 0.9976 -37.4316 42.9937)" cx="597" cy="557.5" rx="19.5" ry="39.1"/>
				<circle fill="#FFFFFF" cx="595.3" cy="544.7" r="13.6"/>
			</g>
		</g>
	</g>
	<path d="M769,1237.4c7.4-0.9,17.6,9.7,23.9,22.4c6,12.2,17.7,42,17.7,43.5s-2.6,8.7-7.5,11.3c-5,2.6-27.6-3.9-27.6-3.9
		s-3.7,9.9-24.4,9.7s-25.2-8-29.5-11.6c-4.3-3.7-5-6.9-5-8.2s0.9-36.5,0.9-40c0-3.5,3.2-26,16.1-26s16,23.7,16.6,27.4
		c0.6,3.7,1.3,15.3,3.5,15.5c2.2,0.2,1.3-8.6,2.6-17.3C757.5,1251.6,760.3,1238.5,769,1237.4z"/>
	<path d="M529.8,1237.4c-7.4-0.9-17.6,9.7-23.9,22.4c-6,12.2-17.7,42-17.7,43.5s2.6,8.7,7.5,11.3c5,2.6,27.6-3.9,27.6-3.9
		s3.7,9.9,24.4,9.7c20.7-0.2,25.2-8,29.5-11.6c4.3-3.7,5-6.9,5-8.2s-0.9-36.5-0.9-40c0-3.5-3.2-26-16.1-26s-16,23.7-16.6,27.4
		s-1.3,15.3-3.5,15.5c-2.2,0.2-1.3-8.6-2.6-17.3C541.2,1251.6,538.5,1238.5,529.8,1237.4z"/>
	<polygon fill="#FFFFFF" points="571.2,1248.4 576,1301.4 565,1310.8 	"/>
	<polygon fill="#FFFFFF" points="806.1,1301.5 800.8,1310.7 776.2,1245.4 	"/>
	<path d="M1058.3,677.4c4.9,4.4,9.2,3.4,15.9-4.2c6.7-7.6,12.1-16.4,10.5-21.2c-1.7-4.8-2.4-5.4-2.4-5.4s1.2,7.2-2.4,8.3
		s-3.6-5.5-3.6-7.1s1.9-7.8,8.1-12.6c6.2-4.8,11.9-6,17.2-10.1c5.3-4.1,5.4-9.4,5.4-9.4s-4.4,3.8-7.5,5.3c-3.2,1.6-4.8,2.3-5.5,1.1
		s6.7-6.1,10.1-11s6.7-10.3,7.4-18.5c0.7-8.2-3-15.4-3-15.4s0.2,10.7-4,18.7c-4.2,8.1-8.3,13.2-12.2,13.1c-3.8-0.1,3.2-5.9,4-13.7
		c0.8-7.8-2.3-11.7-2.3-11.7s0.8,7.9-6.2,15.6c-5.9,6.5-15.6,10.9-19.9,13.6c-4.3,2.8-5.5,3-6.4,1.8c-0.9-1.2,0.4-3.9,2.2-5.5
		s2.6-1.9,2.6-1.9s-5.9-1.9-10.9,4.5s-5.9,14.3-6.3,19.8c-0.4,5.6,1.3,12.4,0.1,12.6s-3.5-0.6-4.5-3c-1-2.3-0.9-5.7-0.9-5.7
		s-4.1,3.5-1.8,12.9c2.3,9.3,3.4,13.4,7.9,19.6S1058.3,677.4,1058.3,677.4z"/>
	<g>
		<circle fill="#FFFFFF" cx="648" cy="1001.9" r="61.4"/>
		<g>
			<path fill="#221F20" d="M648.6,978.7l15.8,38.9l-23.8-18.7L648.6,978.7L648.6,978.7z M676.5,1026.6l-24.2-58.3
				c-0.7-1.7-2.1-2.6-3.8-2.6c-1.7,0-3.2,0.9-3.9,2.6l-26.6,64h9.1l10.5-26.4l31.4,25.4c1.3,1,2.2,1.5,3.4,1.5
				c2.4,0,4.4-1.8,4.4-4.3C677,1027.9,676.8,1027.3,676.5,1026.6L676.5,1026.6z"/>
			<path fill="#221F20" d="M647.5,942.3c-32.8,0-59.5,26.7-59.5,59.5c0,32.8,26.7,59.5,59.5,59.5c32.8,0,59.5-26.7,59.5-59.5
				C707.1,969,680.4,942.3,647.5,942.3L647.5,942.3z M647.5,1064.1c-34.3,0-62.2-27.9-62.2-62.2c0-34.3,27.9-62.2,62.2-62.2
				c34.3,0,62.2,27.9,62.2,62.2C709.8,1036.2,681.8,1064.1,647.5,1064.1L647.5,1064.1z"/>
		</g>
	</g>
</g>
<g id="Layer_4">
</g>
</svg>
