<?xml version="1.0" encoding="UTF-8"?>
<svg id="Layer_1" data-name="Layer 1" xmlns="http://www.w3.org/2000/svg" xmlns:xlink="http://www.w3.org/1999/xlink" viewBox="0 0 2521.32 1440.37">
  <defs>
    <style>
      .cls-1 {
        clip-path: url(#clippath);
      }

      .cls-2 {
        fill: #fff;
      }

      .cls-3 {
        fill: #ef5956;
      }

      .cls-4 {
        fill: #323133;
      }

      .cls-5 {
        fill: #abd8f3;
      }

      .cls-6 {
        fill: #abd9f3;
      }

      .cls-7 {
        fill: #abd9f2;
      }

      .cls-8 {
        fill: #dadada;
      }

      .cls-9 {
        fill: #252426;
      }

      .cls-10 {
        fill: #441e0d;
      }

      .cls-11 {
        fill: #431d0d;
      }

      .cls-12, .cls-13 {
        fill: #146cb3;
      }

      .cls-14 {
        fill: #555;
      }

      .cls-15 {
        fill: #4a8dc7;
      }

      .cls-16 {
        clip-path: url(#clippath-1);
      }

      .cls-17 {
        clip-path: url(#clippath-4);
      }

      .cls-18 {
        clip-path: url(#clippath-3);
      }

      .cls-19 {
        clip-path: url(#clippath-2);
      }

      .cls-20 {
        clip-path: url(#clippath-8);
      }

      .cls-21 {
        clip-path: url(#clippath-6);
      }

      .cls-22 {
        clip-path: url(#clippath-5);
      }

      .cls-13 {
        clip-path: url(#clippath-7);
      }
    </style>
    <clipPath id="clippath">
      <circle class="cls-7" cx="551.58" cy="535.66" r="384.45"/>
    </clipPath>
    <clipPath id="clippath-1">
      <path class="cls-4" d="m487.07,759.06s-42.59,33.33-49.48,39.16c-6.89,5.83-19.61,12.72-39.75,2.65-20.14-10.07-55.12-51.94-55.12-51.94,0,0,40.81,15.9,57.77,7.42,16.96-8.48,32.29-20.42,33.9-40.15s52.68,42.86,52.68,42.86Z"/>
    </clipPath>
    <clipPath id="clippath-2">
      <path class="cls-4" d="m532.44,707.43s41.63,34.53,48.79,40.02,16.6,16.46,11.04,38.28c-5.56,21.82-39.03,64.9-39.03,64.9,0,0,6.86-43.26-5.04-58.03-11.89-14.77-26.71-26.22-46.45-24.59-18.82,1.56,30.68-60.59,30.68-60.59Z"/>
    </clipPath>
    <clipPath id="clippath-3">
      <path class="cls-4" d="m565.95,458.62c-58.41-10.54-112.54,9.15-132.71,45.19h0s-.02.04-.05.1c-3.06,5.49-5.34,11.37-6.73,17.57-5.66,16.91-12.45,43.51-10.08,68.71,3.88,41.3,10.59,76.6,18.01,126.02h0c1.29,16.16,11.69,37.7,32.87,45,26.81,9.24,47.88,4.95,58.94-14.22,4.04-7,4.61-6.05,13.15-15.72,12.47-11.81,38.13-35.42,74-64.83,51.56-42.29,59.3-90.76,59.3-90.76h0c.66-2.23,1.2-4.5,1.62-6.82,8.75-48.5-39.75-97.85-108.32-110.22Z"/>
    </clipPath>
    <clipPath id="clippath-4">
      <path class="cls-2" d="m657.18,294.78s-6.54-4.34-9.93-8.82c-3.39-4.48-4.28-10.18-4.28-10.18,0,0-2.71,2.77-2.04,6.49.66,3.73,2.56,8.01,2.56,8.01,0,0-13.22-10.03-5.91-26.52,10.02-22.63,31.86-27.69,31.86-27.69,0,0-19.48-5.82-36.81-.12s-22.69,11.11-28.42,21.22c-5.72,10.11-1.35,22.67,6.62,30.99s28.94,21.07,28.94,21.07l5.54,1.22c9.03,1.99,16.23-7.53,11.86-15.68h0Z"/>
    </clipPath>
    <clipPath id="clippath-5">
      <path class="cls-14" d="m749.68,440.33c-2.89,17.37-9.76,34.64-17.06,43.5-7.41,9.01-21.18,23.54-47,23.54-43.5,0-119.3-4.82-119.3-72.27,0-72.28,69.43-72.27,112.93-72.27,26.29,0,49.57,12.73,63.88,32.29,9.37,12.8,9.35,28.44,6.55,45.21Z"/>
    </clipPath>
    <clipPath id="clippath-6">
      <path class="cls-2" d="m603.8,285s-6.99-3.56-10.88-7.62c-3.88-4.06-5.42-9.62-5.42-9.62,0,0-2.37,3.06-1.28,6.69,1.09,3.63,3.47,7.66,3.47,7.66,0,0-14.28-8.44-8.93-25.66,7.35-23.63,28.46-31.17,28.46-31.17,0,0-20.02-3.54-36.57,4.12-16.55,7.67-21.26,13.65-25.78,24.35-4.52,10.7,1.27,22.67,10.15,30.02,8.87,7.35,31.17,17.6,31.17,17.6l5.64.57c9.2.93,15.25-9.35,9.97-16.94h0Z"/>
    </clipPath>
    <clipPath id="clippath-7">
      <path class="cls-12" d="m988.05,463.91l-32.84-5.37c-10.65-56.62-32.92-109.13-64.23-154.98l18.57-25.83c11.55-14.73,10.28-35.77-2.95-49.01l-47.59-47.59c-13.24-13.24-34.28-14.51-49.01-2.95l-25.55,18.37c-47.62-32.84-102.52-55.88-161.78-66.22l-5.47-33.48c-2.25-18.59-18.02-32.57-36.74-32.57h-67.3c-18.72,0-34.49,13.98-36.74,32.57l-5.77,35.32c-55.3,11.05-106.59,33.2-151.45,64.04l-25.08-18.03c-14.73-11.55-35.77-10.28-49.01,2.95l-47.59,47.59c-13.24,13.24-14.51,34.28-2.95,49.01l18.07,25.13c-31.53,45.97-53.96,98.67-64.68,155.51l-33.84,5.53c-18.59,2.25-32.57,18.02-32.57,36.74v67.3c0,18.72,13.98,34.49,32.57,36.74l33.6,5.49c10.95,59.13,34.55,113.81,67.91,161.13l-21.06,29.29c-11.55,14.73-10.28,35.77,2.95,49.01l47.59,47.59c13.24,13.24,34.28,14.51,49.01,2.95l30.51-21.94-2.66-2.66c44.25,29.89,94.65,51.37,148.89,62.18l5.55,33.99c2.25,18.59,18.02,32.57,36.74,32.57h67.3c18.72,0,34.49-13.98,36.74-32.57l5.25-32.16c59.26-10.31,114.16-33.32,161.8-66.12l-4.76,4.76,30.51,21.94c14.73,11.55,35.77,10.28,49.01-2.95l47.59-47.59c13.24-13.24,14.51-34.28,2.95-49.01l-21.56-29.98c33.13-47.21,56.58-101.7,67.46-160.61l32.59-5.33c18.59-2.25,32.57-18.02,32.57-36.74v-67.3c0-18.72-13.98-34.49-32.57-36.74Z"/>
    </clipPath>
    <clipPath id="clippath-8">
      <circle class="cls-13" cx="551.58" cy="534.94" r="346.53"/>
    </clipPath>
  </defs>
  <polygon class="cls-6" points="106.41 547.2 146.42 547.2 126.41 509.78 106.41 547.2"/>
  <g>
    <circle class="cls-7" cx="551.58" cy="535.66" r="384.45"/>
    <g class="cls-1">
      <g>
        <path class="cls-2" d="m320.32,654.31c-8.05,0-14.77-5.78-15.96-13.74l-7.37-49.04-.93-.26c-13.51-3.85-26.54-9.37-38.74-16.4l-.85-.49-40.21,29.71c-2.83,2.09-6.15,3.19-9.61,3.19-4.28,0-8.33-1.69-11.4-4.76l-30.25-30.25c-5.69-5.69-6.35-14.53-1.57-21l29.93-40.51-.48-.85c-6.83-12.07-12.18-24.97-15.91-38.33l-.26-.94-49.76-7.47c-7.96-1.2-13.74-7.91-13.74-15.96v-42.78c0-8.05,5.78-14.76,13.74-15.96l49.24-7.4.25-.95c3.64-13.64,8.98-26.82,15.87-39.2l.47-.84-29.34-39.71c-4.79-6.48-4.13-15.31,1.57-21l30.25-30.25c3.07-3.07,7.12-4.76,11.4-4.76,3.46,0,6.78,1.1,9.61,3.19l38.82,28.68.85-.5c12.68-7.47,26.28-13.29,40.42-17.29l.93-.26,7.08-47.11c1.2-7.96,7.91-13.74,15.96-13.74h42.78c8.05,0,14.77,5.78,15.96,13.74l6.92,46.08.96.25c14.75,3.81,28.96,9.57,42.21,17.13l.85.48,37.15-27.45c2.83-2.09,6.15-3.19,9.61-3.19,4.28,0,8.33,1.69,11.4,4.76l30.25,30.25c5.69,5.69,6.35,14.53,1.57,21l-27.23,36.86.5.85c7.78,13.38,13.71,27.71,17.64,42.62l.25.95,45.34,6.81c7.96,1.2,13.74,7.91,13.74,15.96v42.78c0,8.05-5.78,14.77-13.74,15.96l-45.86,6.89-.26.94c-4.03,14.62-9.99,28.66-17.71,41.73l-.51.85,27.84,37.68c4.79,6.48,4.13,15.31-1.57,21l-30.25,30.25c-3.07,3.07-7.12,4.76-11.4,4.76-3.46,0-6.78-1.1-9.61-3.19l-38.57-28.5-.84.47c-12.76,7.12-26.39,12.59-40.51,16.26l-.96.25-7.21,48c-1.2,7.96-7.91,13.74-15.96,13.74h-42.78Zm-3.11-15.67c.23,1.52,1.56,2.67,3.11,2.67h42.78c1.54,0,2.88-1.15,3.11-2.67l8.52-56.73,4.33-.98c16.43-3.72,32.11-10.01,46.61-18.69l3.72-2.23,45.49,33.61c.55.4,1.19.62,1.87.62.83,0,1.62-.33,2.22-.92l30.25-30.25c1.11-1.11,1.24-2.83.31-4.09l-33.1-44.8,2.38-3.76c9.34-14.73,16.15-30.78,20.26-47.69l1.03-4.25,54.44-8.18c1.55-.23,2.67-1.54,2.67-3.11v-42.78c0-1.57-1.12-2.87-2.67-3.11l-54.04-8.12-.99-4.31c-3.95-17.19-10.72-33.53-20.1-48.57l-2.34-3.75,32.45-43.92c.93-1.26.8-2.98-.31-4.09l-30.25-30.25c-.6-.6-1.38-.92-2.22-.92-.67,0-1.32.21-1.87.62l-44.15,32.62-3.73-2.29c-14.94-9.14-31.16-15.72-48.21-19.55l-4.34-.98-8.23-54.83c-.23-1.55-1.54-2.67-3.11-2.67h-42.78c-1.57,0-2.87,1.12-3.11,2.67l-8.36,55.64-4.21,1.05c-16.44,4.11-32.06,10.8-46.43,19.88l-3.76,2.38-45.92-33.93c-.55-.4-1.19-.62-1.87-.62-.84,0-1.62.33-2.22.92l-30.25,30.25c-1.11,1.11-1.24,2.83-.31,4.09l34.45,46.62-2.22,3.71c-8.44,14.13-14.61,29.39-18.34,45.35l-1,4.29-57.9,8.7c-1.55.23-2.67,1.54-2.67,3.11v42.78c0,1.57,1.12,2.87,2.67,3.11l58.32,8.76,1.04,4.23c3.87,15.7,10.08,30.67,18.47,44.49l2.26,3.73-35.08,47.47c-.92,1.24-.79,3,.3,4.09l30.25,30.25c.59.59,1.38.92,2.22.92h0c.68,0,1.32-.21,1.87-.62l47.24-34.91,3.74,2.32c13.93,8.62,29.02,15.01,44.85,19l4.2,1.06,8.64,57.55Zm26.37-99.5c-63,0-114.26-51.26-114.26-114.26s51.26-114.26,114.26-114.26,114.26,51.26,114.26,114.26-51.26,114.26-114.26,114.26Zm0-215.52c-55.84,0-101.26,45.43-101.26,101.26s45.43,101.26,101.26,101.26,101.26-45.43,101.26-101.26-45.43-101.26-101.26-101.26Z"/>
        <path class="cls-5" d="m363.11,198.8c7.3,0,13.39,5.24,14.48,12.47l6.77,45.1.29,1.96,1.92.5c14.63,3.77,28.7,9.49,41.84,16.98l1.7.97,1.57-1.16,36.37-26.87c2.57-1.9,5.58-2.9,8.72-2.9,3.88,0,7.55,1.54,10.34,4.32l30.25,30.25c5.16,5.16,5.76,13.18,1.42,19.05l-26.65,36.07-1.17,1.59.99,1.7c7.71,13.26,13.59,27.47,17.49,42.25l.5,1.91,1.95.29,44.36,6.66c7.22,1.09,12.47,7.17,12.47,14.48v42.78c0,7.3-5.24,13.39-12.47,14.48l-44.89,6.74-1.93.29-.52,1.88c-3.99,14.49-9.9,28.41-17.55,41.37l-1.01,1.71,1.18,1.6,27.25,36.88c4.34,5.87,3.74,13.89-1.42,19.05l-30.25,30.25c-2.79,2.79-6.46,4.32-10.34,4.32-3.13,0-6.15-1-8.72-2.9l-37.79-27.92-1.56-1.15-1.69.94c-12.65,7.06-26.16,12.48-40.16,16.12l-1.92.5-.29,1.96-7.06,47.02c-1.08,7.22-7.17,12.47-14.48,12.47h-42.78c-7.3,0-13.39-5.24-14.48-12.47l-7.22-48.09-.29-1.91-1.86-.53c-13.39-3.82-26.31-9.29-38.4-16.26l-1.7-.98-1.58,1.17-39.42,29.13c-2.57,1.9-5.58,2.9-8.71,2.9-3.88,0-7.55-1.53-10.34-4.32l-30.25-30.25c-5.17-5.16-5.76-13.18-1.42-19.05l29.35-39.72,1.16-1.57-.96-1.69c-6.77-11.97-12.07-24.75-15.77-38l-.52-1.87-1.92-.29-48.8-7.33c-7.22-1.08-12.47-7.17-12.47-14.48v-42.78c0-7.3,5.24-13.39,12.46-14.48l48.27-7.25,1.94-.29.51-1.9c3.61-13.52,8.9-26.59,15.73-38.85l.94-1.69-1.15-1.55-28.76-38.93c-4.34-5.87-3.74-13.89,1.42-19.05l30.25-30.25c2.79-2.79,6.46-4.32,10.34-4.32,3.13,0,6.15,1,8.72,2.9l38.02,28.09,1.6,1.18,1.71-1.01c12.57-7.4,26.05-13.17,40.06-17.14l1.86-.53.29-1.91,6.93-46.16c1.08-7.22,7.17-12.47,14.48-12.47h42.78m-55.58,68.6l-3.24.81c-16.6,4.15-32.37,10.9-46.87,20.07l-2.89,1.83-45.1-33.32c-.81-.59-1.76-.91-2.76-.91-1.24,0-2.4.48-3.28,1.36l-30.25,30.25c-1.64,1.64-1.82,4.18-.45,6.04l33.86,45.82-1.71,2.86c-8.52,14.26-14.74,29.66-18.51,45.77l-.77,3.3-56.9,8.54c-2.29.34-3.95,2.27-3.95,4.59v42.78c0,2.32,1.66,4.24,3.95,4.59l57.32,8.61.8,3.25c3.9,15.85,10.18,30.96,18.64,44.91l1.74,2.87-34.48,46.66c-1.35,1.83-1.16,4.43.45,6.04l30.25,30.25c.88.88,2.04,1.36,3.28,1.36,1,0,1.95-.32,2.76-.91l46.43-34.3,2.88,1.78c14.06,8.7,29.29,15.15,45.27,19.18l3.23.81,8.49,56.56c.34,2.25,2.31,3.95,4.59,3.95h42.78c2.28,0,4.25-1.7,4.59-3.95l8.37-55.72,3.33-.75c16.59-3.75,32.42-10.1,47.05-18.87l2.86-1.71,44.69,33.02c.81.59,1.76.91,2.75.91,1.24,0,2.4-.48,3.28-1.36l30.25-30.25c1.64-1.64,1.83-4.18.45-6.04l-32.49-43.97,1.83-2.89c9.43-14.87,16.3-31.07,20.45-48.14l.79-3.27,53.45-8.03c2.29-.34,3.95-2.27,3.95-4.59v-42.78c0-2.31-1.66-4.24-3.95-4.59l-53.02-7.96-.76-3.32c-3.99-17.35-10.82-33.85-20.29-49.03l-1.8-2.88,31.85-43.1c1.37-1.86,1.18-4.4-.45-6.04l-30.25-30.25c-.88-.88-2.04-1.36-3.28-1.36-1,0-1.95.31-2.76.91l-43.34,32.02-2.87-1.76c-15.08-9.23-31.45-15.87-48.67-19.73l-3.34-.75-8.08-53.81c-.34-2.29-2.27-3.95-4.59-3.95h-42.78c-2.31,0-4.24,1.66-4.59,3.95l-8.21,54.65m36.06,44.72c62.18,0,112.76,50.58,112.76,112.76s-50.58,112.76-112.76,112.76-112.76-50.58-112.76-112.76,50.58-112.76,112.76-112.76m0,215.52c56.66,0,102.76-46.1,102.76-102.76s-46.1-102.76-102.76-102.76-102.76,46.1-102.76,102.76,46.1,102.76,102.76,102.76m19.52-331.84h-42.78c-8.8,0-16.14,6.32-17.44,15.02l-6.93,46.16c-14.28,4.04-27.95,9.89-40.77,17.44l-38.02-28.09c-3.16-2.34-6.84-3.49-10.5-3.49-4.52,0-9.02,1.76-12.46,5.2l-30.25,30.25c-6.22,6.22-6.95,15.88-1.71,22.96l28.76,38.93c-6.95,12.5-12.32,25.76-16,39.54l-48.27,7.25c-8.7,1.31-15.02,8.64-15.02,17.44v42.78c0,8.8,6.32,16.14,15.02,17.44l48.8,7.33c3.77,13.5,9.16,26.47,16.05,38.67l-29.35,39.72c-5.23,7.08-4.51,16.73,1.71,22.96l30.25,30.25c3.44,3.44,7.93,5.2,12.46,5.2,3.66,0,7.33-1.15,10.5-3.49l39.42-29.12c12.33,7.11,25.43,12.65,39.08,16.54l7.22,48.09c1.31,8.7,8.64,15.02,17.44,15.02h42.78c8.8,0,16.14-6.32,17.44-15.02l7.06-47.02c14.26-3.71,27.97-9.21,40.87-16.41l37.79,27.92c3.16,2.34,6.84,3.49,10.5,3.49,4.52,0,9.02-1.76,12.46-5.2l30.25-30.25c6.22-6.22,6.94-15.88,1.71-22.96l-27.25-36.88c7.8-13.21,13.79-27.33,17.86-42.09l44.89-6.74c8.7-1.31,15.02-8.64,15.02-17.44v-42.78c0-8.8-6.32-16.14-15.02-17.44l-44.36-6.66c-3.97-15.06-9.93-29.48-17.79-42.99l26.65-36.07c5.23-7.08,4.51-16.73-1.71-22.96l-30.25-30.25c-3.44-3.44-7.93-5.2-12.46-5.2-3.66,0-7.34,1.15-10.5,3.49l-36.37,26.87c-13.39-7.64-27.67-13.43-42.58-17.28l-6.77-45.1c-1.31-8.7-8.64-15.02-17.44-15.02h0Zm-108.71,97.94l4.63-2.92c14.23-9,29.7-15.62,45.99-19.69l5.18-1.29,8.5-56.63c.12-.81.8-1.4,1.62-1.4h42.78c.82,0,1.5.59,1.62,1.4l8.39,55.84,5.35,1.2c16.9,3.79,32.96,10.31,47.76,19.36l4.6,2.81,44.96-33.22c.29-.22.64-.32.98-.32.42,0,.84.16,1.16.48l30.25,30.25c.58.58.65,1.48.16,2.13l-33.06,44.74,2.88,4.61c9.3,14.9,16,31.09,19.91,48.11l1.22,5.31,55.04,8.27c.81.12,1.4.8,1.4,1.62v42.78c0,.82-.59,1.5-1.4,1.62l-55.44,8.33-1.27,5.23c-4.06,16.76-10.81,32.65-20.06,47.24l-2.93,4.63,33.71,45.62c.49.66.42,1.56-.16,2.14l-30.25,30.25c-.32.32-.74.48-1.16.48-.34,0-.68-.11-.98-.32l-46.3-34.21-4.58,2.74c-14.36,8.6-29.89,14.83-46.17,18.51l-5.33,1.21-8.67,57.74c-.12.8-.82,1.4-1.62,1.4h-42.78c-.81,0-1.5-.6-1.62-1.4l-8.79-58.54-5.17-1.3c-15.68-3.95-30.63-10.28-44.43-18.82l-4.61-2.85-48.06,35.51c-.29.22-.64.32-.98.32-.42,0-.84-.16-1.16-.48l-30.25-30.25c-.57-.57-.64-1.49-.16-2.13l35.67-48.28-2.78-4.59c-8.31-13.69-14.46-28.52-18.3-44.07l-1.28-5.2-59.31-8.91c-.81-.12-1.4-.8-1.4-1.62v-42.78c0-.82.59-1.5,1.4-1.62l58.91-8.85,1.24-5.28c3.7-15.81,9.81-30.92,18.16-44.92l2.73-4.57-35.04-47.43c-.49-.66-.42-1.55.16-2.13l30.25-30.25c.32-.32.74-.48,1.16-.48.34,0,.68.11.98.32l46.75,34.54h0Zm89.19,15.38c-63.83,0-115.76,51.93-115.76,115.76s51.93,115.76,115.76,115.76,115.76-51.93,115.76-115.76-51.93-115.76-115.76-115.76h0Zm0,215.52c-55.01,0-99.76-44.75-99.76-99.76s44.75-99.76,99.76-99.76,99.76,44.75,99.76,99.76-44.75,99.76-99.76,99.76h0Z"/>
      </g>
      <g>
        <path class="cls-2" d="m728.92,880.66c-8.05,0-14.77-5.78-15.96-13.74l-7.37-49.04-.93-.26c-13.5-3.85-26.54-9.37-38.74-16.4l-.85-.49-40.21,29.71c-2.83,2.09-6.15,3.19-9.61,3.19-4.28,0-8.33-1.69-11.4-4.76l-30.25-30.25c-5.69-5.69-6.35-14.53-1.57-21l29.93-40.51-.48-.85c-6.83-12.08-12.18-24.97-15.91-38.33l-.26-.94-49.76-7.47c-7.96-1.2-13.74-7.91-13.74-15.96v-42.78c0-8.05,5.78-14.77,13.74-15.96l49.24-7.4.25-.95c3.65-13.64,8.98-26.83,15.87-39.2l.47-.84-29.34-39.71c-4.79-6.48-4.13-15.31,1.57-21l30.25-30.25c3.07-3.07,7.12-4.76,11.4-4.76,3.46,0,6.78,1.1,9.61,3.19l38.82,28.68.86-.5c12.68-7.47,26.28-13.29,40.42-17.29l.93-.26,7.08-47.11c1.19-7.96,7.91-13.74,15.96-13.74h42.78c8.05,0,14.76,5.78,15.96,13.74l6.92,46.08.96.25c14.76,3.81,28.96,9.57,42.21,17.13l.85.48,37.16-27.45c2.83-2.09,6.15-3.19,9.61-3.19,4.28,0,8.33,1.69,11.4,4.76l30.25,30.25c5.69,5.69,6.35,14.53,1.57,21l-27.24,36.86.5.85c7.78,13.38,13.71,27.71,17.64,42.62l.25.96,45.34,6.81c7.96,1.2,13.74,7.91,13.74,15.96v42.78c0,8.05-5.78,14.76-13.74,15.96l-45.86,6.89-.26.94c-4.03,14.61-9.99,28.65-17.71,41.73l-.5.86,27.84,37.68c4.71,6.37,4.03,15.4-1.57,21l-30.25,30.25c-3.07,3.07-7.12,4.76-11.4,4.76-3.46,0-6.78-1.1-9.61-3.19l-38.57-28.5-.84.47c-12.76,7.12-26.39,12.59-40.51,16.26l-.96.25-7.21,48c-1.2,7.96-7.91,13.74-15.96,13.74h-42.78Zm-3.11-15.67c.23,1.55,1.54,2.67,3.11,2.67h42.78c1.54,0,2.88-1.15,3.11-2.67l8.52-56.73,4.33-.98c16.43-3.72,32.11-10.01,46.61-18.69l3.72-2.23,45.49,33.61c.54.4,1.18.61,1.86.61.83,0,1.64-.33,2.22-.92l30.25-30.25c1.09-1.09,1.22-2.85.31-4.09l-33.1-44.8,2.38-3.76c9.34-14.73,16.15-30.78,20.26-47.69l1.03-4.25,54.44-8.18c1.55-.23,2.67-1.54,2.67-3.11v-42.78c0-1.57-1.12-2.87-2.67-3.11l-54.04-8.12-.99-4.31c-3.95-17.19-10.72-33.53-20.1-48.57l-2.34-3.75,32.45-43.92c.92-1.24.79-3-.3-4.09l-30.25-30.25c-.59-.59-1.38-.92-2.22-.92-.67,0-1.32.21-1.87.62l-44.15,32.62-3.73-2.29c-14.93-9.14-31.16-15.72-48.21-19.55l-4.34-.98-8.23-54.83c-.23-1.52-1.57-2.67-3.11-2.67h-42.78c-1.57,0-2.87,1.12-3.11,2.67l-8.36,55.64-4.21,1.05c-16.44,4.11-32.06,10.8-46.43,19.88l-3.76,2.38-45.92-33.93c-.55-.4-1.19-.62-1.87-.62-.84,0-1.62.33-2.22.92l-30.25,30.25c-1.11,1.11-1.24,2.83-.31,4.09l34.45,46.62-2.22,3.72c-8.44,14.13-14.61,29.38-18.34,45.35l-1,4.29-57.9,8.7c-1.52.23-2.67,1.56-2.67,3.11v42.78c0,1.54,1.15,2.88,2.67,3.11l58.32,8.76,1.04,4.23c3.87,15.7,10.08,30.67,18.47,44.49l2.26,3.73-35.08,47.47c-.93,1.26-.8,2.98.3,4.09l30.25,30.25c.59.59,1.38.92,2.22.92h0c.68,0,1.32-.21,1.87-.62l47.24-34.91,3.74,2.32c13.93,8.62,29.02,15.01,44.85,19l4.2,1.06,8.64,57.55Zm26.37-99.49c-63,0-114.26-51.26-114.26-114.26s51.26-114.26,114.26-114.26,114.26,51.26,114.26,114.26-51.26,114.26-114.26,114.26Zm0-215.52c-55.83,0-101.26,45.43-101.26,101.26s45.43,101.26,101.26,101.26,101.26-45.43,101.26-101.26-45.43-101.26-101.26-101.26Z"/>
        <path class="cls-5" d="m771.71,425.15c7.3,0,13.39,5.24,14.48,12.46l6.77,45.1.29,1.96,1.92.5c14.63,3.77,28.7,9.49,41.84,16.98l1.7.97,1.57-1.16,36.37-26.87c2.57-1.9,5.58-2.9,8.72-2.9,3.88,0,7.55,1.53,10.34,4.32l30.25,30.25c5.17,5.16,5.76,13.18,1.42,19.05l-26.65,36.07-1.17,1.59.99,1.7c7.71,13.26,13.59,27.47,17.49,42.25l.5,1.91,1.95.29,44.36,6.66c7.22,1.08,12.47,7.17,12.47,14.48v42.78c0,7.3-5.24,13.39-12.47,14.48l-44.89,6.74-1.93.29-.52,1.88c-3.99,14.49-9.9,28.4-17.55,41.37l-1.01,1.71,1.18,1.6,27.25,36.88c4.27,5.78,3.66,13.97-1.42,19.05l-30.25,30.25c-2.79,2.79-6.46,4.32-10.34,4.32-3.13,0-6.15-1-8.72-2.9l-37.79-27.92-1.56-1.15-1.69.94c-12.65,7.06-26.16,12.49-40.16,16.12l-1.92.5-.29,1.96-7.06,47.02c-1.09,7.22-7.17,12.47-14.48,12.47h-42.78c-7.31,0-13.39-5.24-14.48-12.47l-7.22-48.09-.29-1.91-1.86-.53c-13.39-3.82-26.31-9.28-38.4-16.26l-1.7-.98-1.58,1.17-39.42,29.13c-2.57,1.9-5.58,2.9-8.72,2.9-3.88,0-7.55-1.53-10.33-4.32l-30.25-30.25c-5.16-5.16-5.76-13.18-1.42-19.05l29.35-39.72,1.16-1.56-.96-1.69c-6.77-11.97-12.07-24.75-15.78-38l-.52-1.87-1.92-.29-48.8-7.33c-7.22-1.09-12.47-7.17-12.47-14.48v-42.78c0-7.3,5.24-13.39,12.47-14.48l48.27-7.25,1.94-.29.51-1.9c3.61-13.52,8.91-26.59,15.73-38.85l.94-1.69-1.15-1.55-28.77-38.93c-4.34-5.87-3.74-13.89,1.42-19.05l30.25-30.25c2.79-2.79,6.46-4.32,10.34-4.32,3.13,0,6.15,1,8.72,2.9l38.02,28.09,1.6,1.18,1.71-1.01c12.57-7.41,26.05-13.17,40.06-17.14l1.86-.53.29-1.91,6.93-46.16c1.08-7.22,7.17-12.47,14.48-12.47h42.78m-55.58,68.6l-3.24.81c-16.6,4.15-32.36,10.9-46.87,20.07l-2.89,1.83-45.1-33.32c-.81-.6-1.76-.91-2.76-.91-1.24,0-2.4.48-3.28,1.36l-30.25,30.25c-1.64,1.64-1.83,4.18-.45,6.04l33.86,45.82-1.71,2.86c-8.52,14.26-14.74,29.66-18.51,45.77l-.77,3.3-56.9,8.54c-2.25.34-3.95,2.31-3.95,4.59v42.78c0,2.28,1.7,4.25,3.95,4.59l57.32,8.61.8,3.25c3.91,15.85,10.18,30.96,18.65,44.91l1.74,2.87-34.48,46.66c-1.38,1.86-1.19,4.4.45,6.04l30.25,30.25c.88.88,2.04,1.36,3.28,1.36,1,0,1.95-.32,2.76-.91l46.42-34.3,2.88,1.78c14.06,8.7,29.29,15.15,45.27,19.18l3.23.81,8.49,56.56c.34,2.29,2.27,3.95,4.59,3.95h42.78c2.28,0,4.25-1.7,4.59-3.95l8.37-55.72,3.33-.75c16.59-3.75,32.42-10.1,47.05-18.87l2.86-1.71,44.69,33.02c.8.6,1.76.91,2.76.91,1.24,0,2.41-.48,3.28-1.36l30.25-30.25c1.61-1.61,1.81-4.21.45-6.04l-32.49-43.97,1.83-2.89c9.43-14.87,16.31-31.07,20.45-48.14l.79-3.27,53.45-8.03c2.29-.34,3.95-2.27,3.95-4.59v-42.78c0-2.32-1.66-4.24-3.95-4.59l-53.02-7.96-.76-3.32c-3.99-17.35-10.82-33.85-20.29-49.03l-1.8-2.88,31.85-43.1c1.35-1.83,1.16-4.43-.45-6.04l-30.25-30.25c-.88-.88-2.04-1.36-3.28-1.36-1,0-1.95.32-2.76.91l-43.34,32.02-2.87-1.76c-15.08-9.23-31.45-15.87-48.67-19.73l-3.34-.75-8.08-53.81c-.34-2.25-2.31-3.95-4.59-3.95h-42.78c-2.31,0-4.24,1.66-4.59,3.95l-8.21,54.65m36.06,44.72c62.18,0,112.76,50.58,112.76,112.76s-50.58,112.76-112.76,112.76-112.76-50.58-112.76-112.76,50.58-112.76,112.76-112.76m0,215.52c56.66,0,102.76-46.1,102.76-102.76s-46.1-102.76-102.76-102.76-102.76,46.1-102.76,102.76,46.1,102.76,102.76,102.76m19.52-331.84h-42.78c-8.8,0-16.14,6.32-17.44,15.02l-6.93,46.16c-14.28,4.04-27.95,9.89-40.77,17.44l-38.02-28.09c-3.16-2.34-6.84-3.49-10.5-3.49-4.52,0-9.01,1.76-12.46,5.2l-30.25,30.25c-6.22,6.22-6.94,15.88-1.71,22.96l28.77,38.93c-6.96,12.5-12.32,25.76-16,39.54l-48.27,7.25c-8.7,1.31-15.02,8.64-15.02,17.44v42.78c0,8.8,6.32,16.14,15.02,17.44l48.8,7.33c3.77,13.5,9.16,26.47,16.05,38.67l-29.35,39.72c-5.23,7.08-4.51,16.73,1.71,22.96l30.25,30.25c3.44,3.44,7.93,5.2,12.46,5.2,3.66,0,7.34-1.15,10.5-3.49l39.42-29.13c12.33,7.11,25.43,12.65,39.08,16.54l7.22,48.09c1.31,8.7,8.64,15.02,17.44,15.02h42.78c8.8,0,16.14-6.32,17.44-15.02l7.06-47.02c14.26-3.71,27.97-9.21,40.87-16.41l37.79,27.92c3.16,2.34,6.84,3.49,10.5,3.49,4.52,0,9.01-1.76,12.46-5.2l30.25-30.25c6.12-6.12,6.86-15.99,1.72-22.96l-27.25-36.88c7.8-13.21,13.79-27.33,17.86-42.09l44.89-6.74c8.7-1.31,15.02-8.64,15.02-17.44v-42.78c0-8.8-6.32-16.14-15.02-17.44l-44.36-6.66c-3.97-15.06-9.93-29.48-17.79-42.99l26.65-36.07c5.23-7.08,4.51-16.73-1.71-22.96l-30.25-30.25c-3.44-3.44-7.93-5.2-12.46-5.2-3.66,0-7.34,1.15-10.5,3.49l-36.37,26.87c-13.39-7.64-27.67-13.43-42.58-17.28l-6.77-45.1c-1.31-8.7-8.64-15.02-17.44-15.02h0Zm-108.71,97.93l4.63-2.92c14.23-9,29.71-15.62,45.99-19.69l5.18-1.29,8.5-56.63c.12-.81.8-1.4,1.62-1.4h42.78c.8,0,1.5.6,1.62,1.4l8.39,55.84,5.34,1.2c16.9,3.79,32.96,10.31,47.76,19.36l4.6,2.81,44.97-33.22c.29-.22.64-.32.98-.32.42,0,.84.16,1.16.48l30.25,30.25c.57.57.64,1.49.16,2.13l-33.06,44.74,2.88,4.61c9.3,14.9,16,31.09,19.91,48.12l1.22,5.31,55.04,8.27h0c.81.12,1.4.8,1.4,1.62v42.78c0,.82-.59,1.5-1.4,1.62l-55.44,8.33-1.27,5.23c-4.06,16.75-10.81,32.65-20.06,47.24l-2.93,4.63,33.71,45.62c.48.65.41,1.56-.16,2.13l-30.25,30.25c-.32.32-.74.48-1.16.48-.34,0-.68-.1-.97-.32l-46.3-34.21-4.58,2.74c-14.36,8.6-29.89,14.83-46.17,18.51l-5.33,1.21-8.67,57.74c-.12.8-.82,1.4-1.62,1.4h-42.78c-.82,0-1.5-.59-1.62-1.4l-8.79-58.53-5.17-1.3c-15.68-3.95-30.63-10.28-44.43-18.82l-4.61-2.85-48.06,35.51c-.29.22-.64.32-.98.32-.42,0-.84-.16-1.16-.48l-30.25-30.25c-.58-.58-.64-1.48-.16-2.13l35.67-48.28-2.79-4.59c-8.31-13.69-14.46-28.52-18.3-44.07l-1.28-5.2-59.31-8.91c-.8-.12-1.4-.82-1.4-1.62v-42.78c0-.81.6-1.5,1.4-1.62l58.91-8.85,1.24-5.28c3.7-15.81,9.81-30.92,18.17-44.92l2.73-4.57-35.04-47.43c-.49-.66-.42-1.56.16-2.13l30.25-30.25c.32-.32.74-.48,1.16-.48.34,0,.68.11.98.32l46.75,34.54h0Zm89.19,15.38c-63.83,0-115.76,51.93-115.76,115.76s51.93,115.76,115.76,115.76,115.76-51.93,115.76-115.76-51.93-115.76-115.76-115.76h0Zm0,215.52c-55.01,0-99.76-44.75-99.76-99.76s44.75-99.76,99.76-99.76,99.76,44.75,99.76,99.76-44.75,99.76-99.76,99.76h0Z"/>
      </g>
    </g>
  </g>
  <path class="cls-2" d="m736.51,667.44c-5.23,13.04-9.84,25.49-15.21,37.61-3.92,8.85-11.69,2.53-18.67,4.68,13.14-31.51,25.67-61.63,38.28-91.72,1.95-4.66,3.8-9.44,6.49-13.67,1.49-2.34,4.63-5,7.05-5.02,2.3-.02,5.74,2.72,6.77,5.07,9.15,20.93,17.88,42.05,26.73,63.1,3.81,9.06,8.19,17.94,11.19,27.26,1.27,3.93,1.28,10.13-1.04,12.91-3.64,4.37-8.8,1.32-12.78-1.9-14.57-11.79-29.13-23.59-43.75-35.33-1.43-1.15-3.19-1.9-5.06-2.99Zm5.63-14.14c11.33,8.88,22.58,17.69,35.34,27.69-7.96-19.72-15.24-37.76-23.22-57.51-4.51,11.09-8.26,20.32-12.13,29.82Z"/>
  <path class="cls-2" d="m323.75,434.74c-5.23,13.04-9.84,25.49-15.21,37.61-3.92,8.85-11.69,2.53-18.67,4.68,13.14-31.51,25.67-61.63,38.28-91.72,1.95-4.66,3.8-9.44,6.49-13.67,1.49-2.34,4.63-5,7.05-5.02,2.3-.02,5.74,2.72,6.77,5.07,9.15,20.93,17.88,42.05,26.73,63.1,3.81,9.06,8.19,17.94,11.19,27.26,1.27,3.93,1.28,10.13-1.04,12.91-3.64,4.37-8.8,1.32-12.78-1.9-14.57-11.79-29.13-23.59-43.75-35.33-1.43-1.15-3.19-1.9-5.06-2.99Zm5.63-14.14c11.33,8.88,22.58,17.69,35.34,27.69-7.96-19.72-15.24-37.76-23.22-57.51-4.51,11.09-8.26,20.32-12.13,29.82Z"/>
  <path class="cls-4" d="m476.27,483.46s-37.95-16.76-73.31-9.37-37.74,50.55-38.65,61.34c-.91,10.79,10.22,56.34,10.22,56.34,0,0,6.79-39.07,19.71-44.71,12.91-5.64,40.48,10.49,40.48,10.49l41.54-74.09Z"/>
  <path class="cls-14" d="m451.57,497.72c-5.76-2.99-11.78-5.7-17.83-8.04-8.2-3.11-16.79-5.93-25.65-5.36-11,.53-20.65,6.01-23.95,17.05,1.53-11.02,10.23-18.52,20.71-21.18,2.41-.64,5.39-1.17,7.85-1.41,7.9-.67,15.91.74,23.59,2.42,5.9,1.32,11.74,2.98,17.49,4.85.84.28,1.63.54,2.53.86l-4.74,10.83h0Z"/>
  <g>
    <path class="cls-4" d="m487.07,759.06s-42.59,33.33-49.48,39.16c-6.89,5.83-19.61,12.72-39.75,2.65-20.14-10.07-55.12-51.94-55.12-51.94,0,0,40.81,15.9,57.77,7.42,16.96-8.48,32.29-20.42,33.9-40.15s52.68,42.86,52.68,42.86Z"/>
    <g class="cls-16">
      <path class="cls-14" d="m479.33,764.05s-49.18,15.63-63,13.91c-13.82-1.72-80.79-38.08-80.79-38.08v23.76l58.7,61.2,79.66-32.76,5.44-28.03Z"/>
    </g>
  </g>
  <path d="m363.33,771.81c-1.44,3.91-9.39,6.31-17.39,6.13s-25.57-1.99-26.33-2.38-3.68-3.52-3.69-6.67c-.01-3.15,9.07-12.81,9.07-12.81,0,0-4.01-4.4,1.45-14.69,5.46-10.3,10.51-10.55,13.46-11.76,2.95-1.21,4.73-.7,5.38-.36s18.01,9.9,19.74,10.8,12.2,8.32,8.85,14.79-15.99,1.85-17.99,1.22-7.99-3.31-8.66-2.29,3.98,2.88,7.96,5.76,9.85,7.65,8.14,12.27Z"/>
  <polygon class="cls-2" points="321.69 773.79 318.44 768.75 357.43 773.37 321.69 773.79"/>
  <g>
    <path class="cls-4" d="m532.44,707.43s41.63,34.53,48.79,40.02,16.6,16.46,11.04,38.28c-5.56,21.82-39.03,64.9-39.03,64.9,0,0,6.86-43.26-5.04-58.03-11.89-14.77-26.71-26.22-46.45-24.59-18.82,1.56,30.68-60.59,30.68-60.59Z"/>
    <g class="cls-19">
      <path class="cls-14" d="m555.51,857.6s11.88-41.76,14.04-61.2-5.64-54.22-14.04-65.52c-8.4-11.3-18.72-29.52-18.72-29.52l104.4,57.82-29.52,59.55-56.16,38.88Z"/>
    </g>
  </g>
  <path d="m571.22,825.62c4.13.58,8.16,7.84,9.69,15.68s3.5,25.41,3.28,26.23-2.66,4.35-5.73,5.03c-3.07.68-14.44-6.14-14.44-6.14,0,0-3.44,4.86-14.67,1.71s-12.55-8.03-14.36-10.65-1.69-4.48-1.5-5.18,5.85-19.71,6.35-21.58,5.53-13.69,12.56-11.79,5.2,15.23,5.02,17.32-1.54,8.51-.4,8.95,1.97-4.5,3.93-9c1.97-4.5,5.38-11.25,10.26-10.56Z"/>
  <polygon class="cls-2" points="582.01 865.9 577.78 870.14 574 831.06 582.01 865.9"/>
  <g>
    <path class="cls-4" d="m565.95,458.62c-58.41-10.54-112.54,9.15-132.71,45.19h0s-.02.04-.05.1c-3.06,5.49-5.34,11.37-6.73,17.57-5.66,16.91-12.45,43.51-10.08,68.71,3.88,41.3,10.59,76.6,18.01,126.02h0c1.29,16.16,11.69,37.7,32.87,45,26.81,9.24,47.88,4.95,58.94-14.22,4.04-7,4.61-6.05,13.15-15.72,12.47-11.81,38.13-35.42,74-64.83,51.56-42.29,59.3-90.76,59.3-90.76h0c.66-2.23,1.2-4.5,1.62-6.82,8.75-48.5-39.75-97.85-108.32-110.22Z"/>
    <g class="cls-18">
      <path class="cls-14" d="m692.22,548.33s-40.95,3.42-73.38,30.9c-32.43,27.47-52.66,74.41-58.76,100.36-6.11,25.95-1.61,44.65-1.61,44.65l169.9,17.55-36.14-193.46Z"/>
    </g>
  </g>
  <path d="m596.23,384.01c-43.14-10.73-83.77-10.97-111.54-2.62l-4.01,84.04c20.88,14.49,53.36,29.84,85.88,37.92,73.19,18.2,107.39,8.07,115.59-24.89,8.19-32.96-12.72-76.25-85.91-94.45Z"/>
  <path class="cls-4" d="m385.06,705.5s5.73,4.43,10.89,6.44c5.16,2.01,6.47,2.43,9.36.59s4.6-11.5,8.43-14.7,7.58-4.7,12.67-2.33c5.09,2.37,7.95,5.02,7.95,5.02l-.46-13.26s-4.67-2.66-9.93-4.82-9.87-1.33-12.44,2.33-4.18,10.74-6.57,14.44-3.79,5.29-7.24,5.64c-3.45.35-11.21-2.92-11.21-2.92l-1.44,3.59Z"/>
  <path d="m387.95,703.41c-.85,3.59-3.19,4.54-8.71,3.14s-10.88-3.73-11.63-6.46-.6-3.28-.6-3.28c0,0,1.77,3.7,3.8,3.08s-.1-3.71-.6-4.42-3.4-3.01-7.8-3.26-7.44,1.06-11.2.84c-3.75-.22-5.5-2.61-5.5-2.61,0,0,3.23.35,5.2.05s2.93-.48,2.93-1.25-5.05-.7-8.19-1.87-6.41-2.63-9.37-6.2-3.56-8.09-3.56-8.09c0,0,3.33,5,7.87,7.38,4.55,2.37,8.09,3.46,9.82,2.17s-3.4-1.72-6.24-5.05-2.71-6.16-2.71-6.16c0,0,2.15,3.94,7.87,5.24,4.82,1.09,10.69.06,13.57-.05s3.5-.39,3.54-1.24-1.41-1.67-2.78-1.84-1.79-.03-1.79-.03c0,0,2.11-2.76,6.49-1.39s7.28,4.71,9.27,7.16c1.99,2.45,3.35,6.18,4.01,5.87s1.43-1.43,1.14-2.82-1.39-2.91-1.39-2.91c0,0,3.03.33,4.94,5.4,1.91,5.07,2.73,7.3,2.61,11.6s-1,7.01-1,7.01Z"/>
  <circle class="cls-9" cx="659.47" cy="550.7" r="38.02"/>
  <circle class="cls-3" cx="662.98" cy="547.19" r="38.02"/>
  <path class="cls-2" d="m657.38,552.03c-1.98,4.93-3.72,9.63-5.75,14.21-1.48,3.34-4.42.96-7.06,1.77,4.97-11.91,9.7-23.29,14.47-34.66.74-1.76,1.44-3.57,2.45-5.17.56-.89,1.75-1.89,2.66-1.9.87,0,2.17,1.03,2.56,1.92,3.46,7.91,6.76,15.89,10.1,23.85,1.44,3.42,3.1,6.78,4.23,10.3.48,1.49.48,3.83-.39,4.88-1.38,1.65-3.33.5-4.83-.72-5.51-4.46-11.01-8.92-16.53-13.35-.54-.43-1.21-.72-1.91-1.13Zm2.13-5.34c4.28,3.35,8.53,6.69,13.36,10.47-3.01-7.45-5.76-14.27-8.77-21.74-1.7,4.19-3.12,7.68-4.58,11.27Z"/>
  <path class="cls-4" d="m456.7,360.03c0,58.37,57.83,118.3,104.87,118.3s74.95-42.19,74.95-100.56-38.13-105.69-85.17-105.69c-31.59,0-72.2,25.36-80.78,40.39-8.66,15.16-13.88,28.38-13.88,47.55Z"/>
  <path d="m637.01,319.69c-8.85-1.27-17.26-4.68-24.47-9.97-4.28-3.14-9.04-7.25-13.69-12.53-13.91-15.78-15.3-26.73-6.83-38.26s16.36-21.23,38.16-25.99c21.54-4.71,54.52,2.11,54.52,2.11,0,0-16.35,6.34-25.05,14.31-8.56,7.84-16.87,16.5-6.43,31.62,3.65,5.29,7.5,9.2,10.95,12.05,6.08,5.01,7.82,13.58,4.03,20.49h0c-3.26,5.95-9.87,9.25-16.59,8.28l-14.6-2.1Z"/>
  <g>
    <path class="cls-2" d="m657.18,294.78s-6.54-4.34-9.93-8.82c-3.39-4.48-4.28-10.18-4.28-10.18,0,0-2.71,2.77-2.04,6.49.66,3.73,2.56,8.01,2.56,8.01,0,0-13.22-10.03-5.91-26.52,10.02-22.63,31.86-27.69,31.86-27.69,0,0-19.48-5.82-36.81-.12s-22.69,11.11-28.42,21.22c-5.72,10.11-1.35,22.67,6.62,30.99s28.94,21.07,28.94,21.07l5.54,1.22c9.03,1.99,16.23-7.53,11.86-15.68h0Z"/>
    <g class="cls-17">
      <path class="cls-8" d="m639.58,316.19l-33.8-28.96-8.66-24.06,4.66-3.15s-.8,7.49,11.23,20.37c12.04,12.88,26.45,17.33,26.45,17.33,0,0-14.88-11.48-18.88-24.78-4-13.31,10.58-21.97,10.58-21.97,0,0-8.98,12.84-3.64,22.79,5.34,9.95,10.69,15.36,10.69,15.36,0,0-5.68-10.65-4.33-18.54s13.78-14.19,13.78-14.19l-8.7,23.61,2.53,7.3,2.01,2.97s12.67,8.79,18.33,11.57-22.25,14.34-22.25,14.34Z"/>
    </g>
  </g>
  <ellipse class="cls-4" cx="591.55" cy="344.05" rx="94.07" ry="76.29"/>
  <ellipse class="cls-4" cx="678.15" cy="332.84" rx="10.6" ry="8.48" transform="translate(173.48 894.96) rotate(-74.22)"/>
  <ellipse class="cls-4" cx="603.16" cy="417.81" rx="74.73" ry="113.51" transform="translate(22.55 866.42) rotate(-72.4)"/>
  <ellipse cx="677.34" cy="345.89" rx="9.97" ry="20.67" transform="translate(-9.61 19.49) rotate(-1.64)"/>
  <ellipse class="cls-2" cx="679.42" cy="336.29" rx="4.82" ry="6.44" transform="translate(-28.73 65.7) rotate(-5.42)"/>
  <path d="m677.08,323.56c2.87-.05,5.59.9,7.97,2.6-2.45-4.08-5.84-6.61-9.51-6.55-5.31.08-9.66,5.53-11.25,13.18,2.67-5.49,7.35-9.14,12.79-9.23Z"/>
  <path d="m640.32,320.65c2.87-.05,5.59.9,7.97,2.6-2.45-4.08-5.84-6.61-9.51-6.55-5.31.08-9.66,5.53-11.25,13.18,2.67-5.49,7.35-9.14,12.79-9.23Z"/>
  <g>
    <path class="cls-14" d="m749.68,440.33c-2.89,17.37-9.76,34.64-17.06,43.5-7.41,9.01-21.18,23.54-47,23.54-43.5,0-119.3-4.82-119.3-72.27,0-72.28,69.43-72.27,112.93-72.27,26.29,0,49.57,12.73,63.88,32.29,9.37,12.8,9.35,28.44,6.55,45.21Z"/>
    <g class="cls-22">
      <path d="m782.32,433.99c.82,3.5,1.19,7.16,1.04,10.92-.92,22.37-19.8,39.75-42.17,38.83-16.04-.66-34.08-7.15-40.07-20.95,4.04,17.29,23.74,27.07,42.34,27.84,22.37.92,41.25-16.46,42.17-38.83.26-6.32-.94-12.37-3.31-17.8Z"/>
    </g>
  </g>
  <ellipse cx="701.62" cy="397.3" rx="10.49" ry="21.1" transform="translate(-99.95 310.04) rotate(-23.31)"/>
  <path class="cls-4" d="m609.72,267.88c-.25-4.01,3.65-7.53,8.72-7.85,2.51-.16,4.84.5,6.58,1.69-1.18-3.34-6.07-5.62-11.76-5.26-6.39.4-11.37,3.99-11.12,8,.21,3.27,3.83,5.82,8.63,6.43-.61-.9-.99-1.91-1.06-3.01Z"/>
  <path d="m586.62,312.07c-8.94-.24-17.69-2.66-25.46-7.09-4.61-2.63-9.81-6.16-15.04-10.87-15.63-14.08-18.27-24.8-11.19-37.22,7.08-12.42,13.81-22.97,34.92-30.21,20.85-7.16,54.4-4.19,54.4-4.19,0,0-15.51,8.18-23.24,17.1-7.6,8.77-14.85,18.33-2.75,32.15,4.24,4.84,8.51,8.28,12.26,10.71,6.61,4.28,9.33,12.59,6.36,19.89h0c-2.56,6.28-8.74,10.32-15.52,10.14l-14.74-.4Z"/>
  <g>
    <path class="cls-2" d="m603.8,285s-6.99-3.56-10.88-7.62c-3.88-4.06-5.42-9.62-5.42-9.62,0,0-2.37,3.06-1.28,6.69,1.09,3.63,3.47,7.66,3.47,7.66,0,0-14.28-8.44-8.93-25.66,7.35-23.63,28.46-31.17,28.46-31.17,0,0-20.02-3.54-36.57,4.12-16.55,7.67-21.26,13.65-25.78,24.35-4.52,10.7,1.27,22.67,10.15,30.02,8.87,7.35,31.17,17.6,31.17,17.6l5.64.57c9.2.93,15.25-9.35,9.97-16.94h0Z"/>
    <g class="cls-21">
      <path class="cls-8" d="m588.77,308.3l-36.91-24.88-11.37-22.9,4.27-3.66s.06,7.53,13.5,18.94c13.44,11.41,28.27,14.17,28.27,14.17,0,0-16.1-9.69-21.61-22.45-5.5-12.76,7.98-23.04,7.98-23.04,0,0-7.44,13.79-.99,23.06,6.45,9.27,12.39,14.03,12.39,14.03,0,0-6.87-9.92-6.44-17.91s12.06-15.68,12.06-15.68l-5.92,24.45,3.35,6.96,2.34,2.72s13.6,7.27,19.54,9.39c5.94,2.12-20.45,16.81-20.45,16.81Z"/>
    </g>
  </g>
  <ellipse cx="642.54" cy="345.23" rx="9.97" ry="20.67" transform="translate(-9.6 18.5) rotate(-1.64)"/>
  <ellipse class="cls-2" cx="644.63" cy="335.63" rx="4.82" ry="6.44" transform="translate(-28.83 62.41) rotate(-5.42)"/>
  <ellipse cx="530.81" cy="341.98" rx="10.97" ry="26.18" transform="translate(55.97 758.21) rotate(-74.03)"/>
  <g>
    <ellipse class="cls-4" cx="530.66" cy="342.56" rx="10.36" ry="24.85" transform="translate(55.31 758.49) rotate(-74.03)"/>
    <ellipse cx="529.95" cy="344.78" rx="8.03" ry="23.18" transform="translate(52.81 759.59) rotate(-74.05)"/>
  </g>
  <ellipse class="cls-14" cx="644.63" cy="377.48" rx="22.84" ry="14.65"/>
  <path d="m371.8,578.09s16.44-14.48,22.62-11.09c6.18,3.39,6.16,15.58,4.22,28.95-1.94,13.41-3.88,21.22-7.9,24.15-10.21,7.45-33.19,2.63-33.19,2.63l-4.04-8.24-5.69,2.85s-5.34-.16-9.53-.96c-4.2-.8-8.87-1.57-9.43-3.67s7.2-17.32,13.19-26.92l4.9-7.84c.76-1.21,1.71-2.29,2.83-3.18,3.85-3.08,13.16-10.04,17.93-9.41,6.1.81,4.1,12.73,4.1,12.73Z"/>
  <polygon class="cls-2" points="389.54 615.7 376.05 618.73 394.24 577.45 389.54 615.7"/>
  <g>
    <path d="m716.29,611.12s-21.6-3.69-22.84-10.63c-1.25-6.94,8.26-14.58,19.88-21.47,11.65-6.91,18.95-10.31,23.75-9.03,12.21,3.26,22.9,24.17,22.9,24.17l-3.87,8.32,5.79,2.64s3.23,4.25,5.25,8.02,4.35,7.89,3.06,9.64c-1.29,1.76-18,5.28-29.23,6.65l-9.18,1.12c-1.42.17-2.85.1-4.25-.2-4.82-1.06-16.08-3.93-18.58-8.04-3.2-5.26,7.33-11.19,7.33-11.19Z"/>
    <polygon class="cls-2" points="734.41 573.7 745.25 582.29 701.7 594.07 734.41 573.7"/>
  </g>
  <path class="cls-4" d="m652.52,604.39c-36.07-5.6-53.8-43.43-60.22-61.19-.72-3.1-1.7-6.17-2.92-9.18h0c-5.45-13.45-15.72-25.66-29.94-33.9-31.12-18.05-69.32-10.3-85.33,17.3-15.72,27.11-4.17,63.3,25.75,81.68h0s37.46,38.97,100.62,42.91c63.17,3.94,116.32-33.12,116.32-33.12,0,0-16.9,2.87-64.28-4.49Z"/>
  <path d="m469.3,559.63c5.05,16.71,17.08,30.77,32.08,39.4,0,0-1.02.76-1.02.76l.11-1.27c3.44,3.34,7.26,6.4,11.13,9.3,34.97,25.99,80.37,37.61,123.44,30.45,26.23-4.28,51.57-13.87,74.42-27.39,2.05-1.23,4.14-2.53,6.06-3.83l1.66,4.06c-.39.07-.95.11-1.34.16-6.14.57-12.3.43-18.44.19-12.94-.59-25.86-2.1-38.67-3.96-3.21-.5-6.35-.9-9.68-1.58-9.8-2.1-18.92-6.82-26.6-13.2-15.22-12.75-25.09-30.62-31.72-49.05-.69-3.08-1.63-6.1-2.79-9.05l-.11-.69.11.69c-3.44-8.64-8.74-16.54-15.4-23.05-20.21-19.92-52.42-27.16-78.17-13.82,16.67-9.57,37.74-10.15,55.52-3.23,19.35,7.22,34.15,22.44,40.93,38.94,1.26,3.04,2.29,6.18,3.06,9.39,6.28,16.72,16.52,34.92,31.1,46.79,7.25,5.9,15.78,10.24,24.95,12.12,6.15,1.12,12.7,1.92,18.95,2.76,9.49,1.15,19.17,2.13,28.7,2.51,6.11.22,12.26.36,18.34-.28,0,0,.5-.07.5-.07l9.45-1.27-7.79,5.33c-16.55,10.85-34.74,19-53.58,24.96-48.11,15.48-99.51,9.8-142.13-17.7-8.28-5.36-16.15-11.28-23.13-18.3,0,0-.69-.7-.69-.7l.8-.57s.06,1.4.06,1.4c-14.48-9.11-25.81-23.58-30.12-40.2h0Z"/>
  <path class="cls-14" d="m493.57,508.77c14.41-7.06,31.98-9.82,47.24-3.29,10.37,4.7,17.54,14.02,23.65,23.23,9.22,13.94,16.02,29.34,25.98,42.63,9.23,11.45,19.2,22.99,31.9,30.57,2.97,1.84,6.48,3.5,9.71,4.86,0,0,3.43,1.25,3.43,1.25l.86.32c1.28.39,3.13.92,4.4,1.31,2.86.7,6.18,1.42,9.1,1.86,3.78.6,7.65,1.07,11.45,1.55,10.25,1.16,20.58,2.33,30.92,1.99-10.1,2.89-20.75,3.47-31.2,3.81-7.85.1-16.12.19-24-1.39-1.19-.25-2.89-.51-4.03-.85-19-4.4-34.39-17.46-46.7-31.87-1.54-1.86-3.7-4.28-5.17-6.22-4.14-5.37-7.63-11.19-10.92-17.06-5.02-9.09-9.51-18.39-14.57-27.31-7.96-13.79-15.19-23.73-31.74-26.56-9.88-1.78-20.44-1.02-30.3,1.18h0Z"/>
  <path d="m483.98,466.84c-8.8,3.41-17.73,7.08-25.88,11.9-10.2,6.72-17.33,17.16-23.02,27.82-9.92,19.45-16.43,40.92-18.75,62.67,1.76-21.94,7.7-43.58,17.17-63.47,4.95-9.94,11.06-19.53,19.68-26.76,4.27-3.47,9.31-6.4,14.06-9.15,4.84-2.74,9.73-5.28,14.8-7.68l1.94,4.68h0Z"/>
  <path d="m515.17,768.57c-9.86-.1-19.71-.9-29.48-2.24-7.38-1.07-14.75-2.38-21.8-4.92-2.5-.94-5.12-2.05-7.3-4-1.37-1.38-3.46-3.68-4.82-5.1-12.33-12.7-16.53-30.71-19.13-47.68,3.16,11.76,6.32,23.73,12.39,34.36,2.92,5.27,7.06,9.82,11.27,14.11.72.7,1.72,1.89,2.48,2.51,3.75,2.8,8.51,4.07,12.99,5.33,14.23,3.66,28.84,5.51,43.42,7.6h0Z"/>
  <path class="cls-4" d="m529.49,470.19s47.28,18.17,56.66,20.53c9.38,2.35-36.54-29.09-36.54-29.09l-20.12,8.56Z"/>
  <g>
    <path class="cls-12" d="m988.05,463.91l-32.84-5.37c-10.65-56.62-32.92-109.13-64.23-154.98l18.57-25.83c11.55-14.73,10.28-35.77-2.95-49.01l-47.59-47.59c-13.24-13.24-34.28-14.51-49.01-2.95l-25.55,18.37c-47.62-32.84-102.52-55.88-161.78-66.22l-5.47-33.48c-2.25-18.59-18.02-32.57-36.74-32.57h-67.3c-18.72,0-34.49,13.98-36.74,32.57l-5.77,35.32c-55.3,11.05-106.59,33.2-151.45,64.04l-25.08-18.03c-14.73-11.55-35.77-10.28-49.01,2.95l-47.59,47.59c-13.24,13.24-14.51,34.28-2.95,49.01l18.07,25.13c-31.53,45.97-53.96,98.67-64.68,155.51l-33.84,5.53c-18.59,2.25-32.57,18.02-32.57,36.74v67.3c0,18.72,13.98,34.49,32.57,36.74l33.6,5.49c10.95,59.13,34.55,113.81,67.91,161.13l-21.06,29.29c-11.55,14.73-10.28,35.77,2.95,49.01l47.59,47.59c13.24,13.24,34.28,14.51,49.01,2.95l30.51-21.94-2.66-2.66c44.25,29.89,94.65,51.37,148.89,62.18l5.55,33.99c2.25,18.59,18.02,32.57,36.74,32.57h67.3c18.72,0,34.49-13.98,36.74-32.57l5.25-32.16c59.26-10.31,114.16-33.32,161.8-66.12l-4.76,4.76,30.51,21.94c14.73,11.55,35.77,10.28,49.01-2.95l47.59-47.59c13.24-13.24,14.51-34.28,2.95-49.01l-21.56-29.98c33.13-47.21,56.58-101.7,67.46-160.61l32.59-5.33c18.59-2.25,32.57-18.02,32.57-36.74v-67.3c0-18.72-13.98-34.49-32.57-36.74Z"/>
    <circle class="cls-12" cx="551.58" cy="534.94" r="346.53"/>
    <g class="cls-20">
      <circle class="cls-15" cx="618.83" cy="512.51" r="413.78"/>
    </g>
  </g>
  <polygon class="cls-6" points="528.05 87.44 528.05 127.45 565.46 107.44 528.05 87.44"/>
  <polygon class="cls-6" points="226.02 224.46 254.32 252.76 266.63 212.15 226.02 224.46"/>
  <polygon class="cls-6" points="860.41 212.15 832.11 240.45 872.72 252.76 860.41 212.15"/>
  <polygon class="cls-6" points="849.1 814.26 877.39 842.55 836.79 854.86 849.1 814.26"/>
  <polygon class="cls-6" points="272.84 826.57 244.55 854.86 232.24 814.26 272.84 826.57"/>
  <polygon class="cls-6" points="953.1 509.78 993.12 509.78 973.11 547.2 953.1 509.78"/>
  <polygon class="cls-6" points="565.46 943.87 565.46 983.89 528.05 963.88 565.46 943.87"/>
  <path class="cls-10" d="m580.47,64.3c18.72,0,34.49,13.98,36.74,32.57l5.47,33.48c59.26,10.34,114.15,33.38,161.78,66.22l25.55-18.37c6.74-5.29,14.8-7.89,22.83-7.89,9.52,0,19,3.66,26.18,10.84l47.59,47.59c13.24,13.24,14.51,34.28,2.95,49.01l-18.57,25.83c31.31,45.85,53.58,98.36,64.23,154.98l32.84,5.37c18.59,2.25,32.57,18.02,32.57,36.74v67.3c0,18.72-13.98,34.49-32.57,36.74l-32.59,5.33c-10.88,58.9-34.33,113.4-67.46,160.61l21.56,29.98c11.55,14.73,10.28,35.77-2.95,49.01l-47.59,47.59c-7.18,7.18-16.66,10.84-26.18,10.84-8.03,0-16.09-2.6-22.83-7.89l-30.51-21.94,4.76-4.76c-47.63,32.81-102.54,55.81-161.8,66.12l-5.25,32.16c-2.25,18.59-18.02,32.57-36.74,32.57h-67.3c-18.72,0-34.49-13.98-36.74-32.57l-5.55-33.99c-54.24-10.81-104.64-32.29-148.89-62.18l2.66,2.66-30.51,21.94c-6.74,5.29-14.8,7.89-22.83,7.89-9.52,0-19-3.66-26.18-10.84l-47.59-47.59c-13.24-13.24-14.51-34.28-2.95-49.01l21.06-29.29c-33.36-47.32-56.96-102-67.91-161.13l-33.6-5.49c-18.59-2.25-32.57-18.02-32.57-36.74v-67.3c0-18.72,13.98-34.49,32.57-36.74l33.84-5.53c10.72-56.84,33.14-109.54,64.68-155.51l-18.07-25.13c-11.55-14.73-10.28-35.77,2.95-49.01l47.59-47.59c7.18-7.18,16.66-10.84,26.18-10.84,8.03,0,16.09,2.6,22.83,7.89l25.08,18.03c44.86-30.83,96.15-52.99,151.45-64.04l5.77-35.32c2.25-18.59,18.02-32.57,36.74-32.57h67.3m-28.88,817.16c191.38,0,346.53-155.15,346.53-346.53s-155.15-346.53-346.53-346.53-346.53,155.15-346.53,346.53,155.15,346.53,346.53,346.53m28.88-827.16h-67.3c-23.68,0-43.69,17.67-46.64,41.14l-4.63,28.35c-51.01,11.06-98.89,31.3-142.51,60.24l-19.26-13.85c-8.21-6.37-18.44-9.88-28.82-9.88-12.56,0-24.37,4.89-33.25,13.77l-47.59,47.59c-16.74,16.74-18.4,43.39-3.89,62.08l13.89,19.32c-29.68,44.82-50.16,94.07-60.96,146.57l-26.8,4.38c-23.47,2.95-41.14,22.96-41.14,46.64v67.3c0,23.68,17.67,43.69,41.14,46.64l26.53,4.33c5.57,27.45,13.91,54.38,24.84,80.15,10.68,25.19,23.9,49.42,39.33,72.12l-16.83,23.41c-14.51,18.68-12.86,45.33,3.89,62.08l47.59,47.59c8.88,8.88,20.69,13.77,33.25,13.77,10.39,0,20.62-3.51,28.83-9.88l25.43-18.29c42.02,26.84,87.88,45.73,136.55,56.26l4.42,27.02c2.95,23.47,22.96,41.14,46.64,41.14h67.3c23.68,0,43.69-17.67,46.64-41.14l4.09-25.01c27.49-5.27,54.48-13.31,80.33-23.95,23.12-9.51,45.46-21.14,66.59-34.66l25.9,18.62c8.21,6.37,18.44,9.88,28.82,9.88,12.56,0,24.37-4.89,33.25-13.77l47.59-47.59c16.74-16.74,18.4-43.39,3.89-62.08l-17.33-24.1c15.32-22.64,28.45-46.8,39.06-71.9,10.85-25.67,19.14-52.5,24.67-79.84l25.52-4.17c23.47-2.95,41.14-22.96,41.14-46.64v-67.3c0-23.68-17.67-43.69-41.14-46.64l-25.79-4.21c-10.73-52.28-31.07-101.35-60.53-146.03l14.4-20.03c14.51-18.68,12.86-45.33-3.89-62.08l-47.59-47.59c-8.88-8.88-20.69-13.77-33.25-13.77-10.39,0-20.62,3.51-28.83,9.88l-19.73,14.18c-22.86-15.2-47.23-28.17-72.54-38.6-25.85-10.65-52.84-18.71-80.33-23.99l-4.3-26.33c-2.95-23.47-22.96-41.14-46.64-41.14h0Zm-28.88,817.16c-45.44,0-89.51-8.9-130.99-26.44-40.07-16.95-76.06-41.22-106.97-72.13-30.91-30.91-55.18-66.9-72.13-106.97-17.55-41.48-26.44-85.55-26.44-130.99s8.9-89.51,26.44-130.99c16.95-40.07,41.22-76.06,72.13-106.97,30.91-30.91,66.9-55.18,106.97-72.13,41.48-17.55,85.55-26.44,130.99-26.44s89.51,8.9,130.99,26.44c40.07,16.95,76.06,41.22,106.97,72.13,30.91,30.91,55.18,66.9,72.13,106.97,17.55,41.48,26.44,85.55,26.44,130.99s-8.9,89.51-26.44,130.99c-16.95,40.07-41.22,76.06-72.13,106.97-30.91,30.91-66.9,55.18-106.97,72.13-41.48,17.55-85.55,26.44-130.99,26.44h0Z"/>
  <polygon class="cls-12" points="322.28 868.75 324.94 866.72 320.06 862.95 318.15 867.55 322.28 868.75"/>
  <polygon class="cls-15" points="781.54 879.67 773.31 873.78 784.94 871.46 787.02 877.28 781.54 879.67"/>
  <polygon class="cls-12" points="325.67 877.56 323.63 878.93 320.34 874.59 327.4 873.06 325.67 877.56"/>
  <path class="cls-10" d="m80.58,1134.31v5.16c0,5.17-4.19,9.36-9.36,9.36H15.38c-5.17,0-9.36-4.19-9.36-9.36v-54.39c0-5.17,4.19-9.36,9.36-9.36h55.1c5.17,0,9.36,4.19,9.36,9.36v5.16H26.82v14.73h37.25v13.59H26.82v15.75h53.76Z"/>
  <path class="cls-10" d="m561.25,1085.09c0-5.18,4.2-9.37,9.37-9.37h37.07c26.88,0,44.08,12.46,44.08,35.32s-18.23,37.79-44.38,37.79h-36.77c-5.18,0-9.37-4.2-9.37-9.37v-54.37Zm43.46,49.64c15.65,0,25.23-8.65,25.23-23.37s-10.4-21.52-25.44-21.52h-22.45v44.9h22.66Z"/>
  <path class="cls-10" d="m710.28,1123.14h-21.32v25.85h-20.81v-63.76c0-5.17,4.19-9.35,9.35-9.35h40.5c23.47,0,30.28,12.05,30.28,23.17,0,8.14-4.12,17.72-16.48,21.63l19.16,28.32h-23.38l-17.3-25.85Zm-21.32-13.29h24.31c10.09,0,13.07-5.05,13.07-10.19s-2.98-9.89-12.97-9.89h-24.41v20.08Z"/>
  <path class="cls-10" d="m160.96,1090.6l6.79-14.73h22.35s-33.96,67.93-33.96,67.93c-1.59,3.18-4.84,5.19-8.39,5.19h-14.35c-3.56,0-6.81-2.01-8.4-5.2l-33.86-67.92h22.24s6.8,14.73,6.8,14.73l6.18,13.29,9.37,20.08c1.13,2.57,3.5,8.75,4.74,12.56h.21c1.23-3.81,3.6-9.99,4.74-12.56l9.37-20.08"/>
  <rect class="cls-10" x="489.73" y="1104.78" width="50" height="15" rx="6" ry="6"/>
  <polygon class="cls-6" points="142.12 547.2 102.1 547.2 122.11 509.78 142.12 547.2"/>
  <path class="cls-11" d="m311.9,1233.06h-40.13l-6.69,14.49h-21.98l34.16-68.34c1.11-2.22,3.37-3.62,5.85-3.62h17.45c2.48,0,4.75,1.4,5.85,3.62l34.06,68.33h-21.89l-6.68-14.49Zm-6.08-13.07l-9.22-19.76c-1.12-2.53-3.45-8.61-4.67-12.36h-.2c-1.22,3.75-3.55,9.83-4.67,12.36l-9.22,19.76h27.97Z"/>
  <path class="cls-11" d="m361.81,1175.6h15.24l37.6,40.84c2.13,2.33,4.26,5.37,5.67,8.21h.41v-49.05h18.54v65.43c0,3.6-2.92,6.53-6.53,6.53h-13.84l-39.02-41.35c-2.03-2.23-4.66-5.88-5.67-8.21h-.41v49.56h-18.54v-65.41c0-3.62,2.93-6.55,6.55-6.55Z"/>
  <path class="cls-11" d="m452.85,1231.64l14.59-10.23c5.98,8.41,17.02,14.09,31.82,14.09,13.07,0,19.15-2.64,19.15-8.31,0-4.46-3.04-6.28-11.65-7.19l-22.09-2.43c-17.63-1.92-26.04-8.41-26.04-21.69,0-14.29,13.88-22.7,38.51-22.7,18.24,0,32.43,4.77,41.35,14.8l-12.87,10.84c-5.37-7.09-15.71-11.45-29.49-11.45-11.15,0-17.23,2.63-17.23,7.5,0,4.46,3.04,6.18,12.26,7.19l19.87,1.92c19.86,2.03,28.07,7.91,28.07,21.28,0,15.91-14.9,24.73-40.84,24.73-21.28,0-38-6.99-45.4-18.34Z"/>
  <path class="cls-11" d="m556.01,1247.55v-71.95h20.47v71.95h-20.47Z"/>
  <path class="cls-11" d="m681.97,1227.09c0,10.54-7.19,20.47-27.05,20.47h-49c-3.61,0-6.53-2.93-6.53-6.53v-58.89c0-3.61,2.93-6.53,6.53-6.53h48.59c17.84,0,25.64,7.91,25.64,18.24,0,7.3-4.46,13.88-14.19,15.91,10.95,1.62,16.01,7.91,16.01,17.33Zm-62.12-38.1v15.71h28.98c8.41,0,10.14-4.26,10.14-8.31,0-3.55-2.03-7.4-10.14-7.4h-28.98Zm40.94,36.48c0-4.97-3.34-8.41-10.95-8.41h-30v17.13h29.89c7.81,0,11.05-3.75,11.05-8.71Z"/>
  <path class="cls-11" d="m700,1175.6h20.47v55.94h48.74v16.01h-62.68c-3.6,0-6.53-2.92-6.53-6.53v-65.42Z"/>
  <path class="cls-11" d="m859.1,1233.26v7.74c0,3.62-2.93,6.55-6.55,6.55h-60.26c-3.62,0-6.55-2.93-6.55-6.55v-58.85c0-3.62,2.93-6.55,6.55-6.55h59.55c3.62,0,6.55,2.93,6.55,6.55v7.74h-52.19v14.49h37.39v13.37h-37.39v15.51h52.89Z"/>
  <path class="cls-10" d="m275.58,1134.31v5.16c0,5.17-4.19,9.36-9.36,9.36h-55.83c-5.17,0-9.36-4.19-9.36-9.36v-54.39c0-5.17,4.19-9.36,9.36-9.36h55.1c5.17,0,9.36,4.19,9.36,9.36v5.16h-53.04v14.73h37.25v13.59h-37.25v15.75h53.76Z"/>
  <path class="cls-11" d="m299.69,1074.88h15.24l37.6,40.84c2.13,2.33,4.26,5.37,5.67,8.21h.41v-49.05h18.54v65.43c0,3.6-2.92,6.53-6.53,6.53h-13.84l-39.02-41.35c-2.03-2.23-4.66-5.88-5.67-8.21h-.41v49.56h-18.54v-65.41c0-3.62,2.93-6.55,6.55-6.55Z"/>
  <path class="cls-11" d="m472.47,1090.14l-29.74.06.12,55.56-20.29.04-.12-55.56-29.63.06-.02-7.41c0-4.62,3.73-8.37,8.35-8.38l62.93-.13c4.63,0,8.38,3.73,8.39,8.36l.02,7.39Z"/>
  <path class="cls-11" d="m765.93,1148.41v-71.95h20.47v71.95h-20.47Z"/>
  <path class="cls-10" d="m868.96,1090.6l6.79-14.73h22.35s-33.96,67.93-33.96,67.93c-1.59,3.18-4.84,5.19-8.39,5.19h-14.35c-3.56,0-6.81-2.01-8.4-5.2l-33.86-67.92h22.24s6.8,14.73,6.8,14.73l6.18,13.29,9.37,20.08c1.13,2.57,3.5,8.75,4.74,12.56h.21c1.23-3.81,3.6-9.99,4.74-12.56l9.37-20.08"/>
  <path class="cls-10" d="m983.58,1134.31v5.16c0,5.17-4.19,9.36-9.36,9.36h-55.83c-5.17,0-9.36-4.19-9.36-9.36v-54.39c0-5.17,4.19-9.36,9.36-9.36h55.1c5.17,0,9.36,4.19,9.36,9.36v5.16h-53.04v14.73h37.25v13.59h-37.25v15.75h53.76Z"/>
  <path class="cls-11" d="m1007.69,1074.88h15.24l37.6,40.84c2.13,2.33,4.26,5.37,5.67,8.21h.41v-49.05h18.54v65.43c0,3.6-2.92,6.53-6.53,6.53h-13.84l-39.02-41.35c-2.03-2.23-4.66-5.88-5.67-8.21h-.41v49.56h-18.54v-65.41c0-3.62,2.93-6.55,6.55-6.55Z"/>
</svg>