<?xml version="1.0" encoding="utf-8"?>
<!-- Generator: Adobe Illustrator 26.5.0, SVG Export Plug-In . SVG Version: 6.00 Build 0)  -->
<svg version="1.1" xmlns="http://www.w3.org/2000/svg" xmlns:xlink="http://www.w3.org/1999/xlink" x="0px" y="0px"
	 viewBox="0 0 1296 1273.415" enable-background="new 0 0 1296 1273.415" xml:space="preserve">
<g id="Layer_3">
</g>
<g id="Layer_2">
</g>
<g id="Layer_1">
	<g>
		<defs>
			<circle id="XMLID_00000037656443494696575020000010024879349725300901_" cx="651.978" cy="554.205" r="384.451"/>
		</defs>
		<use xlink:href="#XMLID_00000037656443494696575020000010024879349725300901_"  overflow="visible" fill="#ABD9F2"/>
		<clipPath id="XMLID_00000155839845836836107920000004769246977568154761_">
			<use xlink:href="#XMLID_00000037656443494696575020000010024879349725300901_"  overflow="visible"/>
		</clipPath>
	</g>
	<path fill="#FFFFFF" d="M836.907,685.985c-5.226,13.036-9.836,25.491-15.208,37.612c-3.921,8.846-11.694,2.529-18.672,4.676
		c13.141-31.512,25.675-61.632,38.276-91.723c1.95-4.656,3.797-9.444,6.49-13.667c1.494-2.343,4.627-4.998,7.046-5.022
		c2.297-0.023,5.74,2.717,6.769,5.07c9.152,20.93,17.877,42.045,26.734,63.103c3.811,9.062,8.191,17.94,11.194,27.259
		c1.267,3.933,1.279,10.134-1.036,12.912c-3.641,4.369-8.805,1.32-12.783-1.9c-14.569-11.793-29.134-23.589-43.748-35.326
		C840.537,687.827,838.779,687.076,836.907,685.985z M842.533,671.849c11.328,8.876,22.577,17.69,35.342,27.692
		c-7.962-19.725-15.242-37.76-23.216-57.515C850.15,653.12,846.398,662.347,842.533,671.849z"/>
	<path fill="#FFFFFF" d="M424.147,453.277c-5.226,13.036-9.836,25.491-15.208,37.612c-3.921,8.846-11.694,2.529-18.672,4.676
		c13.141-31.512,25.675-61.632,38.276-91.723c1.95-4.656,3.797-9.444,6.49-13.667c1.494-2.343,4.627-4.998,7.046-5.022
		c2.297-0.023,5.74,2.717,6.769,5.07c9.152,20.93,17.877,42.045,26.734,63.103c3.811,9.062,8.191,17.94,11.194,27.259
		c1.267,3.933,1.279,10.134-1.036,12.912c-3.641,4.369-8.805,1.32-12.783-1.9c-14.569-11.793-29.134-23.589-43.748-35.326
		C427.777,455.119,426.02,454.368,424.147,453.277z M429.774,439.141c11.328,8.876,22.577,17.69,35.342,27.692
		c-7.962-19.725-15.242-37.761-23.215-57.515C437.39,420.412,433.638,429.639,429.774,439.141z"/>
	<g>
		<path fill="#FFFFFF" d="M422.051,679.735c-8.053,0-14.766-5.78-15.961-13.743l-7.366-49.042l-0.929-0.265
			c-13.506-3.85-26.54-9.368-38.739-16.401l-0.851-0.491l-40.21,29.708c-2.826,2.089-6.148,3.193-9.606,3.193
			c-4.279,0-8.326-1.691-11.397-4.761l-24.289-24.29c-1.243-11.244-1.997-22.718-2.244-34.124l24.639-33.348l-0.479-0.847
			c-6.825-12.074-12.179-24.971-15.913-38.333l-0.262-0.935l-2.515-0.378c0.729-4.233,1.543-8.52,2.427-12.781l10.572,1.587
			l1.041,4.227c3.868,15.7,10.082,30.668,18.471,44.489l2.263,3.728l-35.076,47.475c-0.916,1.239-0.785,2.996,0.305,4.085
			l30.252,30.253c0.594,0.595,1.382,0.923,2.219,0.923c0.675,0,1.321-0.214,1.868-0.618l47.243-34.905l3.743,2.316
			c13.933,8.621,29.022,15.013,44.849,19l4.197,1.057l8.643,57.548c0.229,1.524,1.564,2.674,3.105,2.674h42.783
			c1.542,0,2.876-1.149,3.105-2.674l8.52-56.73l4.333-0.981c16.432-3.719,32.114-10.008,46.61-18.69l3.718-2.227l45.495,33.614
			c0.548,0.404,1.193,0.616,1.867,0.616c0.835,0,1.623-0.327,2.218-0.92l30.253-30.253c1.107-1.107,1.236-2.826,0.305-4.087
			l-33.099-44.798l2.385-3.761c9.337-14.729,16.152-30.775,20.256-47.693l1.03-4.247l54.443-8.177
			c1.55-0.233,2.675-1.539,2.675-3.105v-42.783c0-1.566-1.124-2.872-2.674-3.105l-54.036-8.115l-0.992-4.314
			c-3.953-17.191-10.715-33.533-20.101-48.573l-2.34-3.749l32.453-43.924c0.931-1.261,0.802-2.979-0.306-4.087l-30.252-30.252
			c-0.596-0.595-1.383-0.923-2.219-0.923c-0.675,0-1.32,0.213-1.868,0.618l-44.152,32.621l-3.734-2.286
			c-14.935-9.143-31.156-15.72-48.211-19.548l-4.343-0.975l-8.234-54.827c-0.233-1.549-1.539-2.673-3.105-2.673h-13.588
			c6.542-4.069,13.273-7.979,20.075-11.66c5.042,2.19,8.646,6.884,9.474,12.402l6.921,46.082l0.961,0.248
			c14.755,3.806,28.956,9.569,42.209,17.127l0.849,0.484l37.155-27.451c2.827-2.089,6.149-3.193,9.607-3.193
			c4.279,0,8.327,1.691,11.397,4.762l30.252,30.251c5.694,5.694,6.354,14.527,1.569,21.003l-27.235,36.862l0.496,0.853
			c7.779,13.375,13.714,27.714,17.639,42.617l0.251,0.955l45.339,6.809c7.963,1.196,13.743,7.909,13.743,15.961v42.783
			c0,8.053-5.78,14.766-13.744,15.961l-45.857,6.888l-0.259,0.94c-4.029,14.617-9.987,28.657-17.709,41.73l-0.505,0.855
			l27.841,37.682c4.785,6.477,4.126,15.31-1.568,21.004l-30.252,30.252c-3.07,3.07-7.118,4.761-11.396,4.761c0,0,0,0-0.001,0
			c-3.458,0-6.78-1.104-9.607-3.192l-38.569-28.497l-0.845,0.471c-12.764,7.123-26.394,12.595-40.512,16.265l-0.959,0.249
			l-7.209,48.002c-1.195,7.963-7.908,13.743-15.961,13.743H422.051z"/>
		<path fill="#ABD8F3" d="M471.374,225.744c4.227,2.094,7.223,6.181,7.938,10.947l6.773,45.1l0.295,1.963l1.922,0.496
			c14.626,3.773,28.704,9.485,41.841,16.978l1.697,0.968l1.572-1.161l36.369-26.871c2.567-1.897,5.581-2.899,8.716-2.899
			c3.878,0,7.549,1.535,10.336,4.323l30.252,30.252c5.165,5.165,5.763,13.177,1.423,19.051l-26.649,36.068l-1.172,1.586l0.992,1.705
			c7.711,13.259,13.594,27.473,17.485,42.245l0.503,1.909l1.953,0.293l44.362,6.663c7.223,1.085,12.466,7.174,12.466,14.478v42.783
			c0,7.304-5.243,13.393-12.467,14.478l-44.892,6.743l-1.928,0.29l-0.518,1.88c-3.994,14.489-9.901,28.407-17.555,41.366
			l-1.01,1.711l1.181,1.598l27.25,36.883c4.341,5.875,3.742,13.887-1.423,19.052l-30.252,30.252
			c-2.787,2.787-6.458,4.322-10.336,4.322c-3.135,0-6.149-1.002-8.715-2.898l-37.792-27.922l-1.556-1.149l-1.689,0.943
			c-12.653,7.06-26.164,12.485-40.159,16.122l-1.918,0.498l-0.294,1.959l-7.062,47.022c-1.084,7.223-7.173,12.466-14.478,12.466
			h-42.783c-7.305,0-13.393-5.243-14.478-12.466l-7.222-48.087l-0.287-1.91l-1.857-0.529c-13.388-3.816-26.308-9.286-38.401-16.258
			l-1.702-0.981l-1.58,1.167l-39.421,29.125c-2.566,1.897-5.58,2.899-8.715,2.899c-3.878,0-7.549-1.535-10.336-4.321l-23.916-23.917
			c-1.186-10.866-1.914-21.942-2.166-32.957l23.756-32.153l1.156-1.565l-0.958-1.694c-6.766-11.969-12.073-24.754-15.775-37.999
			l-0.523-1.871l-1.921-0.289l-0.036-0.005c0.576-3.262,1.201-6.552,1.869-9.831l8.172,1.227l0.801,3.251
			c3.904,15.849,10.177,30.958,18.645,44.908l1.74,2.867l-34.477,46.665c-1.354,1.832-1.16,4.428,0.45,6.038l30.251,30.251
			c0.878,0.88,2.043,1.364,3.281,1.364c0.999,0,1.954-0.316,2.759-0.911l46.427-34.302l2.879,1.782
			c14.064,8.702,29.295,15.154,45.272,19.178l3.229,0.813l8.494,56.56c0.338,2.252,2.311,3.951,4.589,3.951h42.783
			c2.278,0,4.25-1.698,4.589-3.951l8.368-55.717l3.333-0.755c16.587-3.755,32.417-10.102,47.05-18.867l2.859-1.713l44.694,33.022
			c0.806,0.594,1.759,0.907,2.755,0.907c1.235,0,2.399-0.482,3.28-1.361l30.252-30.252c1.637-1.636,1.826-4.176,0.451-6.039
			l-32.488-43.971l1.834-2.893c9.425-14.868,16.305-31.065,20.447-48.142l0.792-3.266l53.445-8.027
			c2.29-0.344,3.952-2.274,3.952-4.589v-42.783c0-2.314-1.661-4.243-3.952-4.589l-53.024-7.964l-0.763-3.318
			c-3.99-17.353-10.816-33.85-20.29-49.031l-1.8-2.884l31.848-43.105c1.374-1.862,1.184-4.401-0.452-6.038l-30.253-30.253
			c-0.878-0.878-2.043-1.361-3.279-1.361c-0.997,0-1.951,0.315-2.759,0.911l-43.339,32.021l-2.873-1.759
			c-15.076-9.229-31.449-15.868-48.666-19.733l-3.341-0.75l-8.082-53.811c-0.344-2.289-2.274-3.95-4.589-3.95h-8.266
			C461.432,231.294,466.382,228.457,471.374,225.744 M471.232,222.409c-8.591,4.628-16.988,9.569-25.171,14.816h18.773
			c0.818,0,1.5,0.587,1.622,1.396l8.387,55.843l5.345,1.2c16.895,3.793,32.963,10.308,47.757,19.364l4.596,2.814l44.964-33.222
			c0.294-0.217,0.636-0.324,0.976-0.324c0.421,0,0.838,0.164,1.158,0.483l30.252,30.252c0.579,0.579,0.646,1.477,0.16,2.135
			l-33.059,44.744l2.88,4.614c9.297,14.898,15.997,31.086,19.912,48.115l1.221,5.31l55.044,8.267
			c0.81,0.122,1.397,0.804,1.397,1.622v42.783c0,0.818-0.588,1.5-1.397,1.622l-55.44,8.327l-1.268,5.227
			c-4.065,16.757-10.815,32.652-20.065,47.243l-2.935,4.629l33.709,45.624c0.486,0.659,0.419,1.557-0.159,2.135l-30.252,30.252
			c-0.32,0.32-0.738,0.483-1.159,0.483c-0.34,0-0.682-0.107-0.976-0.323l-46.299-34.208l-4.575,2.741
			c-14.358,8.6-29.893,14.83-46.17,18.514l-5.333,1.207l-8.672,57.744c-0.12,0.796-0.817,1.396-1.622,1.396h-42.783
			c-0.805,0-1.502-0.6-1.622-1.396l-8.791-58.536l-5.166-1.301c-15.679-3.949-30.626-10.282-44.426-18.82l-4.606-2.851
			l-48.061,35.509c-0.294,0.217-0.636,0.324-0.976,0.324c-0.421,0-0.838-0.163-1.158-0.483l-30.252-30.253
			c-0.569-0.569-0.637-1.486-0.159-2.134l35.673-48.284l-2.785-4.588c-8.309-13.689-14.465-28.516-18.296-44.069l-1.281-5.202
			l-12.966-1.947c-1.1,5.206-2.098,10.45-2.985,15.731l3.068,0.461c3.773,13.501,9.155,26.467,16.052,38.668l-24.365,32.977
			c0.242,11.905,1.022,23.677,2.322,35.293l24.661,24.661c3.442,3.441,7.933,5.2,12.458,5.2c3.657,0,7.335-1.149,10.498-3.487
			l39.42-29.125c12.327,7.106,25.43,12.654,39.077,16.544l7.222,48.087c1.307,8.704,8.643,15.02,17.444,15.02h42.783
			c8.801,0,16.138-6.317,17.444-15.02l7.062-47.022c14.264-3.708,27.968-9.209,40.866-16.406l37.792,27.922
			c3.163,2.337,6.842,3.486,10.498,3.486c4.525,0,9.016-1.758,12.458-5.201l30.252-30.252c6.223-6.223,6.944-15.877,1.714-22.956
			l-27.251-36.883c7.802-13.209,13.792-27.326,17.864-42.094l44.892-6.743c8.704-1.307,15.021-8.643,15.021-17.444v-42.783
			c0-8.8-6.317-16.137-15.021-17.444l-44.362-6.663c-3.966-15.059-9.934-29.477-17.793-42.989l26.649-36.068
			c5.229-7.078,4.508-16.733-1.715-22.956l-30.252-30.251c-3.441-3.442-7.933-5.202-12.458-5.202c-3.657,0-7.335,1.149-10.498,3.487
			l-36.369,26.871c-13.392-7.638-27.669-13.432-42.578-17.277l-6.773-45.1C481.307,229.772,476.997,224.625,471.232,222.409
			L471.232,222.409z"/>
	</g>
	<g>
		<path fill="#FFFFFF" d="M445.316,564.566c-63.004,0-114.261-51.257-114.261-114.261s51.257-114.261,114.261-114.261
			c63.003,0,114.261,51.257,114.261,114.261S508.32,564.566,445.316,564.566z M445.316,349.044
			c-55.835,0-101.261,45.425-101.261,101.261s45.426,101.261,101.261,101.261s101.261-45.425,101.261-101.261
			S501.152,349.044,445.316,349.044z"/>
		<path fill="#ABD8F3" d="M445.317,337.544c62.177,0,112.761,50.584,112.761,112.761s-50.584,112.761-112.761,112.761
			c-62.177,0-112.761-50.584-112.761-112.761S383.14,337.544,445.317,337.544 M445.317,553.066
			c56.662,0,102.761-46.098,102.761-102.761s-46.098-102.761-102.761-102.761c-56.663,0-102.761,46.098-102.761,102.761
			S388.654,553.066,445.317,553.066 M445.317,334.544c-63.831,0-115.761,51.93-115.761,115.761s51.93,115.761,115.761,115.761
			c63.831,0,115.761-51.93,115.761-115.761S509.147,334.544,445.317,334.544L445.317,334.544z M445.317,550.066
			c-55.008,0-99.761-44.752-99.761-99.761s44.753-99.761,99.761-99.761s99.761,44.752,99.761,99.761
			S500.325,550.066,445.317,550.066L445.317,550.066z"/>
	</g>
	<g>
		<path fill="#FFFFFF" d="M359.885,315.011c7.778-9.263,16.047-18.22,24.641-26.689c4.579-1.719,9.139-3.225,13.557-4.476
			l0.931-0.264l1.528-10.173c4.874-4.286,9.916-8.496,15.031-12.552l-4.983,33.178l-4.207,1.052
			c-16.443,4.11-32.064,10.799-46.43,19.881L359.885,315.011z"/>
		<path fill="#ABD8F3" d="M413.521,264.423l-4.265,28.399l-3.236,0.809c-13.65,3.412-26.739,8.585-39.024,15.414
			c5.897-6.693,12.039-13.195,18.356-19.431c4.44-1.658,8.857-3.112,13.141-4.325l1.862-0.527l0.287-1.914l1.303-8.674
			C405.718,270.865,409.592,267.603,413.521,264.423 M417.617,257.345c-6.319,4.911-12.482,10.012-18.477,15.3l-1.466,9.758
			c-4.731,1.339-9.387,2.896-13.975,4.627c-10.088,9.926-19.63,20.405-28.579,31.387l1.007,0.744l4.626-2.925
			c14.23-8.996,29.705-15.622,45.992-19.694l5.178-1.294L417.617,257.345L417.617,257.345z"/>
	</g>
	<g>
		<path fill="#FFFFFF" d="M823.299,904.332c-4.629-2.346-7.827-6.779-8.608-11.991l-7.366-49.042l-0.929-0.265
			c-13.504-3.849-26.537-9.367-38.739-16.401l-0.851-0.49l-40.21,29.71c-2.827,2.088-6.15,3.191-9.608,3.191
			c-4.279,0-8.326-1.69-11.396-4.76l-30.253-30.253c-5.693-5.692-6.353-14.525-1.568-21.003l29.927-40.507l-0.479-0.847
			c-6.825-12.075-12.18-24.973-15.914-38.333l-0.261-0.936l-49.764-7.474c-7.963-1.196-13.743-7.909-13.743-15.961v-42.783
			c0-8.053,5.78-14.766,13.743-15.961l49.24-7.396l0.254-0.95c3.646-13.641,8.984-26.828,15.866-39.196l0.47-0.844l-29.34-39.709
			c-4.785-6.476-4.126-15.309,1.568-21.004l30.252-30.252c3.07-3.071,7.117-4.762,11.396-4.762c3.457,0,6.78,1.104,9.607,3.194
			l38.817,28.679l0.855-0.503c12.684-7.47,26.281-13.287,40.415-17.289l0.932-0.264l7.076-47.114
			c1.194-7.963,7.907-13.743,15.961-13.743h42.783c8.052,0,14.765,5.779,15.961,13.742l6.921,46.082l0.961,0.248
			c14.756,3.807,28.957,9.569,42.209,17.128l0.849,0.484l37.155-27.451c2.826-2.089,6.148-3.193,9.607-3.193
			c4.278,0,8.326,1.691,11.396,4.761l30.253,30.253c5.694,5.693,6.354,14.527,1.569,21.004l-27.235,36.861l0.495,0.852
			c7.78,13.376,13.715,27.715,17.64,42.618l0.251,0.955l7.748,1.164c-0.824,4.236-1.731,8.508-2.705,12.739l-15.67-2.354
			l-0.992-4.314c-3.953-17.191-10.716-33.534-20.102-48.573l-2.34-3.75l32.453-43.923c0.916-1.24,0.785-2.996-0.305-4.086
			l-30.253-30.253c-0.594-0.595-1.382-0.923-2.218-0.923c-0.675,0-1.32,0.214-1.867,0.618l-44.153,32.621l-3.734-2.286
			c-14.935-9.142-31.155-15.719-48.211-19.549l-4.343-0.975l-8.234-54.826c-0.23-1.525-1.565-2.674-3.105-2.674h-42.783
			c-1.565,0-2.871,1.123-3.105,2.671l-8.356,55.638l-4.207,1.052c-16.439,4.11-32.062,10.799-46.431,19.881l-3.758,2.376
			l-45.924-33.929c-0.547-0.404-1.192-0.618-1.867-0.618c-0.837,0-1.625,0.328-2.22,0.924l-30.251,30.251
			c-1.108,1.107-1.237,2.826-0.306,4.086l34.449,46.625l-2.22,3.715c-8.438,14.128-14.607,29.384-18.338,45.346l-1.003,4.294
			l-57.904,8.696c-1.524,0.229-2.673,1.564-2.673,3.105v42.783c0,1.542,1.149,2.876,2.674,3.105l58.316,8.758l1.041,4.227
			c3.868,15.703,10.083,30.671,18.471,44.487l2.263,3.729l-35.075,47.474c-0.932,1.261-0.804,2.979,0.304,4.086l30.253,30.254
			c0.595,0.595,1.383,0.923,2.219,0.923c0.676,0,1.322-0.214,1.869-0.619l47.241-34.905l3.743,2.316
			c13.932,8.62,29.021,15.013,44.85,18.999l4.197,1.059l8.643,57.546c0.233,1.55,1.539,2.675,3.105,2.675h13.64
			C837.41,897.051,830.371,900.822,823.299,904.332z"/>
		<path fill="#ABD8F3" d="M873.434,450.576c7.304,0,13.392,5.242,14.478,12.465l6.773,45.1l0.295,1.963l1.922,0.496
			c14.627,3.773,28.704,9.486,41.84,16.979l1.697,0.968l1.572-1.161l36.37-26.871c2.567-1.897,5.58-2.899,8.715-2.899
			c3.879,0,7.549,1.535,10.335,4.321l30.253,30.253c5.165,5.164,5.763,13.176,1.423,19.051l-26.649,36.068l-1.172,1.586l0.992,1.705
			c7.712,13.26,13.595,27.473,17.485,42.245l0.503,1.909l1.953,0.293l5.22,0.784c-0.648,3.256-1.345,6.535-2.084,9.799
			l-13.285-1.995l-0.763-3.319c-3.99-17.354-10.817-33.85-20.291-49.031l-1.8-2.884l31.847-43.103
			c1.354-1.832,1.16-4.428-0.451-6.038l-30.252-30.252c-0.878-0.879-2.043-1.363-3.28-1.363c-0.998,0-1.952,0.315-2.758,0.911
			l-43.341,32.021l-2.872-1.759c-15.075-9.228-31.449-15.867-48.666-19.733l-3.34-0.75l-8.082-53.812
			c-0.34-2.251-2.312-3.949-4.588-3.949h-42.783c-2.313,0-4.243,1.66-4.589,3.949l-8.208,54.647l-3.236,0.809
			c-16.595,4.149-32.364,10.901-46.869,20.069l-2.891,1.828l-45.097-33.319c-0.807-0.597-1.761-0.912-2.76-0.912
			c-1.238,0-2.403,0.484-3.279,1.362l-30.251,30.251c-1.639,1.637-1.829,4.177-0.453,6.039l33.856,45.822l-1.707,2.858
			c-8.517,14.261-14.745,29.661-18.511,45.773l-0.772,3.303l-56.898,8.545c-2.252,0.338-3.95,2.311-3.95,4.589v42.783
			c0,2.278,1.699,4.25,3.951,4.589l57.322,8.609l0.801,3.251c3.906,15.851,10.179,30.96,18.645,44.907l1.741,2.868l-34.478,46.665
			c-1.376,1.862-1.187,4.401,0.45,6.038l30.253,30.254c0.878,0.878,2.043,1.362,3.28,1.362c0.999,0,1.954-0.316,2.76-0.912
			l46.425-34.302l2.879,1.782c14.063,8.701,29.295,15.154,45.272,19.178l3.229,0.814l8.495,56.56
			c0.345,2.289,2.275,3.951,4.589,3.951h7.949c-5.039,2.805-10.145,5.499-15.273,8.058c-3.844-2.2-6.481-6.045-7.153-10.525
			l-7.223-48.087l-0.287-1.91l-1.858-0.529c-13.385-3.815-26.305-9.285-38.401-16.258l-1.701-0.981l-1.58,1.167l-39.419,29.126
			c-2.568,1.897-5.583,2.899-8.718,2.899c-3.878,0-7.548-1.535-10.335-4.321l-30.253-30.253c-5.164-5.163-5.762-13.176-1.422-19.051
			l29.349-39.724l1.156-1.565l-0.957-1.694c-6.766-11.97-12.073-24.755-15.775-37.999l-0.523-1.871l-1.921-0.288l-48.802-7.33
			c-7.223-1.085-12.466-7.174-12.466-14.478v-42.783c0-7.304,5.242-13.393,12.466-14.478l48.267-7.25l1.945-0.292l0.508-1.9
			c3.614-13.522,8.906-26.594,15.728-38.854l0.939-1.688l-1.148-1.554l-28.766-38.932c-4.341-5.874-3.743-13.886,1.422-19.052
			l30.252-30.252c2.787-2.788,6.457-4.323,10.335-4.323c3.135,0,6.149,1.003,8.717,2.9l38.019,28.09l1.596,1.179l1.709-1.007
			c12.573-7.405,26.053-13.171,40.063-17.138l1.862-0.527l0.287-1.914l6.933-46.157c1.084-7.223,7.172-12.465,14.478-12.465H873.434
			 M873.434,447.576h-42.783c-8.802,0-16.139,6.317-17.444,15.02l-6.933,46.157c-14.28,4.043-27.952,9.891-40.769,17.439
			l-38.02-28.09c-3.164-2.338-6.843-3.487-10.5-3.487c-4.524,0-9.015,1.759-12.457,5.201l-30.252,30.252
			c-6.224,6.224-6.944,15.878-1.714,22.956l28.766,38.932c-6.956,12.5-12.322,25.759-16.005,39.538l-48.267,7.25
			c-8.703,1.307-15.02,8.644-15.02,17.444v42.783c0,8.8,6.316,16.137,15.02,17.444l48.802,7.33
			c3.773,13.5,9.156,26.466,16.053,38.667l-29.349,39.724c-5.229,7.079-4.509,16.733,1.714,22.955l30.253,30.253
			c3.441,3.441,7.932,5.2,12.456,5.2c3.657,0,7.335-1.148,10.5-3.486l39.42-29.126c12.327,7.106,25.43,12.654,39.077,16.544
			l7.223,48.087c0.917,6.114,4.817,11.04,10.103,13.436c9.042-4.465,17.883-9.276,26.507-14.415h-19.166
			c-0.818,0-1.5-0.587-1.622-1.397l-8.791-58.534l-5.166-1.302c-15.679-3.949-30.626-10.281-44.427-18.82l-4.606-2.851
			L717.98,844.19c-0.295,0.218-0.637,0.325-0.977,0.325c-0.421,0-0.839-0.164-1.158-0.483l-30.253-30.254
			c-0.578-0.578-0.645-1.476-0.158-2.134l35.674-48.283l-2.785-4.589c-8.31-13.688-14.465-28.516-18.297-44.068l-1.281-5.202
			l-59.309-8.907c-0.796-0.12-1.397-0.817-1.397-1.622v-42.783c0-0.805,0.6-1.502,1.396-1.622l58.91-8.847l1.235-5.285
			c3.695-15.81,9.807-30.922,18.165-44.918l2.731-4.573l-35.043-47.428c-0.486-0.658-0.419-1.555,0.16-2.134l30.252-30.252
			c0.319-0.32,0.737-0.483,1.158-0.483c0.34,0,0.682,0.107,0.976,0.324l46.749,34.539l4.626-2.924
			c14.233-8.997,29.707-15.623,45.993-19.694l5.178-1.294l8.505-56.626c0.122-0.808,0.804-1.395,1.622-1.395h42.783
			c0.805,0,1.502,0.601,1.622,1.396l8.387,55.841l5.345,1.2c16.896,3.793,32.963,10.309,47.757,19.365l4.596,2.814l44.967-33.222
			c0.294-0.217,0.636-0.324,0.975-0.324c0.421,0,0.839,0.164,1.158,0.483l30.253,30.253c0.569,0.569,0.638,1.486,0.159,2.134
			l-33.06,44.744l2.88,4.615c9.298,14.899,15.997,31.087,19.912,48.115l1.221,5.31l18.051,2.711
			c1.214-5.187,2.324-10.414,3.326-15.68l-8.317-1.249c-3.966-15.059-9.934-29.477-17.793-42.99l26.649-36.068
			c5.229-7.079,4.509-16.733-1.715-22.956l-30.253-30.253c-3.44-3.441-7.932-5.2-12.457-5.2c-3.657,0-7.335,1.149-10.499,3.487
			l-36.369,26.871c-13.391-7.638-27.669-13.432-42.577-17.278l-6.773-45.1C889.571,453.893,882.234,447.576,873.434,447.576
			L873.434,447.576z"/>
	</g>
	<g>
		<path fill="#FFFFFF" d="M885.06,833.68l4.334-0.98c16.432-3.719,32.113-10.007,46.608-18.69l3.719-2.227l1.876,1.387
			c-7.204,8.23-14.86,16.257-22.78,23.878c-6.947,2.814-14.097,5.184-21.252,7.043l-0.959,0.25l-2.14,14.235
			c-4.84,3.93-9.827,7.779-14.869,11.479L885.06,833.68z"/>
		<path fill="#ABD8F3" d="M938.785,814.091c-6.618,7.459-13.599,14.734-20.8,21.674c-6.805,2.743-13.799,5.055-20.799,6.874
			l-1.918,0.498l-0.294,1.96l-1.905,12.68c-3.745,3.03-7.576,6.011-11.451,8.911l4.771-31.771l3.334-0.754
			c16.587-3.754,32.417-10.102,47.048-18.867L938.785,814.091 M939.807,809.982l-4.576,2.74
			c-14.358,8.602-29.893,14.831-46.169,18.515l-5.334,1.207l-6.146,40.928c6.236-4.487,12.333-9.155,18.282-13.999l2.077-13.831
			c7.399-1.923,14.644-4.339,21.707-7.214c8.426-8.096,16.486-16.57,24.147-25.399L939.807,809.982L939.807,809.982z"/>
	</g>
	<g>
		<path fill="#FFFFFF" d="M853.916,790.916c-63.004,0-114.261-51.257-114.261-114.26c0-63.004,51.257-114.261,114.261-114.261
			s114.261,51.257,114.261,114.261C968.177,739.659,916.92,790.916,853.916,790.916z M853.916,575.395
			c-55.835,0-101.261,45.426-101.261,101.261c0,55.835,45.426,101.26,101.261,101.26s101.261-45.425,101.261-101.26
			C955.177,620.82,909.751,575.395,853.916,575.395z"/>
		<path fill="#ABD8F3" d="M853.916,563.895c62.177,0,112.761,50.584,112.761,112.761c0,62.177-50.584,112.761-112.761,112.761
			s-112.761-50.584-112.761-112.761C741.155,614.479,791.739,563.895,853.916,563.895 M853.916,779.417
			c56.662,0,102.761-46.098,102.761-102.761c0-56.663-46.098-102.761-102.761-102.761s-102.761,46.099-102.761,102.761
			C751.155,733.318,797.253,779.417,853.916,779.417 M853.916,560.895c-63.831,0-115.761,51.93-115.761,115.761
			s51.93,115.761,115.761,115.761s115.761-51.93,115.761-115.761S917.747,560.895,853.916,560.895L853.916,560.895z
			 M853.916,776.417c-55.008,0-99.761-44.752-99.761-99.761s44.753-99.761,99.761-99.761s99.761,44.753,99.761,99.761
			S908.924,776.417,853.916,776.417L853.916,776.417z"/>
	</g>
	<path fill="#441E0D" d="M267.474,1153.69v5.156c0,5.172-4.193,9.364-9.364,9.364h-55.827c-5.172,0-9.364-4.193-9.364-9.364v-54.387
		c0-5.172,4.193-9.364,9.364-9.364h55.105c5.172,0,9.364,4.193,9.364,9.364v5.156h-53.037v14.727h37.251v13.593h-37.251v15.755
		H267.474z"/>
	<path fill="#441E0D" d="M281.149,1104.465c0-5.175,4.195-9.371,9.371-9.371h37.067c26.884,0,44.079,12.459,44.079,35.322
		c0,22.757-18.228,37.794-44.381,37.794H290.52c-5.175,0-9.371-4.195-9.371-9.371V1104.465z M324.607,1154.101
		c15.65,0,25.23-8.648,25.23-23.374c0-14.215-10.403-21.523-25.44-21.523h-22.451v44.897H324.607z"/>
	<path fill="#441E0D" d="M441.587,1153.484h-40.779l-6.792,14.726h-22.35l33.963-67.929c1.589-3.179,4.838-5.187,8.392-5.187h14.347
		c3.558,0,6.809,2.012,8.397,5.196l33.865,67.92h-22.241L441.587,1153.484z M435.407,1140.197l-9.37-20.079
		c-1.134-2.573-3.501-8.753-4.735-12.565h-0.21c-1.234,3.812-3.602,9.991-4.735,12.565l-9.37,20.079H435.407z"/>
	<path fill="#441E0D" d="M542.529,1152.198l14.836-10.403c6.07,8.547,17.295,14.315,32.333,14.315
		c13.282,0,19.462-2.678,19.462-8.447c0-4.529-3.09-6.385-11.838-7.313l-22.451-2.468c-17.926-1.956-26.473-8.547-26.473-22.04
		c0-14.521,14.114-23.068,39.134-23.068c18.538,0,32.954,4.84,42.022,15.037l-13.081,11.015
		c-5.457-7.208-15.961-11.637-29.965-11.637c-11.335,0-17.505,2.678-17.505,7.624c0,4.529,3.081,6.28,12.459,7.308l20.184,1.961
		c20.184,2.057,28.521,8.031,28.521,21.624c0,16.171-15.138,25.129-41.501,25.129
		C567.037,1170.837,550.053,1163.729,542.529,1152.198z"/>
	<path fill="#441E0D" d="M721.465,1153.69v5.156c0,5.172-4.193,9.364-9.364,9.364h-55.827c-5.172,0-9.364-4.193-9.364-9.364v-54.387
		c0-5.172,4.193-9.364,9.364-9.364h55.105c5.172,0,9.364,4.193,9.364,9.364v5.156h-53.037v14.727h37.251v13.593h-37.251v15.755
		H721.465z"/>
	<path fill="#441E0D" d="M780.18,1142.517h-21.317v25.847h-20.805V1104.6c0-5.165,4.187-9.352,9.352-9.352h40.495
		c23.475,0,30.276,12.048,30.276,23.168c0,8.136-4.123,17.716-16.482,21.628l19.16,28.32h-23.383L780.18,1142.517z M758.862,1129.23
		h24.307c10.092,0,13.072-5.046,13.072-10.192c0-5.051-2.98-9.886-12.971-9.886h-24.407V1129.23z"/>
	<path fill="#441E0D" d="M1011.644,1153.69v5.156c0,5.172-4.193,9.364-9.364,9.364h-55.827c-5.172,0-9.364-4.193-9.364-9.364
		v-54.387c0-5.172,4.193-9.364,9.364-9.364h55.105c5.172,0,9.364,4.193,9.364,9.364v5.156h-53.037v14.727h37.251v13.593h-37.251
		v15.755H1011.644z"/>
	<path fill="#441E0D" d="M1070.359,1142.517h-21.317v25.847h-20.805V1104.6c0-5.165,4.187-9.352,9.352-9.352h40.495
		c23.475,0,30.276,12.048,30.276,23.168c0,8.136-4.123,17.716-16.482,21.628l19.16,28.32h-23.383L1070.359,1142.517z
		 M1049.042,1129.23h24.307c10.092,0,13.072-5.046,13.072-10.192c0-5.051-2.98-9.886-12.971-9.886h-24.407V1129.23z"/>
	<path fill="#441E0D" d="M895.862,1109.974l6.792-14.727h22.35l-33.963,67.93c-1.589,3.179-4.838,5.187-8.392,5.187h-14.347
		c-3.558,0-6.809-2.012-8.397-5.196l-33.865-67.92h22.241l6.801,14.727l6.179,13.287l9.37,20.079
		c1.133,2.573,3.501,8.753,4.735,12.565h0.21c1.234-3.812,3.602-9.991,4.735-12.565l9.37-20.079"/>
	<path fill="#441E0D" d="M522.63,1139.153h-38c-3.3,0-6-2.7-6-6v-3c0-3.3,2.7-6,6-6h38c3.3,0,6,2.7,6,6v3
		C528.63,1136.453,525.93,1139.153,522.63,1139.153z"/>
	<path fill="#323133" d="M572.663,501.002c0,0-37.948-16.761-73.309-9.365c-35.361,7.396-37.742,50.548-38.649,61.336
		c-0.907,10.788,10.225,56.337,10.225,56.337s6.791-39.072,19.705-44.708c12.915-5.636,40.484,10.494,40.484,10.494L572.663,501.002
		z"/>
	<path fill="#555555" d="M547.967,515.258c-5.756-2.991-11.78-5.704-17.829-8.043c-8.202-3.107-16.786-5.929-25.651-5.364
		c-11.002,0.532-20.654,6.007-23.945,17.047c1.527-11.02,10.233-18.515,20.707-21.183c2.407-0.637,5.386-1.173,7.85-1.41
		c7.903-0.669,15.91,0.739,23.592,2.421c5.904,1.324,11.744,2.976,17.494,4.847c0.836,0.278,1.633,0.54,2.526,0.86L547.967,515.258
		L547.967,515.258z"/>
	<g>
		<defs>
			<path id="XMLID_00000022532491414084117270000006913253704685045636_" d="M583.462,776.597c0,0-42.595,33.334-49.484,39.163
				s-19.61,12.72-39.749,2.65c-20.14-10.07-55.119-51.939-55.119-51.939s40.809,15.9,57.769,7.42
				c16.96-8.48,32.293-20.419,33.901-40.154C532.388,714.003,583.462,776.597,583.462,776.597z"/>
		</defs>
		<use xlink:href="#XMLID_00000022532491414084117270000006913253704685045636_"  overflow="visible" fill="#323133"/>
		<clipPath id="XMLID_00000001633534217949385430000010120253571326450051_">
			<use xlink:href="#XMLID_00000022532491414084117270000006913253704685045636_"  overflow="visible"/>
		</clipPath>
	</g>
	<g>
		<defs>
			<path id="XMLID_00000105417862740876632490000001000937542986973606_" d="M628.839,724.971c0,0,41.629,34.531,48.791,40.024
				c7.162,5.492,16.599,16.456,11.043,38.277c-5.556,21.82-39.029,64.904-39.029,64.904s6.857-43.257-5.035-58.026
				c-11.893-14.768-26.712-26.218-46.445-24.586C579.339,787.119,628.839,724.971,628.839,724.971z"/>
		</defs>
		<use xlink:href="#XMLID_00000105417862740876632490000001000937542986973606_"  overflow="visible" fill="#323133"/>
		<clipPath id="XMLID_00000043415784578646361740000017772581248413576617_">
			<use xlink:href="#XMLID_00000105417862740876632490000001000937542986973606_"  overflow="visible"/>
		</clipPath>
	</g>
	<g>
		<defs>
			<path id="XMLID_00000042738188179829818950000009043601505898753467_" d="M662.342,476.157
				c-58.409-10.539-112.537,9.149-132.713,45.187l-0.009-0.003c0,0-0.018,0.038-0.046,0.1c-3.064,5.494-5.343,11.365-6.725,17.569
				c-5.658,16.914-12.45,43.512-10.082,68.707c3.883,41.301,10.59,76.601,18.012,126.02l0,0
				c1.294,16.156,11.558,38.092,32.868,45.003c32.709,10.607,47.875,4.95,58.943-14.221c4.041-6.999,4.61-6.05,13.154-15.722
				c12.467-11.812,38.128-35.416,73.995-64.833c51.56-42.287,59.304-90.762,59.304-90.762l-0.002-0.001
				c0.66-2.229,1.203-4.503,1.622-6.821C779.416,537.88,730.918,488.531,662.342,476.157z"/>
		</defs>
		<use xlink:href="#XMLID_00000042738188179829818950000009043601505898753467_"  overflow="visible" fill="#323133"/>
		<clipPath id="XMLID_00000054243587295522985060000000564538866036667821_">
			<use xlink:href="#XMLID_00000042738188179829818950000009043601505898753467_"  overflow="visible"/>
		</clipPath>
	</g>
	<path d="M692.623,401.548c-43.141-10.727-83.77-10.972-111.543-2.62l-4.01,84.04c20.884,14.485,53.359,29.835,85.879,37.921
		c73.193,18.2,107.392,8.068,115.586-24.887C786.73,463.048,765.817,419.748,692.623,401.548z"/>
	<path fill="#323133" d="M481.453,723.041c0,0,5.735,4.431,10.89,6.437c5.156,2.006,6.47,2.431,9.357,0.591
		c2.887-1.84,4.6-11.503,8.431-14.703c3.83-3.2,7.583-4.697,12.673-2.332c5.09,2.365,7.947,5.02,7.947,5.02l-0.462-13.26
		c0,0-4.666-2.659-9.931-4.824c-5.266-2.165-9.871-1.334-12.44,2.328s-4.184,10.744-6.573,14.438s-3.794,5.294-7.244,5.64
		s-11.206-2.922-11.206-2.922L481.453,723.041z"/>
	<path d="M484.344,720.948c-0.85,3.586-3.189,4.539-8.71,3.139c-5.521-1.399-10.88-3.729-11.629-6.463
		c-0.749-2.734-0.598-3.278-0.598-3.278s1.768,3.699,3.803,3.083c2.035-0.617-0.104-3.708-0.598-4.422
		c-0.494-0.713-3.398-3.006-7.796-3.263s-7.443,1.059-11.197,0.843c-3.754-0.216-5.5-2.612-5.5-2.612s3.228,0.351,5.2,0.052
		c1.972-0.299,2.928-0.475,2.926-1.248s-5.053-0.697-8.188-1.869c-3.134-1.172-6.411-2.629-9.366-6.2
		c-2.955-3.571-3.563-8.089-3.563-8.089s3.327,5.003,7.873,7.376c4.547,2.373,8.095,3.458,9.817,2.169s-3.401-1.719-6.243-5.053
		c-2.867-3.364-2.71-6.161-2.71-6.161s2.151,3.941,7.871,5.239c4.82,1.094,10.687,0.056,13.568-0.049s3.5-0.387,3.541-1.238
		c0.041-0.851-1.411-1.673-2.783-1.837s-1.795-0.032-1.795-0.032s2.106-2.764,6.492-1.393c4.386,1.371,7.283,4.714,9.269,7.165
		s3.352,6.179,4.009,5.869s1.433-1.427,1.144-2.825s-1.387-2.914-1.387-2.914s3.033,0.326,4.942,5.395
		c1.91,5.069,2.731,7.305,2.606,11.603C485.221,718.234,484.344,720.948,484.344,720.948z"/>
	<path fill="#323133" d="M553.095,377.572c0,58.37,57.833,118.301,104.869,118.301c47.036,0,74.955-42.19,74.955-100.559
		s-38.13-105.688-85.167-105.688c-31.588,0-72.199,25.364-80.778,40.395C558.318,345.185,553.095,358.401,553.095,377.572z"/>
	<path d="M733.401,337.228c-8.852-1.272-17.262-4.681-24.471-9.973c-4.276-3.138-9.035-7.252-13.686-12.53
		c-13.907-15.784-15.295-26.734-6.834-38.261c8.461-11.526,16.363-21.225,38.163-25.992c21.537-4.709,54.519,2.105,54.519,2.105
		s-16.349,6.339-25.054,14.307c-8.563,7.838-16.865,16.501-6.431,31.62c3.652,5.292,7.496,9.203,10.95,12.051
		c6.077,5.011,7.818,13.584,4.028,20.489v0c-3.264,5.946-9.873,9.245-16.587,8.281L733.401,337.228z"/>
	<g>
		<defs>
			<path id="XMLID_00000129208009946157535690000013847271063984690311_" d="M753.577,312.319c0,0-6.538-4.344-9.927-8.823
				c-3.39-4.479-4.277-10.182-4.277-10.182s-2.706,2.766-2.044,6.494c0.662,3.728,2.561,8.009,2.561,8.009
				s-13.215-10.027-5.912-26.516c10.022-22.628,31.863-27.69,31.863-27.69s-19.482-5.824-36.805-0.115
				c-17.324,5.709-22.693,11.109-28.415,21.219c-5.722,10.11-1.345,22.666,6.622,30.991c7.967,8.325,28.939,21.074,28.939,21.074
				l5.54,1.219C750.749,329.984,757.948,320.465,753.577,312.319L753.577,312.319z"/>
		</defs>
		<use xlink:href="#XMLID_00000129208009946157535690000013847271063984690311_"  overflow="visible" fill="#FFFFFF"/>
		<clipPath id="XMLID_00000037685024198996429420000013567436809268048301_">
			<use xlink:href="#XMLID_00000129208009946157535690000013847271063984690311_"  overflow="visible"/>
		</clipPath>
	</g>
	<path fill="#DADADA" d="M733.863,281.689c-1.772,1.957-3.184,4.185-3.591,6.558c-1.354,7.891,4.33,18.536,4.33,18.536
		s-5.353-5.417-10.692-15.364s3.642-22.788,3.642-22.788s-14.582,8.658-10.583,21.967c3.999,13.308,18.879,24.785,18.879,24.785
		s-14.41-4.448-26.448-17.33c-7.741-8.283-10.169-14.331-10.918-17.597c-1.903,8.845,2.213,18.532,8.755,25.368
		c7.967,8.325,28.939,21.074,28.939,21.074l5.54,1.219c7.116,1.565,13.09-4.018,13.164-10.442
		c-6.206-3.647-14.994-9.739-14.994-9.739S726.824,298.018,733.863,281.689z"/>
	<ellipse fill="#323133" cx="687.948" cy="361.596" rx="94.067" ry="76.294"/>
	
		<ellipse transform="matrix(0.2719 -0.9623 0.9623 0.2719 226.7856 1000.4951)" fill="#323133" cx="774.549" cy="350.381" rx="10.599" ry="8.481"/>
	
		<ellipse transform="matrix(0.3023 -0.9532 0.9532 0.3023 73.0776 970.5399)" fill="#323133" cx="699.554" cy="435.348" rx="74.734" ry="113.506"/>
	<ellipse transform="matrix(0.9996 -0.0286 0.0286 0.9996 -10.0671 22.2533)" cx="773.73" cy="363.43" rx="9.973" ry="20.667"/>
	
		<ellipse transform="matrix(0.9955 -0.0945 0.0945 0.9955 -29.9606 74.8855)" fill="#FFFFFF" cx="775.815" cy="353.828" rx="4.815" ry="6.437"/>
	<path d="M773.479,341.098c2.867-0.047,5.587,0.905,7.967,2.599c-2.446-4.077-5.84-6.606-9.512-6.551
		c-5.309,0.079-9.659,5.534-11.245,13.182C763.357,344.839,768.036,341.188,773.479,341.098z"/>
	<path d="M736.717,338.187c2.867-0.047,5.587,0.905,7.967,2.599c-2.446-4.077-5.84-6.606-9.512-6.551
		c-5.309,0.079-9.659,5.534-11.245,13.182C726.595,341.928,731.274,338.276,736.717,338.187z"/>
	<g>
		<defs>
			<path id="XMLID_00000171706043757570748710000014702827143144063906_" d="M846.077,457.875
				c-2.894,17.366-9.761,34.637-17.057,43.503c-7.415,9.011-21.181,23.541-47.005,23.541c-43.502,0-119.303-4.821-119.302-72.273
				c0.002-72.276,69.429-72.273,112.931-72.273c26.292,0,49.574,12.728,63.882,32.288
				C848.892,425.466,848.872,441.102,846.077,457.875z"/>
		</defs>
		<use xlink:href="#XMLID_00000171706043757570748710000014702827143144063906_"  overflow="visible" fill="#555555"/>
		<clipPath id="XMLID_00000068665225846542254050000006502339918536021692_">
			<use xlink:href="#XMLID_00000171706043757570748710000014702827143144063906_"  overflow="visible"/>
		</clipPath>
		<path clip-path="url(#XMLID_00000068665225846542254050000006502339918536021692_)" d="M878.717,451.529
			c0.818,3.497,1.191,7.157,1.036,10.92c-0.924,22.367-19.805,39.75-42.172,38.826c-16.045-0.663-34.077-7.152-40.075-20.954
			c4.042,17.287,23.74,27.069,42.344,27.837c22.367,0.924,41.248-16.459,42.172-38.826
			C882.284,463.01,881.08,456.967,878.717,451.529z"/>
	</g>
	<ellipse transform="matrix(0.9184 -0.3957 0.3957 0.9184 -99.0195 349.6164)" cx="798.014" cy="414.847" rx="10.492" ry="21.104"/>
	<path fill="#323133" d="M706.113,285.423c-0.254-4.013,3.651-7.527,8.721-7.847c2.514-0.159,4.841,0.498,6.581,1.689
		c-1.182-3.338-6.068-5.622-11.761-5.262c-6.392,0.404-11.369,3.985-11.115,7.998c0.207,3.275,3.833,5.823,8.633,6.432
		C706.563,287.536,706.182,286.52,706.113,285.423z"/>
	<path d="M683.018,329.612c-8.939-0.244-17.686-2.663-25.457-7.089c-4.608-2.625-9.81-6.164-15.037-10.871
		c-15.632-14.078-18.271-24.796-11.193-37.219c7.078-12.424,13.811-22.968,34.917-30.212c20.852-7.157,54.399-4.185,54.399-4.185
		s-15.51,8.178-23.241,17.096c-7.604,8.772-14.853,18.333-2.748,32.15c4.237,4.836,8.506,8.279,12.265,10.71
		c6.614,4.278,9.33,12.594,6.359,19.889v0c-2.558,6.282-8.743,10.32-15.524,10.135L683.018,329.612z"/>
	<g>
		<defs>
			<path id="XMLID_00000182512016435442291410000015435428855890101905_" d="M700.192,302.546c0,0-6.994-3.563-10.877-7.622
				s-5.421-9.622-5.421-9.622s-2.369,3.059-1.282,6.686c1.087,3.627,3.466,7.661,3.466,7.661s-14.282-8.439-8.926-25.659
				c7.35-23.632,28.464-31.174,28.464-31.174s-20.023-3.542-36.574,4.123c-16.551,7.665-21.263,13.648-25.784,24.35
				c-4.52,10.702,1.273,22.67,10.145,30.022s31.173,17.603,31.173,17.603l5.643,0.573
				C699.416,320.419,705.471,310.134,700.192,302.546L700.192,302.546z"/>
		</defs>
		<use xlink:href="#XMLID_00000182512016435442291410000015435428855890101905_"  overflow="visible" fill="#FFFFFF"/>
		<clipPath id="XMLID_00000102527966987601475830000015006823880242397874_">
			<use xlink:href="#XMLID_00000182512016435442291410000015435428855890101905_"  overflow="visible"/>
		</clipPath>
	</g>
	<ellipse transform="matrix(0.9996 -0.0286 0.0286 0.9996 -10.0626 21.259)" cx="738.937" cy="362.773" rx="9.973" ry="20.667"/>
	
		<ellipse transform="matrix(0.9955 -0.0945 0.0945 0.9955 -30.0541 71.5951)" fill="#FFFFFF" cx="741.022" cy="353.171" rx="4.815" ry="6.437"/>
	<ellipse transform="matrix(0.2751 -0.9614 0.9614 0.2751 108.9815 863.5952)" cx="627.201" cy="359.524" rx="10.965" ry="26.18"/>
	
		<ellipse transform="matrix(0.2751 -0.9614 0.9614 0.2751 108.3194 863.8797)" fill="#323133" cx="627.053" cy="360.106" rx="10.365" ry="24.85"/>
	<ellipse transform="matrix(0.2748 -0.9615 0.9615 0.2748 105.8516 864.9907)" cx="626.347" cy="362.324" rx="8.032" ry="23.177"/>
	<path fill="#555555" d="M769.085,593.159l-0.002-0.001c0.66-2.229,1.203-4.503,1.622-6.821c1.046-5.799,1.266-11.609,0.739-17.368
		c-14.906,3.698-37.026,11.535-56.178,27.759c-32.432,27.475-52.656,74.411-58.762,100.359c-3.481,14.795-3.516,27.226-2.904,35.185
		c13.869-12.567,32.866-29.229,56.181-48.351C761.341,641.634,769.085,593.159,769.085,593.159z"/>
	<ellipse fill="#555555" cx="741.022" cy="395.02" rx="22.837" ry="14.646"/>
	<path d="M468.199,595.629c0,0,16.439-14.484,22.619-11.094c6.181,3.389,6.155,15.582,4.218,28.954
		c-1.943,13.406-3.884,21.223-7.895,24.149c-10.212,7.451-33.192,2.633-33.192,2.633l-4.042-8.241l-5.694,2.846
		c0,0-5.339-0.16-9.534-0.956c-4.195-0.796-8.869-1.567-9.426-3.672c-0.557-2.105,7.198-17.323,13.192-26.922l4.896-7.841
		c0.757-1.213,1.712-2.287,2.829-3.181c3.851-3.081,13.159-10.04,17.926-9.407C470.2,583.709,468.199,595.629,468.199,595.629z"/>
	<polygon fill="#FFFFFF" points="485.939,633.237 472.443,636.273 490.634,594.992 	"/>
	<path d="M812.684,628.666c0,0-21.596-3.691-22.842-10.629c-1.246-6.938,8.257-14.578,19.878-21.472
		c11.651-6.911,18.952-10.311,23.749-9.029c12.212,3.265,22.901,24.17,22.901,24.17l-3.873,8.322l5.791,2.642
		c0,0,3.23,4.255,5.246,8.019c2.016,3.764,4.353,7.885,3.065,9.641c-1.288,1.756-18,5.283-29.233,6.649l-9.177,1.117
		c-1.42,0.173-2.855,0.105-4.252-0.203c-4.816-1.061-16.078-3.93-18.58-8.037C802.153,634.598,812.684,628.666,812.684,628.666z"/>
	<polygon fill="#FFFFFF" points="830.8,591.238 841.641,599.831 798.094,611.611 	"/>
	<path fill="#323133" d="M748.919,621.937c-36.066-5.604-53.803-43.429-60.222-61.186c-0.724-3.101-1.7-6.17-2.917-9.176v0l0,0
		c-5.447-13.454-15.724-25.657-29.942-33.902c-31.121-18.047-69.324-10.302-85.329,17.297
		c-15.723,27.114-4.171,63.301,25.747,81.677l-0.002,0.001c0,0,37.456,38.967,100.624,42.907s116.324-33.124,116.324-33.124
		S796.307,629.3,748.919,621.937z"/>
	<path d="M565.695,577.169c5.052,16.708,17.075,30.772,32.077,39.402c-0.002,0.001-1.02,0.76-1.022,0.761l0.113-1.269
		c3.438,3.335,7.255,6.403,11.134,9.295c34.967,25.993,80.372,37.61,123.442,30.45c26.233-4.278,51.566-13.865,74.419-27.389
		c2.055-1.235,4.137-2.532,6.059-3.831l1.662,4.059c-0.389,0.075-0.953,0.115-1.338,0.165c-6.138,0.572-12.299,0.433-18.442,0.185
		c-12.944-0.594-25.862-2.099-38.67-3.957c-3.212-0.496-6.352-0.896-9.675-1.584c-9.797-2.102-18.921-6.822-26.605-13.199
		c-15.216-12.748-25.091-30.618-31.719-49.054c-0.69-3.078-1.628-6.104-2.793-9.045l-0.11-0.692l0.11,0.692
		c-3.44-8.644-8.739-16.536-15.395-23.054c-20.211-19.922-52.423-27.158-78.172-13.819c16.669-9.575,37.739-10.147,55.524-3.231
		c19.346,7.225,34.153,22.443,40.927,38.936c1.257,3.041,2.286,6.182,3.06,9.389c6.276,16.719,16.525,34.922,31.1,46.789
		c7.248,5.902,15.78,10.239,24.95,12.123c6.146,1.117,12.697,1.918,18.954,2.758c9.49,1.152,19.17,2.125,28.701,2.515
		c6.107,0.221,12.259,0.363,18.337-0.281c0,0,0.501-0.068,0.501-0.068l9.452-1.273l-7.791,5.332
		c-16.552,10.846-34.741,18.999-53.579,24.963c-48.114,15.478-99.509,9.802-142.131-17.702
		c-8.284-5.358-16.151-11.277-23.133-18.301c0,0-0.689-0.704-0.689-0.704l0.802-0.565c0.002-0.006,0.055,1.403,0.055,1.402
		C581.333,608.258,570.005,593.784,565.695,577.169L565.695,577.169z"/>
	<path fill="#555555" d="M589.963,526.313c14.408-7.058,31.984-9.82,47.237-3.288c10.373,4.699,17.539,14.025,23.655,23.225
		c9.217,13.937,16.025,29.34,25.98,42.631c9.234,11.446,19.197,22.992,31.902,30.566c2.973,1.838,6.483,3.501,9.713,4.864
		c0,0,3.427,1.249,3.427,1.249l0.858,0.319c1.278,0.389,3.125,0.92,4.404,1.307c2.856,0.7,6.176,1.42,9.1,1.864
		c3.78,0.601,7.653,1.068,11.45,1.546c10.253,1.164,20.577,2.333,30.923,1.995c-10.103,2.894-20.746,3.47-31.204,3.807
		c-7.851,0.103-16.124,0.19-24.001-1.388c-1.194-0.246-2.888-0.514-4.034-0.849c-18.999-4.401-34.386-17.456-46.704-31.875
		c-1.537-1.859-3.698-4.282-5.175-6.218c-4.14-5.367-7.634-11.194-10.918-17.062c-5.023-9.087-9.509-18.394-14.57-27.315
		c-7.961-13.786-15.186-23.728-31.742-26.558C610.383,523.354,599.816,524.113,589.963,526.313L589.963,526.313z"/>
	<path d="M580.374,484.381c-8.798,3.407-17.726,7.082-25.881,11.898c-10.195,6.718-17.33,17.155-23.02,27.818
		c-9.918,19.452-16.428,40.921-18.749,62.665c1.757-21.942,7.698-43.579,17.169-63.471c4.95-9.937,11.056-19.531,19.68-26.756
		c4.268-3.473,9.31-6.401,14.055-9.151c4.842-2.737,9.734-5.282,14.8-7.682L580.374,484.381L580.374,484.381z"/>
	<path fill="#323133" d="M625.889,487.729c0,0,47.281,18.173,56.658,20.526c9.377,2.353-36.536-29.087-36.536-29.087
		L625.889,487.729z"/>
	<circle fill="#252426" cx="755.862" cy="568.237" r="38.019"/>
	<circle fill="#EF5956" cx="759.371" cy="564.729" r="38.019"/>
	<path fill="#FFFFFF" d="M753.777,569.572c-1.975,4.927-3.717,9.634-5.748,14.215c-1.482,3.343-4.419,0.956-7.057,1.767
		c4.966-11.91,9.703-23.293,14.466-34.665c0.737-1.76,1.435-3.569,2.453-5.165c0.565-0.886,1.749-1.889,2.663-1.898
		c0.868-0.009,2.169,1.027,2.558,1.916c3.459,7.91,6.756,15.89,10.104,23.849c1.44,3.425,3.096,6.78,4.231,10.302
		c0.479,1.486,0.484,3.83-0.392,4.88c-1.376,1.651-3.328,0.499-4.831-0.718c-5.506-4.457-11.011-8.915-16.534-13.351
		C755.148,570.268,754.484,569.984,753.777,569.572z M755.903,564.229c4.281,3.354,8.533,6.686,13.357,10.466
		c-3.009-7.455-5.76-14.271-8.774-21.737C758.781,557.151,757.363,560.638,755.903,564.229z"/>
	<path fill="#555555" d="M677.51,764.855c-4.181-3.207-18.945-15.308-31.48-25.66c2.289,3.535,3.51,6.054,5.759,9.08
		c8.399,11.301,16.201,46.082,14.041,65.523c-1.305,11.742-6.155,31.625-9.792,45.533c10.028-13.734,28.513-40.481,32.515-56.199
		C694.109,781.311,684.672,770.347,677.51,764.855z"/>
	<path d="M667.619,843.162c4.132,0.578,8.159,7.836,9.689,15.684c1.469,7.531,3.498,25.411,3.277,26.232
		c-0.221,0.821-2.659,4.348-5.734,5.029c-3.075,0.681-14.445-6.143-14.445-6.143s-3.444,4.856-14.666,1.709
		c-11.222-3.146-12.547-8.029-14.355-10.653c-1.808-2.624-1.686-4.477-1.497-5.18s5.846-19.708,6.351-21.583
		c0.505-1.876,5.532-13.687,12.565-11.794c7.033,1.893,5.204,15.229,5.019,17.317c-0.185,2.087-1.537,8.514-0.397,8.946
		s1.966-4.5,3.931-9S662.737,842.478,667.619,843.162z"/>
	<polygon fill="#FFFFFF" points="678.403,883.437 674.177,887.68 670.391,848.601 	"/>
	<path fill="#555555" d="M575.728,781.59c0,0-49.182,15.628-63.004,13.907c-7.447-0.927-30.32-11.91-49.835-21.844
		c-12.877-2.933-23.78-7.181-23.78-7.181s34.979,41.869,55.119,51.939c20.14,10.07,32.859,3.18,39.749-2.65
		c5.003-4.233,28.829-22.966,41.506-32.91L575.728,781.59z"/>
	<path d="M611.563,786.115c-9.862-0.105-19.712-0.905-29.484-2.241c-7.383-1.075-14.748-2.375-21.805-4.915
		c-2.5-0.937-5.121-2.051-7.302-3.996c-1.375-1.377-3.456-3.683-4.823-5.101c-12.33-12.702-16.533-30.711-19.128-47.675
		c3.158,11.764,6.319,23.725,12.386,34.363c2.921,5.27,7.063,9.818,11.268,14.112c0.717,0.704,1.719,1.892,2.477,2.514
		c3.747,2.802,8.505,4.073,12.995,5.335C582.377,782.167,596.991,784.019,611.563,786.115L611.563,786.115z"/>
	<path d="M459.728,789.356c-1.444,3.914-9.392,6.305-17.385,6.132c-7.671-0.166-25.574-1.986-26.329-2.376
		c-0.755-0.39-3.683-3.523-3.695-6.672s9.074-12.808,9.074-12.808s-4.012-4.398,1.449-14.694s10.514-10.553,13.462-11.762
		c2.948-1.209,4.733-0.696,5.38-0.361c0.647,0.335,18.014,9.903,19.739,10.796c1.725,0.892,12.197,8.316,8.852,14.786
		c-3.346,6.47-15.988,1.846-17.988,1.221c-2-0.624-7.992-3.313-8.657-2.29c-0.665,1.023,3.979,2.878,7.958,5.755
		C455.566,779.961,461.434,784.731,459.728,789.356z"/>
	<polygon fill="#FFFFFF" points="418.08,791.328 414.833,786.296 453.823,790.907 	"/>
	<path fill="#DADADA" d="M677.069,274.269c-1.535,2.148-2.681,4.523-2.812,6.928c-0.437,7.995,6.435,17.915,6.435,17.915
		s-5.941-4.765-12.39-14.031s0.995-23.055,0.995-23.055s-13.488,10.28-7.984,23.039c5.505,12.76,21.607,22.447,21.607,22.447
		s-14.826-2.759-28.267-14.17c-8.643-7.337-11.751-13.065-12.871-16.223c-0.872,9.005,4.332,18.154,11.617,24.192
		c8.872,7.352,31.173,17.603,31.173,17.603l5.643,0.573c7.249,0.736,12.541-5.499,11.874-11.888
		c-6.584-2.908-16.016-7.948-16.016-7.948S671.956,291.299,677.069,274.269z"/>
	<g>
		<defs>
			<path id="XMLID_00000030463290801566103650000011928064321059415210_" d="M1088.448,482.447l-32.838-5.366
				c-10.65-56.616-32.918-109.13-64.232-154.976l18.572-25.828c11.552-14.732,10.284-35.77-2.954-49.008l-47.586-47.586
				c-13.238-13.238-34.276-14.506-49.008-2.954l-25.552,18.375c-47.622-32.836-102.516-55.877-161.776-66.218l-5.47-33.475
				c-2.249-18.586-18.022-32.565-36.743-32.565h-67.296c-18.721,0-34.494,13.98-36.743,32.565l-5.771,35.315
				c-55.299,11.05-106.589,33.202-151.448,64.037l-25.078-18.034c-14.732-11.552-35.77-10.284-49.008,2.954l-47.586,47.586
				c-13.238,13.238-14.506,34.276-2.954,49.008l18.074,25.135c-31.534,45.965-53.96,98.666-64.676,155.505l-33.842,5.53
				c-18.586,2.249-32.565,18.022-32.565,36.743v67.296c0,18.721,13.98,34.494,32.565,36.743l33.597,5.49
				c10.946,59.126,34.555,113.807,67.91,161.127l-21.064,29.292c-11.552,14.732-10.284,35.77,2.954,49.008l47.586,47.586
				c13.238,13.238,34.276,14.506,49.008,2.954l30.508-21.938l-2.656-2.656c44.254,29.889,94.648,51.374,148.891,62.183l5.554,33.991
				c2.249,18.585,18.022,32.565,36.743,32.565h67.296c18.721,0,34.494-13.98,36.743-32.565l5.255-32.157
				c59.262-10.309,114.163-33.318,161.798-66.123l-4.762,4.762l30.508,21.938c14.732,11.552,35.77,10.284,49.008-2.954
				l47.586-47.586c13.238-13.238,14.506-34.276,2.954-49.008l-21.556-29.977c33.133-47.206,56.58-101.702,67.46-160.606
				l32.593-5.326c18.585-2.249,32.565-18.022,32.565-36.743V519.19C1121.014,500.469,1107.034,484.696,1088.448,482.447z
				 M651.978,900.008c-191.383,0-346.53-155.147-346.53-346.53s155.147-346.53,346.53-346.53s346.53,155.147,346.53,346.53
				S843.361,900.008,651.978,900.008z"/>
		</defs>
		<use xlink:href="#XMLID_00000030463290801566103650000011928064321059415210_"  overflow="visible" fill="#146CB3"/>
		<clipPath id="XMLID_00000181066347261451719700000014808155358585933469_">
			<use xlink:href="#XMLID_00000030463290801566103650000011928064321059415210_"  overflow="visible"/>
		</clipPath>
	</g>
	<path fill="#4A8DC7" d="M1013.276,822.694c-0.778-1.29-1.633-2.549-2.584-3.762l-21.556-29.977
		c33.133-47.206,56.58-101.702,67.46-160.606l32.593-5.326c18.585-2.249,32.565-18.022,32.565-36.743v-67.296
		c0-18.721-13.98-34.494-32.565-36.743l-32.838-5.366c-10.65-56.616-32.918-109.13-64.232-154.976l18.572-25.828
		c11.552-14.732,10.284-35.77-2.954-49.008l-47.586-47.586c-13.238-13.238-34.276-14.506-49.008-2.954l-25.552,18.375
		c-47.622-32.836-102.516-55.877-161.776-66.218l-5.164-31.603c-51.334,0.16-100.47,9.662-145.79,26.905l-1.068,6.538
		c-10.862,2.17-21.566,4.776-32.101,7.784C401.487,225.306,306.19,366.945,306.19,530.845c0,3.925,0.06,7.836,0.168,11.735
		c5.651-186.435,158.556-335.837,346.361-335.837c191.383,0,346.53,155.147,346.53,346.53s-155.146,346.53-346.53,346.53
		c-109.606,0-207.322-50.89-270.821-130.326c74.931,105.961,198.418,175.145,338.068,175.145c27.22,0,53.824-2.634,79.576-7.651
		c30.537-11.692,59.325-26.919,85.856-45.191l-4.762,4.762l13.529,9.729C938.748,885.549,979.022,857.12,1013.276,822.694z"/>
	<polygon fill="#ABD9F3" points="628.442,105.979 628.442,145.994 665.859,125.986 	"/>
	<polygon fill="#ABD9F3" points="326.415,243.006 354.71,271.301 367.02,230.696 	"/>
	<polygon fill="#ABD9F3" points="960.802,230.696 932.507,258.991 973.112,271.301 	"/>
	<polygon fill="#ABD9F3" points="949.494,832.797 977.789,861.093 937.184,873.402 	"/>
	<polygon fill="#ABD9F3" points="373.238,845.107 344.943,873.402 332.633,832.797 	"/>
	<polygon fill="#ABD9F3" points="1053.496,528.326 1093.511,528.326 1073.504,565.743 	"/>
	<polygon fill="#ABD9F3" points="665.859,962.415 665.859,1002.431 628.442,982.423 	"/>
	<path id="XMLID_00000026877166308006083900000008366253091249331853_" fill="#441E0D" d="M680.862,82.845
		c18.721,0,34.494,13.98,36.743,32.565l5.47,33.475c59.26,10.342,114.154,33.382,161.776,66.218l25.552-18.375
		c6.74-5.285,14.798-7.886,22.828-7.886c9.52,0,18.999,3.659,26.18,10.84l47.586,47.586c13.238,13.238,14.506,34.276,2.954,49.008
		l-18.572,25.828c31.314,45.846,53.582,98.36,64.232,154.976l32.838,5.366c18.585,2.249,32.565,18.022,32.565,36.743v67.296
		c0,18.721-13.98,34.494-32.565,36.743l-32.593,5.326c-10.88,58.904-34.328,113.4-67.46,160.606l21.556,29.977
		c11.552,14.732,10.284,35.77-2.954,49.008l-47.586,47.586c-7.182,7.182-16.659,10.84-26.18,10.84
		c-8.028,0-16.089-2.602-22.828-7.886l-30.508-21.938l4.762-4.762c-47.635,32.805-102.536,55.814-161.798,66.123l-5.255,32.157
		c-2.249,18.586-18.022,32.565-36.743,32.565h-67.296c-18.721,0-34.494-13.98-36.743-32.565l-5.554-33.991
		c-54.243-10.809-104.637-32.294-148.891-62.183l2.656,2.656l-30.508,21.938c-6.74,5.285-14.798,7.886-22.828,7.886
		c-9.52,0-18.999-3.659-26.18-10.84l-47.586-47.586c-13.238-13.238-14.506-34.276-2.954-49.008l21.064-29.292
		c-33.356-47.32-56.964-102.001-67.91-161.127l-33.597-5.49c-18.586-2.249-32.565-18.022-32.565-36.743V519.19
		c0-18.721,13.98-34.494,32.565-36.743l33.842-5.53c10.716-56.839,33.142-109.54,64.676-155.505l-18.074-25.135
		c-11.552-14.732-10.284-35.77,2.954-49.008l47.586-47.586c7.182-7.182,16.659-10.841,26.18-10.84
		c8.028,0,16.088,2.602,22.828,7.886l25.078,18.033c44.86-30.835,96.149-52.987,151.448-64.037l5.771-35.315
		c2.249-18.586,18.022-32.565,36.743-32.565H680.862 M651.978,900.008c191.383,0,346.53-155.147,346.53-346.53
		s-155.147-346.53-346.53-346.53s-346.53,155.147-346.53,346.53S460.595,900.008,651.978,900.008 M680.862,72.845h-67.296
		c-23.679,0-43.692,17.672-46.643,41.143l-4.632,28.348c-51.011,11.063-98.889,31.302-142.507,60.238l-19.261-13.851
		c-8.208-6.373-18.435-9.881-28.824-9.881c-12.563,0-24.372,4.89-33.252,13.769l-47.586,47.586
		c-16.744,16.744-18.398,43.392-3.888,62.076l13.895,19.323c-29.678,44.819-50.161,94.065-60.96,146.571l-26.795,4.378
		c-23.472,2.951-41.144,22.964-41.144,46.643v67.296c0,23.68,17.672,43.692,41.144,46.643l26.528,4.335
		c5.565,27.453,13.908,54.382,24.835,80.149c10.683,25.19,23.898,49.422,39.327,72.122l-16.831,23.406
		c-14.51,18.684-12.856,45.333,3.888,62.076l47.586,47.586c8.879,8.879,20.688,13.769,33.251,13.769
		c10.389,0,20.617-3.508,28.826-9.883l25.429-18.285c42.022,26.837,87.879,45.734,136.555,56.263l4.415,27.02
		c2.951,23.472,22.964,41.143,46.643,41.143h67.296c23.68,0,43.692-17.672,46.643-41.143l4.087-25.01
		c27.488-5.269,54.476-13.312,80.331-23.946c23.122-9.51,45.462-21.142,66.588-34.662l25.896,18.621
		c8.209,6.374,18.436,9.881,28.824,9.881c12.563,0,24.372-4.89,33.251-13.769l47.586-47.586
		c16.744-16.744,18.398-43.392,3.888-62.076l-17.332-24.102c15.323-22.641,28.447-46.798,39.057-71.901
		c10.85-25.673,19.136-52.497,24.667-79.838l25.522-4.17c23.472-2.951,41.143-22.964,41.143-46.643V519.19
		c0-23.679-17.672-43.692-41.143-46.643l-25.789-4.214c-10.732-52.284-31.068-101.347-60.527-146.03l14.402-20.028
		c14.51-18.684,12.856-45.333-3.888-62.076l-47.586-47.586c-8.879-8.879-20.688-13.769-33.251-13.769
		c-10.389,0-20.617,3.508-28.826,9.883l-19.726,14.185c-22.863-15.202-47.234-28.172-72.542-38.598
		c-25.851-10.649-52.841-18.709-80.328-23.993l-4.303-26.332C724.554,90.517,704.542,72.845,680.862,72.845L680.862,72.845z
		 M651.978,890.008c-45.436,0-89.507-8.896-130.99-26.442c-40.072-16.949-76.063-41.216-106.973-72.125
		c-30.91-30.909-55.176-66.9-72.125-106.973c-17.546-41.483-26.442-85.554-26.442-130.989c0-45.436,8.896-89.507,26.442-130.99
		c16.949-40.072,41.216-76.063,72.125-106.973c30.909-30.91,66.9-55.176,106.973-72.125c41.483-17.546,85.554-26.442,130.99-26.442
		c45.436,0,89.507,8.896,130.99,26.442c40.072,16.949,76.063,41.216,106.973,72.125c30.91,30.909,55.176,66.9,72.125,106.973
		c17.546,41.483,26.442,85.554,26.442,130.99c0,45.436-8.896,89.507-26.442,130.989c-16.949,40.073-41.216,76.063-72.125,106.973
		c-30.909,30.91-66.9,55.176-106.973,72.125C741.485,881.112,697.414,890.008,651.978,890.008L651.978,890.008z"/>
	<polygon fill="#ABD9F3" points="242.512,565.743 202.496,565.743 222.504,528.326 	"/>
	<polygon fill="#146CB3" points="422.67,887.293 425.335,885.258 420.459,881.488 418.548,886.088 	"/>
	<polygon fill="#4A8DC7" points="881.938,898.216 873.705,892.317 885.337,890.003 887.414,895.819 	"/>
	<polygon fill="#146CB3" points="426.062,896.099 424.021,897.476 420.739,893.128 427.796,891.601 	"/>
</g>
</svg>
