<?xml version="1.0" encoding="UTF-8"?>
<svg id="Layer_1" data-name="Layer 1" xmlns="http://www.w3.org/2000/svg" xmlns:xlink="http://www.w3.org/1999/xlink" viewBox="0 0 256 256">
  <defs>
    <style>
      .cls-1 {
        clip-path: url(#clippath);
      }

      .cls-2 {
        fill: #fff;
      }

      .cls-3 {
        fill: #323133;
      }

      .cls-4 {
        fill: #dcdcdc;
      }

      .cls-5 {
        fill: #221f20;
      }

      .cls-6 {
        fill: #555;
      }

      .cls-7 {
        clip-path: url(#clippath-1);
      }

      .cls-8 {
        clip-path: url(#clippath-2);
      }
    </style>
    <clipPath id="clippath">
      <path class="cls-2" d="M100.8,50.88s-3.25-.87-5.23-2.21-3.08-3.49-3.08-3.49c0,0-.76,1.45,0,2.85s2.09,2.85,2.09,2.85c0,0-6.74-2.26-5.87-9.76,1.19-10.3,9.53-15.17,9.53-15.17,0,0-8.78,.23-15.17,4.77-6.39,4.53-7.9,7.38-8.95,12.15-1.05,4.77,2.38,9.18,6.74,11.45,4.36,2.27,14.65,4.59,14.65,4.59l5.29-8.02Z"/>
    </clipPath>
    <clipPath id="clippath-1">
      <path class="cls-2" d="M154.48,50.88s3.25-.87,5.23-2.21,3.08-3.49,3.08-3.49c0,0,.76,1.45,0,2.85s-2.09,2.85-2.09,2.85c0,0,6.74-2.26,5.87-9.76-1.19-10.3-9.53-15.17-9.53-15.17,0,0,8.78,.23,15.17,4.77,6.39,4.53,7.9,7.38,8.95,12.15,1.05,4.77-2.38,9.18-6.74,11.45s-14.65,4.59-14.65,4.59l-5.29-8.02Z"/>
    </clipPath>
    <clipPath id="clippath-2">
      <path class="cls-3" d="M237.71,98.69c-5.53-21.98-9.66-21.35-9.66-21.35,0,0,1.65,33.48-14.29,32.89-6.79-.25-12.51-2.64-16.85-5.29-14.83-14.18-19.16-13.25-19.16-13.25H78.95s-4.47,2.04-10.33,5.82l-.06-.21s-.17,.21-.5,.57c-3.43,2.24-7.28,5.06-10.97,8.39-3.98,2.09-8.89,3.77-14.53,3.98-15.94,.59-14.29-32.89-14.29-32.89,0,0-4.13-.63-9.66,21.35-5.53,21.98,.22,41.38,9.91,54.22,9.7,12.84,34.58,18.25,46.57,17.73,.12,0,.23,0,.34-.01,.01,0,.03,0,.04,.01,.03,0,.06,0,.09-.02,2.56-.06,4.7,.3,6.48,.89,2.7,1.25,5.28,3.49,7.63,6.32,.26,.51,.37,.82,.37,.82l-.14-.54c7.25,8.87,12.39,23.15,12.93,30.16h50.76c.52-6.74,5.71-20.84,12.85-30.24l-.17,.63s.15-.42,.5-1.06c1.21-1.55,2.46-2.97,3.77-4.19,2.3-1.64,5.72-2.98,10.68-2.77,11.99,.52,36.87-4.89,46.57-17.73,9.7-12.84,15.44-32.24,9.91-54.22Z"/>
    </clipPath>
  </defs>
  <path class="cls-2" d="M218.45,155.61c3.22,1.3,6.44,2.62,9.75,3.69,.57,.17,1.43,.37,2.02,.52,0,0,4.06,.99,4.06,.99-1.45-.28-4.78-.84-6.17-1.15-2.04-.51-4.03-1.16-6.03-1.8-1.33-.43-2.65-.87-3.97-1.32l.35-.92h0Z"/>
  <g>
    <g>
      <path class="cls-3" d="M174.84,197.45s-2.01,2.01-3.92,3.05-2.4,1.27-3.61,.7-2.37-4.25-4.02-5.3c-1.65-1.05-3.19-1.45-5.05-.27s-2.84,2.35-2.84,2.35l-.48-5.18s1.68-1.27,3.62-2.37,3.77-1.01,4.96,.28,2.17,3.97,3.28,5.29,1.74,1.87,3.1,1.83,4.21-1.7,4.21-1.7l.74,1.32Z"/>
      <path d="M173.61,196.78c.51,1.35,1.47,1.61,3.55,.79s4.05-2,4.2-3.1,.07-1.31,.07-1.31c0,0-.5,1.53-1.33,1.39s-.15-1.45,.01-1.75,1.17-1.34,2.87-1.66,2.95,.04,4.4-.23,2.01-1.29,2.01-1.29c0,0-1.24,.3-2.02,.28s-1.16-.04-1.2-.34,1.93-.52,3.09-1.14,2.36-1.34,3.33-2.88,.98-3.33,.98-3.33c0,0-1.04,2.11-2.69,3.26s-2.98,1.75-3.71,1.34,1.24-.84,2.18-2.28c.95-1.45,.75-2.53,.75-2.53,0,0-.64,1.64-2.8,2.43-1.82,.67-4.16,.56-5.28,.66s-1.38,.02-1.44-.3,.47-.72,.99-.85,.7-.1,.7-.1c0,0-.96-.97-2.6-.22-1.64,.75-2.6,2.2-3.25,3.25s-.99,2.57-1.27,2.48-.63-.48-.59-1.04,.39-1.2,.39-1.2c0,0-1.16,.28-1.65,2.35s-.7,2.98-.43,4.65,.74,2.68,.74,2.68Z"/>
    </g>
    <g>
      <path d="M91.69,64.11s-6.82-.19-14.59-4.64c-7.77-4.45-9.76-8.62-7.77-14.31,1.99-5.69,3.99-10.57,12.35-15.32,8.26-4.69,22.72-6.29,22.72-6.29,0,0-5.91,4.66-8.46,8.96-2.51,4.23-4.81,8.76,1.45,13.41,6.25,4.64,14.12,2.08,14.12,2.08l-19.81,16.11Z"/>
      <g>
        <path class="cls-2" d="M100.8,50.88s-3.25-.87-5.23-2.21-3.08-3.49-3.08-3.49c0,0-.76,1.45,0,2.85s2.09,2.85,2.09,2.85c0,0-6.74-2.26-5.87-9.76,1.19-10.3,9.53-15.17,9.53-15.17,0,0-8.78,.23-15.17,4.77-6.39,4.53-7.9,7.38-8.95,12.15-1.05,4.77,2.38,9.18,6.74,11.45,4.36,2.27,14.65,4.59,14.65,4.59l5.29-8.02Z"/>
        <g class="cls-1">
          <path class="cls-4" d="M96.33,61.69l-17.67-7.09-6.68-8.43,1.51-1.86s.64,3.08,7.26,6.63c6.63,3.55,13.13,3.43,13.13,3.43,0,0-7.61-2.62-10.98-7.38-3.37-4.77,1.51-10.11,1.51-10.11,0,0-2.03,6.28,1.45,9.53s6.39,4.71,6.39,4.71c0,0-3.72-3.49-4.18-6.8-.46-3.31,3.84-7.44,3.84-7.44l-.52,10.52,1.98,2.57,1.21,.92s3.4,1.4,6.09,1.77-4.35,9.04-4.35,9.04Z"/>
        </g>
      </g>
    </g>
    <g>
      <path d="M163.59,64.11s6.82-.19,14.59-4.64,9.76-8.62,7.77-14.31-3.99-10.57-12.35-15.32-22.72-6.29-22.72-6.29c0,0,5.91,4.66,8.46,8.96,2.51,4.23,4.81,8.76-1.45,13.41-6.25,4.64-14.12,2.08-14.12,2.08l19.81,16.11Z"/>
      <g>
        <path class="cls-2" d="M154.48,50.88s3.25-.87,5.23-2.21,3.08-3.49,3.08-3.49c0,0,.76,1.45,0,2.85s-2.09,2.85-2.09,2.85c0,0,6.74-2.26,5.87-9.76-1.19-10.3-9.53-15.17-9.53-15.17,0,0,8.78,.23,15.17,4.77,6.39,4.53,7.9,7.38,8.95,12.15,1.05,4.77-2.38,9.18-6.74,11.45s-14.65,4.59-14.65,4.59l-5.29-8.02Z"/>
        <g class="cls-7">
          <path class="cls-4" d="M158.96,61.69l17.67-7.09,6.68-8.43-1.51-1.86s-.64,3.08-7.26,6.63c-6.63,3.55-13.13,3.43-13.13,3.43,0,0,7.61-2.62,10.98-7.38s-1.51-10.11-1.51-10.11c0,0,2.03,6.28-1.45,9.53s-6.39,4.71-6.39,4.71c0,0,3.72-3.49,4.18-6.8s-3.84-7.44-3.84-7.44l.52,10.52-1.98,2.57-1.21,.92s-3.4,1.4-6.09,1.77,4.35,9.04,4.35,9.04Z"/>
        </g>
      </g>
    </g>
    <g>
      <path class="cls-3" d="M237.71,98.69c-5.53-21.98-9.66-21.35-9.66-21.35,0,0,1.65,33.48-14.29,32.89-6.79-.25-12.51-2.64-16.85-5.29-14.83-14.18-19.16-13.25-19.16-13.25H78.95s-4.47,2.04-10.33,5.82l-.06-.21s-.17,.21-.5,.57c-3.43,2.24-7.28,5.06-10.97,8.39-3.98,2.09-8.89,3.77-14.53,3.98-15.94,.59-14.29-32.89-14.29-32.89,0,0-4.13-.63-9.66,21.35-5.53,21.98,.22,41.38,9.91,54.22,9.7,12.84,34.58,18.25,46.57,17.73,.12,0,.23,0,.34-.01,.01,0,.03,0,.04,.01,.03,0,.06,0,.09-.02,2.56-.06,4.7,.3,6.48,.89,2.7,1.25,5.28,3.49,7.63,6.32,.26,.51,.37,.82,.37,.82l-.14-.54c7.25,8.87,12.39,23.15,12.93,30.16h50.76c.52-6.74,5.71-20.84,12.85-30.24l-.17,.63s.15-.42,.5-1.06c1.21-1.55,2.46-2.97,3.77-4.19,2.3-1.64,5.72-2.98,10.68-2.77,11.99,.52,36.87-4.89,46.57-17.73,9.7-12.84,15.44-32.24,9.91-54.22Z"/>
      <g class="cls-8">
        <path class="cls-6" d="M228.06,77.34s9.85,23.14,7.36,42.53c-2.49,19.39-10.24,28.69-27.84,37.44-17.6,8.74-25.56,2.2-38.26,9.85-12.7,7.65-24.25,43.27-24.25,43.27l16.64-7.73,81.41-1.2,13.92-125.26-28.99,1.1Z"/>
        <path class="cls-6" d="M28.51,77.34s-9.85,23.14-7.36,42.53,10.24,28.69,27.84,37.44c17.6,8.74,25.56,2.2,38.26,9.85,12.7,7.65,24.25,43.27,24.25,43.27l-16.64-7.73-81.41-1.2L-.48,76.25l28.99,1.1Z"/>
      </g>
    </g>
    <g>
      <ellipse cx="128.36" cy="118.23" rx="59.41" ry="47.43"/>
      <ellipse class="cls-3" cx="128.36" cy="73.78" rx="37.92" ry="33.96"/>
      <ellipse class="cls-3" cx="128.36" cy="112.25" rx="53.72" ry="44.47"/>
      <g>
        <ellipse class="cls-6" cx="128.36" cy="124.2" rx="43.64" ry="32.51"/>
        <g>
          <ellipse class="cls-6" cx="135.87" cy="106.02" rx="19.9" ry="17.65"/>
          <ellipse class="cls-6" cx="120.85" cy="106.02" rx="19.9" ry="17.65"/>
        </g>
      </g>
      <g>
        <ellipse cx="150.09" cy="126.29" rx="10.96" ry="7.59" transform="translate(-31.03 201.6) rotate(-62.66)"/>
        <ellipse cx="106.63" cy="126.29" rx="7.59" ry="10.96" transform="translate(-46.1 63.09) rotate(-27.34)"/>
      </g>
      <path class="cls-3" d="M126.81,41.43c-.1-1.57,1.43-2.95,3.42-3.08,.99-.06,1.9,.2,2.58,.66-.46-1.31-2.38-2.21-4.61-2.06-2.51,.16-4.46,1.56-4.36,3.14,.08,1.28,1.5,2.28,3.39,2.52-.24-.35-.39-.75-.42-1.18Z"/>
      <g>
        <g>
          <ellipse class="cls-3" cx="175.19" cy="73.19" rx="4.33" ry="10.74" transform="translate(69.31 230.78) rotate(-78.78)"/>
          <ellipse cx="175.03" cy="74.15" rx="3.36" ry="10.02" transform="translate(68.24 231.41) rotate(-78.78)"/>
        </g>
        <g>
          <ellipse class="cls-3" cx="81.53" cy="73.19" rx="10.74" ry="4.33" transform="translate(-12.69 17.27) rotate(-11.22)"/>
          <ellipse cx="81.68" cy="74.15" rx="10.02" ry="3.36" transform="translate(-12.87 17.31) rotate(-11.22)"/>
        </g>
      </g>
    </g>
    <g>
      <circle class="cls-2" cx="128.32" cy="174.18" r="13.56"/>
      <g>
        <path class="cls-5" d="M128.44,169.07l3.48,8.59-5.26-4.14,1.78-4.45h0Zm6.18,10.57l-5.35-12.88c-.15-.37-.46-.57-.83-.57s-.7,.2-.85,.57l-5.87,14.13h2.01l2.33-5.82,6.94,5.61c.28,.23,.48,.33,.74,.33,.52,0,.98-.39,.98-.96,0-.09-.03-.24-.09-.4h0Z"/>
        <path class="cls-5" d="M128.22,161.03c-7.25,0-13.15,5.9-13.15,13.15s5.9,13.15,13.15,13.15,13.15-5.9,13.15-13.15-5.9-13.15-13.15-13.15h0Zm0,26.89c-7.58,0-13.74-6.16-13.74-13.74s6.16-13.74,13.74-13.74,13.74,6.16,13.74,13.74-6.16,13.74-13.74,13.74h0Z"/>
      </g>
    </g>
    <ellipse class="cls-6" cx="148.19" cy="218.38" rx="13.11" ry="33.81" transform="translate(-91.5 328.84) rotate(-80.58)"/>
    <ellipse class="cls-3" cx="140.3" cy="216.88" rx="11.59" ry="33.81" transform="translate(-96.62 319.8) rotate(-80.58)"/>
    <path class="cls-6" d="M139.98,212.85c.72,4.36-4.2,9.14-12.34,12.9-5.19,2.4-11.69,4.38-18.87,5.57-18.42,3.06-34.31-.26-35.5-7.4-1.19-7.14,12.79-15.41,31.21-18.47,18.42-3.06,34.31,.26,35.5,7.4Z"/>
    <path class="cls-3" d="M139.45,213.06c.61,3.71-3.96,7.84-11.48,11.13-4.8,2.1-10.79,3.86-17.4,4.96-16.96,2.81-31.53,.17-32.53-5.9-1.01-6.07,11.92-13.28,28.88-16.09,16.96-2.81,31.53-.17,32.53,5.9Z"/>
    <polygon points="145.07 215.92 127.41 225.86 128.78 226.44 145.07 215.92"/>
    <polygon class="cls-3" points="146.96 204.88 140.55 213.32 132.88 214.66 123.93 213.06 114.62 210.43 114.62 202.7 145.31 203.61 146.96 204.88"/>
    <g>
      <path d="M143.08,219.1c.48,1.56,3.54,2.67,6.68,2.78s10.06-.23,10.36-.36,1.52-1.3,1.59-2.53-3.28-5.21-3.28-5.21c0,0,1.67-1.64-.25-5.79-1.92-4.15-3.89-4.36-5.02-4.9-1.13-.54-1.84-.37-2.1-.26s-7.27,3.49-7.97,3.8-4.96,2.99-3.79,5.6,6.22,1.07,7.02,.87,3.2-1.12,3.44-.71-1.62,1.04-3.24,2.08-4.02,2.78-3.45,4.63Z"/>
      <polygon class="cls-2" points="141.55 209.75 151.8 204 154.69 205.37 141.55 209.75"/>
    </g>
    <path d="M141.55,213.66s-7.35,1.63-12.78,2.71c-5.44,1.08-15.74,2.01-15.74,2.01,0,0,10.16-1.71,14.99-2.8,4.83-1.09,13.85-3.28,13.85-3.28l-.32,1.37Z"/>
    <g>
      <path d="M116.03,216.4c-.45,1.57-3.5,2.73-6.63,2.89s-10.06-.05-10.37-.18-1.54-1.27-1.63-2.51,3.19-5.27,3.19-5.27c0,0-1.69-1.61,.15-5.79,1.84-4.18,3.81-4.43,4.93-4.98s1.83-.41,2.09-.29,7.33,3.36,8.03,3.66,5.01,2.91,3.88,5.53c-1.13,2.63-6.2,1.18-7,.99s-3.22-1.07-3.45-.65,1.64,1.01,3.28,2.03,4.07,2.71,3.53,4.57Z"/>
      <polygon class="cls-2" points="99.79 218.35 98.38 216.47 113.77 217.17 99.79 218.35"/>
    </g>
    <path d="M115.53,210.98l5.32,1.53c1.82,.52,3.67,.94,5.54,1.24l5.63,.91,.78-.18-6.97-1.27c-1.41-.26-2.81-.6-4.18-1.01l-5.78-1.76-.34,.54Z"/>
    <g>
      <path class="cls-6" d="M153.44,78.33s.44-4.47,0-6.69-3.07-4.36-5.06-5.54-3.03-1.37-3.03-1.37c0,0,2.82,2,4.14,3.36s2.17,2.33,2.03,5.17-.63,6.06-.63,6.06l2.55-1Z"/>
      <path d="M147.42,78.95c-5.47,0-10.18-2.24-12.3-5.46,.93,4.33,5.51,7.61,11.02,7.61,3.76,0,7.09-1.54,9.12-3.89-2.21,1.09-4.92,1.73-7.84,1.73Z"/>
    </g>
    <g>
      <path class="cls-6" d="M103.22,78.33s-.44-4.47,0-6.69,3.07-4.36,5.06-5.54,3.03-1.37,3.03-1.37c0,0-2.82,2-4.14,3.36s-2.17,2.33-2.03,5.17,.63,6.06,.63,6.06l-2.55-1Z"/>
      <path d="M109.23,78.95c5.47,0,10.18-2.24,12.3-5.46-.93,4.33-5.51,7.61-11.02,7.61-3.76,0-7.09-1.54-9.12-3.89,2.21,1.09,4.92,1.73,7.84,1.73Z"/>
    </g>
    <g>
      <path d="M230.74,80.04s.14,8.09,3.47,8.66,10.54-7.51,12.85-13.57,.29-5.78-2.17-8.52c-2.45-2.74-7.79-6.83-10.67-8.56-2.89-1.73-4.39-.97-3.38-.39s8.21,6.81,6.76,9.84c-1.44,3.03-3.39,3.3-6.28,3.3s-5.19-6.21-5.05-8.52c.28-4.88,3.03-6.79,2.17-6.93s-3.24,.38-4.4,5.86c-1.16,5.49-2.47,11.89-1.17,15.65,1.3,3.75,.8,5.35,3.12,5.06s4.77-1.88,4.77-1.88Z"/>
      <polygon class="cls-2" points="243.46 68.16 246.2 71.67 235.67 86.54 236.59 80.16 243.46 68.16"/>
    </g>
    <g>
      <path d="M25.26,80.04s-.14,8.09-3.47,8.66-10.54-7.51-12.85-13.57c-2.31-6.07-.29-5.78,2.17-8.52,2.45-2.74,7.79-6.83,10.67-8.56,2.89-1.73,4.39-.97,3.38-.39s-8.21,6.81-6.76,9.84c1.44,3.03,3.39,3.3,6.28,3.3s5.19-6.21,5.05-8.52c-.28-4.88-3.03-6.79-2.17-6.93s3.24,.38,4.4,5.86,2.47,11.89,1.17,15.65-.8,5.35-3.12,5.06-4.77-1.88-4.77-1.88Z"/>
      <polygon class="cls-2" points="12.54 68.16 9.8 71.67 20.33 86.54 19.41 80.16 12.54 68.16"/>
    </g>
    <polygon class="cls-3" points="117.95 227.59 135.09 221.53 141.88 216.06 140.69 213.85 138.79 214.27 117.95 227.59"/>
  </g>
</svg>