<svg id="Layer_1" data-name="Layer 1" xmlns="http://www.w3.org/2000/svg" viewBox="0 0 231.61 233.37"><defs><style>.cls-1{fill:#f9eda8;}.cls-2{fill:#fdbc48;}.cls-3{fill:#fff8ef;}.cls-4{fill:#a5ce39;}.cls-5{fill:#441e0d;}.cls-6,.cls-7,.cls-8,.cls-9{fill:none;stroke:#401f0f;stroke-miterlimit:10;}.cls-6,.cls-9{stroke-linecap:round;}.cls-6,.cls-7{stroke-width:3.3px;}.cls-8{stroke-width:1.65px;}.cls-9{stroke-width:2.75px;}.cls-10{fill:#9e7662;}.cls-11{fill:#d3d1ce;}.cls-12{fill:#dc8927;}</style></defs><polygon class="cls-1" points="152.52 124.44 152.52 54.67 92.1 19.78 31.68 54.67 31.68 124.44 92.1 159.32 152.52 124.44"/><polygon class="cls-1" points="200.31 180.29 200.31 146.34 170.9 129.36 141.5 146.34 141.5 180.29 170.9 197.27 200.31 180.29"/><polygon class="cls-1" points="209.66 60.64 209.66 38.43 190.42 27.32 171.18 38.43 171.18 60.64 190.42 71.75 209.66 60.64"/><path class="cls-2" d="M164.41,181.87c-2,1.53-4.06,3-6.19,4.3a55.87,55.87,0,0,1-20.86,8.16,6.61,6.61,0,0,0-6.45-5.43c2.39-4,2.8-9,2.19-14.44-.06-.55-.13-1.09-.22-1.64C132.88,172.82,151.25,163.46,164.41,181.87Z" transform="translate(-14.19 -15.53)"/><path class="cls-3" d="M67.64,83c0,1.22-.83,3.3-2.2,3.3S61,85.87,61,84.65s2.76-3.85,4.13-3.85A2.35,2.35,0,0,1,67.64,83Z" transform="translate(-14.19 -15.53)"/><path class="cls-4" d="M243.75,145.06a3,3,0,1,1-4.06-1.08A3,3,0,0,1,243.75,145.06Z" transform="translate(-14.19 -15.53)"/><circle class="cls-4" cx="190.41" cy="95.03" r="2.97"/><path class="cls-3" d="M203.16,39.65a35.38,35.38,0,0,1,1.57,13.73,41.92,41.92,0,0,1-.65,5.56l-.11,0c-8.11-5.52-33.55,1.1-33.55,1.1l-.17-.19C182.74,48.88,196,39.16,203.16,39.65Z" transform="translate(-14.19 -15.53)"/><path class="cls-3" d="M204,58.92l.11,0a24.07,24.07,0,0,1-3.38,8.79,29.27,29.27,0,0,1-7.62,7.43c-13,9.26-28.8,13.22-44.39,16.69-1.47.24-2.93.52-4.38.8l-3.18.61a14.35,14.35,0,0,0-1.71-3.91l.75-.18s6.35-6.88,15.19-15.5h0c4.5-4.39,9.63-9.22,14.89-13.84l.17.19S195.86,53.4,204,58.92Z" transform="translate(-14.19 -15.53)"/><path class="cls-3" d="M203.15,39.63v0c-7.19-.49-20.42,9.23-32.91,20.18-5.26,4.62-10.39,9.45-14.89,13.84.07-.36,2.92-14.89,2.66-18.1,1.92-2.51,3.83-5,5.7-7.56.11-.16.22-.31.34-.46.51-.71,1-1.42,1.56-2.12,4.45-6,9.12-12.06,15.58-15.78a15.06,15.06,0,0,1,8.1-2.33A12.38,12.38,0,0,1,194.65,29,19.54,19.54,0,0,1,203.15,39.63Z" transform="translate(-14.19 -15.53)"/><path class="cls-2" d="M148.69,91.85a47.66,47.66,0,0,1,6.73-.68,33.74,33.74,0,0,1,28,14.46,40.32,40.32,0,0,1,5.65,13.06,51,51,0,0,1,1.34,7.92c-34.12-29.17-61.78-6.69-61.78-6.69h0a26.36,26.36,0,0,1,2.74-3.93l-.05-.11.21-.11a20.31,20.31,0,0,0,9.13-11.47,19.4,19.4,0,0,0,.47-11l3.18-.61C145.76,92.37,147.22,92.09,148.69,91.85Z" transform="translate(-14.19 -15.53)"/><path class="cls-2" d="M188.73,146.32a60.44,60.44,0,0,1-4,11,66.47,66.47,0,0,1-8.1,12.71C154.13,142,129,158.82,129,158.82c-.95-2.79-1.89-5.59-2.66-8.42a52,52,0,0,1-1.82-14.65h0S157.53,114.92,188.73,146.32Z" transform="translate(-14.19 -15.53)"/><path class="cls-3" d="M150.07,44.76c5.81-10.95,12.36-19.73,18.47-19.93l.12.07c6,3.77,9.36,11.66,7.27,18.45a27,27,0,0,1-3.23,6.42l.07.06c-.52.7-1.05,1.41-1.56,2.12l-.24-.18c-10.45-2.2-30.28,13.56-30.28,13.56h0A220.22,220.22,0,0,1,150.07,44.76Z" transform="translate(-14.19 -15.53)"/><path class="cls-3" d="M171.21,52c-.12.15-.23.3-.34.46-1.87,2.53-3.78,5.05-5.7,7.56-7.43,9.76-14.93,19.49-20.58,30.34l-1.17.11c-3.69-2.59-8.87-3.14-12.45-.46.24-.69.45-1.4.64-2.12l.86.23s3.25-10.38,8.21-22.74h0S160.52,49.57,171,51.77Z" transform="translate(-14.19 -15.53)"/><path class="cls-3" d="M158,55.57c.26,3.21-2.59,17.74-2.66,18.1h0c-8.84,8.62-15.19,15.5-15.19,15.5l-.75.18a9.26,9.26,0,0,0-.73-1A11.19,11.19,0,0,0,136.27,86l1.17-.11C143.09,75.06,150.59,65.33,158,55.57Z" transform="translate(-14.19 -15.53)"/><path class="cls-3" d="M154.42,22.63a19.34,19.34,0,0,1,14.12,2.2c-6.11.2-12.66,9-18.47,19.93.11-.52,2.63-12.95-2.75-16.95h-1.16A13.35,13.35,0,0,1,154.42,22.63Z" transform="translate(-14.19 -15.53)"/><path class="cls-3" d="M147.32,27.81c5.38,4,2.86,16.43,2.75,17a220.22,220.22,0,0,0-9.39,20.57c-5,12.36-8.21,22.74-8.21,22.74l-.86-.23c.54-2-.86-3.83-.72-5.94.22-3.15,1.68-6.67.67-9.65l.36-.13c2.48-13.45,5.37-28.15,11.72-40.27a27.89,27.89,0,0,1,2.52-4Z" transform="translate(-14.19 -15.53)"/><path class="cls-2" d="M141.13,93.26a19.4,19.4,0,0,1-.47,11,20.31,20.31,0,0,1-9.13,11.47l-.21.11a15.4,15.4,0,0,1-14.19.32c-4.42-2.35-7.34-7.51-6.57-12.45l-.39-.54A37.28,37.28,0,0,0,122,89.88a31.57,31.57,0,0,0,1.82-4.32c3.58-2.68,8.76-2.13,12.45.46a11.19,11.19,0,0,1,2.42,2.29,9.26,9.26,0,0,1,.73,1A14.35,14.35,0,0,1,141.13,93.26Z" transform="translate(-14.19 -15.53)"/><path class="cls-2" d="M101.8,56.54c7.64-.52,16.54,1,20.69,7.32a16.49,16.49,0,0,1,1.92,4,24.34,24.34,0,0,1,1.08,9.38,33.41,33.41,0,0,1-1,6.21c-.19.72-.4,1.43-.64,2.12A31.57,31.57,0,0,1,122,89.88a37.28,37.28,0,0,1-11.83,13.32,42.7,42.7,0,0,1-5.22,3.17,62.76,62.76,0,0,1-23.1,6.33c-1.65.16-3.46.35-4.59,1.56-.64.67-1,1.64-1.9,2-1.32.52-2.61-.78-3.38-2A36.66,36.66,0,0,1,66.81,101a39.46,39.46,0,0,1,0-14h0a36.56,36.56,0,0,1,5.66-14.08A35.77,35.77,0,0,1,79.86,65a39.4,39.4,0,0,1,16.82-7.76A41,41,0,0,1,101.8,56.54ZM106,81.19h0a6.16,6.16,0,0,0-1.87,0h0c-2.79.46-5.39,2.63-7.22,5A48,48,0,0,0,90,99.72c-1.92,5.39,3.07,5.64,7.6,4.92,4.73-.75,9.42-2.88,12.34-6.68s3.69-9.42,1-13.42a7.47,7.47,0,0,0-4.12-3.19A5.8,5.8,0,0,0,106,81.19Z" transform="translate(-14.19 -15.53)"/><path class="cls-3" d="M111,84.54c2.64,4,1.87,9.63-1,13.42s-7.61,5.93-12.34,6.68c-4.53.72-9.52.47-7.6-4.92a48,48,0,0,1,6.94-13.54c1.83-2.33,4.43-4.5,7.22-5h0c.12,0,.84,0,1.87,0h0a5.8,5.8,0,0,1,.81.16A7.47,7.47,0,0,1,111,84.54Zm-2.7,9.3a6.88,6.88,0,1,0-6.88,6.88A6.88,6.88,0,0,0,108.27,93.84Z" transform="translate(-14.19 -15.53)"/><circle class="cls-4" cx="92.51" cy="189.63" r="2.97"/><path class="cls-5" d="M101.39,87a6.88,6.88,0,1,1-6.87,6.87A6.88,6.88,0,0,1,101.39,87Zm5.23,4.12a2.48,2.48,0,0,0-5,0c0,1.37,1.11.83,2.47.83S106.62,92.46,106.62,91.09Z" transform="translate(-14.19 -15.53)"/><path class="cls-3" d="M81.23,32.63a2.94,2.94,0,1,1,0-.39A2.47,2.47,0,0,1,81.23,32.63Z" transform="translate(-14.19 -15.53)"/><path class="cls-3" d="M66.81,101l-.23,0a8.19,8.19,0,0,1-7-5,10.81,10.81,0,0,1-.88-4.13c.33,1.28,1.79,5.39,6.57,3.56l.95,0A40,40,0,0,0,66.81,101Z" transform="translate(-14.19 -15.53)"/><path class="cls-3" d="M57,47.36a2.89,2.89,0,1,1,0-.27A1.14,1.14,0,0,1,57,47.36Z" transform="translate(-14.19 -15.53)"/><path class="cls-4" d="M20.29,51.75a3,3,0,1,1-4.06,1.09A3,3,0,0,1,20.29,51.75Z" transform="translate(-14.19 -15.53)"/><polyline class="cls-6" points="44.5 47.03 31.52 54.53 31.52 124.8 92.38 159.94 105.38 152.43"/><line class="cls-7" x1="30.97" y1="124.92" x2="8.11" y2="138.12"/><line class="cls-7" x1="30.97" y1="54.01" x2="8.11" y2="40.81"/><path class="cls-7" d="M17.32,56.9a3,3,0,1,0-1.09-4.06A3,3,0,0,0,17.32,56.9Z" transform="translate(-14.19 -15.53)"/><path class="cls-7" d="M106,81.19a6.16,6.16,0,0,0-1.87,0" transform="translate(-14.19 -15.53)"/><path class="cls-7" d="M67.15,81.22c-1.27-1-3.17-.36-4.41.67a10.43,10.43,0,0,0-2.8,3.88,13.54,13.54,0,0,0-.53,1.38,14.45,14.45,0,0,0-.72,4.75A10.81,10.81,0,0,0,59.57,96a8.19,8.19,0,0,0,7,5" transform="translate(-14.19 -15.53)"/><circle class="cls-7" cx="87.2" cy="78.31" r="6.88"/><circle class="cls-8" cx="89.95" cy="74.46" r="2.47"/><path class="cls-7" d="M81.26,32.24a2.47,2.47,0,0,1,0,.39,2.94,2.94,0,1,1,0-.39Z" transform="translate(-14.19 -15.53)"/><path class="cls-7" d="M57.06,47.09a1.14,1.14,0,0,1,0,.27,2.89,2.89,0,1,1,0-.27Z" transform="translate(-14.19 -15.53)"/><path class="cls-7" d="M79.86,65S75.88,47.12,57,47.36h-.47" transform="translate(-14.19 -15.53)"/><path class="cls-7" d="M140.17,89.17s6.35-6.88,15.19-15.5" transform="translate(-14.19 -15.53)"/><path class="cls-7" d="M155.36,73.67h0c.07-.36,2.92-14.89,2.66-18.1" transform="translate(-14.19 -15.53)"/><path class="cls-6" d="M69.55,29.08s1.19-7,8.24-5.86" transform="translate(-14.19 -15.53)"/><path class="cls-6" d="M64.12,28.16s1.48-12,14.68-10.9" transform="translate(-14.19 -15.53)"/><path class="cls-6" d="M45.41,44.07s1.19-7,8.24-5.85" transform="translate(-14.19 -15.53)"/><path class="cls-6" d="M40,43.15s1.48-12,14.68-10.9" transform="translate(-14.19 -15.53)"/><polyline class="cls-6" points="183.44 67.52 190.41 71.54 190.73 71.73 210.06 60.56 210.06 38.24 198.61 31.63"/><polyline class="cls-6" points="143.07 181.23 171.13 197.44 200.64 180.4 200.64 146.32 181.68 135.38"/><circle class="cls-7" cx="92.51" cy="189.63" r="2.97"/><circle class="cls-4" cx="5.06" cy="140.13" r="2.97"/><circle class="cls-7" cx="5.06" cy="140.13" r="2.97"/><line class="cls-7" x1="92.51" y1="160.42" x2="92.51" y2="185.72"/><circle class="cls-7" cx="190.41" cy="95.03" r="2.97"/><polyline class="cls-7" points="190.41 71.32 190.41 71.54 190.41 91.12"/><line class="cls-7" x1="200.64" y1="146.23" x2="223.5" y2="133.03"/><path class="cls-7" d="M242.66,149.12a3,3,0,1,1,1.09-4.06A3,3,0,0,1,242.66,149.12Z" transform="translate(-14.19 -15.53)"/><path class="cls-1" d="M68.19,108.85,75.34,116s-19.8-41.25,28.6-59.4h-2.2l-16,4.53-5.31,4c-1.1.82-2.21,1.63-3.3,2.48a20,20,0,0,0-3.63,4.24c-3.12,4.49-4.74,9.84-6,15.1S65.24,98,66.8,103.35s5.34,9.45,9,13.47" transform="translate(-14.19 -15.53)"/><path class="cls-5" d="M66.67,87l.14,0a39.71,39.71,0,0,0-.6,8.43l-.95,0c-4.78,1.83-6.24-2.28-6.57-3.56a14.45,14.45,0,0,1,.72-4.75,13.54,13.54,0,0,1,.53-1.38C60.8,85.06,64.07,82.8,66.67,87Z" transform="translate(-14.19 -15.53)"/><path class="cls-9" d="M58.61,91.53a3.71,3.71,0,0,0,.08.37c.33,1.28,1.79,5.39,6.57,3.56" transform="translate(-14.19 -15.53)"/><path class="cls-6" d="M101.12,65a32.76,32.76,0,0,0,.68-8.43c-.38-8.2-4-20-20.57-23.91-.15,0,.8-.08.64-.11" transform="translate(-14.19 -15.53)"/><path class="cls-1" d="M111.17,110.62c1.26,3.65,5,6,8.83,6.6s5.5-.32,9.18-1.5a13.19,13.19,0,0,1-11.72-4.57,16.32,16.32,0,0,1-3.59-12.25c-1.56,1.15-2.06,2.39-2.78,4.27A12.38,12.38,0,0,0,111.17,110.62Z" transform="translate(-14.19 -15.53)"/><path id="tail_shadow" data-name="tail shadow" class="cls-10" d="M130.89,123.15s-5.5,13.2,3.3,36.85-2.75,30.25-2.75,30.25l1.65,1.1s13.2-7.15,6.6-33-1.1-35.2-1.1-35.2Z" transform="translate(-14.19 -15.53)"/><path id="tail_shadow-2" data-name="tail shadow" class="cls-1" d="M130.89,123.15s-5.5,13.2,3.3,36.85-2.75,30.25-2.75,30.25l1.65,1.1s13.2-7.15,6.6-33-1.1-35.2-1.1-35.2Z" transform="translate(-14.19 -15.53)"/><path class="cls-11" d="M145.65,28.57s16.44-7.82,25.87,9l3.28-3.65S162.6,11.55,145.65,28.57Z" transform="translate(-14.19 -15.53)"/><path class="cls-12" d="M142.44,94.55s45.1-6,45.1,49C187.54,143.5,200.19,81.35,142.44,94.55Z" transform="translate(-14.19 -15.53)"/><path class="cls-12" d="M123.74,87.26s11.55-2.06,16.88,11.64C140.62,98.9,141.89,77,123.74,87.26Z" transform="translate(-14.19 -15.53)"/><path class="cls-5" d="M190.42,126.61a57.74,57.74,0,0,1-1.69,19.71c-31.2-31.4-64.2-10.57-64.2-10.57h0a34,34,0,0,1,4.11-15.84h0S156.3,97.44,190.42,126.61Z" transform="translate(-14.19 -15.53)"/><path class="cls-7" d="M131.37,116a26.36,26.36,0,0,0-2.74,3.93,34,34,0,0,0-4.11,15.84,52,52,0,0,0,1.82,14.65c.77,2.83,1.71,5.63,2.66,8.42a83.92,83.92,0,0,1,3.88,14c.09.55.16,1.09.22,1.64.61,5.4.2,10.46-2.19,14.44a14.46,14.46,0,0,1-5.67,5.31,36.27,36.27,0,0,0,12.12.12,55.87,55.87,0,0,0,20.86-8.16c2.13-1.33,4.2-2.77,6.19-4.3a73.61,73.61,0,0,0,8.78-8c1.17-1.25,2.31-2.55,3.39-3.88a66.47,66.47,0,0,0,8.1-12.71,60.44,60.44,0,0,0,4-11,57.74,57.74,0,0,0,1.69-19.71,51,51,0,0,0-1.34-7.92,40.32,40.32,0,0,0-5.65-13.06,33.74,33.74,0,0,0-28-14.46,47.66,47.66,0,0,0-6.73.68c-1.47.24-2.93.52-4.38.8l-3.18.61H141" transform="translate(-14.19 -15.53)"/><path class="cls-7" d="M128.64,119.92s27.66-22.48,61.78,6.69a2.09,2.09,0,0,1,.22.2" transform="translate(-14.19 -15.53)"/><path class="cls-7" d="M124.53,135.75s33-20.83,64.2,10.57" transform="translate(-14.19 -15.53)"/><path class="cls-7" d="M129,158.82S154.13,142,176.58,170" transform="translate(-14.19 -15.53)"/><path class="cls-7" d="M132.88,172.82s18.37-9.36,31.53,9.05" transform="translate(-14.19 -15.53)"/><path class="cls-5" d="M176.58,170c-1.08,1.33-2.22,2.63-3.39,3.88a73.61,73.61,0,0,1-8.78,8c-13.16-18.41-31.53-9.05-31.53-9.05a83.92,83.92,0,0,0-3.88-14S154.13,142,176.58,170Z" transform="translate(-14.19 -15.53)"/><path class="cls-7" d="M130.91,188.9a6.61,6.61,0,0,1,6.45,5.43c0,.14.06.3.08.45" transform="translate(-14.19 -15.53)"/><path class="cls-5" d="M137.36,194.33a36.27,36.27,0,0,1-12.12-.12,14.46,14.46,0,0,0,5.67-5.31A6.61,6.61,0,0,1,137.36,194.33Z" transform="translate(-14.19 -15.53)"/><path class="cls-7" d="M123.8,85.58s0,0,0,0c3.58-2.68,8.76-2.13,12.45.46a11.19,11.19,0,0,1,2.42,2.29,9.26,9.26,0,0,1,.73,1,14.35,14.35,0,0,1,1.71,3.91,19.4,19.4,0,0,1-.47,11,20.31,20.31,0,0,1-9.13,11.47l-.21.11a15.4,15.4,0,0,1-14.19.32c-4.42-2.35-7.34-7.51-6.57-12.45a4.41,4.41,0,0,1,.09-.62" transform="translate(-14.19 -15.53)"/><path class="cls-11" d="M179.26,30.88S209.8,33,190.42,77c0,0,24.47-12.42,8.6-44.44C199,32.52,189.13,21.1,179.26,30.88Z" transform="translate(-14.19 -15.53)"/><path class="cls-7" d="M137.44,85.91c5.65-10.85,13.15-20.58,20.58-30.34,1.92-2.51,3.83-5,5.7-7.56.11-.16.22-.31.34-.46.51-.71,1-1.42,1.56-2.12,4.45-6,9.12-12.06,15.58-15.78a15.06,15.06,0,0,1,8.1-2.33A12.38,12.38,0,0,1,194.65,29a19.54,19.54,0,0,1,8.5,10.67v0a35.38,35.38,0,0,1,1.57,13.73,41.92,41.92,0,0,1-.65,5.56,24.07,24.07,0,0,1-3.38,8.79,29.27,29.27,0,0,1-7.62,7.43c-13,9.26-28.8,13.22-44.39,16.69l-2.87.64" transform="translate(-14.19 -15.53)"/><path class="cls-7" d="M155.36,73.67c4.5-4.39,9.63-9.22,14.89-13.84C182.74,48.88,196,39.16,203.16,39.65l.26,0" transform="translate(-14.19 -15.53)"/><path class="cls-7" d="M170.42,60s25.44-6.62,33.55-1.1" transform="translate(-14.19 -15.53)"/><path class="cls-7" d="M146.29,28" transform="translate(-14.19 -15.53)"/><path class="cls-7" d="M133.64,84.65s2.08-7,7-19.32a220.22,220.22,0,0,1,9.39-20.57c5.81-10.95,12.36-19.73,18.47-19.93h.23" transform="translate(-14.19 -15.53)"/><path class="cls-7" d="M150.07,44.77h0c.11-.52,2.63-12.95-2.75-16.95" transform="translate(-14.19 -15.53)"/><path class="cls-7" d="M175.33,33a17.06,17.06,0,0,0-6.67-8.09l-.12-.07a19.34,19.34,0,0,0-14.12-2.2,13.35,13.35,0,0,0-8.26,5.18,27.89,27.89,0,0,0-2.52,4C137.29,44,134.4,58.67,131.92,72.12L130,83.82" transform="translate(-14.19 -15.53)"/><path class="cls-1" d="M88,101.15S88,81.35,105,79.7C105,79.7,91.29,88,88,101.15Z" transform="translate(-14.19 -15.53)"/><path class="cls-7" d="M79.86,65a35.77,35.77,0,0,0-7.39,7.94A36.56,36.56,0,0,0,66.81,87h0a39.46,39.46,0,0,0,0,14A36.66,36.66,0,0,0,72,114.27c.77,1.19,2.06,2.49,3.38,2,.86-.34,1.26-1.31,1.9-2,1.13-1.21,2.94-1.4,4.59-1.56a62.76,62.76,0,0,0,23.1-6.33,42.7,42.7,0,0,0,5.22-3.17A37.28,37.28,0,0,0,122,89.88a31.57,31.57,0,0,0,1.82-4.32c.24-.69.45-1.4.64-2.12a33.41,33.41,0,0,0,1-6.21,24.34,24.34,0,0,0-1.08-9.38,16.49,16.49,0,0,0-1.92-4c-4.15-6.34-13-7.84-20.69-7.32a41,41,0,0,0-5.12.67A39.4,39.4,0,0,0,79.86,65Z" transform="translate(-14.19 -15.53)"/><path class="cls-7" d="M104.14,81.22c-2.79.46-5.39,2.63-7.22,5A48,48,0,0,0,90,99.72c-1.92,5.39,3.07,5.64,7.6,4.92,4.73-.75,9.42-2.88,12.34-6.68s3.69-9.42,1-13.42a7.47,7.47,0,0,0-4.12-3.19,5.8,5.8,0,0,0-.81-.16" transform="translate(-14.19 -15.53)"/><path class="cls-6" d="M104.14,81.22h0c.12,0,.84,0,1.87,0h0c2.67-.1,7.36-.5,8.9-2" transform="translate(-14.19 -15.53)"/><circle class="cls-3" cx="89.95" cy="74.46" r="1.8"/><path class="cls-3" d="M127.65,122.49s-3.29,7.43-2.31,12.87Z" transform="translate(-14.19 -15.53)"/><path class="cls-3" d="M126.77,193.25s5.1-1.12,6-4.89A11.52,11.52,0,0,1,126.77,193.25Z" transform="translate(-14.19 -15.53)"/><path class="cls-5" d="M54,242.4H49.54a.37.37,0,0,0-.37.37v5.28a.35.35,0,0,1-.36.37H44.7a.36.36,0,0,1-.36-.37l0-14.67a2,2,0,0,1,2-2l9.62,0c5.47,0,7.06,2.79,7.07,5.38a5.09,5.09,0,0,1-3.39,4.89.37.37,0,0,0-.18.55l3.83,5.63a.37.37,0,0,1-.31.57H58.38a.37.37,0,0,1-.3-.16l-3.83-5.69A.37.37,0,0,0,54,242.4Zm-4.78-3.46a.36.36,0,0,0,.36.37h5.3c2.35,0,3.05-1.18,3-2.38s-.7-2.31-3-2.3H49.52a.37.37,0,0,0-.36.37Z" transform="translate(-14.19 -15.53)"/><path class="cls-5" d="M84.17,245v1.39a2,2,0,0,1-2,2l-13.38,0a2,2,0,0,1-2-2l0-13.05a2,2,0,0,1,2-2l13.22,0a2,2,0,0,1,2,2v1.39l-12.36,0v3.43l9,0v3.16l-9,0V245Z" transform="translate(-14.19 -15.53)"/><path class="cls-5" d="M86.27,239.91c0-5.41,4.61-9.18,11.34-9.2,5.54,0,9.55,2.38,10.69,6.37l-5,.89c-.66-2.32-2.65-3.59-5.73-3.58-3.84,0-6.21,2.1-6.2,5.43s2.43,5.42,6.28,5.41c3,0,5-1.21,5.7-3.46l5,1c-1.41,3.87-5.27,6.09-10.84,6.1C90.63,248.92,86.28,245.38,86.27,239.91Z" transform="translate(-14.19 -15.53)"/><path class="cls-5" d="M128.79,244.88v1.39a2,2,0,0,1-2,2l-13.38,0a2,2,0,0,1-2-2l0-13a2,2,0,0,1,2-2l13.2,0a2,2,0,0,1,2,2v1.39l-12.36,0v3.44l9,0v3.17l-9,0v3.67Z" transform="translate(-14.19 -15.53)"/><path class="cls-5" d="M151.45,236.84c0,3.65-2.82,6-7.21,6l-6.63,0v5.4h-4.84l0-15a2,2,0,0,1,2-2l9.59,0C148.77,231.18,151.44,233.31,151.45,236.84Zm-5.09.13c0-1.63-1.16-2.54-3.2-2.53H137.6v5.16h5.54C145.19,239.59,146.37,238.63,146.36,237Z" transform="translate(-14.19 -15.53)"/><path class="cls-5" d="M171.65,234.9l-7.1,0,0,13.27h-4.85l0-13.27h-7.08v-1.77a2,2,0,0,1,2-2l15,0a2,2,0,0,1,2,2Z" transform="translate(-14.19 -15.53)"/><path class="cls-5" d="M172,239.66c0-5.53,4.47-9.11,11.41-9.12s11.43,3.55,11.45,9.07-4.5,9.1-11.41,9.12S172.06,245.15,172,239.66Zm17.77,0c0-3.29-2.56-5.49-6.35-5.49s-6.33,2.23-6.33,5.51,2.56,5.5,6.35,5.49S189.81,242.91,189.81,239.62Z" transform="translate(-14.19 -15.53)"/><path class="cls-5" d="M207.67,242.08h-5v6h-4.85l0-15a2,2,0,0,1,2-2l9.61,0c5.48,0,7.07,2.79,7.07,5.38a5.12,5.12,0,0,1-3.83,5.05l4.48,6.59h-5.45Zm-5-3.09h5.67c2.35,0,3-1.18,3-2.38s-.7-2.31-3-2.3h-5.69Z" transform="translate(-14.19 -15.53)"/></svg>