<?xml version="1.0" encoding="utf-8"?>
<!-- Generator: Adobe Illustrator 26.5.0, SVG Export Plug-In . SVG Version: 6.00 Build 0)  -->
<svg version="1.1" id="Layer_1" xmlns="http://www.w3.org/2000/svg" xmlns:xlink="http://www.w3.org/1999/xlink" x="0px" y="0px"
	 viewBox="0 0 1259.8 1516.1" enable-background="new 0 0 1259.8 1516.1" xml:space="preserve">
<circle fill="#FFFFFF" cx="620.8" cy="929.7" r="61.4"/>
<g>
	<path fill="#231F20" d="M621.4,906.6l15.8,38.9l-23.8-18.7L621.4,906.6L621.4,906.6z M649.4,954.4l-24.2-58.3
		c-0.7-1.7-2.1-2.6-3.8-2.6c-1.7,0-3.2,0.9-3.9,2.6l-26.6,64h9.1l10.5-26.4l31.4,25.4c1.3,1,2.2,1.5,3.4,1.5c2.4,0,4.4-1.8,4.4-4.3
		C649.8,955.8,649.7,955.1,649.4,954.4L649.4,954.4z"/>
	<path fill="#231F20" d="M620.4,870.2c-32.8,0-59.5,26.7-59.5,59.5c0,32.8,26.7,59.5,59.5,59.5c32.8,0,59.5-26.7,59.5-59.5
		C679.9,896.9,653.2,870.2,620.4,870.2L620.4,870.2z M620.4,992c-34.3,0-62.2-27.9-62.2-62.2c0-34.3,27.9-62.2,62.2-62.2
		c34.3,0,62.2,27.9,62.2,62.2C682.6,964,654.7,992,620.4,992L620.4,992z"/>
</g>
<g>
	<path fill="#010101" d="M455,431.2c0,0-30.9-0.9-66.1-21s-44.2-39.1-35.2-64.8c9-25.8,18.1-47.9,55.9-69.4
		c37.4-21.2,102.9-28.5,102.9-28.5s-26.8,21.1-38.3,40.6c-11.4,19.2-21.8,39.7,6.6,60.7c28.3,21,63.9,9.4,63.9,9.4L455,431.2z"/>
	<g>
		<defs>
			<path id="XMLID_00000016786572442136032720000001766681984825574545_" d="M496.2,371.3c0,0-14.7-3.9-23.7-10
				c-8.9-6.1-13.9-15.8-13.9-15.8s-3.4,6.6,0,12.9c3.4,6.3,9.5,12.9,9.5,12.9s-30.5-10.2-26.6-44.2c5.4-46.7,43.2-68.7,43.2-68.7
				s-39.7,1.1-68.7,21.6s-35.8,33.4-40.5,55c-4.7,21.6,10.8,41.6,30.5,51.9c19.7,10.3,66.3,20.8,66.3,20.8L496.2,371.3z"/>
		</defs>
		<use xlink:href="#XMLID_00000016786572442136032720000001766681984825574545_"  overflow="visible" fill="#FFFFFF"/>
		<clipPath id="XMLID_00000127006008445929754870000017183362683249444255_">
			<use xlink:href="#XMLID_00000016786572442136032720000001766681984825574545_"  overflow="visible"/>
		</clipPath>
		<path clip-path="url(#XMLID_00000127006008445929754870000017183362683249444255_)" fill="#DDDDDD" d="M475.9,420.3l-80-32.1
			L365.7,350l6.8-8.4c0,0,2.9,13.9,32.9,30c30,16.1,59.5,15.5,59.5,15.5s-34.5-11.8-49.7-33.4c-15.3-21.6,6.8-45.8,6.8-45.8
			s-9.2,28.4,6.6,43.2c15.8,14.7,29,21.3,29,21.3s-16.8-15.8-19-30.8c-2.1-15,17.4-33.7,17.4-33.7l-2.4,47.6l9,11.6l5.5,4.2
			c0,0,15.4,6.4,27.6,8C507.8,381,475.9,420.3,475.9,420.3z"/>
	</g>
</g>
<g>
	<path fill="#010101" d="M780.6,431.2c0,0,30.9-0.9,66.1-21s44.2-39.1,35.2-64.8c-9-25.8-18.1-47.9-55.9-69.4
		c-37.4-21.2-102.9-28.5-102.9-28.5s26.8,21.1,38.3,40.6c11.4,19.2,21.8,39.7-6.6,60.7c-28.3,21-63.9,9.4-63.9,9.4L780.6,431.2z"/>
	<g>
		<defs>
			<path id="XMLID_00000142857179771692959280000001035502138155132576_" d="M739.3,371.3c0,0,14.7-3.9,23.7-10
				c8.9-6.1,13.9-15.8,13.9-15.8s3.4,6.6,0,12.9c-3.4,6.3-9.5,12.9-9.5,12.9s30.5-10.2,26.6-44.2c-5.4-46.7-43.2-68.7-43.2-68.7
				s39.7,1.1,68.7,21.6s35.8,33.4,40.5,55c4.7,21.6-10.8,41.6-30.5,51.9s-66.3,20.8-66.3,20.8L739.3,371.3z"/>
		</defs>
		<use xlink:href="#XMLID_00000142857179771692959280000001035502138155132576_"  overflow="visible" fill="#FFFFFF"/>
		<clipPath id="XMLID_00000181772430081298345130000001373069936607559570_">
			<use xlink:href="#XMLID_00000142857179771692959280000001035502138155132576_"  overflow="visible"/>
		</clipPath>
		<path clip-path="url(#XMLID_00000181772430081298345130000001373069936607559570_)" fill="#DDDDDD" d="M759.6,420.3l80-32.1
			l30.3-38.2l-6.8-8.4c0,0-2.9,13.9-32.9,30c-30,16.1-59.5,15.5-59.5,15.5s34.5-11.8,49.7-33.4c15.3-21.6-6.8-45.8-6.8-45.8
			s9.2,28.4-6.6,43.2s-29,21.3-29,21.3s16.8-15.8,19-30.8s-17.4-33.7-17.4-33.7l2.4,47.6l-9,11.6l-5.5,4.2c0,0-15.4,6.4-27.6,8
			C727.7,381,759.6,420.3,759.6,420.3z"/>
	</g>
</g>
<path fill="#323133" d="M1037.5,605.3c0,0-3.9,12.3-9.4,20.4c-5.5,8.1-7,10.1-13.1,10.3c-6.1,0.2-18.3-12.2-27.2-13
	s-15.8,0.8-20.9,9.4c-5,8.6-6.5,15.4-6.5,15.4L947.7,628c0,0,4.1-8.6,9.6-17.1c5.5-8.5,13.1-11.9,20.5-9.2
	c7.5,2.8,17,11.5,24.2,14.5c7.2,3,10.9,3.9,16.3,0.9c5.4-3,13.4-15.6,13.4-15.6L1037.5,605.3z"/>
<g>
	<path fill="#010101" d="M868.6,1071.8c0,0,10.2-37.6,0-44.8c-10.2-7.2-29.7,2.4-49.5,15.9c-19.9,13.6-30.8,22.8-32.3,31.5
		c-3.9,22.1,21.8,55,21.8,55h16.3l-0.1,11.3c0,0,4.4,8.4,9,14.5c4.6,6.1,9.4,12.9,13.2,12.2s22-25,32.6-42.1l8.7-13.9
		c1.3-2.2,2.3-4.5,2.9-7c1.9-8.6,5.7-28.8,1-36C886.1,1059.3,868.6,1071.8,868.6,1071.8z"/>
	<polygon fill="#FFFFFF" points="885.3,1075.6 838.4,1140 849.1,1155.2 880.6,1102.5 	"/>
</g>
<g>
	<path fill="#010101" d="M374.1,1071.8c0,0-10.2-37.6,0-44.8c10.2-7.2,29.7,2.4,49.5,15.9c19.9,13.6,30.8,22.8,32.3,31.5
		c3.9,22.1-21.8,55-21.8,55h-16.3l0.1,11.3c0,0-4.4,8.4-9,14.5c-4.6,6.1-9.4,12.9-13.2,12.2s-22-25-32.6-42.1l-8.7-13.9
		c-1.3-2.2-2.3-4.5-2.9-7c-1.9-8.6-5.7-28.8-1-36C356.6,1059.3,374.1,1071.8,374.1,1071.8z"/>
	<polygon fill="#FFFFFF" points="447.9,1072.9 442.2,1096.8 390.6,1035.5 	"/>
</g>
<g>
	<defs>
		<path id="XMLID_00000132810157011928972590000014050002531829369482_" d="M992.6,679.8c-46.5-77.4-147.9-123.7-147.9-123.7H397.3
			c0,0-101.4,46.2-147.9,123.7C202.9,757.2,186,843,234.5,936.9c54.7,105.8,145.4,142.7,145.4,142.7s-61.1-139.6,1.7-165.9
			c63.7-13.1,120,113.4,123.9,163.7c3.9,50.3,8.8,134.9,8.8,134.9h5.8c-0.1-1.8-0.1-3.6-0.1-5.5c0-55.8,45.3-101.1,101.1-101.1
			c55.8,0,101.1,45.3,101.1,101.1c0,1.8-0.1,3.7-0.1,5.5h5.8c0,0,5-84.6,8.8-134.9c3.9-50.3,60.2-176.8,123.9-163.7
			c62.7,26.3,1.7,165.9,1.7,165.9s90.8-36.8,145.4-142.7C1056.1,843,1039.1,757.2,992.6,679.8z"/>
	</defs>
	<use xlink:href="#XMLID_00000132810157011928972590000014050002531829369482_"  overflow="visible" fill="#323133"/>
	<clipPath id="XMLID_00000008862669150710430680000002945719654731040130_">
		<use xlink:href="#XMLID_00000132810157011928972590000014050002531829369482_"  overflow="visible"/>
	</clipPath>
	<path clip-path="url(#XMLID_00000008862669150710430680000002945719654731040130_)" fill="#565656" d="M911,959.7
		c-7.4-53.3-29.3-70.4-62.3-76.2c-43.8-7.8-85.3,46.3-93.8,57.3s-21.4,42.2-24.8,50.2c-3.5,7.9-5.2,26.5-37.2,42.7
		c-29.7,15-68.7,14-71.7,13.9v0c0,0,0,0-0.1,0c-0.1,0-0.1,0-0.1,0v0c-3.1,0.1-42.1,1.1-71.7-13.9c-32.1-16.2-33.8-34.8-37.2-42.7
		c-3.5-7.9-16.4-39.2-24.8-50.2s-49.9-65-93.8-57.3c-33.1,5.8-54.9,22.9-62.3,76.2c-7.4,53.3,16.8,117.6,16.8,117.6l4,186.3h269h0.2
		h269l4-186.3C894.2,1077.3,918.4,1013,911,959.7z"/>
</g>
<g>
	<path fill="#565656" d="M808.6,586.8c0,0,101.4,46.2,147.9,123.7c45.1,75.2,62.5,158.4,18.9,249.2c3-5.1,5.9-10.4,8.7-15.8
		c48.5-93.9,31.5-179.7-14.9-257.2C922.7,609.3,821.3,563,821.3,563L808.6,586.8z"/>
</g>
<path fill="#F47521" d="M396.8,556.1c0,0-48,9.3-105.7,71.1c-22,23.6,47.6,53.2,74.4,187.7c6.2,30.9,6.2,104.2,6.2,104.2
	s50,18.8,71.9,50.7c30.8,44.9,25.4,91.2,25.4,91.2s52.1,1.7,73.5,4c21.4,2.4,69.1-4,69.1-4l-3.5-504.6L396.8,556.1z"/>
<g>
	
		<rect x="393.2" y="813.5" transform="matrix(6.123234e-17 -1 1 6.123234e-17 -327.4817 1339.3535)" fill="#DDDDDD" width="225.5" height="39.8"/>
	<path fill="#DDDDDD" d="M610.9,969.5H451.5h0c-10.7-15.6-25.6-28.2-43.3-36.4l-7.1-3.3h209.8V969.5z"/>
	<path fill="#DDDDDD" d="M611.5,1033.2H473.4l0,0c-1-13.1-4.4-26-10-37.8l-0.9-2h148.8L611.5,1033.2z"/>
</g>
<path fill="#F47521" d="M844.8,556.1c0,0,48,9.3,105.7,71.1c22,23.6-47.6,53.2-74.4,187.7c-6.2,30.9-6.2,104.2-6.2,104.2
	s-50,18.8-71.9,50.7c-30.8,44.9-25.4,91.2-25.4,91.2s-52.1,1.7-73.5,4c-21.4,2.4-69.1-4-69.1-4l3.5-504.6L844.8,556.1z"/>
<g>
	
		<rect x="622.9" y="813.5" transform="matrix(6.123234e-17 -1 1 6.123234e-17 -97.8162 1569.0189)" fill="#DDDDDD" width="225.5" height="39.8"/>
	<path fill="#DDDDDD" d="M630.7,969.5H790h0c10.7-15.6,25.6-28.2,43.3-36.4l7.1-3.3H630.7V969.5z"/>
	<path fill="#DDDDDD" d="M630.1,1033.2h138.1l0,0c1-13.1,4.4-26,10-37.8l0.9-2H630.3L630.1,1033.2z"/>
</g>
<g>
	<ellipse fill="#010101" cx="621" cy="676.3" rx="269" ry="214.8"/>
	<ellipse fill="#323133" cx="621" cy="475" rx="171.7" ry="153.8"/>
	<ellipse fill="#323133" cx="621" cy="649.2" rx="243.3" ry="201.4"/>
	<g>
		<ellipse fill="#565656" cx="621" cy="703.4" rx="197.7" ry="147.2"/>
		<g>
			<ellipse fill="#565656" cx="655" cy="621" rx="90.1" ry="79.9"/>
			<ellipse fill="#565656" cx="587" cy="621" rx="90.1" ry="79.9"/>
		</g>
	</g>
	<g>
		
			<ellipse transform="matrix(0.4593 -0.8883 0.8883 0.4593 -244.232 1024.436)" fill="#010101" cx="719.4" cy="712.8" rx="49.6" ry="34.4"/>
		
			<ellipse transform="matrix(0.8883 -0.4593 0.4593 0.8883 -269.0387 319.7029)" fill="#010101" cx="522.6" cy="712.8" rx="34.4" ry="49.6"/>
	</g>
	<path fill="#323133" d="M614,328.5c-0.5-7.1,6.5-13.4,15.5-13.9c4.5-0.3,8.6,0.9,11.7,3c-2.1-5.9-10.8-10-20.9-9.3
		c-11.4,0.7-20.2,7.1-19.7,14.2c0.4,5.8,6.8,10.3,15.3,11.4C614.8,332.3,614.1,330.5,614,328.5z"/>
	<g>
		<g>
			
				<ellipse transform="matrix(0.1946 -0.9809 0.9809 0.1946 207.6349 1197.5894)" fill="#323133" cx="833.1" cy="472.4" rx="19.6" ry="48.6"/>
			
				<ellipse transform="matrix(0.1946 -0.9809 0.9809 0.1946 202.8057 1200.4052)" fill="#010101" cx="832.4" cy="476.7" rx="15.2" ry="45.4"/>
		</g>
		<g>
			
				<ellipse transform="matrix(0.9809 -0.1946 0.1946 0.9809 -84.1104 88.6171)" fill="#323133" cx="408.9" cy="472.4" rx="48.6" ry="19.6"/>
			
				<ellipse transform="matrix(0.9809 -0.1946 0.1946 0.9809 -84.9434 88.8365)" fill="#010101" cx="409.6" cy="476.7" rx="45.4" ry="15.2"/>
		</g>
	</g>
	<g>
		<g>
			
				<ellipse transform="matrix(6.974687e-02 -0.9976 0.9976 6.974687e-02 141.1601 1122.0881)" fill="#010101" cx="672.2" cy="485.4" rx="39.1" ry="19.5"/>
			<circle fill="#FFFFFF" cx="673.8" cy="472.6" r="13.6"/>
		</g>
		<g>
			
				<ellipse transform="matrix(0.9976 -6.974687e-02 6.974687e-02 0.9976 -32.4645 40.9237)" fill="#010101" cx="569.8" cy="485.4" rx="19.5" ry="39.1"/>
			<circle fill="#FFFFFF" cx="568.2" cy="472.6" r="13.6"/>
		</g>
	</g>
</g>
<path fill="#010101" d="M741.8,1165.2c7.4-0.9,17.6,9.7,23.9,22.4c6,12.2,17.7,42,17.7,43.5c0,1.5-2.6,8.7-7.5,11.3
	c-5,2.6-27.6-3.9-27.6-3.9s-3.7,9.9-24.4,9.7c-20.7-0.2-25.2-8-29.5-11.6c-4.3-3.7-5-6.9-5-8.2s0.9-36.5,0.9-40s3.2-26,16.1-26
	s16,23.7,16.6,27.4c0.6,3.7,1.3,15.3,3.5,15.5s1.3-8.6,2.6-17.3C730.4,1179.4,733.1,1166.3,741.8,1165.2z"/>
<path fill="#010101" d="M502.6,1165.2c-7.4-0.9-17.6,9.7-23.9,22.4c-6,12.2-17.7,42-17.7,43.5c0,1.5,2.6,8.7,7.5,11.3
	c5,2.6,27.6-3.9,27.6-3.9s3.7,9.9,24.4,9.7c20.7-0.2,25.2-8,29.5-11.6c4.3-3.7,5-6.9,5-8.2s-0.9-36.5-0.9-40s-3.2-26-16.1-26
	s-16,23.7-16.6,27.4c-0.6,3.7-1.3,15.3-3.5,15.5s-1.3-8.6-2.6-17.3C514.1,1179.4,511.3,1166.3,502.6,1165.2z"/>
<polygon fill="#FFFFFF" points="544.1,1176.3 548.8,1229.2 537.8,1238.6 "/>
<polygon fill="#FFFFFF" points="778.9,1229.3 773.6,1238.6 749.1,1173.3 "/>
<path fill="#010101" d="M1031.1,605.2c4.9,4.4,9.2,3.4,15.9-4.2c6.7-7.6,12.1-16.4,10.5-21.2c-1.7-4.8-2.4-5.4-2.4-5.4
	s1.2,7.2-2.4,8.3c-3.6,1.2-3.6-5.5-3.6-7.1s1.9-7.8,8.1-12.6s11.9-6,17.2-10.1c5.3-4.1,5.4-9.4,5.4-9.4s-4.4,3.8-7.5,5.3
	c-3.2,1.6-4.8,2.3-5.5,1.1c-0.8-1.1,6.7-6.1,10.1-11s6.7-10.3,7.4-18.5c0.7-8.2-3-15.4-3-15.4s0.2,10.7-4,18.7
	c-4.2,8.1-8.3,13.2-12.2,13.1c-3.8-0.1,3.2-5.9,4-13.7c0.8-7.8-2.3-11.7-2.3-11.7s0.8,7.9-6.2,15.6c-5.9,6.5-15.6,10.9-19.9,13.6
	c-4.3,2.8-5.5,3-6.4,1.8c-0.9-1.2,0.4-3.9,2.2-5.5s2.6-1.9,2.6-1.9s-5.9-1.9-10.9,4.5c-5,6.4-5.9,14.3-6.3,19.8s1.3,12.4,0.1,12.6
	c-1.3,0.2-3.5-0.6-4.5-3c-1-2.3-0.9-5.7-0.9-5.7s-4.1,3.5-1.8,12.9c2.3,9.3,3.4,13.4,7.9,19.6
	C1027.1,602.1,1031.1,605.2,1031.1,605.2z"/>
<g>
	<g>
		<path fill="#FCBA49" d="M472.8,369.8l-21.6,11.9c-11.1,6.2-13.7,20.8-5.3,30.2l21.7,24.3c3.2,3.6,7.9,5.7,12.8,5.7h271.1
			c4.9,0,9.6-2.1,12.8-5.7l22.7-25.2c8.8-9.7,5.7-24.9-6.2-30.7l-21.6-10.5H472.8z"/>
		<path d="M751.7,444.3H480.6c-5.6,0-11-2.4-14.7-6.5l-21.7-24.3c-4.5-5-6.4-11.7-5.3-18.3c1.1-6.7,5.2-12.4,11.2-15.7l22.1-12.2
			h287.8l22.1,10.8c6.4,3.1,10.9,8.9,12.2,15.7c1.3,6.8-0.6,13.7-5.3,18.9l-22.7,25.2C762.6,442,757.3,444.3,751.7,444.3z
			 M473.5,372.3l-21,11.6c-4.7,2.6-7.8,7-8.7,12.2c-0.9,5.1,0.6,10.2,4.1,14.1l21.7,24.3c2.8,3.1,6.8,4.9,11,4.9h271.1
			c4.2,0,8.2-1.8,11-4.8l22.7-25.2c3.6-4,5.1-9.3,4.1-14.6c-1-5.3-4.5-9.8-9.5-12.2l-21.1-10.3H473.5z"/>
	</g>
	<g>
		<path fill="#FCBA49" d="M475.8,393.4l136.5,10.8l145.1-10.8c4.4-0.3,7.8-3,8.1-6.4c2-24.1-0.4-113.7-148.8-113.3
			c-148.4,0.4-150.8,89.4-148.8,113.3C468.1,390.3,471.5,393,475.8,393.4z"/>
		<path d="M612.3,406.7l-0.2,0l-136.5-10.8c-5.6-0.4-9.9-4.1-10.3-8.7c-1.1-13.1-0.9-46.6,24.4-74.2c25.2-27.5,67.9-41.6,126.9-41.8
			c0.4,0,0.7,0,1.1,0c58.2,0,100.4,13.8,125.5,41c25.6,27.7,25.8,61.7,24.7,74.9c-0.4,4.6-4.7,8.3-10.4,8.7L612.3,406.7z M476,390.9
			l136.3,10.8l144.9-10.8c3.1-0.2,5.6-2,5.8-4.1c1.1-12.6,0.9-44.8-23.3-71.1c-24.3-26.3-65.7-39.6-123-39.4
			c-57.5,0.2-99,13.7-123.2,40.1c-24,26.2-24.1,58-23.1,70.4C470.5,388.9,472.9,390.6,476,390.9z"/>
	</g>
	<g>
		<path fill="#FCBA49" d="M579.9,305.2c0,0,4.6-15.3,6-22.2c1.4-6.9,1.2-12.7,1.2-12.7l31.7-6l28.5,6.6c0,0,0.6,8.3,1.8,11.5
			s4.3,22.8,4.3,22.8H579.9z"/>
		<path d="M656.2,307.7h-79.7l1-3.2c0-0.2,4.6-15.2,6-22c1.4-6.5,1.1-12,1.1-12l-0.1-2.2l34.3-6.6l30.8,7.2l0.1,1.8
			c0.2,2.2,0.8,8.5,1.6,10.8c1.2,3.3,4.1,21.2,4.4,23.2L656.2,307.7z M583.2,302.7h67.1c-1.2-7.5-3-17.5-3.7-19.4
			c-0.9-2.5-1.5-7.6-1.8-10.3l-26.2-6.1l-29.1,5.6c0,2.4-0.3,6.5-1.2,11.1C587.3,288.6,584.7,297.8,583.2,302.7z"/>
	</g>
	<path fill="#FFFFFF" d="M557.1,291.5c0,0-41.5,7.9-60.9,36.4c-19.4,28.5-18.5,55.1-18.5,55.1s16,5.4,17.2,2.6s-0.5-37.8,19.1-60.9
		C533.5,301.5,557.1,291.5,557.1,291.5z"/>
	<g>
		<circle fill="#F15D56" cx="618.5" cy="348" r="60.2"/>
		<path d="M618.5,410.7c-34.6,0-62.7-28.1-62.7-62.7s28.1-62.7,62.7-62.7s62.7,28.1,62.7,62.7S653,410.7,618.5,410.7z M618.5,290.3
			c-31.8,0-57.7,25.9-57.7,57.7s25.9,57.7,57.7,57.7c31.8,0,57.7-25.9,57.7-57.7S650.3,290.3,618.5,290.3z"/>
	</g>
	<g>
		<path fill="#FFFFFF" d="M592.3,384.8c-2.9,0-5.7-1.1-7.8-3.2c-4.3-4.3-4.3-11.3,0-15.6l27.6-27.6c-0.6-2.6-0.8-5.3-0.4-8.1
			c1.3-10,9.3-17.8,19.3-19c3-0.3,6-0.1,8.9,0.7c1,0.3,1.8,1.1,2.1,2.1c0.3,1,0,2.1-0.8,2.8l-9.8,9.7l0.5,7.8l6.5,1.3l11.2-11.2
			c0.7-0.7,1.8-1,2.8-0.8c1,0.2,1.8,0.9,2.1,1.9c1.1,3.1,1.5,6.3,1.2,9.6c-1,10.9-10,19.5-20.9,20c-2.6,0.1-5.1-0.2-7.6-0.9
			l-27.1,27.1C598,383.6,595.2,384.8,592.3,384.8z M633.6,315.2c-0.7,0-1.4,0-2.2,0.1c-8.2,1-14.7,7.3-15.8,15.6
			c-0.3,2.6-0.1,5.1,0.6,7.6l0.3,1.1l-29.2,29.2c-2.7,2.7-2.7,7.2,0,9.9c1.3,1.3,3.1,2.1,5,2.1s3.6-0.7,5-2.1l28.9-28.9l1.2,0.4
			c2.3,0.9,4.8,1.2,7.2,1.1c8.9-0.5,16.3-7.5,17.1-16.4c0.2-2.1,0-4.2-0.5-6.3l-11.5,11.5l-11.6-2.4l-0.8-12.7l9.8-9.7
			C635.8,315.3,634.7,315.2,633.6,315.2z"/>
		<circle fill="#FFFFFF" cx="592.6" cy="374.4" r="2.4"/>
	</g>
</g>
<g>
	<path fill="#010101" d="M417.8,1129.5l0.1,11.3c0,0-4.4,8.4-9,14.5c-4.6,6.1-9.4,12.9-13.2,12.2s-22-25-32.6-42.1l-8.7-13.9
		c-1.3-2.2-2.3-4.5-2.9-7c-1.9-8.6-5.7-28.8-1-36c6.1-9.1,23.5,3.4,23.5,3.4L417.8,1129.5z"/>
</g>
<g>
	<path fill="#010101" d="M824.9,1129.5l-0.1,11.3c0,0,4.4,8.4,9,14.5c4.6,6.1,9.4,12.9,13.2,12.2s22-25,32.6-42.1l8.7-13.9
		c1.3-2.2,2.3-4.5,2.9-7c1.9-8.6,5.7-28.8,1-36c-6.1-9.1-23.5,3.4-23.5,3.4L824.9,1129.5z"/>
	<polygon fill="#FFFFFF" points="885.3,1075.6 838.4,1140 849.1,1155.2 880.6,1102.5 	"/>
</g>
<g>
	<path fill="#FFFFFF" d="M556.5,348.8c-1.1-35,27.7-62.4,62.1-62.2c34.3,0.1,63.5,27.3,61.9,65.6c-1.3,32.1-27,59.8-63.8,59.3
		C584.5,410.9,555,383.8,556.5,348.8z M676.7,349.3c0.7-33-26.9-58.6-57.3-59c-33.4-0.4-59.7,26.3-59.9,58.3
		c-0.2,32,26.1,58,56.7,59C650.5,408.8,677.7,379.4,676.7,349.3z"/>
	<path d="M676.7,349.3c1,30.1-26.1,59.5-60.5,58.4c-30.5-1-56.9-27.1-56.7-59c0.2-32.1,26.5-58.7,59.9-58.3
		C649.8,290.6,677.4,316.3,676.7,349.3z M598.5,379.5c3.3-8.3,6.6-16.5,10.2-25.4c3.5,2.7,6.7,5.1,9.9,7.6c7,5.6,13.8,11.4,21,16.7
		c1.4,1.1,4.6,1.1,6.2,0.2c1.2-0.7,1.6-3.6,1.6-5.5c0.1-1.3-1-2.7-1.5-4c-3.8-9.3-7.5-18.6-11.3-27.9c-3.4-8.2-6.8-16.5-10.5-24.5
		c-0.9-1.9-3.2-4.1-4.9-4.2c-1.5-0.1-3.3,2.5-4.8,4c-0.6,0.7-0.8,1.7-1.2,2.6c-5.3,12.9-10.6,25.7-15.9,38.6
		c-2.9,7.1-5.8,14.3-8.8,21.7C592.2,379.5,595.3,379.5,598.5,379.5z"/>
	<path fill="#FFFFFF" d="M598.5,379.5c-3.2,0-6.3,0-10.1,0c3-7.4,5.9-14.6,8.8-21.7c5.3-12.9,10.6-25.7,15.9-38.6
		c0.4-0.9,0.6-2,1.2-2.6c1.5-1.6,3.3-4.1,4.8-4c1.8,0.1,4.1,2.3,4.9,4.2c3.7,8.1,7.1,16.3,10.5,24.5c3.8,9.3,7.5,18.6,11.3,27.9
		c0.5,1.3,1.6,2.7,1.5,4c-0.1,1.9-0.4,4.8-1.6,5.5c-1.6,0.9-4.8,0.9-6.2-0.2c-7.2-5.3-14-11.1-21-16.7c-3.1-2.5-6.3-4.9-9.9-7.6
		C605.1,363.1,601.8,371.3,598.5,379.5z M633.5,362.5c-5-12.3-9.5-23.1-14.2-34.7c-2.3,5.6-4.5,10.6-6.2,15.8
		c-0.4,1.2,0.5,3.5,1.5,4.3C620.4,352.6,626.4,357,633.5,362.5z"/>
	<path d="M633.5,362.5c-7.1-5.5-13.1-9.9-18.9-14.6c-1-0.8-1.9-3.1-1.5-4.3c1.7-5.2,4-10.2,6.2-15.8
		C624.1,339.4,628.5,350.2,633.5,362.5z"/>
</g>
<g>
	<path fill="#FCBA49" d="M781,378.8l-15.4-7.5c0.3,5.8,0.1,10.7-0.2,14.2c-0.3,3.4-3.7,6.1-8.1,6.4l-145.1,10.8l-136.5-10.8
		c-4.3-0.3-7.7-3-8-6.4c-0.3-3.5-0.5-8.5-0.1-14.3l-16.4,9.1c-11.1,6.2-13.7,20.8-5.3,30.2l21.7,24.3c3.2,3.6,7.9,5.7,12.8,5.7
		h271.1c4.9,0,9.6-2.1,12.8-5.7l22.7-25.2C795.9,399.8,792.9,384.6,781,378.8z"/>
	<path d="M751.7,442.9H480.6c-5.6,0-11-2.4-14.7-6.5l-21.7-24.3c-4.5-5-6.4-11.7-5.3-18.3c1.1-6.7,5.2-12.4,11.2-15.7l20.4-11.3
		l-0.3,4.5c-0.4,6-0.1,10.9,0.1,14c0.2,2.1,2.6,3.9,5.7,4.1l136.3,10.8l144.9-10.8c3.1-0.2,5.6-2,5.8-4.1c0.3-3,0.5-7.9,0.2-13.8
		l-0.2-4.3l19.3,9.4c6.4,3.1,10.9,8.9,12.2,15.7c1.3,6.8-0.6,13.7-5.3,18.9l-22.7,25.2C762.6,440.5,757.3,442.9,751.7,442.9z
		 M465,375.5l-12.5,6.9c-4.7,2.6-7.8,7-8.7,12.2c-0.9,5.1,0.6,10.2,4.1,14.1l21.7,24.3c2.8,3.1,6.8,4.9,11,4.9h271.1
		c4.2,0,8.2-1.8,11-4.8l22.7-25.2c3.6-4,5.1-9.3,4.1-14.6c-1-5.3-4.5-9.8-9.5-12.2l-11.7-5.7c0.1,4.3-0.1,7.9-0.3,10.3
		c-0.4,4.6-4.7,8.3-10.4,8.7l-145.3,10.8l-0.2,0l-136.5-10.8c-5.6-0.4-9.9-4.1-10.3-8.7C465.1,383.3,464.9,379.8,465,375.5z"/>
</g>
</svg>
