<?xml version="1.0" encoding="UTF-8"?>
<svg id="Layer_2" data-name="Layer 2" xmlns="http://www.w3.org/2000/svg" xmlns:xlink="http://www.w3.org/1999/xlink" viewBox="0 0 400 400">
  <defs>
    <style>
      .cls-1 {
        fill: #323133;
      }

      .cls-2 {
        fill: #402010;
      }

      .cls-3 {
        fill: #b2d6f0;
      }

      .cls-4 {
        fill: #d9d9d9;
      }

      .cls-5 {
        fill: #3069ae;
      }

      .cls-6 {
        fill: #ccc;
      }

      .cls-7 {
        fill: #b3d6f1;
      }

      .cls-8 {
        clip-path: url(#clippath-1);
      }

      .cls-9 {
        clip-path: url(#clippath-3);
      }

      .cls-10 {
        clip-path: url(#clippath-4);
      }

      .cls-11 {
        clip-path: url(#clippath-2);
      }

      .cls-12 {
        clip-path: url(#clippath-7);
      }

      .cls-13 {
        clip-path: url(#clippath-6);
      }

      .cls-14 {
        clip-path: url(#clippath-5);
      }

      .cls-15 {
        fill: #5989c3;
      }

      .cls-16 {
        fill: #fff;
      }

      .cls-17 {
        fill: #de645a;
      }

      .cls-18 {
        fill: #3b2112;
      }

      .cls-19 {
        fill: #b2d6ef;
      }

      .cls-20 {
        fill: #252426;
      }

      .cls-21 {
        fill: #555;
      }

      .cls-22 {
        clip-path: url(#clippath);
      }
    </style>
    <clipPath id="clippath">
      <circle class="cls-19" cx="200.1472" cy="172.4368" r="116.2519"/>
    </clipPath>
    <clipPath id="clippath-1">
      <path class="cls-1" d="M180.6387,239.9873s-12.8799,10.0796-14.9633,11.8424c-2.0834,1.7629-5.9297,3.8463-12.0196.8013-6.0899-3.045-16.6672-15.7056-16.6672-15.7056,0,0,12.3401,4.8078,17.4685,2.2437,5.1284-2.5642,9.765-6.1745,10.2513-12.142.4862-5.9675,15.9303,12.9602,15.9303,12.9602Z"/>
    </clipPath>
    <clipPath id="clippath-2">
      <path class="cls-1" d="M194.3597,224.3761s12.5881,10.4417,14.7537,12.1025c2.1656,1.6608,5.0193,4.976,3.3391,11.5742-1.6802,6.5982-11.8018,19.626-11.8018,19.626,0,0,2.0735-13.0803-1.5226-17.546-3.5962-4.4657-8.0774-7.9278-14.0443-7.4346-5.6919.4705,9.2759-18.3221,9.2759-18.3221Z"/>
    </clipPath>
    <clipPath id="clippath-3">
      <path class="cls-1" d="M204.4907,149.1389c-17.6621-3.1869-34.0295,2.7666-40.1304,13.6639l-.0027-.0008s-.0053.0116-.0138.0304c-.9265,1.6614-1.6158,3.4367-2.0336,5.3126-1.7109,5.1146-3.7647,13.1574-3.0485,20.7758,1.1742,12.4887,3.2022,23.1628,5.4466,38.1064h0c.3913,4.8853,3.5346,11.3998,9.9389,13.6082,8.1059,2.7952,14.4768,1.4967,17.8236-4.3001,1.2219-2.1164,1.3939-1.8294,3.9775-4.754,3.7698-3.5717,11.5292-10.7091,22.3751-19.6044,15.591-12.7869,17.9325-27.4451,17.9325-27.4451l-.0007-.0002c.1995-.6739.3639-1.3615.4904-2.0627,2.6463-14.6659-12.0186-29.5882-32.7549-33.3299Z"/>
    </clipPath>
    <clipPath id="clippath-4">
      <path class="cls-16" d="M227.9401,98.2353s-3.9961-3.0319-1.7878-8.018c3.0304-6.8425,9.635-8.3731,9.635-8.3731,0,0-5.891-1.7611-11.1293-.0348-5.2384,1.7263-6.862,3.3592-8.5924,6.4164s-.4068,6.8538,2.0023,9.3711c2.4091,2.5173,8.7508,6.3726,8.7508,6.3726l1.6751.3685c2.7299.6005,4.9066-2.2781,3.5851-4.7411h0s-4.1386-1.3615-4.1386-1.3615Z"/>
    </clipPath>
    <clipPath id="clippath-5">
      <path class="cls-21" d="M260.0491,143.6108c-.8751,5.2511-2.9516,10.4736-5.1576,13.1546-2.2421,2.7248-6.4047,7.1185-14.2135,7.1185-13.1542,0-36.0755-1.4579-36.075-21.8541.0006-21.8552,20.9944-21.8541,34.1486-21.8541,7.9501,0,14.9905,3.8487,19.3169,9.7634,2.832,3.8717,2.8259,8.5996,1.9806,13.6717Z"/>
    </clipPath>
    <clipPath id="clippath-6">
      <path class="cls-16" d="M215.9359,96.6416s-2.1149-1.0774-3.2891-2.3048-1.6391-2.9096-1.6391-2.9096c0,0-.7164.9251-.3878,2.0218.3286,1.0967,1.0481,2.3166,1.0481,2.3166,0,0-4.3185-2.5517-2.699-7.7589,2.2225-7.1459,8.607-9.4267,8.607-9.4267,0,0-6.0545-1.0712-11.0594,1.2467-5.0048,2.3179-6.4297,4.1268-7.7966,7.3629-1.3669,3.2361.3849,6.855,3.0678,9.0782,2.6828,2.2232,9.4262,5.3228,9.4262,5.3228l1.7064.1732c2.7809.2823,4.6117-2.8278,3.0154-5.1223h0Z"/>
    </clipPath>
    <clipPath id="clippath-7">
      <path class="cls-5" d="M332.129,150.7384l-9.9297-1.6226c-3.2205-17.1198-9.9538-32.9992-19.4227-46.8623l5.616-7.8099c3.4931-4.4547,3.1097-10.8164-.8933-14.8193l-14.3891-14.3892c-4.0029-4.0029-10.3646-4.3864-14.8193-.8933l-7.7267,5.5562c-14.4001-9.9291-30.9992-16.8962-48.9185-20.0233l-1.6541-10.1224c-.68-5.62-5.4495-9.8472-11.1104-9.8472h-20.3494c-5.661,0-10.4305,4.2272-11.1104,9.8472l-1.745,10.6788c-16.7215,3.3414-32.2307,10.0399-45.7955,19.3638l-7.5833-5.453c-4.4547-3.4931-10.8164-3.1096-14.8193.8933l-14.3892,14.3892c-4.0029,4.0029-4.3864,10.3645-.8933,14.8193l5.4653,7.6003c-9.5353,13.8992-16.3166,29.8351-19.557,47.0223l-10.2333,1.6722c-5.62.68-9.8472,5.4495-9.8472,11.1104v20.3494c0,5.661,4.2272,10.4305,9.8472,11.1104l10.1593,1.6601c3.31,17.8787,10.4488,34.4134,20.535,48.7222l-6.3694,8.8576c-3.4931,4.4547-3.1097,10.8164.8933,14.8193l14.3892,14.3891c4.0029,4.0029,10.3645,4.3864,14.8193.8933l9.2251-6.6337-.8031-.8031c13.3816,9.0379,28.6199,15.5346,45.0223,18.803l1.6795,10.2783c.68,5.6199,5.4495,9.8472,11.1104,9.8472h20.3494c5.661,0,10.4305-4.2273,11.1104-9.8472l1.5889-9.7238c17.92-3.1174,34.5212-10.0747,48.9252-19.9945l-1.4401,1.4401,9.2251,6.6337c4.4547,3.4931,10.8164,3.1096,14.8193-.8933l14.3891-14.3891c4.0029-4.0029,4.3864-10.3645.8933-14.8193l-6.5182-9.0645c10.0187-14.2744,17.1088-30.7532,20.3989-48.5648l9.8557-1.6105c5.6199-.68,9.8472-5.4495,9.8472-11.1104v-20.3494c0-5.661-4.2273-10.4305-9.8472-11.1104ZM200.1472,277.0024c-57.8712,0-104.7851-46.9139-104.7851-104.7851s46.9139-104.7851,104.7851-104.7851,104.7851,46.9139,104.7851,104.7851-46.9139,104.7851-104.7851,104.7851Z"/>
    </clipPath>
  </defs>
  <ellipse class="cls-6" cx="196" cy="310.2252" rx="125" ry="15"/>
  <g>
    <path class="cls-18" d="M155.2461,338.3307h4.2412l5.958,9.9453h-3.6348l-1.1113-2.0029h-6.665l-1.1104,2.0029h-3.6523l5.9746-9.9453ZM159.6895,344.4655l-1.5312-2.7314c-.1855-.3496-.5723-1.1904-.7744-1.708h-.0508c-.1846.5176-.5723,1.3584-.7568,1.708l-1.5322,2.7314h4.6455Z"/>
    <path class="cls-18" d="M167.6572,338.3307h3.6182l6.2441,5.6445c.3535.3223.707.7432.9424,1.1348h.0674v-6.7793h3.0801v9.9453h-3.3828l-6.4795-5.7148c-.3369-.3086-.7744-.8125-.9434-1.1348h-.0674v6.8496h-3.0791v-9.9453Z"/>
    <path class="cls-18" d="M183.584,346.0768l2.4238-1.415c.9932,1.1631,2.8271,1.9473,5.2852,1.9473,2.1709,0,3.1807-.3643,3.1807-1.1484,0-.6162-.5049-.8682-1.9355-.9951l-3.6689-.3359c-2.9287-.2656-4.3428-1.1621-4.3428-2.9971,0-1.9756,2.3232-3.1377,6.4131-3.1377,3.0127,0,5.3857.6582,6.8662,2.0449l-2.1543,1.499c-.875-.9805-2.5918-1.583-4.8809-1.583-1.8682,0-2.8613.3643-2.8613,1.0361,0,.6162.4883.8545,2.0371.9951l3.2988.2656c3.2988.2803,4.6445,1.0928,4.6445,2.9414,0,2.1992-2.457,3.418-6.7822,3.418-3.5342,0-6.2949-.9658-7.5234-2.5352Z"/>
    <path class="cls-18" d="M200.4209,348.2761v-9.9453h3.3994v9.9453h-3.3994Z"/>
    <path class="cls-18" d="M207.3232,338.3307h9.1553c2.9619,0,4.2578,1.0928,4.2578,2.5215,0,1.0088-.7402,1.9189-2.3555,2.1992,1.8174.2236,2.6592,1.0928,2.6592,2.3955,0,1.4561-1.1953,2.8291-4.4941,2.8291h-9.2227v-9.9453ZM215.5361,342.3513c1.3965,0,1.6826-.5889,1.6826-1.1494,0-.4902-.3359-1.0225-1.6826-1.0225h-4.8135v2.1719h4.8135ZM215.6875,346.4274c1.2959,0,1.835-.5186,1.835-1.2051s-.5557-1.1621-1.8184-1.1621h-4.9814v2.3672h4.9648Z"/>
    <path class="cls-18" d="M223.7393,338.3307h3.3994v7.7324h8.0957v2.2129h-11.4951v-9.9453Z"/>
    <path class="cls-18" d="M249.8633,346.3015v1.9746h-12.1846v-9.9453h12.0674v1.9746h-8.668v2.0039h8.3818v1.8486h-8.3818v2.1436h8.7852Z"/>
    <path class="cls-18" d="M95.625,368.8913v3.3848h-20.9014v-17.041h20.6992v3.3838h-14.8682v3.4326h14.377v3.168h-14.377v3.6719h15.0703Z"/>
    <path class="cls-18" d="M100.8438,355.235h13.0195c7.5352,0,12.3564,2.9033,12.3564,8.2324,0,5.3047-5.1094,8.8086-12.4424,8.8086h-12.9336v-17.041ZM113.0264,368.988c4.3887,0,7.0732-2.0166,7.0732-5.4482,0-3.3125-2.916-5.0166-7.1309-5.0166h-6.2939v10.4648h6.3516Z"/>
    <path class="cls-18" d="M136.9238,355.235h7.2754l10.2197,17.041h-6.2363l-1.9053-3.4326h-11.4316l-1.9062,3.4326h-6.2646l10.249-17.041ZM144.5449,365.7477l-2.627-4.6807c-.3174-.5996-.9814-2.04-1.3281-2.9287h-.0859c-.3174.8887-.9814,2.3291-1.2998,2.9287l-2.627,4.6807h7.9678Z"/>
    <path class="cls-18" d="M168.0059,368.5075l4.1572-2.4238c1.7031,1.9922,4.8496,3.3359,9.0645,3.3359,3.7246,0,5.4561-.624,5.4561-1.9678,0-1.0566-.8652-1.4883-3.3193-1.7041l-6.2939-.5762c-5.0234-.4561-7.4482-1.9922-7.4482-5.1367,0-3.3838,3.9844-5.376,10.999-5.376,5.168,0,9.2383,1.1279,11.7793,3.5039l-3.6953,2.5684c-1.501-1.6807-4.4463-2.7119-8.3721-2.7119-3.2051,0-4.9082.624-4.9082,1.7754,0,1.0566.8369,1.4648,3.4932,1.7041l5.6582.4561c5.6592.4805,7.9688,1.8721,7.9688,5.041,0,3.7686-4.2148,5.8564-11.6348,5.8564-6.0625,0-10.7969-1.6562-12.9043-4.3447Z"/>
    <path class="cls-18" d="M217.7705,368.8913v3.3848h-20.9014v-17.041h20.6992v3.3838h-14.8682v3.4326h14.3779v3.168h-14.3779v3.6719h15.0703Z"/>
    <path class="cls-18" d="M222.9893,355.235h13.9727c6.582,0,8.4873,2.8076,8.4873,5.4004,0,1.8955-1.1543,4.1279-4.6191,5.04l5.3701,6.6006h-6.5537l-4.8496-6.0244h-5.9766v6.0244h-5.8311v-17.041ZM235.6338,363.155c2.8291,0,3.667-1.1758,3.667-2.376,0-1.1758-.8379-2.3037-3.6377-2.3037h-6.8428v4.6797h6.8135Z"/>
    <path class="cls-18" d="M246.8867,355.235h6.4668l6.4375,11.4727c.376.6719.5488,1.1758.6934,1.7041h.0869c.1436-.5283.3457-1.0322.6924-1.7041l6.4375-11.4727h6.4668l-10.1328,17.041h-6.9863l-10.1621-17.041Z"/>
    <path class="cls-18" d="M298.6436,368.8913v3.3848h-20.9014v-17.041h20.6992v3.3838h-14.8682v3.4326h14.3779v3.168h-14.3779v3.6719h15.0703Z"/>
    <path class="cls-18" d="M303.8623,355.235h13.9727c6.582,0,8.4873,2.8076,8.4873,5.4004,0,1.8955-1.1543,4.1279-4.6191,5.04l5.3701,6.6006h-6.5537l-4.8496-6.0244h-5.9766v6.0244h-5.8311v-17.041ZM316.5068,363.155c2.8291,0,3.667-1.1758,3.667-2.376,0-1.1758-.8379-2.3037-3.6377-2.3037h-6.8428v4.6797h6.8135Z"/>
  </g>
  <g>
    <polygon class="cls-3" points="65.5322 175.9258 77.6322 175.9258 71.5822 164.6117 65.5322 175.9258"/>
    <g>
      <circle class="cls-19" cx="200.1472" cy="172.4368" r="116.2519"/>
      <g class="cls-22">
        <g>
          <path class="cls-16" d="M130.2177,208.314c-2.435,0-4.4649-1.7477-4.8263-4.1557l-2.2273-14.8297-.2808-.08c-4.084-1.1642-8.0251-2.8328-11.7141-4.9594l-.2572-.1484-12.159,8.9834c-.8546.6316-1.859.9655-2.9048.9656-1.2938,0-2.5177-.5112-3.4463-1.4396l-9.1479-9.148c-1.7219-1.7217-1.9214-4.3927-.4742-6.3511l9.0494-12.2482-.1448-.2562c-2.0638-3.6511-3.6828-7.5509-4.8119-11.5914l-.0791-.2827-15.0476-2.2601c-2.4079-.3614-4.1556-2.3913-4.1556-4.8263v-12.937c0-2.4347,1.7476-4.4646,4.1553-4.8263l14.8898-2.2363.0768-.2873c1.1019-4.1234,2.716-8.1111,4.7974-11.8522l.1419-.2553-8.8715-12.0072c-1.4471-1.9586-1.2476-4.6295.4744-6.3514l9.1476-9.1477c.9284-.9284,2.1524-1.4397,3.4463-1.4397,1.0456,0,2.0501.3338,2.905.9653l11.7375,8.6723.2585-.1522c3.835-2.2587,7.9467-4.0175,12.2212-5.2276l.2816-.0797,2.1397-14.2466c.3614-2.4079,2.3913-4.1556,4.8263-4.1556h12.937c2.435,0,4.4649,1.7477,4.8263,4.1556l2.0928,13.9343.2907.075c4.4616,1.1509,8.7559,2.8935,12.7633,5.1791l.2566.1465,11.235-8.3008c.8547-.6318,1.8592-.9656,2.905-.9656,1.294,0,2.5179.5115,3.4463,1.44l9.1477,9.1476c1.7219,1.7217,1.9214,4.3928.4744,6.3511l-8.2354,11.1464.1499.2578c2.3523,4.0445,4.147,8.3802,5.3338,12.8868l.076.2887,13.7096,2.059c2.4079.3617,4.1557,2.3916,4.1557,4.8263v12.937c0,2.435-1.7479,4.4649-4.156,4.8263l-13.8663,2.0827-.0784.2842c-1.2184,4.4199-3.02,8.6653-5.3549,12.6185l-.1528.2585,8.4186,11.3945c1.447,1.9584,1.2476,4.6295-.4743,6.3513l-9.1477,9.1477c-.9283.9283-2.1523,1.4396-3.4463,1.4397-1.0456,0-2.0502-.3338-2.905-.9653l-11.6628-8.6171-.2554.1425c-3.8595,2.1539-7.9811,3.8084-12.2503,4.9182l-.29.0753-2.18,14.515c-.3614,2.408-2.3913,4.1557-4.8263,4.1557h-12.937ZM129.2787,203.5744c.0692.461.4729.8085.939.8085h12.937c.4661,0,.8698-.3476.939-.8085l2.5763-17.1544,1.3102-.2966c4.9688-1.1246,9.7108-3.0262,14.0941-5.6517l1.1242-.6733,13.7569,10.1643c.1657.1221.3607.1863.5646.1863.2525,0,.4908-.0988.6706-.2783l9.1482-9.1482c.3349-.3349.3737-.8546.0923-1.2358l-10.0085-13.5462.7211-1.1372c2.8233-4.4538,4.8842-9.306,6.1249-14.4216l.3115-1.2841,16.4625-2.4725c.4686-.0704.8088-.4652.8088-.939v-12.937c0-.4734-.3399-.8683-.8085-.939l-16.3394-2.4539-.2999-1.3045c-1.1951-5.1983-3.2401-10.1398-6.0783-14.6876l-.7075-1.1336,9.8133-13.2819c.2814-.3814.2424-.901-.0924-1.2358l-9.1479-9.1477c-.1801-.18-.4183-.2791-.6709-.2791-.2041,0-.3992.0645-.5648.1868l-13.3508,9.8641-1.1292-.6913c-4.5161-2.7646-9.421-4.7534-14.5784-5.9111l-1.3133-.2949-2.4898-16.5787c-.0704-.4685-.4654-.8084-.939-.8084h-12.937c-.4737,0-.8686.3399-.939.8082l-2.5267,16.8237-1.2721.318c-4.9722,1.2429-9.6958,3.2655-14.0398,6.0117l-1.1366.7186-13.8865-10.2601c-.1657-.1221-.3607-.1865-.5646-.1865-.2529,0-.4912.0991-.6712.2791l-9.1476,9.1477c-.3349.3352-.3737.8546-.0924,1.2354l10.4168,14.0987-.6708,1.1233c-2.5515,4.2724-4.4171,8.8858-5.5451,13.712l-.3036,1.2984-17.5091,2.6295c-.4685.0704-.8084.4654-.8084.939v12.937c0,.4738.3399.8686.8084.939l17.634,2.6482.3148,1.2782c1.1697,4.7476,3.0488,9.2738,5.5853,13.4527l.6841,1.1271-10.6062,14.3556c-.277.3747-.2374.9058.0921,1.2354l9.1479,9.148c.1794.1798.4178.2791.6708.2791h.0001c.2042,0,.3995-.0647.5649-.1869l14.2856-10.5548,1.1317.7003c4.213,2.6067,8.7758,4.5398,13.5617,5.7452l1.2692.3197,2.6134,17.4016ZM137.2527,173.4887c-19.0514,0-34.5508-15.4994-34.5508-34.5507s15.4994-34.5507,34.5508-34.5507,34.5507,15.4994,34.5507,34.5507-15.4994,34.5507-34.5507,34.5507ZM137.2527,108.3184c-16.8838,0-30.6198,13.7359-30.6198,30.6197s13.736,30.6197,30.6198,30.6197,30.6197-13.7359,30.6197-30.6197-13.7359-30.6197-30.6197-30.6197Z"/>
          <path class="cls-7" d="M143.1547,70.5752c2.2088,0,4.0499,1.5852,4.3778,3.7694l2.0482,13.6374.0892.5937.5813.15c4.4227,1.1409,8.6794,2.8682,12.652,5.134l.5133.2928.4752-.3511,10.9973-8.1253c.7762-.5736,1.6875-.8767,2.6354-.8767,1.1728,0,2.2828.4642,3.1256,1.3072l9.1478,9.1476c1.5618,1.5617,1.7428,3.9845.4304,5.7608l-8.0582,10.9065-.3544.4796.2998.5155c2.3318,4.0094,4.1107,8.3073,5.2873,12.7742l.1521.5774.5904.0887,13.4142,2.0146c2.1843.3282,3.7696,2.1693,3.7696,4.3778v12.937c0,2.2087-1.5854,4.0499-3.7699,4.3778l-13.5747,2.0389-.5831.0876-.1567.5684c-1.2078,4.3813-2.9938,8.5897-5.3083,12.5084l-.3055.5172.357.4832,8.2401,11.1528c1.3125,1.7765,1.1316,4.1993-.4302,5.761l-9.1477,9.1477c-.8427.8427-1.9526,1.3068-3.1255,1.3068-.948,0-1.8593-.3031-2.6354-.8765l-11.4277-8.4433-.4704-.3475-.5107.285c-3.8259,2.135-7.9115,3.7753-12.1433,4.8752l-.5799.1507-.089.5925-2.1356,14.2188c-.3279,2.1842-2.169,3.7695-4.3778,3.7695h-12.937c-2.2087,0-4.0499-1.5853-4.3778-3.7695l-2.1839-14.5409-.0867-.5776-.5617-.1601c-4.0484-1.1539-7.9552-2.808-11.6119-4.9161l-.5145-.2966-.4777.3529-11.9203,8.807c-.776.5736-1.6873.8767-2.6352.8767-1.1727,0-2.2828-.4641-3.1255-1.3067l-9.1479-9.148c-1.5619-1.5617-1.7428-3.9844-.4302-5.7608l8.8746-12.0115.3497-.4733-.2896-.5122c-2.0459-3.6193-3.6507-7.4852-4.77-11.4903l-.1581-.5657-.5808-.0872-14.7572-2.2164c-2.1841-.3279-3.7694-2.169-3.7694-4.3778v-12.937c0-2.2085,1.5852-4.0496,3.7691-4.3778l14.5956-2.1921.5881-.0883.1535-.5746c1.0923-4.0874,2.6923-8.0403,4.7555-11.7489l.2839-.5104-.347-.4697-8.698-11.7725c-1.3126-1.7764-1.1316-4.1992.4304-5.761l9.1476-9.1477c.8428-.8428,1.9528-1.3069,3.1255-1.3069.9479,0,1.8592.3031,2.6354.8765l11.4964,8.4941.4825.3565.5169-.3044c3.8015-2.239,7.8774-3.9825,12.1145-5.1821l.563-.1594.0869-.5787,2.0963-13.9573c.3279-2.1841,2.169-3.7694,4.3778-3.7694h12.937M126.3485,91.3178l-.9786.2446c-5.019,1.2547-9.7872,3.2964-14.172,6.0684l-.8743.5528-13.6376-10.0763c-.2438-.1797-.532-.2747-.8335-.2747-.374,0-.7263.1463-.9919.4119l-9.1478,9.148c-.4945.495-.5518,1.2627-.1362,1.8255l10.2373,13.8557-.516.8641c-2.5754,4.3127-4.4587,8.9696-5.5973,13.8412l-.2335.9988-17.205,2.5839c-.6921.1041-1.1944.6876-1.1944,1.3876v12.937c0,.7.5024,1.2836,1.1946,1.3876l17.3336,2.6032.2421.9832c1.1806,4.7924,3.0775,9.3612,5.6379,13.5796l.5263.867-10.4253,14.1106c-.4094.554-.3509,1.3389.136,1.8259l9.1473,9.1475c.2655.266.6178.4124.9921.4124.3021,0,.5908-.0954.8343-.2756l14.0388-10.3724.8706.5388c4.2525,2.6312,8.8583,4.5824,13.6894,5.7992l.9763.2459,2.5686,17.1029c.1023.681.6988,1.1946,1.3876,1.1946h12.937c.6888,0,1.2853-.5136,1.3876-1.1947l2.5303-16.8478,1.0079-.2282c5.0157-1.1353,9.8024-3.0547,14.2271-5.7049l.8646-.518,13.5147,9.9854c.2437.1795.5318.2744.833.2744.3736,0,.7255-.1459.9919-.4116l9.1477-9.1477c.4949-.4949.5522-1.2628.1363-1.8262l-9.8237-13.2961.5546-.8748c2.8501-4.4958,4.9302-9.3936,6.1827-14.5575l.2396-.9877,16.161-2.4273c.6925-.104,1.195-.6875,1.195-1.3876v-12.937c0-.6996-.5023-1.2831-1.195-1.3876l-16.0337-2.4081-.2307-1.0035c-1.2065-5.2473-3.2707-10.2355-6.1355-14.8262l-.5442-.872,9.6302-13.0341c.4156-.5631.3582-1.3309-.1366-1.8257l-9.1482-9.1481c-.2656-.2654-.6177-.4115-.9912-.4115-.3018,0-.5903.0952-.8345.2755l-13.105,9.6825-.8687-.5318c-4.5586-2.7906-9.5098-4.7981-14.7159-5.9669l-1.0101-.2267-2.4437-16.2717c-.104-.6922-.6875-1.1945-1.3876-1.1945h-12.937c-.7,0-1.2835.5023-1.3876,1.1946l-2.4817,16.5242M137.2528,104.841c18.8012,0,34.0971,15.2959,34.0971,34.0971s-15.2959,34.0971-34.0971,34.0971-34.0972-15.2959-34.0972-34.0971,15.2959-34.0971,34.0972-34.0971M137.2528,170.0113c17.1338,0,31.0732-13.9394,31.0732-31.0732s-13.9394-31.0732-31.0732-31.0732-31.0734,13.9394-31.0734,31.0732,13.9395,31.0732,31.0734,31.0732M143.1547,69.668h-12.937c-2.6614,0-4.8798,1.9101-5.2749,4.5418l-2.0963,13.9572c-4.3186,1.2227-8.4526,2.9909-12.3278,5.2733l-11.4964-8.4941c-.9567-.7068-2.0688-1.0541-3.1744-1.0541-1.3681,0-2.7262.5319-3.7669,1.5726l-9.1476,9.1477c-1.8821,1.8818-2.1002,4.8011-.5186,6.9415l8.698,11.7725c-2.103,3.78-3.7258,7.7892-4.8392,11.9557l-14.5956,2.1921c-2.6315.3954-4.5415,2.6138-4.5415,5.2749v12.937c0,2.6614,1.9101,4.8798,4.5418,5.2749l14.7572,2.2164c1.1409,4.0825,2.7684,8.0031,4.8539,11.6926l-8.8746,12.0115c-1.5816,2.1405-1.3635,5.0598.5184,6.9414l9.1479,9.148c1.0408,1.0407,2.3987,1.5724,3.767,1.5724,1.1055,0,2.218-.3475,3.1744-1.0543l11.9201-8.8069c3.7274,2.1489,7.6895,3.8263,11.8163,5.0026l2.1839,14.5409c.3951,2.6318,2.6135,4.542,5.2749,4.542h12.937c2.6614,0,4.8798-1.9101,5.2749-4.542l2.1356-14.2187c4.3132-1.1211,8.4572-2.7847,12.3572-4.961l11.4277,8.4433c.9566.7067,2.0687,1.054,3.1744,1.054,1.3681,0,2.7263-.5318,3.767-1.5725l9.1477-9.1477c1.8818-1.8816,2.0999-4.8011.5184-6.9416l-8.2401-11.1528c2.3591-3.9942,4.1706-8.2629,5.4017-12.7286l13.5747-2.0389c2.632-.3951,4.5423-2.6135,4.5423-5.2749v-12.937c0-2.6611-1.9103-4.8795-4.542-5.2749l-13.4143-2.0147c-1.1993-4.5536-3.0039-8.9132-5.3803-12.9993l8.0582-10.9065c1.5813-2.1403,1.3632-5.0598-.5185-6.9414l-9.1477-9.1476c-1.0407-1.041-2.3987-1.5729-3.767-1.5729-1.1056,0-2.218.3474-3.1746,1.0543l-10.9973,8.1252c-4.0494-2.3097-8.3668-4.0615-12.8748-5.2244l-2.0482-13.6374c-.3951-2.6317-2.6135-4.5418-5.2749-4.5418h0ZM110.2836,99.2821l1.399-.8844c4.3031-2.7203,8.9822-4.7239,13.9073-5.9551l1.5658-.3914,2.5716-17.1228c.0368-.2446.243-.4221.4905-.4221h12.937c.2475,0,.4537.1775.4905.4221l2.536,16.886,1.6163.3628c5.1089,1.1469,9.9675,3.117,14.4409,5.8554l1.3898.8509,13.5965-10.0457c.089-.0657.1924-.098.2953-.098.1272,0,.2535.0494.3503.1461l9.1479,9.1477c.1749.175.1952.4465.0483.6455l-9.9965,13.5299.8708,1.3953c2.8114,4.5051,4.8371,9.4,6.021,14.5491l.3691,1.6055,16.6446,2.4998c.2448.0369.4226.2432.4226.4905v12.937c0,.2475-.1778.4537-.4226.4905l-16.7642,2.5179-.3833,1.5804c-1.229,5.067-3.2703,9.8734-6.0673,14.2856l-.8874,1.3997,10.1931,13.796c.1471.1992.1268.4707-.0481.6457l-9.1477,9.1477c-.0969.0966-.2232.1459-.3505.1459-.1028,0-.2062-.0322-.2951-.0977l-14-10.344-1.3835.8288c-4.3418,2.6005-9.0391,4.4842-13.9612,5.5984l-1.6126.3651-2.6224,17.4609c-.0362.2408-.247.4223-.4905.4223h-12.937c-.2435,0-.4543-.1815-.4905-.4223l-2.6583-17.7003-1.5621-.3935c-4.7411-1.1942-9.2608-3.109-13.4337-5.691l-1.3929-.862-14.5329,10.7374c-.0888.0657-.1923.098-.2952.098-.1272,0-.2535-.0494-.3501-.1462l-9.1479-9.148c-.172-.172-.1927-.4494-.048-.6452l10.787-14.6002-.842-1.3873c-2.5125-4.1395-4.3739-8.6228-5.5325-13.3259l-.3874-1.573-17.9344-2.6934c-.2446-.0368-.4221-.243-.4221-.4905v-12.937c0-.2475.1776-.4537.4221-.4905l17.8134-2.6752.3736-1.598c1.1174-4.7807,2.9655-9.3506,5.4928-13.5826l.8257-1.3826-10.5961-14.3414c-.1469-.1989-.1267-.4701.0483-.6452l9.1476-9.1477c.0968-.0968.2232-.1462.3505-.1462.1028,0,.2063.0323.2952.0978l14.136,10.4445h0ZM137.2528,103.9339c-19.3015,0-35.0044,15.7029-35.0044,35.0042s15.7029,35.0042,35.0044,35.0042,35.0042-15.7029,35.0042-35.0042-15.7029-35.0042-35.0042-35.0042h0ZM137.2528,169.1042c-16.6336,0-30.1662-13.5324-30.1662-30.1661s13.5326-30.1661,30.1662-30.1661,30.1661,13.5324,30.1661,30.1661-13.5324,30.1661-30.1661,30.1661h0Z"/>
        </g>
        <g>
          <path class="cls-16" d="M253.7718,276.759c-2.4353,0-4.4652-1.7479-4.8263-4.156l-2.2274-14.8295-.2808-.08c-4.0834-1.1638-8.0244-2.8325-11.7141-4.9595l-.2572-.1482-12.1589,8.9838c-.8549.6313-1.8598.965-2.9054.965-1.2937,0-2.5174-.5112-3.4458-1.4393l-9.148-9.148c-1.7216-1.7213-1.9209-4.3922-.4742-6.351l9.0494-12.2486-.1447-.256c-2.0638-3.6513-3.6829-7.5512-4.8122-11.5913l-.0788-.2829-15.0476-2.2599c-2.4079-.3617-4.1556-2.3915-4.1556-4.8263v-12.937c0-2.435,1.7477-4.4649,4.1556-4.8263l14.8893-2.2363.0768-.2873c1.1023-4.1247,2.7167-8.1124,4.7977-11.8522l.142-.2553-8.8719-12.0074c-1.447-1.9583-1.2476-4.6292.4742-6.3513l9.1477-9.1477c.9284-.9286,2.1524-1.44,3.4461-1.44,1.0454,0,2.0502.334,2.9051.9658l11.7378,8.6721.2587-.1522c3.8353-2.2589,7.947-4.0178,12.2209-5.2278l.2817-.0797,2.1397-14.2465c.3611-2.4079,2.391-4.1556,4.8263-4.1556h12.937c2.4347,0,4.4646,1.7476,4.8263,4.1553l2.0928,13.9345.2906.075c4.4619,1.1511,8.7562,2.8936,12.7633,5.1792l.2566.1465,11.2352-8.3008c.8546-.6316,1.8592-.9656,2.9051-.9656,1.2937,0,2.5177.5113,3.4458,1.4396l9.148,9.148c1.7219,1.7216,1.9212,4.3927.4745,6.3513l-8.2355,11.1461.1497.2578c2.3526,4.0447,4.1472,8.3805,5.334,12.8868l.0759.2888,13.7095,2.059c2.4079.3614,4.1557,2.3913,4.1557,4.8263v12.937c0,2.4349-1.7476,4.4646-4.1554,4.8263l-13.8666,2.0827-.0785.2842c-1.2181,4.4191-3.0197,8.6645-5.3549,12.6185l-.1527.2587,8.4189,11.3943c1.4236,1.9271,1.2196,4.6574-.4748,6.3513l-9.1474,9.1477c-.9284.9284-2.1524,1.4396-3.4461,1.4396-1.0456,0-2.0502-.3337-2.9051-.9653l-11.6631-8.6171-.2554.1426c-3.8595,2.1539-7.981,3.8084-12.2498,4.9179l-.29.0756-2.1802,14.515c-.3617,2.4079-2.3916,4.1557-4.8263,4.1557h-12.937ZM252.8328,272.0192c.0706.4686.4654.8088.939.8088h12.937c.4657,0,.8697-.3476.939-.8085l2.5762-17.1547,1.3105-.2965c4.9687-1.1245,9.7106-3.0259,14.0936-5.6517l1.1245-.6733,13.7567,10.1641c.163.1211.3582.1852.5634.1852.2513,0,.4967-.101.6727-.2776l9.1471-9.1477c.3298-.3293.3697-.8605.0924-1.2355l-10.0082-13.5459.7208-1.1375c2.8239-4.4551,4.8845-9.3072,6.1251-14.4214l.3112-1.2842,16.4628-2.4725c.4686-.0704.8085-.4654.8085-.939v-12.937c0-.4737-.3399-.8686-.8082-.939l-16.3394-2.4539-.3-1.3045c-1.1954-5.1984-3.2403-10.1401-6.0784-14.6878l-.7075-1.1338,9.8133-13.2817c.277-.3749.2374-.906-.0921-1.2355l-9.148-9.148c-.1795-.1798-.4178-.2791-.6706-.2791-.2041,0-.3992.0647-.5646.1869l-13.3513,9.8641-1.1292-.6913c-4.516-2.7644-9.4209-4.7533-14.5782-5.9113l-1.3132-.295-2.4899-16.5783c-.0697-.4611-.4734-.8085-.939-.8085h-12.937c-.4734,0-.8682.3397-.939.8076l-2.5269,16.8241-1.2721.318c-4.971,1.2426-9.6949,3.2654-14.0399,6.0117l-1.1363.7185-13.8866-10.2597c-.1654-.1221-.3606-.1868-.5646-.1868-.2531,0-.4914.0992-.6712.2794l-9.1474,9.1474c-.3352.3349-.3741.8546-.0924,1.2355l10.4169,14.0987-.6712,1.1235c-2.5514,4.2721-4.4171,8.8853-5.5451,13.7118l-.3033,1.2984-17.5092,2.6295c-.4608.0692-.8084.4729-.8084.939v12.937c0,.4661.3476.8698.8087.939l17.6338,2.6482.3148,1.2782c1.17,4.7484,3.0489,9.2745,5.5853,13.4524l.6842,1.1274-10.6062,14.3553c-.2817.3812-.243.9007.0918,1.2355l9.148,9.1483c.1798.1798.4181.2791.6709.2791h0c.2043,0,.3998-.0647.5652-.1872l14.285-10.5548,1.1319.7004c4.2127,2.6066,8.7756,4.5396,13.5618,5.745l1.2692.3201,2.6134,17.401ZM260.8067,241.9337c-19.0514,0-34.5507-15.4994-34.5507-34.5507s15.4993-34.5508,34.5507-34.5508,34.5507,15.4994,34.5507,34.5508-15.4993,34.5507-34.5507,34.5507ZM260.8067,176.7632c-16.8836,0-30.6197,13.736-30.6197,30.6198s13.736,30.6197,30.6197,30.6197,30.6197-13.7359,30.6197-30.6197-13.736-30.6198-30.6197-30.6198Z"/>
          <path class="cls-7" d="M266.7088,139.0202c2.2085,0,4.0496,1.5852,4.3778,3.7691l2.0482,13.6376.0892.5937.5813.15c4.4228,1.141,8.6794,2.8684,12.6518,5.1341l.5133.2927.4752-.3511,10.9975-8.1253c.776-.5735,1.6873-.8767,2.6354-.8767,1.1728,0,2.2827.464,3.1252,1.3067l9.148,9.1481c1.5618,1.5615,1.7428,3.9843.4304,5.7608l-8.0583,10.9064-.3544.4796.2998.5155c2.332,4.0096,4.1109,8.3076,5.2872,12.7744l.152.5774.5904.0887,13.4142,2.0147c2.1842.3279,3.7695,2.169,3.7695,4.3778v12.937c0,2.2085-1.5852,4.0497-3.7692,4.3778l-13.5751,2.0389-.5831.0876-.1567.5684c-1.2075,4.3806-2.9934,8.589-5.3082,12.5084l-.3055.5172.357.4831,8.2402,11.1527c1.2914,1.748,1.1063,4.2246-.4307,5.7611l-9.1474,9.1476c-.8429.8428-1.9528,1.3069-3.1254,1.3069-.9479,0-1.8593-.3031-2.6356-.8764l-11.4277-8.4434-.4704-.3476-.5108.285c-3.8259,2.1352-7.9114,3.7754-12.1431,4.8752l-.5799.1507-.089.5925-2.1356,14.2188c-.3282,2.1843-2.1693,3.7696-4.3778,3.7696h-12.937c-2.209,0-4.0501-1.5854-4.3778-3.7699l-2.184-14.5407-.0868-.5776-.5617-.1601c-4.0476-1.1536-7.9544-2.8076-11.6119-4.9161l-.5145-.2966-.4776.3529-11.9198,8.8071c-.7766.5735-1.6881.8766-2.6362.8766-1.1727,0-2.2825-.464-3.125-1.3066l-9.1481-9.148c-1.5616-1.5614-1.7424-3.9841-.43-5.7607l8.8745-12.0118.3497-.4732-.2895-.5122c-2.0459-3.6195-3.6508-7.4854-4.7701-11.4902l-.1581-.5657-.5808-.0872-14.757-2.2164c-2.1841-.3281-3.7694-2.1693-3.7694-4.3778v-12.937c0-2.2088,1.5852-4.0499,3.7694-4.3778l14.5952-2.1921.5881-.0883.1536-.5745c1.0928-4.0887,2.6929-8.0416,4.7559-11.7488l.284-.5104-.3471-.4698-8.6983-11.7725c-1.3127-1.7762-1.1318-4.1991.4301-5.7609l9.1478-9.1478c.8428-.8429,1.9526-1.3071,3.1252-1.3071.9479,0,1.8594.3032,2.6358.8769l11.4965,8.4939.4825.3565.5169-.3045c3.802-2.2392,7.8779-3.9828,12.1145-5.1822l.5631-.1594.0869-.5787,2.0963-13.9572c.3277-2.1841,2.1688-3.7693,4.3778-3.7693h12.937M249.9024,159.7627l-.9785.2446c-5.0182,1.2545-9.7864,3.2962-14.1723,6.0684l-.8742.5526-13.6365-10.0749c-.244-.1805-.5325-.2759-.8347-.2759-.3742,0-.7265.1465-.9915.4119l-9.1475,9.1475c-.4955.4951-.553,1.2632-.1368,1.826l10.2375,13.8558-.5163.8643c-2.5754,4.3123-4.4586,8.9691-5.5973,13.8411l-.2335.9988-17.205,2.5839c-.6809.1024-1.1944.6989-1.1944,1.3876v12.937c0,.6887.5137,1.2853,1.1949,1.3876l17.3333,2.6032.2422.9832c1.181,4.7932,3.0779,9.362,5.638,13.5792l.5264.8673-10.4255,14.1106c-.416.5631-.3588,1.3309.136,1.8257l9.148,9.1483c.2656.2655.6178.4118.9917.4118.3021,0,.5908-.0955.8347-.2758l14.0381-10.3723.8706.5388c4.2524,2.6311,8.8582,4.5823,13.6896,5.7992l.9764.246,2.5686,17.1029c.1042.6922.6878,1.1946,1.3875,1.1946h12.937c.6884,0,1.2849-.5135,1.3876-1.195l2.5302-16.8477,1.0081-.2282c5.0158-1.1351,9.8023-3.0546,14.2266-5.705l.865-.518,13.5122,9.9835c.2425.1799.5311.2751.8345.2751.3763,0,.7292-.1459.9931-.4102l9.1469-9.1475c.4877-.487.5467-1.2721.1371-1.8263l-9.8237-13.2961.5546-.8749c2.8504-4.4971,4.9305-9.3949,6.1826-14.5575l.2395-.9879,16.1611-2.4273c.6923-.1039,1.1947-.6875,1.1947-1.3876v-12.937c0-.7-.5024-1.2836-1.1947-1.3876l-16.0338-2.4081-.2307-1.0035c-1.2065-5.2474-3.2708-10.2357-6.1356-14.8263l-.5443-.8722,9.6301-13.0336c.4094-.5539.3508-1.3389-.1362-1.8259l-9.1478-9.1478c-.2655-.2657-.6177-.4121-.9917-.4121-.3017,0-.5901.0953-.834.2755l-13.1057,9.6827-.8686-.5318c-4.5585-2.7905-9.5096-4.7981-14.7158-5.967l-1.0101-.2268-2.4438-16.2718c-.1027-.6808-.6992-1.1941-1.3875-1.1941h-12.937c-.6995,0-1.283.5019-1.3876,1.1943l-2.4818,16.5244M260.8067,173.2859c18.8012,0,34.0971,15.2959,34.0971,34.0972s-15.2959,34.0971-34.0971,34.0971-34.0971-15.2959-34.0971-34.0971,15.2959-34.0972,34.0971-34.0972M260.8067,238.4564c17.1338,0,31.0732-13.9394,31.0732-31.0732s-13.9394-31.0734-31.0732-31.0734-31.0732,13.9394-31.0732,31.0734,13.9394,31.0732,31.0732,31.0732M266.7088,138.1131h-12.937c-2.6615,0-4.8801,1.9103-5.2749,4.5418l-2.0963,13.9571c-4.3181,1.2225-8.4523,2.9909-12.3278,5.2734l-11.4965-8.4939c-.957-.7071-2.0691-1.0545-3.1749-1.0545-1.3679,0-2.726.532-3.7666,1.5728l-9.1477,9.1477c-1.8819,1.8819-2.0999,4.8014-.5182,6.9416l8.6983,11.7725c-2.1034,3.7798-3.7261,7.7892-4.8396,11.9557l-14.5952,2.1921c-2.6317.3951-4.5418,2.6137-4.5418,5.2749v12.937c0,2.6611,1.91,4.8795,4.5418,5.2749l14.757,2.2164c1.141,4.0823,2.7687,8.003,4.8541,11.6924l-8.8746,12.0118c-1.5813,2.1406-1.3634,5.0599.5182,6.9413l9.148,9.148c1.0406,1.0406,2.3984,1.5723,3.7665,1.5723,1.1057,0,2.2182-.3474,3.1751-1.054l11.92-8.8072c3.7275,2.1489,7.6896,3.8265,11.8163,5.0026l2.184,14.5407c.3948,2.632,2.6134,4.5423,5.2749,4.5423h12.937c2.6612,0,4.8795-1.9103,5.2749-4.542l2.1356-14.2189c4.3131-1.1209,8.4567-2.7844,12.357-4.961l11.4277,8.4434c.9568.7066,2.0689,1.054,3.1747,1.054,1.3679,0,2.7258-.5317,3.7668-1.5725l9.1474-9.1477c1.8518-1.8512,2.0748-4.8355.5188-6.9416l-8.2403-11.1528c2.3591-3.9945,4.1708-8.2633,5.4016-12.7286l13.5751-2.0389c2.6317-.3954,4.5417-2.6138,4.5417-5.2749v-12.937c0-2.6614-1.9103-4.8798-4.542-5.2749l-13.4142-2.0147c-1.1992-4.5536-3.0038-8.9132-5.3803-12.9994l8.0584-10.9064c1.5813-2.1405,1.3634-5.0598-.5185-6.9414l-9.148-9.148c-1.0405-1.0406-2.3985-1.5724-3.7667-1.5724-1.1057,0-2.2181.3474-3.1746,1.0543l-10.9975,8.1252c-4.0491-2.3095-8.3667-4.0615-12.8747-5.2245l-2.0482-13.6376c-.3954-2.6315-2.614-4.5415-5.2749-4.5415h0ZM233.8375,167.7268l1.3988-.8843c4.304-2.7204,8.9829-4.724,13.9076-5.9551l1.5657-.3914,2.5717-17.123c.0369-.2444.243-.4218.4905-.4218h12.937c.2433,0,.4542.1816.4905.4223l2.536,16.8855,1.6162.3629c5.1089,1.1471,9.9675,3.1172,14.4409,5.8556l1.3897.8509,13.5973-10.0459c.089-.0658.1923-.098.2949-.098.1273,0,.2536.0496.35.1461l9.148,9.148c.1722.1722.1928.4494.0481.6452l-9.9967,13.5298.8708,1.3954c2.8115,4.5052,4.8373,9.4003,6.0211,14.5493l.3691,1.6055,16.6447,2.4998h.0003c.2445.0368.422.243.422.4905v12.937c0,.2475-.1775.4537-.4223.4905l-16.7643,2.5179-.3833,1.5806c-1.2287,5.0664-3.2701,9.8727-6.0672,14.2856l-.8874,1.3997,10.1931,13.796c.1447.1958.124.4731-.0484.6452l-9.1474,9.148c-.0953.0955-.2232.1445-.3516.1445-.1032,0-.2067-.0317-.2939-.0964l-14-10.344-1.3838.8286c-4.3418,2.601-9.039,4.4847-13.9607,5.5985l-1.6129.365-2.6223,17.4609c-.0363.241-.2472.4226-.4905.4226h-12.937c-.2475,0-.4536-.1775-.4905-.4226l-2.6583-17.6998-1.5621-.3936c-4.741-1.1942-9.2608-3.1089-13.434-5.691l-1.3929-.862-14.5322,10.7373c-.0892.066-.1927.0983-.2956.0983-.1274,0-.2537-.0496-.3502-.1461l-9.148-9.1483c-.1748-.1748-.1949-.4462-.0478-.6452l10.7872-14.6001-.8422-1.3876c-2.5127-4.1392-4.3739-8.6227-5.5327-13.3256l-.3874-1.573-17.9341-2.6934c-.2408-.0362-.4224-.247-.4224-.4905v-12.937c0-.2435.1815-.4543.4221-.4905l17.8134-2.6752.3736-1.598c1.1174-4.7807,2.9654-9.3504,5.4928-13.5825l.8259-1.3827-10.5964-14.3415c-.1471-.1989-.1267-.4703.0484-.6452l9.1477-9.1477c.0965-.0967.2228-.1462.3501-.1462.1028,0,.2062.0323.2952.0981l14.1362,10.4441h0ZM260.8067,172.3787c-19.3015,0-35.0042,15.7029-35.0042,35.0044s15.7027,35.0042,35.0042,35.0042,35.0042-15.7027,35.0042-35.0042-15.7027-35.0044-35.0042-35.0044h0ZM260.8067,237.5492c-16.6335,0-30.1661-13.5324-30.1661-30.1661s13.5326-30.1662,30.1661-30.1662,30.1661,13.5326,30.1661,30.1662-13.5326,30.1661-30.1661,30.1661h0Z"/>
        </g>
      </g>
    </g>
    <path class="cls-1" d="M177.373,156.6514s-11.4749-5.0683-22.1675-2.8319-11.4126,15.2849-11.6869,18.547c-.2743,3.2621,3.0918,17.0356,3.0918,17.0356,0,0,2.0533-11.8148,5.9585-13.5191s12.2417,3.1732,12.2417,3.1732l12.5623-22.4048Z"/>
    <path class="cls-21" d="M169.9054,160.9625c-1.7405-.9044-3.562-1.7247-5.3912-2.4322-2.4803-.9394-5.076-1.7929-7.7564-1.6219-3.3267.161-6.2454,1.8164-7.2407,5.1547.4617-3.3324,3.0942-5.5987,6.2615-6.4055.7278-.1925,1.6286-.3547,2.3738-.4264,2.3896-.2024,4.8108.2234,7.1338.7319,1.7852.4004,3.5511.8997,5.2898,1.4656.2529.084.4939.1632.7638.2599l-1.4343,3.2737h0Z"/>
    <g>
      <path class="cls-1" d="M180.6387,239.9873s-12.8799,10.0796-14.9633,11.8424c-2.0834,1.7629-5.9297,3.8463-12.0196.8013-6.0899-3.045-16.6672-15.7056-16.6672-15.7056,0,0,12.3401,4.8078,17.4685,2.2437,5.1284-2.5642,9.765-6.1745,10.2513-12.142.4862-5.9675,15.9303,12.9602,15.9303,12.9602Z"/>
      <g class="cls-8">
        <path class="cls-21" d="M178.3,241.4969s-14.8718,4.7258-19.0514,4.2053-24.4281-11.5156-24.4281-11.5156v7.185l17.7485,18.5067,24.0872-9.9065,1.6438-8.4749Z"/>
      </g>
    </g>
    <path d="M143.2232,243.8452c-.4366,1.1835-2.84,1.9067-5.2571,1.8543-2.3196-.0502-7.7332-.6006-7.9614-.7186s-1.1137-1.0652-1.1172-2.0175,2.7439-3.8729,2.7439-3.8729c0,0-1.2132-1.3299.438-4.4432s3.1792-3.191,4.0707-3.5565,1.4312-.2104,1.6268-.1092,5.447,2.9946,5.9687,3.2644,3.6883,2.5146,2.6767,4.4709-4.8344.5581-5.4393.3693-2.4167-1.0018-2.6177-.6924,1.2033.8702,2.4064,1.7403,2.9773,2.3125,2.4614,3.711Z"/>
    <polygon class="cls-16" points="130.6298 244.4415 129.6478 242.9199 141.4378 244.3143 130.6298 244.4415"/>
    <g>
      <path class="cls-1" d="M194.3597,224.3761s12.5881,10.4417,14.7537,12.1025c2.1656,1.6608,5.0193,4.976,3.3391,11.5742-1.6802,6.5982-11.8018,19.626-11.8018,19.626,0,0,2.0735-13.0803-1.5226-17.546-3.5962-4.4657-8.0774-7.9278-14.0443-7.4346-5.6919.4705,9.2759-18.3221,9.2759-18.3221Z"/>
      <g class="cls-11">
        <path class="cls-21" d="M201.3358,269.7849s3.5925-12.6281,4.2457-18.5067c.6532-5.8786-1.7059-16.3958-4.2457-19.8131-2.5397-3.4173-5.6609-8.9268-5.6609-8.9268l31.5703,17.4838-8.9268,18.0057-16.9826,11.7571Z"/>
      </g>
    </g>
    <path d="M206.0864,260.1152c1.2493.1749,2.467,2.3695,2.9299,4.7425.4443,2.2772,1.0578,7.684.991,7.9321s-.804,1.3148-1.7337,1.5207-4.3678-1.8575-4.3678-1.8575c0,0-1.0415,1.4683-4.4347.5169s-3.7941-2.4278-4.3409-3.2212-.5099-1.3537-.4527-1.5664,1.7677-5.9593,1.9204-6.5264,1.6727-4.1387,3.7994-3.5663c2.1268.5725,1.5735,4.6051,1.5176,5.2363s-.4649,2.5745-.1199,2.705.5944-1.3609,1.1887-2.7215c.5943-1.3606,1.6264-3.401,3.1027-3.1943Z"/>
    <polygon class="cls-16" points="209.3473 272.2938 208.0693 273.5769 206.9244 261.76 209.3473 272.2938"/>
    <g>
      <path class="cls-1" d="M204.4907,149.1389c-17.6621-3.1869-34.0295,2.7666-40.1304,13.6639l-.0027-.0008s-.0053.0116-.0138.0304c-.9265,1.6614-1.6158,3.4367-2.0336,5.3126-1.7109,5.1146-3.7647,13.1574-3.0485,20.7758,1.1742,12.4887,3.2022,23.1628,5.4466,38.1064h0c.3913,4.8853,3.5346,11.3998,9.9389,13.6082,8.1059,2.7952,14.4768,1.4967,17.8236-4.3001,1.2219-2.1164,1.3939-1.8294,3.9775-4.754,3.7698-3.5717,11.5292-10.7091,22.3751-19.6044,15.591-12.7869,17.9325-27.4451,17.9325-27.4451l-.0007-.0002c.1995-.6739.3639-1.3615.4904-2.0627,2.6463-14.6659-12.0186-29.5882-32.7549-33.3299Z"/>
      <g class="cls-9">
        <path class="cls-21" d="M242.6721,176.2675s-12.3834,1.0354-22.1903,9.3434c-9.8069,8.3079-15.9225,22.5007-17.7687,30.3471s-.4879,13.5004-.4879,13.5004l51.3741,5.3079-10.9272-58.4988Z"/>
      </g>
    </g>
    <path d="M213.6473,126.5783c-13.0451-3.2437-25.3306-3.3178-33.7287-.7923l-1.2126,25.4124c6.3149,4.38,16.1351,9.0217,25.9684,11.4668,22.1326,5.5033,32.4737,2.4398,34.9515-7.5253,2.4778-9.9651-3.846-23.0583-25.9785-28.5615Z"/>
    <path class="cls-1" d="M149.7925,223.7928s1.7341,1.3399,3.2931,1.9465,1.9565.7351,2.8294.1786c.8729-.5565,1.391-3.4784,2.5493-4.4459s2.2929-1.4202,3.8321-.705c1.5392.7152,2.4031,1.5179,2.4031,1.5179l-.1396-4.0097s-1.4108-.8041-3.0031-1.4588c-1.5923-.6547-2.9849-.4033-3.7617.7038s-1.2651,3.2488-1.9876,4.3658c-.7225,1.117-1.1473,1.6008-2.1905,1.7054-1.0432.1046-3.3884-.8836-3.3884-.8836l-.4361,1.085Z"/>
    <path d="M150.667,223.1599c-.257,1.0844-.9644,1.3724-2.6338.9493-1.6694-.4231-3.29-1.1275-3.5165-1.9544-.2265-.8268-.1808-.9913-.1808-.9913,0,0,.5347,1.1186,1.15.9322s-.0315-1.1213-.1807-1.337-1.0275-.9088-2.3573-.9865-2.2506.3202-3.3857.2549c-1.1351-.0653-1.663-.7899-1.663-.7899,0,0,.9761.1061,1.5723.0157s.8855-.1437.8848-.3775-1.528-.2108-2.4758-.5651-1.9387-.7949-2.8322-1.8747-1.0774-2.4459-1.0774-2.4459c0,0,1.0059,1.5129,2.3807,2.2305,1.3748.7176,2.4478,1.0455,2.9686.6559s-1.0284-.5197-1.8877-1.528c-.8669-1.0172-.8195-1.8629-.8195-1.8629,0,0,.6504,1.1916,2.38,1.5841,1.4576.3307,3.2316.017,4.1026-.0147.871-.0317,1.0585-.1171,1.0707-.3744s-.4265-.5058-.8415-.5554-.5427-.0098-.5427-.0098c0,0,.6368-.8358,1.963-.4212,1.3262.4146,2.2023,1.4255,2.8029,2.1665s1.0135,1.8684,1.2123,1.7748.4333-.4316.3459-.8542-.4193-.881-.4193-.881c0,0,.9171.0986,1.4945,1.6315s.8258,2.2088.7881,3.5085-.3027,2.1204-.3027,2.1204Z"/>
    <circle class="cls-20" cx="232.7695" cy="176.9825" r="11.4963"/>
    <circle class="cls-17" cx="233.8305" cy="175.9214" r="11.4963"/>
    <path class="cls-16" d="M232.139,177.3859c-.5973,1.4897-1.124,2.9131-1.738,4.2983-.4481,1.011-1.3364.289-2.1339.5344,1.5018-3.6013,2.9341-7.0433,4.3742-10.4821.2228-.5321.434-1.0793.7417-1.5619.1708-.2678.5288-.5712.8053-.574.2625-.0026.656.3105.7735.5794,1.0459,2.3919,2.043,4.8049,3.0552,7.2114.4356,1.0356.9361,2.0502,1.2792,3.1152.1448.4494.1462,1.1581-.1184,1.4756-.4161.4993-1.0062.1509-1.4609-.2171-1.6649-1.3477-3.3295-2.6958-4.9996-4.0371-.1638-.1315-.3646-.2174-.5786-.3421ZM232.782,175.7705c1.2945,1.0143,2.5801,2.0216,4.039,3.1647-.9099-2.2542-1.7418-4.3153-2.6531-6.5728-.5155,1.2677-.9443,2.3222-1.3859,3.4081Z"/>
    <path class="cls-1" d="M171.4559,119.3282c0,17.6501,17.4878,35.7725,31.7108,35.7725s22.6652-12.7575,22.6652-30.4076-11.53-31.9583-25.753-31.9583c-9.5516,0-21.8317,7.6695-24.4261,12.2147-2.6174,4.5855-4.1968,8.5817-4.1968,14.3787Z"/>
    <path d="M225.9778,107.1288c-2.6765-.3846-5.2199-1.4156-7.3997-3.0156-1.2929-.9489-2.7321-2.1929-4.1383-3.789-4.2053-4.7729-4.625-8.0841-2.0666-11.5694,2.5584-3.4853,4.948-6.4181,11.5398-7.8594,6.5124-1.424,16.4857.6366,16.4857.6366,0,0-4.9436,1.9167-7.576,4.3261-2.5894,2.37-5.0998,4.9897-1.9447,9.5613,1.1044,1.6003,1.5279,3.8117,2.5723,4.6729,1.8377,1.5153,3.1029,3.0788,1.9567,5.1667h0c-.9871,1.798-2.9855,2.7956-5.0158,2.5039l-4.4133-.6341Z"/>
    <g>
      <path class="cls-16" d="M227.9401,98.2353s-3.9961-3.0319-1.7878-8.018c3.0304-6.8425,9.635-8.3731,9.635-8.3731,0,0-5.891-1.7611-11.1293-.0348-5.2384,1.7263-6.862,3.3592-8.5924,6.4164s-.4068,6.8538,2.0023,9.3711c2.4091,2.5173,8.7508,6.3726,8.7508,6.3726l1.6751.3685c2.7299.6005,4.9066-2.2781,3.5851-4.7411h0s-4.1386-1.3615-4.1386-1.3615Z"/>
      <g class="cls-10">
        <path class="cls-4" d="M226.7547,106.0713l-10.2198-8.7575-2.6194-7.2744,1.4092-.9516s-.2429,2.264,3.3971,6.1592c3.6401,3.8952,7.9973,5.2402,7.9973,5.2402,0,0-4.4994-3.4703-5.7086-7.4946-1.2092-4.0243,3.2001-6.6424,3.2001-6.6424,0,0-2.7158,3.8829-1.1013,6.8906,1.6145,3.0077,3.2331,4.6459,3.2331,4.6459,0,0-1.7188-3.2189-1.3093-5.6051s4.1671-4.29,4.1671-4.29l-2.6308,7.1393.7635,2.2061.6071.8983s3.8316,2.6565,5.542,3.4992c1.7103.8428-6.7274,4.3367-6.7274,4.3367Z"/>
      </g>
    </g>
    <ellipse class="cls-1" cx="212.2336" cy="114.4974" rx="28.4444" ry="23.0702"/>
    <ellipse class="cls-1" cx="238.4202" cy="111.1062" rx="3.2048" ry="2.5646" transform="translate(66.6788 310.3388) rotate(-74.2242)"/>
    <ellipse class="cls-1" cx="215.743" cy="136.7987" rx="22.5985" ry="34.3225" transform="translate(20.1187 301.0853) rotate(-72.4018)"/>
    <ellipse cx="238.1727" cy="115.052" rx="3.0156" ry="6.2494" transform="translate(-3.1897 6.8514) rotate(-1.6371)"/>
    <ellipse class="cls-16" cx="238.8031" cy="112.1485" rx="1.4561" ry="1.9464" transform="translate(-9.528 23.0649) rotate(-5.4217)"/>
    <path d="M238.0967,108.2991c.8668-.0142,1.6895.2735,2.4091.786-.7395-1.2327-1.7659-1.9975-2.8764-1.981-1.6053.0238-2.9207,1.6734-3.4004,3.9859.807-1.6596,2.2218-2.7638,3.8677-2.7908Z"/>
    <path d="M226.9803,107.4188c.8668-.0142,1.6895.2735,2.4091.786-.7395-1.2327-1.7659-1.9975-2.8764-1.981-1.6053.0238-2.9207,1.6734-3.4004,3.9859.807-1.6596,2.2218-2.7638,3.8677-2.7908Z"/>
    <g>
      <path class="cls-21" d="M260.0491,143.6108c-.8751,5.2511-2.9516,10.4736-5.1576,13.1546-2.2421,2.7248-6.4047,7.1185-14.2135,7.1185-13.1542,0-36.0755-1.4579-36.075-21.8541.0006-21.8552,20.9944-21.8541,34.1486-21.8541,7.9501,0,14.9905,3.8487,19.3169,9.7634,2.832,3.8717,2.8259,8.5996,1.9806,13.6717Z"/>
      <g class="cls-14">
        <path d="M269.919,141.6916c.2472,1.0574.3603,2.1642.3133,3.3021-.2794,6.7634-5.9886,12.0198-12.752,11.7404-4.8516-.2004-10.3043-2.1627-12.1179-6.3361,1.2221,5.2275,7.1787,8.1852,12.8042,8.4175,6.7634.2794,12.4727-4.977,12.7521-11.7404.079-1.9118-.2849-3.7391-.9996-5.3836Z"/>
      </g>
    </g>
    <ellipse cx="245.5157" cy="130.5995" rx="3.1728" ry="6.3816" transform="translate(-31.6387 107.8047) rotate(-23.3085)"/>
    <path class="cls-1" d="M217.7263,91.4639c-.0767-1.2135,1.104-2.2759,2.6372-2.3728.7602-.0481,1.4638.1507,1.9899.5108-.3576-1.0095-1.835-1.7001-3.5565-1.5913-1.933.1222-6.0852,2.2164-6.0085,3.43.0626.9902,3.8065.7495,5.258.9335-.184-.2714-.2992-.5786-.3202-.9101Z"/>
    <path d="M210.7426,104.8258c-2.703-.0739-5.3481-.8053-7.6977-2.1436-1.3935-.7938-2.9664-1.8638-4.547-3.2874-4.7269-4.257-5.5249-7.4979-3.3847-11.2546s4.1763-6.9451,10.5583-9.1357c6.3052-2.1642,16.4494-1.2655,16.4494-1.2655,0,0-4.69,2.473-7.0276,5.1695-2.2994,2.6524-4.4914,5.5436-.831,9.7216,1.2813,1.4625,2.572,2.5033,3.7086,3.2385,1.9999,1.2937,2.8213,3.8083,1.923,6.0142h0c-.7735,1.8997-2.6438,3.1208-4.6942,3.0647l-4.457-.1218Z"/>
    <g>
      <path class="cls-16" d="M215.9359,96.6416s-2.1149-1.0774-3.2891-2.3048-1.6391-2.9096-1.6391-2.9096c0,0-.7164.9251-.3878,2.0218.3286,1.0967,1.0481,2.3166,1.0481,2.3166,0,0-4.3185-2.5517-2.699-7.7589,2.2225-7.1459,8.607-9.4267,8.607-9.4267,0,0-6.0545-1.0712-11.0594,1.2467-5.0048,2.3179-6.4297,4.1268-7.7966,7.3629-1.3669,3.2361.3849,6.855,3.0678,9.0782,2.6828,2.2232,9.4262,5.3228,9.4262,5.3228l1.7064.1732c2.7809.2823,4.6117-2.8278,3.0154-5.1223h0Z"/>
      <g class="cls-13">
        <path class="cls-4" d="M211.3926,103.6859l-11.16-7.5227-3.4394-6.9244,1.2903-1.1075s.0193,2.2769,4.0836,5.7272c4.0643,3.4503,8.5474,4.2847,8.5474,4.2847,0,0-4.869-2.9293-6.5335-6.7876-1.6645-3.8583,2.4141-6.9667,2.4141-6.9667,0,0-2.2507,4.1697-.3007,6.9716,1.95,2.8019,3.7465,4.2428,3.7465,4.2428,0,0-2.0779-2.9997-1.9459-5.4171.132-2.4174,3.6455-4.7412,3.6455-4.7412l-1.7914,7.3947,1.0124,2.1035.7065.8224s4.112,2.1977,5.908,2.8379-6.1834,5.0824-6.1834,5.0824Z"/>
      </g>
    </g>
    <ellipse cx="227.6519" cy="114.8533" rx="3.0156" ry="6.2494" transform="translate(-3.1884 6.5507) rotate(-1.6371)"/>
    <ellipse class="cls-16" cx="228.2822" cy="111.9498" rx="1.4561" ry="1.9464" transform="translate(-9.5563 22.07) rotate(-5.4217)"/>
    <ellipse class="cls-21" cx="228.2822" cy="124.6044" rx="6.9056" ry="4.4288"/>
    <path d="M145.7849,185.2653s4.9708-4.3796,6.8397-3.3548c1.8689,1.0248,1.8613,4.7119,1.2754,8.7554-.5874,4.0538-1.1743,6.4174-2.3875,7.3024-3.088,2.2529-10.0366.7962-10.0366.7962l-1.2223-2.4921-1.7217.8607s-1.6145-.0484-2.8831-.2891-2.682-.4739-2.8504-1.1104,2.1766-5.2383,3.989-8.1407l1.4806-2.3711c.2291-.3668.5177-.6916.8554-.9618,1.1644-.9315,3.979-3.0359,5.4204-2.8445,1.846.2451,1.241,3.8496,1.241,3.8496Z"/>
    <polygon class="cls-16" points="151.149 196.6374 147.0681 197.5554 152.5689 185.0726 151.149 196.6374"/>
    <path d="M249.9518,195.2552s-6.5303-1.116-6.9071-3.2139c-.3768-2.0979,2.4967-4.4083,6.0107-6.4927,3.523-2.0897,5.7306-3.1179,7.1813-2.7301,3.6929.9872,6.9248,7.3085,6.9248,7.3085l-1.171,2.5166,1.7512.7988s.9766,1.2865,1.5863,2.4247,1.3162,2.3843.9268,2.9152-5.443,1.5974-8.8397,2.0107l-2.775.3377c-.4293.0522-.8633.0317-1.2856-.0613-1.4563-.3207-4.8617-1.1885-5.6184-2.4302-.969-1.5902,2.2155-3.384,2.2155-3.384Z"/>
    <polygon class="cls-16" points="255.4297 183.9375 258.7077 186.5358 245.5399 190.0981 255.4297 183.9375"/>
    <path class="cls-1" d="M230.6702,193.2203c-10.9057-1.6945-16.2692-13.1321-18.2101-18.5016-.219-.9377-.5141-1.8656-.8821-2.7746h0c-1.647-4.0683-4.7546-7.7582-9.0541-10.2514-9.4106-5.457-20.9625-3.1153-25.802,5.2304-4.7543,8.1987-1.2613,19.1413,7.7854,24.6979l-.0005.0003s11.3261,11.7831,30.4272,12.9744c19.1011,1.1912,35.1746-10.0163,35.1746-10.0163,0,0-5.1092.8674-19.4384-1.3591Z"/>
    <path d="M175.2662,179.6833c1.5278,5.0524,5.1632,9.3051,9.6995,11.9146-.0005.0003-.3085.2299-.3089.2302l.0342-.3838c1.0397,1.0085,2.1939,1.9363,3.3668,2.8108,10.5735,7.8598,24.3034,11.3727,37.327,9.2075,7.9325-1.2937,15.5926-4.1926,22.503-8.2821.6213-.3733,1.2509-.7655,1.8321-1.1586l.5024,1.2274c-.1175.0226-.288.0347-.4045.0499-1.8561.173-3.7189.131-5.5767.0561-3.9142-.1797-7.8201-.6347-11.6931-1.1964-.9712-.15-1.9209-.2708-2.9256-.4788-2.9625-.6355-5.7213-2.0627-8.0449-3.9912-4.6011-3.8547-7.5871-9.2584-9.5912-14.8331-.2085-.9309-.4924-1.8459-.8444-2.7352l-.0332-.2094.0332.2093c-1.0401-2.6137-2.6425-5.0003-4.6553-6.9711-6.1114-6.0241-15.852-8.2122-23.6378-4.1787,5.0404-2.8952,11.4117-3.0684,16.7894-.9769,5.85,2.1847,10.3272,6.7863,12.3758,11.7737.3801.9196.6913,1.8692.9253,2.8392,1.8979,5.0556,4.9968,10.5597,9.4043,14.1482,2.1917,1.7848,4.7715,3.0963,7.5446,3.6657,1.8585.3377,3.8394.5801,5.7314.8339,2.8695.3484,5.7967.6427,8.6788.7604,1.8466.0669,3.7068.1099,5.5449-.0851,0,0,.1515-.0204.1515-.0204l2.8582-.3848-2.3558,1.6123c-5.0051,3.2795-10.5051,5.7449-16.2013,7.5484-14.549,4.6804-30.0901,2.964-42.9782-5.3529-2.505-1.62-4.8837-3.4099-6.9951-5.534,0,0-.2082-.2129-.2082-.2129l.2425-.1709c.0006-.0019.0167.4243.0167.4241-4.3787-2.7545-7.8044-7.1311-9.1074-12.1552h0Z"/>
    <path class="cls-21" d="M182.6042,164.3051c4.3568-2.1342,9.6715-2.9694,14.2838-.9942,3.1366,1.4209,5.3034,4.2408,7.1528,7.0229,2.787,4.2144,4.8457,8.8721,7.8559,12.8911,2.7922,3.4612,5.805,6.9524,9.6467,9.2428.8991.5557,1.9605,1.0588,2.937,1.4708,0,0,1.0362.3777,1.0362.3777l.2594.0965c.3864.1177.945.2781,1.3317.3953.8635.2118,1.8677.4294,2.7517.5637,1.1431.1818,2.3141.323,3.4622.4675,3.1004.352,6.2222.7055,9.3507.6032-3.0551.875-6.2733,1.0493-9.4357,1.1513-2.374.0311-4.8757.0574-7.2575-.4197-.361-.0743-.8733-.1553-1.2198-.2567-5.7449-1.3307-10.3979-5.2784-14.1225-9.6383-.4648-.5623-1.1183-1.2949-1.5648-1.8803-1.2519-1.6229-2.3083-3.3848-3.3016-5.1594-1.519-2.7477-2.8753-5.5619-4.4057-8.2596-2.4072-4.1688-4.592-7.1748-9.5984-8.0308-2.9869-.5385-6.182-.309-9.1617.3563h0Z"/>
    <path d="M179.7048,151.6257c-2.6603,1.0304-5.36,2.1415-7.8261,3.5978-3.0829,2.0315-5.2402,5.1874-6.9608,8.4118-2.999,5.8819-4.9675,12.3739-5.6695,18.949.5312-6.6348,2.3278-13.1777,5.1917-19.1925,1.4968-3.0048,3.3432-5.9057,5.9511-8.0905,1.2907-1.0502,2.8153-1.9356,4.2502-2.7672,1.4641-.8278,2.9434-1.5971,4.4754-2.3228l.588,1.4144h0Z"/>
    <path d="M189.1358,242.8652c-2.9821-.0317-5.9605-.2736-8.9154-.6776-2.2324-.325-4.4595-.7182-6.5935-1.4862-.7558-.2833-1.5486-.6203-2.2081-1.2084-.4157-.4164-1.0451-1.1138-1.4583-1.5424-3.7284-3.841-4.9994-9.2867-5.784-14.4163.955,3.5573,1.9107,7.1742,3.7452,10.3908.8832,1.5937,2.1356,2.9687,3.4072,4.2673.2168.213.5197.5722.7489.7602,1.1332.8473,2.5718,1.2317,3.9295,1.6131,4.3031,1.1055,8.7221,1.6656,13.1285,2.2995h0Z"/>
    <path class="cls-1" d="M193.4679,152.6381s14.297,5.4952,17.1326,6.2067c2.8356.7115-11.048-8.7954-11.048-8.7954l-6.0845,2.5887Z"/>
    <g>
      <path class="cls-5" d="M332.129,150.7384l-9.9297-1.6226c-3.2205-17.1198-9.9538-32.9992-19.4227-46.8623l5.616-7.8099c3.4931-4.4547,3.1097-10.8164-.8933-14.8193l-14.3891-14.3892c-4.0029-4.0029-10.3646-4.3864-14.8193-.8933l-7.7267,5.5562c-14.4001-9.9291-30.9992-16.8962-48.9185-20.0233l-1.6541-10.1224c-.68-5.62-5.4495-9.8472-11.1104-9.8472h-20.3494c-5.661,0-10.4305,4.2272-11.1104,9.8472l-1.745,10.6788c-16.7215,3.3414-32.2307,10.0399-45.7955,19.3638l-7.5833-5.453c-4.4547-3.4931-10.8164-3.1096-14.8193.8933l-14.3892,14.3892c-4.0029,4.0029-4.3864,10.3645-.8933,14.8193l5.4653,7.6003c-9.5353,13.8992-16.3166,29.8351-19.557,47.0223l-10.2333,1.6722c-5.62.68-9.8472,5.4495-9.8472,11.1104v20.3494c0,5.661,4.2272,10.4305,9.8472,11.1104l10.1593,1.6601c3.31,17.8787,10.4488,34.4134,20.535,48.7222l-6.3694,8.8576c-3.4931,4.4547-3.1097,10.8164.8933,14.8193l14.3892,14.3891c4.0029,4.0029,10.3645,4.3864,14.8193.8933l9.2251-6.6337-.8031-.8031c13.3816,9.0379,28.6199,15.5346,45.0223,18.803l1.6795,10.2783c.68,5.6199,5.4495,9.8472,11.1104,9.8472h20.3494c5.661,0,10.4305-4.2273,11.1104-9.8472l1.5889-9.7238c17.92-3.1174,34.5212-10.0747,48.9252-19.9945l-1.4401,1.4401,9.2251,6.6337c4.4547,3.4931,10.8164,3.1096,14.8193-.8933l14.3891-14.3891c4.0029-4.0029,4.3864-10.3645.8933-14.8193l-6.5182-9.0645c10.0187-14.2744,17.1088-30.7532,20.3989-48.5648l9.8557-1.6105c5.6199-.68,9.8472-5.4495,9.8472-11.1104v-20.3494c0-5.661-4.2273-10.4305-9.8472-11.1104ZM200.1472,277.0024c-57.8712,0-104.7851-46.9139-104.7851-104.7851s46.9139-104.7851,104.7851-104.7851,104.7851,46.9139,104.7851,104.7851-46.9139,104.7851-104.7851,104.7851Z"/>
      <g class="cls-12">
        <circle class="cls-15" cx="220.4815" cy="165.4355" r="125.1194"/>
      </g>
    </g>
    <polygon class="cls-3" points="193.0304 36.9003 193.0304 49.0003 204.3445 42.9503 193.0304 36.9003"/>
    <polygon class="cls-3" points="101.7021 78.3352 110.2581 86.8912 113.9804 74.6129 101.7021 78.3352"/>
    <polygon class="cls-3" points="293.5307 74.6129 284.9747 83.1689 297.253 86.8912 293.5307 74.6129"/>
    <polygon class="cls-3" points="290.1112 256.6789 298.6672 265.2349 286.3889 268.9572 290.1112 256.6789"/>
    <polygon class="cls-3" points="115.8606 260.4012 107.3046 268.9572 103.5823 256.6789 115.8606 260.4012"/>
    <polygon class="cls-3" points="321.56 164.6117 333.66 164.6117 327.61 175.9258 321.56 164.6117"/>
    <polygon class="cls-3" points="204.3445 295.8733 204.3445 307.9733 193.0304 301.9233 204.3445 295.8733"/>
    <path class="cls-2" d="M208.8812,29.9051c5.661,0,10.4305,4.2272,11.1104,9.8472l1.6541,10.1224c17.9192,3.1271,34.5184,10.0942,48.9185,20.0233l7.7267-5.5562c2.0381-1.5982,4.4748-2.3847,6.9028-2.3847,2.8788,0,5.745,1.1065,7.9165,3.278l14.3892,14.3892c4.0029,4.0029,4.3863,10.3645.8932,14.8193l-5.616,7.8099c9.469,13.8631,16.2022,29.7425,19.4227,46.8623l9.9297,1.6225c5.6199.68,9.8472,5.4495,9.8472,11.1105v20.3493c0,5.661-4.2273,10.4305-9.8472,11.1105l-9.8557,1.6105c-3.2901,17.8116-10.3802,34.2904-20.3989,48.5649l6.5182,9.0645c3.4931,4.4548,3.1097,10.8164-.8932,14.8193l-14.3892,14.3891c-2.1717,2.1717-5.0374,3.278-7.9165,3.278-2.4276,0-4.8649-.7868-6.9028-2.3847l-9.2251-6.6337,1.44-1.4401c-14.404,9.9198-31.0053,16.8772-48.9252,19.9946l-1.589,9.7237c-.6799,5.62-5.4494,9.8472-11.1104,9.8472h-20.3494c-5.6609,0-10.4304-4.2273-11.1104-9.8472l-1.6795-10.2783c-16.4023-3.2684-31.6407-9.7651-45.0223-18.803l.8032.8031-9.2251,6.6337c-2.0381,1.5981-4.4748,2.3847-6.9027,2.3847-2.8788,0-5.745-1.1065-7.9165-3.278l-14.3892-14.3891c-4.0029-4.0029-4.3863-10.3645-.8932-14.8193l6.3694-8.8576c-10.0863-14.3088-17.2251-30.8435-20.535-48.7222l-10.1593-1.66c-5.62-.68-9.8472-5.4495-9.8472-11.1105v-20.3493c0-5.661,4.2272-10.4305,9.8472-11.1105l10.2333-1.6721c3.2404-17.1872,10.0217-33.1231,19.557-47.0223l-5.4653-7.6003c-3.4931-4.4548-3.1097-10.8164.8932-14.8193l14.3892-14.3892c2.1718-2.1717,5.0374-3.2781,7.9165-3.278,2.4276,0,4.8649.7868,6.9027,2.3847l7.5833,5.453c13.5648-9.3239,29.074-16.0224,45.7955-19.3638l1.745-10.6788c.68-5.62,5.4495-9.8472,11.1104-9.8472h20.3494M200.1472,277.0024c57.8712,0,104.7851-46.9139,104.7851-104.7851s-46.9139-104.7851-104.7851-104.7851-104.7851,46.9139-104.7851,104.7851,46.9139,104.7851,104.7851,104.7851M208.8812,26.8813h-20.3494c-7.1603,0-13.2118,5.3436-14.1041,12.4411l-1.4007,8.572c-15.4248,3.3453-29.9026,9.4651-43.0918,18.2151l-5.8243-4.1882c-2.4821-1.9272-5.5746-2.9879-8.7159-2.988-3.7988-.0001-7.3697,1.4786-10.0548,4.1636l-14.3892,14.3892c-5.0631,5.063-5.5633,13.1211-1.1756,18.7708l4.2016,5.8429c-8.9742,13.5526-15.1678,28.4439-18.4332,44.3208l-8.1025,1.324c-7.0975.8923-12.4413,6.9439-12.4413,14.1042v20.3493c0,7.1603,5.3438,13.2119,12.4413,14.1042l8.0218,1.3108c1.6829,8.3012,4.2055,16.4443,7.5098,24.2359,3.2302,7.6172,7.2264,14.9443,11.8919,21.8085l-5.0894,7.0775c-4.3877,5.6497-3.8875,13.7078,1.1756,18.7709l14.3892,14.3891c2.685,2.685,6.2559,4.1637,10.0547,4.1637,3.1414,0,6.2342-1.0609,8.7166-2.9884l7.6892-5.5292c12.7069,8.1152,26.5732,13.8291,41.292,17.0131l1.3351,8.1704c.8923,7.0975,6.9439,12.4412,14.1041,12.4412h20.3494c7.1603,0,13.2119-5.3436,14.1041-12.4412l1.2358-7.5625c8.3118-1.5931,16.4728-4.0253,24.2908-7.2409,6.9918-2.8758,13.7471-6.3931,20.1352-10.4812l7.8305,5.6308c2.4822,1.9274,5.5748,2.988,8.716,2.988,3.7989,0,7.3697-1.4787,10.0547-4.1636l14.3892-14.3892c5.0631-5.063,5.5633-13.1211,1.1756-18.7708l-5.2408-7.2881c4.6335-6.8464,8.602-14.1509,11.8101-21.7419,3.2809-7.7633,5.7864-15.8742,7.4591-24.1417l7.7174-1.261c7.0975-.8923,12.4411-6.9439,12.4411-14.1042v-20.3493c0-7.1603-5.3436-13.2119-12.4411-14.1042l-7.7982-1.2743c-3.2451-15.8099-9.3944-30.6457-18.3025-44.1572l4.3549-6.0562c4.3877-5.6497,3.8875-13.7078-1.1756-18.7709l-14.3892-14.3891c-2.685-2.685-6.2559-4.1637-10.0547-4.1637-3.1414,0-6.2342,1.0609-8.7166,2.9884l-5.9649,4.2893c-6.9134-4.597-14.2829-8.5186-21.9357-11.6713-7.8168-3.2202-15.9784-5.6573-24.2899-7.255l-1.3011-7.9624c-.8923-7.0975-6.9438-12.4411-14.1041-12.4411h0ZM200.1472,273.9785c-13.7391,0-27.0655-2.6901-39.6092-7.9956-12.1173-5.1252-23.0004-12.463-32.3469-21.8096-9.3466-9.3465-16.6844-20.2296-21.8095-32.3469-5.3055-12.5437-7.9956-25.8702-7.9956-39.6091s2.6901-27.0655,7.9956-39.6092c5.1252-12.1173,12.463-23.0004,21.8095-32.3469,9.3465-9.3466,20.2296-16.6844,32.3469-21.8096,12.5437-5.3055,25.8701-7.9956,39.6092-7.9956s27.0655,2.6901,39.6092,7.9956c12.1173,5.1252,23.0004,12.463,32.3469,21.8096,9.3466,9.3465,16.6844,20.2296,21.8096,32.3469,5.3055,12.5437,7.9957,25.8701,7.9957,39.6092s-2.6902,27.0655-7.9957,39.6091c-5.1252,12.1173-12.463,23.0004-21.8096,32.3469-9.3465,9.3466-20.2296,16.6843-32.3469,21.8096-12.5437,5.3055-25.8702,7.9956-39.6092,7.9956h0Z"/>
    <polygon class="cls-5" points="130.8079 273.1575 131.6138 272.5423 130.1394 271.4022 129.5618 272.7931 130.8079 273.1575"/>
    <polygon class="cls-15" points="269.6833 276.4605 267.1941 274.6768 270.7114 273.9769 271.3394 275.7356 269.6833 276.4605"/>
    <polygon class="cls-5" points="131.8339 275.8202 131.2167 276.2365 130.2242 274.9218 132.358 274.4601 131.8339 275.8202"/>
    <polygon class="cls-3" points="76.331 175.9258 64.231 175.9258 70.281 164.6117 76.331 175.9258"/>
    <path class="cls-21" d="M184.8482,108.3171s3.2657-2.5614,8.3458-.1281c1.3661.5407,5.635,4.5109,5.635,4.5109,0,0-4.6394-1.7788-6.4746-2.7037-1.8351-.9249-7.5062-1.6791-7.5062-1.6791Z"/>
    <path d="M201.5434,115.6526s-4.5251-5.8767-6.4888-7.1605-9.8445-3.8838-11.7099-.8803,3.8966,7.647,5.7333,8.0408c1.8367.3938,9.5573,2.0491,9.5573,2.0491,0,0-8.305-2.7321-9.3296-3.1021s-5.7346-3.0025-3.9417-5.8627c1.793-2.8602,8.3814.1138,9.2067.5407s6.9726,6.375,6.9726,6.375Z"/>
  </g>
</svg>