<?xml version="1.0" encoding="utf-8"?>
<!-- Generator: Adobe Illustrator 26.5.0, SVG Export Plug-In . SVG Version: 6.00 Build 0)  -->
<svg version="1.1" id="Layer_1" xmlns="http://www.w3.org/2000/svg" xmlns:xlink="http://www.w3.org/1999/xlink" x="0px" y="0px"
	 viewBox="0 0 1296 1728" enable-background="new 0 0 1296 1728" xml:space="preserve">
<path fill="#323133" d="M1064.6,677.5c0,0-3.9,12.3-9.4,20.4c-5.5,8.1-7,10.1-13.1,10.3c-6.1,0.2-18.3-12.2-27.2-13
	c-8.8-0.8-15.8,0.8-20.9,9.4c-5,8.6-6.5,15.4-6.5,15.4l-12.7-19.8c0,0,4.1-8.6,9.6-17.1c5.5-8.5,13.1-11.9,20.5-9.2
	c7.5,2.8,17,11.5,24.2,14.5c7.2,3,10.9,3.9,16.3,0.9c5.4-3,13.4-15.6,13.4-15.6L1064.6,677.5z"/>
<g>
	<path fill="#010101" d="M401.2,1144c0,0-10.2-37.6,0-44.8c10.2-7.2,29.7,2.4,49.5,15.9c19.9,13.6,30.8,22.8,32.3,31.5
		c3.9,22.1-21.8,55-21.8,55H445l0.1,11.3c0,0-4.4,8.4-9,14.5c-4.6,6.1-9.4,12.9-13.2,12.2s-22-25-32.6-42.1l-8.7-13.9
		c-1.3-2.2-2.3-4.5-2.9-7c-1.9-8.6-5.7-28.8-1-36C383.8,1131.4,401.2,1144,401.2,1144z"/>
	<polygon fill="#FFFFFF" points="475.1,1145.1 469.4,1169 417.8,1107.7 	"/>
</g>
<g>
	<defs>
		<path id="XMLID_00000132810157011928972590000014050002531829369482_" d="M1019.8,752c-46.5-77.4-147.9-123.7-147.9-123.7H424.4
			c0,0-101.4,46.2-147.9,123.7c-46.5,77.4-63.4,163.2-14.9,257.2c54.7,105.8,145.4,142.7,145.4,142.7s-61.1-139.6,1.7-165.9
			c63.7-13.1,120,113.4,123.9,163.7c3.9,50.3,8.8,134.9,8.8,134.9h5.8c-0.1-1.8-0.1-3.6-0.1-5.5c0-55.8,45.3-101.1,101.1-101.1
			c55.8,0,101.1,45.3,101.1,101.1c0,1.8-0.1,3.7-0.1,5.5h5.8c0,0,5-84.6,8.8-134.9c3.9-50.3,60.2-176.8,123.9-163.7
			c62.7,26.3,1.7,165.9,1.7,165.9s90.8-36.8,145.4-142.7C1083.2,915.2,1066.2,829.4,1019.8,752z"/>
	</defs>
	<use xlink:href="#XMLID_00000132810157011928972590000014050002531829369482_"  overflow="visible" fill="#323133"/>
	<clipPath id="XMLID_00000142859900821000497810000011291295564749712539_">
		<use xlink:href="#XMLID_00000132810157011928972590000014050002531829369482_"  overflow="visible"/>
	</clipPath>
	<path clip-path="url(#XMLID_00000142859900821000497810000011291295564749712539_)" fill="#565656" d="M938.2,1031.8
		c-7.4-53.3-29.3-70.4-62.3-76.2c-43.8-7.8-85.3,46.3-93.8,57.3s-21.4,42.2-24.8,50.2c-3.5,7.9-5.2,26.5-37.2,42.7
		c-29.7,15-68.7,14-71.7,13.9v0c0,0,0,0-0.1,0c-0.1,0-0.1,0-0.1,0v0c-3.1,0.1-42.1,1.1-71.7-13.9c-32.1-16.2-33.8-34.8-37.2-42.7
		c-3.5-7.9-16.4-39.2-24.8-50.2c-8.4-10.9-49.9-65-93.8-57.3c-33.1,5.8-54.9,22.9-62.3,76.2c-7.4,53.3,16.8,117.6,16.8,117.6
		l4,186.3h269h0.2h269l4-186.3C921.3,1149.4,945.5,1085.1,938.2,1031.8z"/>
</g>
<path fill="#BCBEC0" d="M763.6,1153L763.6,1153c-77,13.2-155.7,13.8-233,1.7l-10.6-1.7V919.4h243.6V1153z"/>
<g>
	<g>
		<defs>
			<path id="XMLID_00000083047586864933802920000015711111646952745918_" d="M588.6,1024.2l-8.9-83.7L427.4,628.3
				c0,0-104.4,46.2-150.9,123.7c-46.5,77.4-63.4,163.2-14.9,257.2c27.3,52.9,53.7,88.6,83.2,111l54.2-21.4
				c-11.2-42.5-27.3-97.4,9.7-112.9c47.4-9.8,78.1,160.2,98.7,216.2l84.6,8.4L588.6,1024.2z"/>
		</defs>
		<defs>
			<path id="SVGID_1_" d="M594.1,1212.7l-88.1-8.8l-0.4-1.2c-5.1-13.7-10.6-33.9-17.1-57.3c-10-36.1-21.2-77-34.7-108.7
				c-15.2-35.8-29.8-51.8-44.5-48.9c-33.9,14.4-20.4,65.1-9.6,105.9l1.7,6.3l-56.9,22.4l-0.9-0.7c-29.3-22.3-55.9-57.8-83.8-111.7
				c-23.1-44.6-32.6-90.3-28.4-135.9c3.8-40.6,18-80.9,43.4-123.2c13.4-22.3,40.4-56.2,93.5-91.5c31.7-21.1,58-32.8,58.3-33l1.8-0.8
				l0.8,1.7l152.5,312.5l8.9,84.3L594.1,1212.7z M508.9,1200.2l81.1,8.1l-3.4-183.9l-8.8-83.3L426.5,630.9
				c-13.8,6.5-105.9,51.5-148.2,122.1c-53,88.4-57.9,171.9-14.9,255.2c27.3,52.8,53.3,87.7,81.8,109.7l51.5-20.3l-0.7-2.8
				c-11.2-42.4-25.2-95.1,12.1-110.7l0.4-0.1c37.7-7.7,63.4,85.5,84,160.5C498.6,1167,504,1186.6,508.9,1200.2z"/>
		</defs>
		<use xlink:href="#XMLID_00000083047586864933802920000015711111646952745918_"  overflow="visible" fill="#FFFFFF"/>
		<use xlink:href="#SVGID_1_"  overflow="visible"/>
		<clipPath id="XMLID_00000103249826261681958810000005173959193894265012_">
			<use xlink:href="#XMLID_00000083047586864933802920000015711111646952745918_"  overflow="visible"/>
		</clipPath>
		
			<clipPath id="SVGID_00000112619906238090601830000011228785995302884250_" clip-path="url(#XMLID_00000103249826261681958810000005173959193894265012_)">
			<use xlink:href="#SVGID_1_"  overflow="visible"/>
		</clipPath>
	</g>
	<g>
		<path fill="#F1F2F2" d="M382,731.2l-12.7,158c-0.1,1.5,0.9,2.9,2.4,3.3l80.9,21.6v32.4c0,1.7,1.3,3.1,3,3.2l141.8,92.2
			c2.8,1.8,6.5-0.7,5.7-4L578,929.1L382,731.2z"/>
		<path d="M599.4,1044.1c-1,0-2-0.3-2.9-0.9l-141.5-92c-2.2-0.4-3.9-2.3-3.9-4.6v-31.3L371.2,894c-2.2-0.6-3.6-2.6-3.5-4.9l13-161.3
			l198.6,200.6l25.2,109.3c0.5,2.1-0.3,4.2-2.1,5.5C601.5,1043.8,600.4,1044.1,599.4,1044.1z M383.2,734.6l-12.5,154.8
			c-0.1,0.8,0.5,1.5,1.2,1.8l82,21.9v33.6c0,0.9,0.7,1.6,1.6,1.7l0.4,0l0.3,0.2l141.8,92.2c0.8,0.5,1.8,0.5,2.5,0
			c0.8-0.5,1.1-1.4,0.9-2.4l-25-108.4L383.2,734.6z"/>
	</g>
</g>
<path fill="#010101" d="M769,1237.4c7.4-0.9,17.6,9.7,23.9,22.4c6,12.2,17.7,42,17.7,43.5s-2.6,8.7-7.5,11.3
	c-5,2.6-27.6-3.9-27.6-3.9s-3.7,9.9-24.4,9.7s-25.2-8-29.5-11.6c-4.3-3.7-5-6.9-5-8.2s0.9-36.5,0.9-40c0-3.5,3.2-26,16.1-26
	s16,23.7,16.6,27.4c0.6,3.7,1.3,15.3,3.5,15.5c2.2,0.2,1.3-8.6,2.6-17.3C757.5,1251.6,760.3,1238.5,769,1237.4z"/>
<path fill="#010101" d="M529.8,1237.4c-7.4-0.9-17.6,9.7-23.9,22.4c-6,12.2-17.7,42-17.7,43.5s2.6,8.7,7.5,11.3
	c5,2.6,27.6-3.9,27.6-3.9s3.7,9.9,24.4,9.7c20.7-0.2,25.2-8,29.5-11.6c4.3-3.7,5-6.9,5-8.2s-0.9-36.5-0.9-40c0-3.5-3.2-26-16.1-26
	s-16,23.7-16.6,27.4s-1.3,15.3-3.5,15.5c-2.2,0.2-1.3-8.6-2.6-17.3C541.2,1251.6,538.5,1238.5,529.8,1237.4z"/>
<polygon fill="#FFFFFF" points="571.2,1248.4 576,1301.4 565,1310.8 "/>
<polygon fill="#FFFFFF" points="806.1,1301.5 800.8,1310.7 776.2,1245.4 "/>
<path fill="#010101" d="M1058.3,677.4c4.9,4.4,9.2,3.4,15.9-4.2c6.7-7.6,12.1-16.4,10.5-21.2c-1.7-4.8-2.4-5.4-2.4-5.4
	s1.2,7.2-2.4,8.3s-3.6-5.5-3.6-7.1s1.9-7.8,8.1-12.6c6.2-4.8,11.9-6,17.2-10.1c5.3-4.1,5.4-9.4,5.4-9.4s-4.4,3.8-7.5,5.3
	c-3.2,1.6-4.8,2.3-5.5,1.1s6.7-6.1,10.1-11s6.7-10.3,7.4-18.5c0.7-8.2-3-15.4-3-15.4s0.2,10.7-4,18.7c-4.2,8.1-8.3,13.2-12.2,13.1
	c-3.8-0.1,3.2-5.9,4-13.7c0.8-7.8-2.3-11.7-2.3-11.7s0.8,7.9-6.2,15.6c-5.9,6.5-15.6,10.9-19.9,13.6c-4.3,2.8-5.5,3-6.4,1.8
	c-0.9-1.2,0.4-3.9,2.2-5.5s2.6-1.9,2.6-1.9s-5.9-1.9-10.9,4.5s-5.9,14.3-6.3,19.8c-0.4,5.6,1.3,12.4,0.1,12.6s-3.5-0.6-4.5-3
	c-1-2.3-0.9-5.7-0.9-5.7s-4.1,3.5-1.8,12.9c2.3,9.3,3.4,13.4,7.9,19.6S1058.3,677.4,1058.3,677.4z"/>
<g>
	<path fill="#FFFFFF" d="M476.2,1053.3c-0.8-26,20.6-46.4,46.2-46.3c25.5,0.1,47.2,20.3,46,48.8c-1,23.9-20.1,44.5-47.5,44.1
		C497,1099.5,475.1,1079.4,476.2,1053.3z M565.6,1053.7c0.5-24.6-20-43.6-42.6-43.9c-24.8-0.3-44.4,19.5-44.6,43.4
		c-0.1,23.8,19.5,43.2,42.2,43.9C546.2,1097.9,566.4,1076.1,565.6,1053.7z"/>
	<path d="M565.6,1053.7c0.8,22.4-19.4,44.3-45,43.4c-22.7-0.8-42.3-20.1-42.2-43.9c0.1-23.9,19.7-43.7,44.6-43.4
		C545.6,1010,566.1,1029.1,565.6,1053.7z M507.5,1076.2c2.5-6.2,4.9-12.3,7.6-18.9c2.6,2,5,3.8,7.3,5.7c5.2,4.2,10.3,8.5,15.6,12.4
		c1.1,0.8,3.4,0.8,4.6,0.2c0.9-0.5,1.2-2.7,1.2-4.1c0-1-0.7-2-1.1-3c-2.8-6.9-5.6-13.8-8.4-20.7c-2.5-6.1-5-12.3-7.8-18.3
		c-0.6-1.4-2.3-3-3.7-3.1c-1.1-0.1-2.5,1.8-3.6,3c-0.5,0.5-0.6,1.3-0.9,2c-4,9.6-7.9,19.1-11.8,28.7c-2.2,5.3-4.3,10.6-6.5,16.1
		C502.8,1076.2,505.1,1076.2,507.5,1076.2z"/>
	<path fill="#FFFFFF" d="M507.5,1076.2c-2.4,0-4.7,0-7.5,0c2.2-5.5,4.4-10.8,6.5-16.1c3.9-9.6,7.9-19.1,11.8-28.7
		c0.3-0.7,0.4-1.5,0.9-2c1.1-1.2,2.4-3.1,3.6-3c1.3,0.1,3,1.7,3.7,3.1c2.8,6,5.3,12.1,7.8,18.3c2.8,6.9,5.6,13.8,8.4,20.7
		c0.4,1,1.2,2,1.1,3c-0.1,1.4-0.3,3.6-1.2,4.1c-1.2,0.7-3.6,0.6-4.6-0.2c-5.3-4-10.4-8.3-15.6-12.4c-2.3-1.9-4.7-3.7-7.3-5.7
		C512.4,1063.9,509.9,1070,507.5,1076.2z M533.5,1063.5c-3.7-9.1-7-17.2-10.6-25.8c-1.7,4.2-3.3,7.9-4.6,11.7
		c-0.3,0.9,0.3,2.6,1.1,3.2C523.7,1056.1,528.2,1059.4,533.5,1063.5z"/>
	<path d="M533.5,1063.5c-5.3-4.1-9.8-7.4-14.1-10.9c-0.8-0.6-1.4-2.3-1.1-3.2c1.3-3.8,3-7.6,4.6-11.7
		C526.5,1046.3,529.8,1054.4,533.5,1063.5z"/>
</g>
<g>
	<g>
		<defs>
			<path id="XMLID_00000087383325772839649080000003571312514810142123_" d="M701.8,1024.2l8.9-83.7L863,628.3
				c0,0,104.4,46.2,150.9,123.7c46.5,77.4,63.4,163.2,14.9,257.2c-27.3,52.9-53.7,88.6-83.2,111l-54.2-21.4
				c11.2-42.5,27.3-97.4-9.7-112.9c-47.4-9.8-78.1,160.2-98.7,216.2l-84.6,8.4L701.8,1024.2z"/>
		</defs>
		<defs>
			<path id="SVGID_00000132790925725701329150000007026284110207547583_" d="M696.3,1212.7l0-2.3l3.4-186.4l0-0.1l8.9-84.1l0.2-0.3
				l153.2-313.9l1.8,0.8c0.3,0.1,26.6,11.9,58.3,33c29.3,19.5,69.3,51.2,93.5,91.5c25.4,42.3,39.6,82.6,43.4,123.2
				c4.2,45.5-5.3,91.2-28.4,135.9c-27.9,53.9-54.5,89.4-83.8,111.7l-0.9,0.7L889,1100l1.7-6.3c10.8-40.8,24.3-91.5-9.6-105.9
				c-14.7-2.9-29.3,13.1-44.5,48.9c-13.4,31.7-24.7,72.6-34.7,108.7c-6.4,23.4-12,43.6-17.1,57.3l-0.4,1.2L696.3,1212.7z
				 M703.8,1024.3l-3.4,183.9l81.1-8.1c4.9-13.6,10.3-33.2,16.5-55.8c20.7-74.9,46.4-168.2,84-160.5l0.4,0.1
				c37.3,15.6,23.3,68.4,12.1,110.7l-0.7,2.8l51.5,20.3c28.5-21.9,54.5-56.8,81.8-109.7c43-83.3,38.2-166.8-14.9-255.2
				C969.9,682.5,877.8,637.4,864,630.9L712.6,941.1L703.8,1024.3z"/>
		</defs>
		<use xlink:href="#XMLID_00000087383325772839649080000003571312514810142123_"  overflow="visible" fill="#FFFFFF"/>
		<use xlink:href="#SVGID_00000132790925725701329150000007026284110207547583_"  overflow="visible"/>
		<clipPath id="XMLID_00000163065905069781460990000009517120319275287205_">
			<use xlink:href="#XMLID_00000087383325772839649080000003571312514810142123_"  overflow="visible"/>
		</clipPath>
		
			<clipPath id="SVGID_00000029046731572788508790000004246453161503913102_" clip-path="url(#XMLID_00000163065905069781460990000009517120319275287205_)">
			<use xlink:href="#SVGID_00000132790925725701329150000007026284110207547583_"  overflow="visible"/>
		</clipPath>
	</g>
	<g>
		<path fill="#F1F2F2" d="M908.4,731.2l12.7,158c0.1,1.5-0.9,2.9-2.4,3.3l-80.9,21.6v32.4c0,1.7-1.3,3.1-3,3.2L693.1,1042
			c-2.8,1.8-6.5-0.7-5.7-4l25.1-108.8L908.4,731.2z"/>
		<path d="M691.1,1044.1c-1,0-2.1-0.3-3-1c-1.8-1.3-2.6-3.4-2.1-5.5l25.2-109.3l198.6-200.6l13,161.3c0.2,2.3-1.3,4.3-3.5,4.9
			l-79.8,21.3v31.3c0,2.3-1.7,4.3-3.9,4.6l-141.5,92C693,1043.8,692.1,1044.1,691.1,1044.1z M713.8,929.9l-25,108.4
			c-0.2,0.9,0.1,1.8,0.9,2.4s1.7,0.6,2.5,0l142.2-92.4l0.4,0c0.9-0.1,1.6-0.8,1.6-1.7V913l82-21.9c0.8-0.2,1.3-0.9,1.2-1.8
			l-12.5-154.8L713.8,929.9z"/>
	</g>
</g>
<g>
	<g>
		
			<rect x="716.9" y="980.7" transform="matrix(0.9528 0.3036 -0.3036 0.9528 369.927 -194.4878)" fill="#323133" width="187.4" height="223.9"/>
		
			<rect x="738.2" y="1002.3" transform="matrix(0.9528 0.3036 -0.3036 0.9528 369.927 -194.4878)" fill="#FFFFFF" width="144.8" height="180.7"/>
		<path fill="#EABD6D" d="M866.8,988.3c0-0.1,0-0.1,0.1-0.2c3.7-11.6-2.7-23.9-14.3-27.6c-11.6-3.7-23.9,2.7-27.6,14.3
			c0,0.1,0,0.1-0.1,0.2l-31.3-10l-10.7,33.7l104.5,33.3l10.7-33.7L866.8,988.3z"/>
		<circle fill="#323133" cx="847.2" cy="977.6" r="7.2"/>
	</g>
	<path d="M791.6,1052.9c-0.4,0-0.9-0.1-1.3-0.2l-22-7c-2.3-0.7-3.5-3.1-2.8-5.4l7-22c0.3-1.1,1.1-2,2.1-2.5c1-0.5,2.2-0.6,3.3-0.3
		l22,7c1.1,0.3,2,1.1,2.5,2.1c0.5,1,0.6,2.2,0.3,3.3l-7,22c-0.3,1.1-1.1,2-2.1,2.5C793,1052.7,792.3,1052.9,791.6,1052.9z
		 M776.6,1017.3c-1,0-1.9,0.6-2.2,1.6l-7,22c-0.4,1.2,0.3,2.5,1.5,2.9l22,7c0.6,0.2,1.2,0.1,1.8-0.1c0.5-0.3,0.9-0.8,1.1-1.3l7-22
		c0.2-0.6,0.1-1.2-0.1-1.7s-0.8-0.9-1.3-1.1l-22-7C777.1,1017.3,776.8,1017.3,776.6,1017.3z"/>
	
		<rect x="808.5" y="1044.7" transform="matrix(0.9528 0.3036 -0.3036 0.9528 359.4712 -206.4231)" fill="#565656" width="70.5" height="16.7"/>
	<path d="M777.1,1098.4c-0.4,0-0.9-0.1-1.3-0.2l-22-7c-2.3-0.7-3.5-3.1-2.8-5.4l7-22c0.3-1.1,1.1-2,2.1-2.5c1-0.5,2.2-0.6,3.3-0.3
		l22,7c1.1,0.3,2,1.1,2.5,2.1c0.5,1,0.6,2.2,0.3,3.3l-7,22c-0.3,1.1-1.1,2-2.1,2.5C778.5,1098.3,777.8,1098.4,777.1,1098.4z
		 M762.1,1062.8c-0.4,0-0.7,0.1-1,0.3c-0.5,0.3-0.9,0.8-1.1,1.3l-7,22c-0.4,1.2,0.3,2.5,1.5,2.9l22,7c0.6,0.2,1.2,0.1,1.7-0.1
		c0.5-0.3,0.9-0.8,1.1-1.3l7-22c0.2-0.6,0.1-1.2-0.1-1.7s-0.8-0.9-1.3-1.1l-22-7C762.6,1062.8,762.3,1062.8,762.1,1062.8z"/>
	
		<rect x="794" y="1090.3" transform="matrix(0.9528 0.3036 -0.3036 0.9528 372.6115 -199.8697)" fill="#565656" width="70.5" height="16.7"/>
	<path d="M762.6,1144c-0.4,0-0.9-0.1-1.3-0.2l-22-7c-2.3-0.7-3.5-3.1-2.8-5.4l7-22c0.3-1.1,1.1-2,2.1-2.5c1-0.5,2.2-0.6,3.3-0.3
		l22,7c2.3,0.7,3.5,3.1,2.8,5.4l-7,22C766.1,1142.8,764.4,1144,762.6,1144z M747.6,1108.3c-0.4,0-0.7,0.1-1.1,0.3
		c-0.5,0.3-0.9,0.8-1.1,1.3l-7,22c-0.4,1.2,0.3,2.5,1.5,2.9l22,7c1.2,0.4,2.5-0.3,2.9-1.5l7-22c0.4-1.2-0.3-2.5-1.5-2.9l-22-7
		C748,1108.4,747.8,1108.3,747.6,1108.3z"/>
	
		<rect x="779.5" y="1135.8" transform="matrix(0.9528 0.3036 -0.3036 0.9528 385.7517 -193.3164)" fill="#565656" width="70.5" height="16.7"/>
	<polygon fill="#00A259" points="779.2,1041.4 770.3,1025.3 777.3,1021.4 782.4,1030.6 810.7,1015.5 814.5,1022.6 	"/>
	<polygon fill="#00A259" points="764.1,1088.5 755.3,1072.5 762.3,1068.6 767.3,1077.8 795.7,1062.7 799.5,1069.8 	"/>
	<polygon fill="#00A259" points="749.6,1134.1 740.8,1118 747.8,1114.1 752.8,1123.3 781.2,1108.2 785,1115.3 	"/>
</g>
<g>
	<path fill="#E0665C" d="M652.3,996.5l12.2-12.2c4.2-4.2,4.2-10.9,0-15.1L647.2,952L630,969.3c-4.2,4.2-4.2,10.9,0,15.1l12.2,12.2
		l-19.7,123.1l24.8,24.8l24.8-24.8L652.3,996.5z"/>
	<path d="M647.2,1146.5l-26.4-26.4L640.5,997l-11.6-11.6c-4.7-4.7-4.7-12.5,0-17.2l18.3-18.3l18.3,18.3c4.7,4.7,4.7,12.5,0,17.2
		L653.9,997l19.7,123.1L647.2,1146.5z M624,1119.1l23.2,23.2l23.2-23.2L650.7,996l12.7-12.7c3.6-3.6,3.6-9.4,0-13l-16.2-16.2
		L631,970.3c-3.6,3.6-3.6,9.4,0,13l12.7,12.7L624,1119.1z"/>
</g>
<path fill="#B74741" d="M628.4,977l2.3,2.5c8.9,9.5,23.9,9.5,32.8,0l2.3-2.5l-0.2,2.3c-0.1,1.5-0.8,2.8-1.9,3.8l-14.7,14
	c-1.1,1.1-2.9,1.1-4,0l-13.6-12.8C629.6,982.4,628.4,979.8,628.4,977L628.4,977z"/>
<g>
	<path fill="#010101" d="M895.8,1144c0,0,10.2-37.6,0-44.8c-10.2-7.2-29.7,2.4-49.5,15.9c-19.9,13.6-30.8,22.8-32.3,31.5
		c-3.9,22.1,21.8,55,21.8,55H852l-0.1,11.3c0,0,4.4,8.4,9,14.5c4.6,6.1,9.4,12.9,13.2,12.2s22-25,32.6-42.1l8.7-13.9
		c1.3-2.2,2.3-4.5,2.9-7c1.9-8.6,5.7-28.8,1-36C913.2,1131.4,895.8,1144,895.8,1144z"/>
	<polygon fill="#FFFFFF" points="912.4,1147.7 865.5,1212.2 876.3,1227.3 907.7,1174.7 	"/>
</g>
<g>
	<path fill="#E5E5E5" d="M835.7,659c0,0,101.4,46.2,147.9,123.7c45.1,75.2,62.5,158.4,18.9,249.2c3-5.1,5.9-10.4,8.7-15.8
		c48.5-93.9,31.5-179.7-14.9-257.2c-46.5-77.4-147.9-123.7-147.9-123.7L835.7,659z"/>
</g>
<g>
	<g>
		<path fill="#010101" d="M481.9,503.4c0,0-30.9-0.9-66.1-21s-44.2-39.1-35.2-64.8c9-25.8,18.1-47.9,55.9-69.4
			c37.4-21.2,102.9-28.5,102.9-28.5s-26.8,21.1-38.3,40.6c-11.4,19.2-21.8,39.7,6.6,60.7c28.3,21,63.9,9.4,63.9,9.4L481.9,503.4z"/>
		<g>
			<defs>
				<path id="XMLID_00000016786572442136032720000001766681984825574545_" d="M523.2,443.5c0,0-14.7-3.9-23.7-10
					s-13.9-15.8-13.9-15.8s-3.4,6.6,0,12.9c3.4,6.3,9.5,12.9,9.5,12.9s-30.5-10.2-26.6-44.2c5.4-46.7,43.2-68.7,43.2-68.7
					s-39.7,1.1-68.7,21.6c-29,20.5-35.8,33.4-40.5,55c-4.7,21.6,10.8,41.6,30.5,51.9c19.7,10.3,66.3,20.8,66.3,20.8L523.2,443.5z"/>
			</defs>
			<use xlink:href="#XMLID_00000016786572442136032720000001766681984825574545_"  overflow="visible" fill="#FFFFFF"/>
			<clipPath id="XMLID_00000050646651477349048180000001636935034507374271_">
				<use xlink:href="#XMLID_00000016786572442136032720000001766681984825574545_"  overflow="visible"/>
			</clipPath>
			<path clip-path="url(#XMLID_00000050646651477349048180000001636935034507374271_)" fill="#DDDDDD" d="M502.9,492.5l-80-32.1
				l-30.3-38.2l6.8-8.4c0,0,2.9,13.9,32.9,30c30,16.1,59.5,15.5,59.5,15.5s-34.5-11.8-49.7-33.4c-15.3-21.6,6.8-45.8,6.8-45.8
				s-9.2,28.4,6.6,43.2c15.8,14.7,29,21.3,29,21.3s-16.8-15.8-19-30.8c-2.1-15,17.4-33.7,17.4-33.7l-2.4,47.6l9,11.6l5.5,4.2
				c0,0,15.4,6.4,27.6,8C534.8,453.2,502.9,492.5,502.9,492.5z"/>
		</g>
	</g>
	<g>
		<path fill="#010101" d="M807.5,503.4c0,0,30.9-0.9,66.1-21s44.2-39.1,35.2-64.8c-9-25.8-18.1-47.9-55.9-69.4
			C815.5,327,750,319.7,750,319.7s26.8,21.1,38.3,40.6c11.4,19.2,21.8,39.7-6.6,60.7c-28.3,21-63.9,9.4-63.9,9.4L807.5,503.4z"/>
		<g>
			<defs>
				<path id="XMLID_00000142857179771692959280000001035502138155132576_" d="M766.3,443.5c0,0,14.7-3.9,23.7-10
					s13.9-15.8,13.9-15.8s3.4,6.6,0,12.9c-3.4,6.3-9.5,12.9-9.5,12.9s30.5-10.2,26.6-44.2c-5.4-46.7-43.2-68.7-43.2-68.7
					s39.7,1.1,68.7,21.6c29,20.5,35.8,33.4,40.5,55c4.7,21.6-10.8,41.6-30.5,51.9c-19.7,10.3-66.3,20.8-66.3,20.8L766.3,443.5z"/>
			</defs>
			<use xlink:href="#XMLID_00000142857179771692959280000001035502138155132576_"  overflow="visible" fill="#FFFFFF"/>
			<clipPath id="XMLID_00000091014631676676651470000017695543886569171336_">
				<use xlink:href="#XMLID_00000142857179771692959280000001035502138155132576_"  overflow="visible"/>
			</clipPath>
			<path clip-path="url(#XMLID_00000091014631676676651470000017695543886569171336_)" fill="#DDDDDD" d="M786.6,492.5l80-32.1
				l30.3-38.2l-6.8-8.4c0,0-2.9,13.9-32.9,30c-30,16.1-59.5,15.5-59.5,15.5s34.5-11.8,49.7-33.4c15.3-21.6-6.8-45.8-6.8-45.8
				s9.2,28.4-6.6,43.2c-15.8,14.7-29,21.3-29,21.3s16.8-15.8,19-30.8c2.1-15-17.4-33.7-17.4-33.7l2.4,47.6l-9,11.6l-5.5,4.2
				c0,0-15.4,6.4-27.6,8S786.6,492.5,786.6,492.5z"/>
		</g>
	</g>
	<g>
		<ellipse fill="#010101" cx="648" cy="748.5" rx="269" ry="214.8"/>
		<ellipse fill="#323133" cx="648" cy="547.2" rx="171.7" ry="153.8"/>
		<ellipse fill="#323133" cx="648" cy="721.4" rx="243.3" ry="201.4"/>
		<g>
			<ellipse fill="#565656" cx="648" cy="775.6" rx="197.7" ry="147.2"/>
			<g>
				<ellipse fill="#565656" cx="682" cy="693.2" rx="90.1" ry="79.9"/>
				<ellipse fill="#565656" cx="614" cy="693.2" rx="90.1" ry="79.9"/>
			</g>
		</g>
		<g>
			
				<ellipse transform="matrix(0.4593 -0.8883 0.8883 0.4593 -293.7505 1087.4097)" fill="#010101" cx="746.4" cy="785" rx="49.6" ry="34.4"/>
			
				<ellipse transform="matrix(0.8883 -0.4593 0.4593 0.8883 -299.1724 340.1547)" fill="#010101" cx="549.6" cy="785" rx="34.4" ry="49.6"/>
		</g>
		<path fill="#323133" d="M641,400.7c-0.5-7.1,6.5-13.4,15.5-13.9c4.5-0.3,8.6,0.9,11.7,3c-2.1-5.9-10.8-10-20.9-9.3
			c-11.4,0.7-20.2,7.1-19.7,14.2c0.4,5.8,6.8,10.3,15.3,11.4C641.8,404.5,641.1,402.6,641,400.7z"/>
		<g>
			<g>
				
					<ellipse transform="matrix(0.1946 -0.9809 0.9809 0.1946 158.5725 1282.1636)" fill="#323133" cx="860.1" cy="544.5" rx="19.6" ry="48.6"/>
				
					<ellipse transform="matrix(0.1946 -0.9809 0.9809 0.1946 153.7433 1284.9794)" fill="#010101" cx="859.4" cy="548.9" rx="15.2" ry="45.4"/>
			</g>
			<g>
				
					<ellipse transform="matrix(0.9809 -0.1946 0.1946 0.9809 -97.6393 95.246)" fill="#323133" cx="435.9" cy="544.5" rx="48.6" ry="19.6"/>
				
					<ellipse transform="matrix(0.9809 -0.1946 0.1946 0.9809 -98.4722 95.4653)" fill="#010101" cx="436.6" cy="548.9" rx="45.4" ry="15.2"/>
			</g>
		</g>
		<g>
			<g>
				
					<ellipse transform="matrix(6.974687e-02 -0.9976 0.9976 6.974687e-02 94.2615 1216.1238)" fill="#010101" cx="699.2" cy="557.5" rx="39.1" ry="19.5"/>
				<circle fill="#FFFFFF" cx="700.8" cy="544.7" r="13.6"/>
			</g>
			<g>
				
					<ellipse transform="matrix(0.9976 -6.974687e-02 6.974687e-02 0.9976 -37.432 42.9806)" fill="#010101" cx="596.8" cy="557.5" rx="19.5" ry="39.1"/>
				<circle fill="#FFFFFF" cx="595.2" cy="544.7" r="13.6"/>
			</g>
		</g>
	</g>
	<path fill="#AEADAE" d="M747.7,522.9c10.3,0,18.6,8.3,18.6,18.6v26.2c0,10.3-8.3,18.6-18.6,18.6H680c-10.3,0-18.6-8.3-18.6-18.6
		v-26.2c0-10.3,8.3-18.6,18.6-18.6H747.7 M747.7,517.9H680c-13,0-23.6,10.6-23.6,23.6v26.2c0,13,10.6,23.6,23.6,23.6h67.7
		c13,0,23.6-10.6,23.6-23.6v-26.2C771.3,528.5,760.7,517.9,747.7,517.9L747.7,517.9z"/>
	<path fill="#AEADAE" d="M612.1,522.9c10.3,0,18.6,8.3,18.6,18.6v26.2c0,10.3-8.3,18.6-18.6,18.6h-67.7c-10.3,0-18.6-8.3-18.6-18.6
		v-26.2c0-10.3,8.3-18.6,18.6-18.6H612.1 M612.1,517.9h-67.7c-13,0-23.6,10.6-23.6,23.6v26.2c0,13,10.6,23.6,23.6,23.6h67.7
		c13,0,23.6-10.6,23.6-23.6v-26.2C635.7,528.5,625.1,517.9,612.1,517.9L612.1,517.9z"/>
	<g opacity="0.5">
		<path fill="#FFFFFF" d="M747.7,586.3H680c-10.3,0-18.6-8.3-18.6-18.6v-26.2c0-10.3,8.3-18.6,18.6-18.6h67.7
			c10.3,0,18.6,8.3,18.6,18.6v26.2C766.3,578,758,586.3,747.7,586.3z"/>
	</g>
	<g opacity="0.5">
		<path fill="#FFFFFF" d="M612.1,586.3h-67.7c-10.3,0-18.6-8.3-18.6-18.6v-26.2c0-10.3,8.3-18.6,18.6-18.6h67.7
			c10.3,0,18.6,8.3,18.6,18.6v26.2C630.7,578,622.4,586.3,612.1,586.3z"/>
	</g>
	<polygon fill="#AEADAE" points="469.7,534 525.5,534 528.7,525 469.7,525 	"/>
	<polygon fill="#AEADAE" points="766,534 825.3,534 825.3,525 763.6,525 	"/>
	<g>
		<g>
			
				<ellipse transform="matrix(0.1946 -0.9809 0.9809 0.1946 158.5725 1282.1636)" fill="#323133" cx="860.1" cy="544.5" rx="19.6" ry="48.6"/>
			
				<ellipse transform="matrix(0.1946 -0.9809 0.9809 0.1946 153.7433 1284.9794)" fill="#010101" cx="859.4" cy="548.9" rx="15.2" ry="45.4"/>
		</g>
		<g>
			
				<ellipse transform="matrix(0.9809 -0.1946 0.1946 0.9809 -97.6393 95.246)" fill="#323133" cx="435.9" cy="544.5" rx="48.6" ry="19.6"/>
			
				<ellipse transform="matrix(0.9809 -0.1946 0.1946 0.9809 -98.4722 95.4653)" fill="#010101" cx="436.6" cy="548.9" rx="45.4" ry="15.2"/>
		</g>
	</g>
	<polygon fill="#AEADAE" points="662.3,533.7 630.4,533.7 628.4,525 664.3,525 	"/>
</g>
</svg>
