<svg width="942px" height="942px" viewBox="0 0 942 942" version="1.1" xmlns="http://www.w3.org/2000/svg" xmlns:xlink="http://www.w3.org/1999/xlink">
    <defs>
        <circle id="path-1" cx="471" cy="471.001757" r="471"></circle>
    </defs>
	<g id="ansible-pride-logo">
		<mask id="mask-2" fill="white">
			<use xlink:href="#path-1"></use>
		</mask>
		<use id="Mask" fill="#000000" xlink:href="#path-1"></use>
		<g mask="url(#mask-2)">
			<g transform="translate(-431.000000, -236.000000)">
				<g id="Intersectional-Pride-Bars" stroke-width="1" fill="none" fill-rule="evenodd">
					<polygon id="Brown" fill="#7F4B00" transform="translate(615.959606, 579.871196) rotate(47.000000) translate(-615.959606, -579.871196) " points="557.463298 -206.966439 674.349548 -206.958538 674.455913 1366.70883 557.569663 1366.70093"></polygon>
					<polygon id="Red" fill="#FB0000" transform="translate(717.961111, 644.425920) rotate(47.000000) translate(-717.961111, -644.425920) " points="659.464804 -142.411715 776.351054 -142.403814 776.457419 1431.26355 659.571169 1431.25565"></polygon>
					<polygon id="Orange" fill="#FF8300" transform="translate(809.544444, 718.574856) rotate(47.000000) translate(-809.544444, -718.574856) " points="751.048137 -68.2627784 867.934387 -68.2548781 868.040752 1505.41249 751.154502 1505.40459"></polygon>
					<polygon id="Yellow" fill="#FFED00" transform="translate(919.316667, 775.276984) rotate(47.000000) translate(-919.316667, -775.276984) " points="860.820359 -11.5606507 977.706609 -11.5527504 977.812974 1562.11462 860.926724 1562.10672"></polygon>
					<polygon id="Green" fill="#008202" transform="translate(978.500000, 879.085494) rotate(47.000000) translate(-978.500000, -879.085494) " points="920.003693 92.2478599 1036.88994 92.2557602 1036.99631 1665.92313 920.110058 1665.91523"></polygon>
					<polygon id="Blue" fill="#0050FF" transform="translate(1066.594444, 956.723792) rotate(47.000000) translate(-1066.594444, -956.723792) " points="1008.09814 169.886158 1124.98439 169.894058 1125.09075 1743.56143 1008.2045 1743.55353"></polygon>
					<polygon id="Purple" fill="#83008C" transform="translate(1145.966667, 1042.213154) rotate(47.000000) translate(-1145.966667, -1042.213154) " points="1087.47036 255.375519 1204.35661 255.38342 1204.46297 1829.05079 1087.57672 1829.04289"></polygon>
				</g>å
				<path d="M909.436462,523.042072 L1031.22563,824.089973 L847.265015,678.96189 L909.436462,523.042072 L909.436462,523.042072 Z M1125.79268,893.438701 L938.456002,441.912851 C933.108311,428.890645 922.414736,422 909.436425,422 C896.43406,422 884.962231,428.890608 879.614503,441.912851 L674,937.17909 L744.337308,937.17909 L825.731401,732.978573 L1068.62981,929.510666 C1078.39874,937.421993 1085.44748,941 1094.61049,941 C1112.96058,941 1129,927.22248 1129,907.335604 C1129,904.099081 1127.85857,898.96219 1125.7925,893.437444 L1125.79268,893.438701 Z" id="Ansible-Logo" fill="#FFFFFF" fill-rule="nonzero"></path>
			</g>
		</g>
	</g>
</svg>