<?xml version="1.0" encoding="UTF-8"?>
<svg id="Layer_1" data-name="Layer 1" xmlns="http://www.w3.org/2000/svg" version="1.1" viewBox="0 0 280 400">
  <g>
    <g>
      <path d="M230.36,219.36c0-23.644-40.195-54.005-89.778-54.005s-89.778,30.361-89.778,54.005c0,12.043,10.432,22.923,27.218,30.702l5.098,47.573s35.663-14.311,56.412-14.841c40.112-1.026,58.865,14.841,58.865,14.841l3.166-46.858c17.709-7.82,28.798-19,28.798-31.417Z" fill="#565656" stroke-width="0"/>
      <path d="M199.456,300.138l-1.852-1.567c-.045-.038-4.729-3.932-14.18-7.653-8.728-3.436-23.425-7.426-43.861-6.898-20.289.519-55.632,14.611-55.987,14.753l-1.503.603-5.197-48.497c-17.611-8.316-27.298-19.492-27.298-31.519,0-12.189,10.039-25.983,26.854-36.898,8.475-5.501,18.452-10.055,28.853-13.169,11.447-3.427,23.323-5.165,35.297-5.165s23.851,1.738,35.297,5.165c10.401,3.114,20.378,7.668,28.853,13.169,16.815,10.915,26.854,24.708,26.854,36.898,0,6.391-2.722,12.538-8.089,18.27-4.96,5.297-11.941,9.993-20.761,13.965l-3.28,48.542ZM140.582,166.581c-11.736,0-23.375,1.703-34.594,5.062-10.18,3.048-19.939,7.5-28.221,12.877-7.883,5.117-14.426,11.049-18.92,17.154-4.459,6.058-6.816,12.174-6.816,17.686,0,5.573,2.354,10.999,6.997,16.127,4.576,5.054,11.14,9.583,19.51,13.462l.63.292,5,46.667c3.029-1.17,10.317-3.912,19.006-6.663,15.384-4.871,27.606-7.454,36.326-7.677,20.931-.531,35.999,3.577,44.957,7.121,6.391,2.529,10.637,5.103,12.867,6.629l3.065-45.364.678-.299c8.836-3.902,15.781-8.512,20.64-13.701,4.929-5.263,7.427-10.846,7.427-16.594,0-5.513-2.357-11.628-6.816-17.686-4.494-6.105-11.037-12.037-18.92-17.154-8.282-5.376-18.041-9.829-28.221-12.877-11.219-3.359-22.858-5.062-34.594-5.062Z" fill="#000" stroke-width="0"/>
    </g>
    <g>
      <path d="M235.186,197.264s-2.453,7.358-4.905,9.811c-2.453,2.453-9.811,7.358-9.811,7.358l-4.905-7.358s7.358-2.453,9.811-4.905l9.811-9.811v4.905Z" fill="#333233" stroke-width="0"/>
      <path d="M220.13,216.134l-6.476-9.714,1.523-.508c1.971-.658,7.49-2.768,9.332-4.609l11.904-11.904v8.065l-.063.189c-.104.312-2.575,7.663-5.202,10.29-2.51,2.51-9.693,7.308-9.998,7.511l-1.02.68ZM217.456,207.701l3.349,5.024c2.085-1.424,6.801-4.711,8.608-6.517,1.786-1.787,3.825-7.033,4.546-9.145v-1.743l-7.717,7.717c-1.933,1.933-6.424,3.782-8.786,4.665Z" fill="#000" stroke-width="0"/>
    </g>
    <path d="M196.403,252.89c20.689-7.843,33.957-19.947,33.957-33.529,0-17.096-21.016-37.7-51.399-47.804l-68.863,10.802s49.054,19.622,73.581,24.527,22.074,14.716,22.074,24.527c0,8.529-7.413,18.909-9.351,21.477Z" fill="#333233" stroke-width="0"/>
    <path d="M140.582,263.398c-24.159,0-46.892-4.496-64.01-12.658-17.407-8.301-26.994-19.445-26.994-31.379,0-12.189,10.039-25.983,26.854-36.898,8.475-5.501,18.452-10.055,28.853-13.169,11.447-3.427,23.323-5.165,35.297-5.165s23.851,1.738,35.297,5.165c10.401,3.114,20.378,7.668,28.853,13.169,16.815,10.915,26.854,24.708,26.854,36.898,0,11.934-9.587,23.078-26.994,31.379-17.118,8.163-39.851,12.658-64.011,12.658ZM140.582,166.581c-11.736,0-23.375,1.703-34.594,5.062-10.18,3.048-19.939,7.5-28.221,12.877-7.883,5.117-14.426,11.049-18.92,17.154-4.459,6.058-6.816,12.174-6.816,17.686,0,10.936,9.09,21.294,25.597,29.165,16.795,8.009,39.153,12.42,62.955,12.42s46.16-4.411,62.955-12.42c16.506-7.871,25.597-18.229,25.597-29.165,0-5.513-2.357-11.628-6.816-17.686-4.494-6.105-11.037-12.037-18.92-17.154-8.282-5.376-18.041-9.829-28.221-12.877-11.219-3.359-22.858-5.062-34.594-5.062Z" fill="#000" stroke-width="0"/>
    <g>
      <g>
        <ellipse cx="213.917" cy="114.484" rx="12.678" ry="7.787" transform="translate(-20.342 51.318) rotate(-13.064)" fill="#333233" stroke-width="0"/>
        <path d="M211.194,123.823c-1.839,0-3.592-.263-5.155-.785-3.084-1.032-5.097-2.954-5.668-5.411h0c-.57-2.457.391-5.069,2.706-7.354,2.159-2.131,5.285-3.754,8.801-4.57,7.596-1.763,14.44.714,15.582,5.638.57,2.457-.391,5.069-2.706,7.354-2.159,2.131-5.285,3.754-8.801,4.57-1.606.373-3.214.558-4.76.558ZM216.603,107.606c-1.335,0-2.745.156-4.17.487-3.081.715-5.792,2.109-7.633,3.927-1.685,1.663-2.41,3.458-2.039,5.053h0c.37,1.595,1.811,2.888,4.056,3.639,2.453.82,5.5.879,8.582.164,3.081-.715,5.792-2.109,7.633-3.927,1.685-1.663,2.41-3.458,2.039-5.053-.614-2.648-4.141-4.29-8.468-4.29Z" fill="#000" stroke-width="0"/>
      </g>
      <g>
        <ellipse cx="67.248" cy="114.421" rx="7.787" ry="12.678" transform="translate(-59.413 154.064) rotate(-76.936)" fill="#333233" stroke-width="0"/>
        <path d="M70.018,123.768c-1.533,0-3.152-.183-4.807-.567-3.516-.816-6.642-2.439-8.801-4.57-2.315-2.285-3.276-4.896-2.706-7.354.57-2.457,2.583-4.378,5.668-5.41,2.877-.962,6.398-1.043,9.915-.227,7.595,1.762,12.649,7,11.507,11.924h0c-.894,3.85-5.275,6.204-10.774,6.204ZM64.521,107.533c-1.571,0-3.057.221-4.372.661-2.245.751-3.686,2.043-4.056,3.639-.37,1.595.354,3.39,2.039,5.053,1.841,1.817,4.552,3.211,7.633,3.926,6.046,1.404,11.833-.338,12.638-3.803h0c.804-3.464-3.625-7.577-9.672-8.98-1.429-.332-2.851-.497-4.21-.497Z" fill="#000" stroke-width="0"/>
      </g>
    </g>
    <g>
      <g>
        <path d="M219.858,126.352c3.106,14.794,5.635,36.101-1.627,47.516-14.076,22.124-49.557,28.477-78.89,28.477-30.202,0-62.662.264-76.44-22.955-6.509-10.968-5.378-40.522-1.721-53.038,11.609-39.725,21.12-67.991,77.182-66.987,59.026,1.057,72.937,26.223,81.497,66.987Z" fill="#565656" stroke-width="0"/>
        <path d="M219.858,126.352c-8.559-40.764-22.47-65.93-81.497-66.987-12.766-.229-23.117,1.061-31.63,3.657,54.48,2.814,68.001,25.69,76.464,61.756,3.214,13.696,5.831,33.423-1.683,43.992-14.563,20.483-51.274,26.364-81.624,26.364-6.394,0-12.885.01-19.289-.158,16.099,7.492,37.955,7.368,58.742,7.368,29.334,0,64.815-6.352,78.89-28.477,7.262-11.415,4.733-32.723,1.627-47.516Z" fill="#333233" stroke-width="0"/>
      </g>
      <path d="M137.329,203.571c-14.7,0-29.835-.062-43.076-2.893-15.526-3.32-26.127-10.079-32.407-20.662-4.099-6.908-4.795-19.603-4.844-26.556-.073-10.189,1.105-20.964,3.001-27.452,6.267-21.445,11.527-37.531,22.191-49.248,11.992-13.176,29.843-19.098,56.19-18.621,28.422.509,47.647,6.53,60.503,18.947,13.096,12.649,18.396,31.034,22.171,49.014h0c5.951,28.342,2.31,41.978-1.792,48.427-6.584,10.348-18.158,18.103-34.401,23.05-16.271,4.955-33.737,5.995-45.524,5.995h-1.006c-.335,0-.67,0-1.005,0ZM135.509,60.565c-24.038,0-40.448,5.7-51.502,17.845-10.31,11.328-15.477,27.158-21.651,48.285-3.73,12.762-4.512,41.771,1.599,52.068,5.912,9.963,15.99,16.346,30.811,19.516,13.289,2.842,28.68,2.839,43.568,2.839h1.007c11.621,0,28.828-1.022,44.81-5.888,15.667-4.771,26.785-12.179,33.046-22.02,7.358-11.565,4.074-34.164,1.461-46.606h0c-3.695-17.598-8.854-35.563-21.475-47.754-12.382-11.96-31.08-17.762-58.844-18.259-.954-.017-1.9-.026-2.831-.026Z" fill="#000" stroke-width="0"/>
    </g>
    <ellipse cx="141.394" cy="242.064" rx="34.338" ry="35.564" fill="#707070" stroke-width="0"/>
    <g>
      <g>
        <ellipse cx="201.971" cy="154.862" rx="13.012" ry="10.493" fill="#ffb9be" stroke-width="0"/>
        <path d="M192.571,152.925c-.182,0-.365-.046-.534-.141-.522-.295-.708-.954-.416-1.477.073-.131.761-1.318,2.435-2.717,1.653-1.382,3.537-1.718,3.616-1.731.591-.101,1.157.297,1.259.89.101.592-.295,1.154-.886,1.258-.033.006-1.411.27-2.591,1.256-1.367,1.144-1.927,2.104-1.933,2.113-.202.352-.571.549-.95.55Z" fill="#fff" stroke-width="0"/>
      </g>
      <g>
        <ellipse cx="79.193" cy="154.862" rx="13.012" ry="10.493" fill="#ffb9be" stroke-width="0"/>
        <path d="M69.792,152.925c-.182,0-.365-.046-.534-.141-.522-.295-.708-.954-.416-1.477.073-.131.761-1.318,2.435-2.717,1.653-1.382,3.537-1.718,3.616-1.731.593-.101,1.157.297,1.259.89.101.592-.295,1.154-.886,1.258-.033.006-1.411.27-2.591,1.256-1.367,1.144-1.927,2.104-1.933,2.113-.202.352-.571.549-.95.55Z" fill="#fff" stroke-width="0"/>
      </g>
    </g>
    <g>
      <g>
        <circle cx="97.293" cy="134.873" r="13.06" fill="#000" stroke-width="0"/>
        <circle cx="101.725" cy="129.72" r="3.755" fill="#fff" stroke-width="0"/>
        <path d="M87.995,127.241c-.058,0-.117-.005-.176-.014-.101-.017-1.033-.181-2.647-.872-1.729-.741-2.883-1.964-2.931-2.016-.411-.44-.387-1.13.053-1.541.44-.411,1.13-.387,1.541.053.007.007.903.946,2.196,1.5,1.366.585,2.138.724,2.145.725.591.103.99.665.89,1.256-.09.532-.549.909-1.071.909Z" fill="#000" stroke-width="0"/>
      </g>
      <g>
        <circle cx="183.872" cy="134.873" r="13.06" fill="#000" stroke-width="0"/>
        <circle cx="187.07" cy="129.72" r="3.755" fill="#fff" stroke-width="0"/>
        <path d="M193.169,127.241c-.525,0-.987-.38-1.075-.915-.097-.592.304-1.151.895-1.25.025-.005.795-.147,2.145-.725,1.293-.554,2.189-1.493,2.198-1.502.412-.436,1.102-.458,1.54-.047.438.411.461,1.098.052,1.537-.048.052-1.202,1.275-2.931,2.016-1.614.691-2.546.856-2.647.872-.059.01-.118.014-.177.014Z" fill="#000" stroke-width="0"/>
      </g>
    </g>
    <g>
      <ellipse cx="140.582" cy="170.688" rx="45.234" ry="29.268" fill="#ffb9be" stroke-width="0"/>
      <g>
        <ellipse cx="123.053" cy="160.477" rx="6.536" ry="3.775" transform="translate(-34.846 34.133) rotate(-13.854)" fill="#000" stroke-width="0"/>
        <ellipse cx="158.112" cy="160.477" rx="3.775" ry="6.536" transform="translate(-35.556 275.564) rotate(-76.146)" fill="#000" stroke-width="0"/>
      </g>
      <g>
        <path d="M165.469,146.247" fill="#e98a97" stroke-width="0"/>
        <path d="M165.469,146.247c5.245,5.46,8.363,12.281,8.363,19.682,0,20.376-26.441,29.91-48.982,29.91-3.407,0-6.527-.276-9.374-.802,7.183,3.107,15.817,4.92,25.106,4.92,24.982,0,45.234-13.104,45.234-29.268,0-10.215-8.09-19.206-20.348-24.441Z" fill="#e98a97" stroke-width="0"/>
      </g>
      <g>
        <path d="M95.366,169.873" fill="#000" stroke-width="0"/>
        <path d="M145.122,141.567c-1.493-.096-3.008-.146-4.54-.146-24.561,0-44.548,12.665-45.216,28.452,6.215-14.443,27.621-27.233,49.756-28.306Z" fill="#fff" stroke-width="0"/>
      </g>
      <path d="M140.582,201.182c-12.316,0-23.912-3.114-32.652-8.769-8.905-5.762-13.809-13.477-13.809-21.725s4.904-15.963,13.809-21.725c8.74-5.655,20.336-8.769,32.652-8.769s23.912,3.114,32.652,8.769c8.905,5.762,13.809,13.477,13.809,21.725s-4.904,15.964-13.809,21.725c-8.74,5.655-20.336,8.769-32.652,8.769ZM140.582,142.647c-24.266,0-44.008,12.579-44.008,28.041s19.742,28.041,44.008,28.041,44.008-12.579,44.008-28.041-19.742-28.041-44.008-28.041Z" fill="#000" stroke-width="0"/>
    </g>
    <path d="M179.759,258.967l-3.355-4.401.847-.756c.075-.067,7.54-6.769,10.608-12.91,3.038-6.081,2.678-21.05,2.674-21.201l2.452-.065c.017.639.38,15.734-2.932,22.363-2.679,5.362-8.218,10.876-10.334,12.872l1.067,1.4c2.922-.598,13.906-3,21.992-6.821l1.048,2.217c-9.647,4.559-22.771,7.057-23.325,7.161l-.743.14Z" fill="#000" stroke-width="0"/>
    <path d="M101.405,258.967l-.743-.14c-.554-.104-13.677-2.602-23.325-7.161l1.048-2.217c8.086,3.821,19.07,6.223,21.992,6.821l1.068-1.4c-2.115-1.997-7.655-7.51-10.334-12.872-3.312-6.629-2.949-21.723-2.932-22.363l2.452.065c-.004.15-.364,15.119,2.674,21.201,3.068,6.141,10.533,12.843,10.608,12.91l.847.756-3.355,4.401Z" fill="#000" stroke-width="0"/>
    <g>
      <circle cx="141.36" cy="261.999" r="30.424" fill="#74babe" stroke-width="0"/>
      <path d="M141.388,231.572c5.758,0,11.579,1.631,16.743,5.043,14.019,9.262,17.876,28.136,8.613,42.156-5.851,8.855-15.538,13.657-25.413,13.657-5.758,0-11.579-1.631-16.743-5.043-14.019-9.262-17.876-28.136-8.613-42.156,5.851-8.855,15.538-13.656,25.413-13.657M141.39,229.572h-.002c-10.937,0-21.061,5.442-27.081,14.554-4.774,7.226-6.449,15.879-4.715,24.365,1.734,8.486,6.668,15.788,13.894,20.562,5.322,3.516,11.493,5.375,17.845,5.375,10.936,0,21.06-5.441,27.081-14.554,4.774-7.226,6.449-15.879,4.715-24.365-1.734-8.486-6.668-15.788-13.894-20.562-5.322-3.516-11.492-5.375-17.843-5.375h0Z" fill="#000" stroke-width="0"/>
    </g>
    <path d="M163.066,240.679c-1.471-1.495-3.116-2.862-4.936-4.064-.494-.326-.995-.632-1.501-.926-.614,7.144-4.523,17.133-11.073,27.047-7.834,11.857-17.246,20.281-24.084,22.281.977.842,2.011,1.638,3.116,2.368,1.392.919,2.833,1.704,4.306,2.368,7.147-4.526,15.233-12.784,22.213-23.349,5.942-8.994,10.033-18.071,11.959-25.723Z" fill="#4b9696" stroke-width="0"/>
    <path d="M131.767,290.873c12.738,4.241,27.224-.367,34.978-12.103,7.316-11.073,6.441-25.171-1.155-35.173l-33.823,47.276Z" fill="#4b9696" stroke-width="0"/>
    <g>
      <path d="M181.112,254.611c-3.148-4.695-10.298-5.418-15.97-1.615-4.254,2.852-6.465,7.44-5.978,11.536.058.492.466.867.961.867h4.613c.402,0,.672.412.512.78l-1.706,3.93c-.206.475,0,1.026.464,1.255,3.574,1.765,8.439,1.38,12.535-1.366,5.672-3.803,7.718-10.692,4.57-15.387Z" fill="#333233" stroke-width="0"/>
      <path d="M168.826,273.677c-1.883,0-3.714-.4-5.361-1.213-1.052-.519-1.512-1.768-1.046-2.842l1.301-2.996h-3.594c-1.111,0-2.047-.838-2.179-1.949-.557-4.688,1.999-9.672,6.513-12.699,6.224-4.174,14.151-3.299,17.671,1.95h0c3.52,5.249,1.319,12.915-4.905,17.088-2.622,1.758-5.57,2.661-8.4,2.661ZM164.769,270.369c3.261,1.496,7.585.962,11.091-1.389,5.101-3.42,7-9.56,4.234-13.686h0c-2.766-4.126-9.167-4.699-14.268-1.279-3.685,2.471-5.812,6.437-5.466,10.158h4.379c.603,0,1.161.301,1.492.806.331.505.385,1.136.144,1.69l-1.606,3.7Z" fill="#000" stroke-width="0"/>
    </g>
    <g>
      <path d="M101.035,254.611c3.148-4.695,10.298-5.418,15.97-1.615,4.254,2.852,6.465,7.44,5.978,11.536-.058.492-.466.867-.961.867h-4.613c-.402,0-.672.412-.512.78l1.706,3.93c.206.475,0,1.026-.464,1.255-3.574,1.765-8.439,1.38-12.535-1.366-5.672-3.803-7.718-10.692-4.57-15.387Z" fill="#333233" stroke-width="0"/>
      <path d="M113.322,273.678c-2.83,0-5.778-.902-8.4-2.661-6.224-4.174-8.425-11.84-4.905-17.088h0c3.52-5.249,11.447-6.124,17.671-1.95,4.514,3.026,7.07,8.011,6.513,12.699-.132,1.111-1.069,1.948-2.179,1.948h-3.594l1.301,2.996c.466,1.074.007,2.323-1.045,2.842-1.647.814-3.478,1.214-5.361,1.214ZM102.054,255.294c-2.766,4.126-.867,10.265,4.234,13.686,3.506,2.351,7.829,2.886,11.091,1.389l-1.607-3.7c-.24-.553-.186-1.185.145-1.689.331-.505.889-.806,1.492-.806h4.379c.345-3.721-1.781-7.687-5.466-10.158-5.101-3.42-11.502-2.847-14.269,1.279h0Z" fill="#000" stroke-width="0"/>
    </g>
    <path d="M231.901,248.907l-4.948,1.339c-1.938.525-3.935-.621-4.46-2.56l-1.361-5.028c-.308-1.136-1.298-1.97-2.473-2.04-10.138-.602-21.273,5.598-27.98,16.632-8.957,14.735-6.627,32.509,5.204,39.7,11.831,7.191,28.682,1.076,37.638-13.658,6.896-11.344,7.1-24.489,1.43-33.22-.656-1.01-1.888-1.481-3.051-1.166Z" fill="#333233" stroke-width="0"/>
    <path d="M238.153,257.622c-1.642,6.349-6.14,19.523-16.771,28.932-6.922,6.126-18.678,9.185-25.332,10.496,11.822,7.035,28.557.91,37.472-13.756,5.114-8.412,6.544-17.813,4.631-25.672Z" fill="#1e1f1e" stroke-width="0"/>
    <path d="M49.264,248.907l4.948,1.339c1.938.525,3.935-.621,4.46-2.56l1.361-5.028c.308-1.136,1.298-1.97,2.473-2.04,10.138-.602,21.273,5.598,27.98,16.632,8.957,14.735,6.627,32.509-5.204,39.7-11.831,7.191-28.682,1.076-37.638-13.658-6.896-11.344-7.1-24.489-1.43-33.22.656-1.01,1.888-1.481,3.051-1.166Z" fill="#333233" stroke-width="0"/>
    <path d="M93.019,262.172s1.088,21.401-14.281,28.378c-7.052,3.201-14.869,3.814-21.265,3.54,8.774,6.407,19.522,7.899,27.808,2.862,10.538-6.406,13.538-21.209,7.737-34.781Z" fill="#1e1f1e" stroke-width="0"/>
    <path d="M206.893,301.204c-4.173,0-8.144-1.074-11.647-3.203-6.046-3.675-9.944-10.036-10.976-17.91-1.019-7.774.885-16.111,5.361-23.475,6.753-11.109,18.175-17.867,29.101-17.22,1.694.101,3.135,1.284,3.584,2.943l1.361,5.028c.347,1.282,1.673,2.045,2.956,1.697l4.948-1.339.32,1.184-.32-1.184c1.681-.455,3.45.221,4.399,1.682,2.96,4.558,4.41,10.209,4.194,16.341-.219,6.225-2.157,12.513-5.605,18.184-4.476,7.364-11.001,12.893-18.371,15.567-3.14,1.139-6.276,1.705-9.305,1.705ZM217.272,241.805c-9.627,0-19.533,6.192-25.545,16.084-4.187,6.889-5.972,14.66-5.025,21.883.934,7.123,4.42,12.852,9.818,16.133,5.398,3.281,12.089,3.739,18.842,1.288,6.847-2.485,12.925-7.647,17.112-14.536,3.23-5.313,5.045-11.19,5.249-16.996.198-5.627-1.116-10.786-3.8-14.919-.367-.565-1.051-.827-1.701-.65l-4.948,1.339c-2.589.702-5.264-.836-5.964-3.423l-1.361-5.028c-.174-.641-.721-1.098-1.362-1.136-.437-.026-.876-.039-1.314-.039Z" fill="#000" stroke-width="0"/>
    <path d="M74.299,301.179c-10.191,0-21.072-6.339-27.704-17.248-3.447-5.671-5.385-11.959-5.605-18.184-.216-6.133,1.234-11.783,4.194-16.341.949-1.462,2.717-2.138,4.399-1.682l4.948,1.339c1.282.348,2.608-.414,2.956-1.697l1.361-5.028c.45-1.66,1.89-2.843,3.584-2.943,10.922-.653,22.348,6.11,29.101,17.219,9.293,15.289,6.774,33.855-5.615,41.386-3.549,2.157-7.529,3.178-11.62,3.178ZM48.536,250.037c-.514,0-1.004.257-1.294.705-2.684,4.133-3.998,9.292-3.8,14.919.205,5.806,2.02,11.683,5.249,16.996,8.591,14.133,24.72,20.076,35.954,13.247,11.234-6.828,13.384-23.882,4.793-38.016-6.287-10.343-16.832-16.643-26.86-16.045-.641.038-1.188.494-1.362,1.136l-1.361,5.028c-.701,2.588-3.375,4.124-5.964,3.423l-4.948-1.339c-.135-.037-.272-.054-.407-.054Z" fill="#000" stroke-width="0"/>
    <g>
      <path d="M240.092,172.737s7.358,9.811,4.905,19.622c-2.453,9.811-9.811,7.358-14.716,4.905-4.905-2.453-4.905-9.811,0-14.716,4.905-4.905,9.811-9.811,9.811-9.811Z" fill="#333233" stroke-width="0"/>
      <path d="M237.668,200.688c-2.857,0-5.761-1.24-7.935-2.327-2.293-1.147-3.795-3.254-4.23-5.934-.588-3.627.91-7.745,3.912-10.746l10.811-10.811.848,1.131c.315.42,7.679,10.396,5.114,20.655-.932,3.729-2.652,6.193-5.112,7.324-1.093.503-2.246.707-3.407.707ZM239.903,174.66l-8.755,8.755c-2.453,2.454-3.689,5.756-3.224,8.62.305,1.881,1.337,3.348,2.906,4.133,4.083,2.042,7.1,2.56,9.22,1.585,1.751-.805,3.015-2.72,3.758-5.691,1.802-7.21-2.143-14.587-3.904-17.401Z" fill="#000" stroke-width="0"/>
    </g>
    <ellipse cx="140.077" cy="140.367" rx="93.883" ry="64.066" fill="#1c4b8e" opacity=".3" stroke-width="0"/>
    <g>
      <path d="M140.756,31.499c-56.62,0-102.519,46.249-102.519,103.3,0,41.485,45.899,76.3,102.519,76.3s102.519-38.101,102.519-76.3c0-57.051-45.899-103.3-102.519-103.3ZM218.098,159.402c-8.389,45.956-37.966,19.482-80.519,19.482s-64.248,31.194-73.577-19.482c-8.11-44.055,34.495-76.447,77.048-76.447s84.672,34.681,77.048,76.447Z" fill="#fff" stroke-width="0"/>
      <path d="M140.756,212.599c-27.608,0-53.672-8.13-73.391-22.893-19.75-14.787-30.628-34.287-30.628-54.908,0-57.787,46.663-104.8,104.019-104.8s104.019,47.013,104.019,104.8c0,19.108-11.157,38.668-30.611,53.663-20.193,15.565-46.263,24.137-73.407,24.137ZM140.756,32.999c-55.702,0-101.019,45.667-101.019,101.8,0,19.653,10.45,38.3,29.426,52.506,19.203,14.376,44.628,22.294,71.593,22.294,26.485,0,51.904-8.351,71.576-23.513,18.711-14.423,29.443-33.116,29.443-51.287,0-56.133-45.317-101.8-101.019-101.8ZM84.745,189.884c-3.373,0-6.431-.683-9.207-2.417-6.169-3.854-10.182-12.426-13.011-27.794-3.275-17.789,1.268-34.726,13.137-48.98,15.018-18.035,40.072-29.238,65.386-29.238,24.666,0,49.51,11.417,64.836,29.795,11.917,14.29,16.778,31.486,13.687,48.421l-1.476-.27,1.476.27c-2.313,12.669-6.265,20.512-12.439,24.681-8.767,5.92-20.483,3.517-35.315.473-10.143-2.082-21.64-4.441-34.24-4.441-13.438,0-24.561,3.102-34.375,5.838-7.016,1.957-13.13,3.662-18.459,3.662ZM141.05,84.456c-24.447,0-48.618,10.79-63.081,28.158-11.281,13.547-15.601,29.632-12.492,46.517,2.627,14.273,6.33,22.469,11.65,25.792,6.039,3.772,14.525,1.406,25.271-1.59,9.504-2.65,21.332-5.949,35.18-5.949,12.905,0,24.561,2.392,34.843,4.502,14.143,2.902,25.311,5.194,33.033-.02,5.385-3.636,9.038-11.072,11.167-22.733,2.929-16.044-1.702-32.367-13.039-45.961-14.772-17.713-38.733-28.716-62.533-28.716Z" fill="#000" stroke-width="0"/>
    </g>
    <g>
      <path d="M206.878,86.835c16.062,20.909,30.865,60.008,30.865,60.008l5.241-16.715c-4.78-53.826-39.421-92.181-92.337-96.963,0,0,37.586,29.398,56.231,53.67Z" fill="#f2f2f2" stroke-width="0"/>
      <path d="M140.593,213.113c-27.608,0-53.672-8.13-73.391-22.893-19.75-14.787-30.628-34.287-30.628-54.908,0-57.787,46.663-104.8,104.019-104.8s104.019,47.013,104.019,104.8c0,19.108-11.157,38.668-30.611,53.663-20.193,15.565-46.263,24.137-73.407,24.137ZM140.593,33.512c-55.702,0-101.019,45.667-101.019,101.8,0,19.653,10.45,38.3,29.426,52.506,19.203,14.376,44.628,22.294,71.593,22.294,26.485,0,51.904-8.351,71.576-23.513,18.711-14.423,29.443-33.116,29.443-51.287,0-56.133-45.317-101.8-101.019-101.8Z" fill="#000" stroke-width="0"/>
    </g>
    <g>
      <path d="M42.317,105.862s7.921,9.891,7.731,28.259c-.189,18.368-5.007,26.511-5.007,26.511,0,0-14.311.145-14.879-27.385s12.155-27.385,12.155-27.385Z" fill="#707070" stroke-width="0"/>
      <path d="M45.032,162.132c-.923,0-15.784-.458-16.37-28.854-.252-12.195,1.991-20.771,6.667-25.489,3.398-3.43,6.884-3.431,7.005-3.426l.71.008.444.554c.337.421,8.253,10.524,8.061,29.212-.191,18.557-5.011,26.912-5.216,27.259l-.431.728-.845.009h-.024ZM41.614,107.458c-.902.194-2.55.78-4.255,2.544-2.759,2.855-5.987,9.201-5.698,23.213.452,21.896,9.583,25.294,12.504,25.82,1.139-2.465,4.234-10.475,4.383-24.93.154-14.96-5.281-24.191-6.934-26.647Z" fill="#000" stroke-width="0"/>
    </g>
    <g>
      <path d="M237.683,105.862s-7.921,9.891-7.731,28.259c.189,18.368,5.007,26.511,5.007,26.511,0,0,14.311.145,14.879-27.385s-12.155-27.385-12.155-27.385Z" fill="#707070" stroke-width="0"/>
      <path d="M234.968,162.132h-.024l-.845-.009-.431-.728c-.205-.346-5.025-8.702-5.216-27.259-.193-18.688,7.723-28.792,8.06-29.212l.444-.554.71-.008c.134-.002,3.607-.004,7.005,3.426,4.675,4.719,6.918,13.294,6.667,25.489-.586,28.396-15.445,28.854-16.37,28.854ZM238.386,107.458c-1.653,2.457-7.088,11.687-6.934,26.647.148,14.453,3.243,22.463,4.384,24.932,2.905-.521,12.05-3.907,12.503-25.821.289-14.013-2.939-20.358-5.698-23.213-1.705-1.765-3.353-2.35-4.255-2.544Z" fill="#000" stroke-width="0"/>
    </g>
    <g>
      <g>
        <path d="M183.255,59.971s2.52,4.848,5.968,7.52c3.447,2.672,8.984,3.718,9.935,3.282s5.117-11.243,6.565-15.097c1.447-3.854,1.95-11.554-.989-10.816-2.939.738-2.608,6.277-10.577,10.252-7.969,3.975-10.901,4.858-10.901,4.858Z" fill="#fff" stroke-width="0"/>
        <path d="M198.459,71.943c-2.381,0-7.023-1.358-9.904-3.591-3.595-2.786-6.16-7.672-6.267-7.879l-.607-1.167,1.259-.379c.067-.021,3.041-.954,10.729-4.79,4.491-2.24,6.188-5.02,7.427-7.049.944-1.545,1.759-2.88,3.371-3.285.915-.229,1.758.022,2.372.71,1.96,2.195.979,8.684-.097,11.546-5.643,15.023-6.648,15.483-7.131,15.705-.263.121-.66.179-1.153.179ZM198.503,69.915h0ZM184.846,60.558c.925,1.531,2.793,4.327,5.045,6.072,2.894,2.242,7.507,3.244,8.717,3.153.817-1.162,3.319-7.102,6.094-14.489,1.199-3.191,1.476-8.247.511-9.328-.06-.067-.073-.083-.215-.047-.714.179-1.191.914-2.041,2.307-1.299,2.128-3.263,5.343-8.315,7.863-5.17,2.579-8.243,3.87-9.796,4.469Z" fill="#000" stroke-width="0"/>
      </g>
      <g>
        <path d="M96.745,59.971s-2.52,4.848-5.968,7.52c-3.447,2.672-8.984,3.718-9.935,3.282s-5.117-11.243-6.565-15.097c-1.447-3.854-1.95-11.554.989-10.816s2.608,6.277,10.577,10.252,10.901,4.858,10.901,4.858Z" fill="#fff" stroke-width="0"/>
        <path d="M81.557,71.956c-.458,0-.868-.053-1.168-.191-.484-.221-1.489-.682-7.132-15.705-1.075-2.863-2.056-9.352-.096-11.546.613-.688,1.455-.939,2.372-.71,1.612.405,2.427,1.74,3.371,3.286,1.239,2.029,2.936,4.809,7.427,7.049,7.739,3.861,10.701,4.781,10.73,4.79l1.254.382-.603,1.164c-.107.207-2.672,5.092-6.267,7.879-2.175,1.686-4.867,2.6-6.278,2.995-.613.171-2.304.608-3.61.608ZM81.497,69.915h0ZM81.392,69.782c1.208.092,5.823-.91,8.717-3.153,2.251-1.745,4.12-4.541,5.045-6.072-1.553-.598-4.626-1.89-9.796-4.469-5.052-2.52-7.015-5.735-8.315-7.863-.851-1.393-1.328-2.128-2.042-2.307-.141-.035-.155-.02-.214.047-.965,1.081-.688,6.137.511,9.328,2.775,7.387,5.277,13.327,6.094,14.489Z" fill="#000" stroke-width="0"/>
      </g>
    </g>
    <path d="M140,78.558c-11.819,0-21.434-9.615-21.434-21.434s9.615-21.434,21.434-21.434,21.434,9.615,21.434,21.434-9.615,21.434-21.434,21.434ZM140,37.947c-10.575,0-19.178,8.603-19.178,19.178s8.603,19.178,19.178,19.178,19.178-8.603,19.178-19.178-8.603-19.178-19.178-19.178Z" fill="#000" stroke-width="0"/>
    <g>
      <path d="M147.377,230.028c.492.078.983.167,1.472.267,4.714-2.761,8.84-3.536,11.572-1.731,6.592,4.355,2.585,22.041-8.951,39.501-11.536,17.46-26.232,28.084-32.824,23.729-2.442-1.613-3.425-5.06-3.114-9.642-.357-.489-.698-.986-1.026-1.492-2.291,9.409-1.522,16.774,2.84,19.656,8.257,5.455,26.234-7.2,40.153-28.267,13.919-21.067,18.508-42.568,10.251-48.023-4.583-3.028-12.159-.47-20.374,6.002Z" fill="#b4dbda" stroke-width="0"/>
      <path d="M163.194,222.759c1.723,0,3.26.41,4.557,1.266,8.257,5.455,3.668,26.956-10.251,48.023-11.73,17.755-26.343,29.535-35.591,29.535-1.725,0-3.264-.41-4.562-1.268-4.362-2.882-5.131-10.247-2.84-19.656.328.505.669,1.003,1.026,1.492-.311,4.582.672,8.029,3.114,9.642,1,.661,2.185.976,3.519.976,7.458,0,19.519-9.893,29.305-24.705,11.536-17.46,15.543-35.146,8.951-39.501-.998-.659-2.181-.974-3.512-.974-2.312,0-5.068.952-8.06,2.705-.49-.1-.98-.19-1.472-.267,5.89-4.64,11.451-7.268,15.817-7.268M163.194,220.759c-4.766,0-10.663,2.662-17.055,7.697l-3.597,2.834,4.523.713c.447.07.912.155,1.383.251l.751.153.661-.387c2.715-1.59,5.153-2.431,7.05-2.431.966,0,1.754.21,2.409.643,4.857,3.209,2.142,19.082-9.517,36.73-10.326,15.63-21.72,23.808-27.637,23.808-.969,0-1.759-.211-2.416-.645-1.699-1.122-2.488-3.906-2.221-7.838l.049-.726-.429-.588c-.327-.448-.651-.919-.964-1.401l-2.524-3.891-1.097,4.506c-2.619,10.758-1.312,18.499,3.681,21.797,1.606,1.061,3.512,1.599,5.665,1.599,10.26,0,25.233-12.23,37.26-30.433,6.866-10.392,11.742-21.242,13.729-30.551,2.12-9.931.684-17.12-4.044-20.243-1.605-1.06-3.509-1.598-5.659-1.598h0Z" fill="#000" stroke-width="0"/>
    </g>
    <g>
      <path d="M159.25,57.061c0,10.631-8.619,19.25-19.25,19.25-10.631,0-19.25-8.619-19.25-19.25s8.619-19.25,19.25-19.25h0c10.631,0,19.249,8.617,19.25,19.248v.002" fill="#ec6458" stroke-width="0"/>
      <path d="M140.324,49.846l4.982,12.295-7.525-5.927,2.543-6.368ZM149.174,64.973l-7.663-18.44c-.181-.497-.658-.824-1.187-.814-.537-.012-1.025.313-1.22.814l-8.41,20.227h2.877l3.329-8.34,9.935,8.027c.4.323.688.469,1.063.469.759.018,1.388-.583,1.406-1.342,0-.011,0-.022,0-.033-.013-.195-.057-.387-.131-.568" fill="#fff" stroke-width="0"/>
    </g>
  </g>
  <g>
    <path d="M67.66,334.123h-11.951l-1.991,4.316h-6.55l9.954-19.908c.466-.932,1.418-1.52,2.459-1.52h4.205c1.043,0,1.996.59,2.461,1.523l9.925,19.906h-6.518l-1.993-4.316ZM65.849,330.229l-2.746-5.885c-.332-.754-1.026-2.565-1.388-3.682h-.062c-.362,1.117-1.056,2.928-1.388,3.682l-2.746,5.885h8.329Z" fill="#3e2114" stroke-width="0"/>
    <path d="M83.902,317.01h3.74l11.199,12.163c.632.694,1.267,1.599,1.69,2.445h.121v-14.608h5.522v18.68c0,1.518-1.231,2.749-2.749,2.749h-3.317l-11.619-12.314c-.605-.663-1.388-1.751-1.69-2.445h-.121v14.759h-5.524v-18.68c0-1.518,1.231-2.749,2.749-2.749Z" fill="#3e2114" stroke-width="0"/>
    <path d="M111.523,333.322l4.073-2.856c1.666,2.346,4.748,3.93,8.876,3.93,3.646,0,5.342-.735,5.342-2.319,0-1.243-.848-1.753-3.25-2.007l-6.163-.678c-4.921-.537-7.267-2.346-7.267-6.05,0-3.986,3.874-6.332,10.743-6.332,5.089,0,9.046,1.329,11.535,4.128l-3.591,3.024c-1.498-1.979-4.381-3.194-8.226-3.194-3.112,0-4.805.735-4.805,2.093,0,1.243.846,1.724,3.42,2.006l5.541.538c5.541.565,7.829,2.204,7.829,5.936,0,4.439-4.155,6.898-11.392,6.898-5.937,0-10.599-1.951-12.665-5.117Z" fill="#3e2114" stroke-width="0"/>
    <path d="M141.576,338.439v-21.429h6.095v21.429h-6.095Z" fill="#3e2114" stroke-width="0"/>
    <path d="M179.285,332.343c0,3.139-2.143,6.096-8.059,6.096h-13.796c-1.515,0-2.742-1.228-2.742-2.742v-15.944c0-1.515,1.228-2.742,2.742-2.742h13.675c5.313,0,7.635,2.354,7.635,5.432,0,2.174-1.326,4.135-4.225,4.739,3.26.482,4.769,2.354,4.769,5.161ZM160.783,320.994v4.678h8.632c2.505,0,3.019-1.267,3.019-2.474,0-1.057-.603-2.204-3.019-2.204h-8.632ZM172.978,331.859c0-1.479-.997-2.505-3.26-2.505h-8.935v5.101h8.905c2.323,0,3.29-1.117,3.29-2.596Z" fill="#3e2114" stroke-width="0"/>
    <path d="M185.091,317.01h6.095v16.66h14.518v4.769h-17.876c-1.512,0-2.737-1.225-2.737-2.737v-18.691Z" fill="#3e2114" stroke-width="0"/>
    <path d="M232.832,334.183v1.511c0,1.516-1.229,2.744-2.744,2.744h-16.362c-1.516,0-2.744-1.229-2.744-2.744v-15.94c0-1.516,1.229-2.744,2.744-2.744h16.15c1.516,0,2.744,1.229,2.744,2.744v1.511h-15.544v4.316h10.917v3.984h-10.917v4.617h15.756Z" fill="#3e2114" stroke-width="0"/>
  </g>
  <g>
    <path d="M53.246,356.522c0-6.277,5.116-10.94,13.344-10.94,6.333,0,11.054,2.515,12.297,6.559l-6.162,1.017c-.764-1.978-2.856-3.449-6.305-3.449-4.579,0-7.209,2.658-7.209,6.756,0,3.902,2.685,6.559,7.266,6.559,4.353,0,6.898-2.035,7.067-4.269v-.085h-7.577v-3.534h12.891v11.195h-4.353l-.255-3.449c-1.272,2.093-4.128,4.128-9.216,4.128-7.351,0-11.789-4.439-11.789-10.488Z" fill="#3e2114" stroke-width="0"/>
    <path d="M102.312,362.694h-11.951l-1.991,4.316h-6.55l9.954-19.908c.466-.932,1.418-1.52,2.459-1.52h4.205c1.043,0,1.996.59,2.461,1.523l9.925,19.906h-6.518l-1.993-4.316ZM100.501,358.8l-2.746-5.885c-.332-.754-1.026-2.565-1.388-3.682h-.062c-.362,1.117-1.056,2.928-1.388,3.682l-2.746,5.885h8.329Z" fill="#3e2114" stroke-width="0"/>
    <path d="M114.193,345.582h6.095v16.66h14.518v4.769h-17.876c-1.512,0-2.737-1.225-2.737-2.737v-18.691Z" fill="#3e2114" stroke-width="0"/>
    <path d="M158.027,362.694h-11.951l-1.991,4.316h-6.55l9.954-19.908c.466-.932,1.418-1.52,2.459-1.52h4.205c1.043,0,1.996.59,2.461,1.523l9.925,19.906h-6.518l-1.993-4.316ZM156.216,358.8l-2.746-5.885c-.332-.754-1.026-2.565-1.388-3.682h-.062c-.362,1.117-1.056,2.928-1.388,3.682l-2.746,5.885h8.329Z" fill="#3e2114" stroke-width="0"/>
    <path d="M178.914,356.024l-9.99-10.442h7.333l5.463,6.066c.574.694.845.966,1.086,1.358h.091c.272-.392.514-.664,1.117-1.358l5.432-6.066h7.335l-9.93,10.442,10.352,10.986h-7.455l-5.584-6.247c-.574-.694-1.057-1.208-1.299-1.6h-.06c-.241.392-.724.906-1.298,1.6l-5.644,6.247h-7.335l10.383-10.986Z" fill="#3e2214" stroke-width="0"/>
    <path d="M209.883,359.736l-10.685-14.154h6.911l6.188,8.722c.423.634.634.875.725,1.177h.059c.091-.302.243-.543.695-1.177l6.429-8.722h6.549l-10.776,14.154v7.274h-6.095v-7.274Z" fill="#3e2114" stroke-width="0"/>
  </g>
</svg>