<?xml version="1.0" encoding="utf-8"?>
<!-- Generator: Adobe Illustrator 27.4.1, SVG Export Plug-In . SVG Version: 6.00 Build 0)  -->
<svg version="1.1" id="Layer_1" xmlns="http://www.w3.org/2000/svg" xmlns:xlink="http://www.w3.org/1999/xlink" x="0px" y="0px"
	 viewBox="0 0 1600 1300" enable-background="new 0 0 1600 1300" xml:space="preserve">
<g>
	<path fill="#E5D6BF" d="M774.782,490.476c0,0-36.325-150.405-66.382-223.433c-30.057-73.028-57.286-80.635-75.621-80.635
		c-18.335,0-1.918,213.017-0.7,233.627c1.218,20.61-102.834-321.869-186.512-317.305c-83.678,4.564,50.207,317.305,50.207,317.305
		S393.394,277.693,357.102,302.036C320.81,326.378,504.902,720.02,504.902,720.02l262.905-8.187L774.782,490.476z"/>
	<path fill="#AAA4A2" d="M592.029,591.027c0,0-35.423-87.445-57.587-128.761s-34.105-43.401-41.434-41.714
		c-7.329,1.687,28.84,128.76,32.191,141.088c3.351,12.329-85.839-184.825-118.651-174.369
		c-32.812,10.456,64.169,186.914,64.169,186.914s-60.705-76.5-71.828-58.466c-11.123,18.034,117.17,238.705,117.17,238.705
		l103.947-29.138L592.029,591.027z"/>
	<path fill="#E5D6BF" d="M1066.184,691.494c0,0,92.807-103.266,135.406-211.286c42.6-108.021,40.071-136.928,14.71-141.492
		c-25.36-4.564-153.457,128.105-153.457,128.105s126.576-283.29,82.455-325.89S909.1,512.223,909.1,512.223
		s107.71-255.663,32.745-283.049S801.816,654.956,801.816,654.956L1066.184,691.494z"/>
	<path fill="#555F34" d="M975.535,558.353c-4.169-7.036-13.283-7.98-16.752-1.713c-6.221,11.238-10.311,25.051-11.41,40.581
		c-2.153,30.43,7.692,59.911,24.245,79.092c10.42-12.613,17.466-30.58,18.962-51.732
		C992.297,600.323,986.388,576.668,975.535,558.353z"/>
	<path fill="#555F34" d="M1090.602,641.972c6.07-5.481,5.189-14.601-1.642-16.759c-12.248-3.87-26.598-5.14-42.037-3.139
		c-30.253,3.922-57.198,19.415-72.716,39.442c14.428,7.713,33.436,11.057,54.464,8.331
		C1052.788,666.721,1074.803,656.241,1090.602,641.972z"/>
	<path fill="none" stroke="#9DAA9B" stroke-width="7" stroke-miterlimit="10" d="M1174.006,307.056
		c0,0-126.845,189.945-165.315,253.082s-61.854,102.195-61.854,102.195"/>
	<path fill="#9DAA9B" d="M1242.449,219.43c0.665-8.151-6.225-14.191-12.679-11.082c-11.572,5.573-22.895,14.48-32.77,26.517
		c-19.348,23.585-28.359,53.332-25.94,78.552c15.794-4.267,31.93-14.855,45.379-31.249
		C1231.863,263.365,1240.717,240.648,1242.449,219.43z"/>
	<path fill="#9DAA9B" d="M1234.976,366.884c6.07-5.481,5.189-14.601-1.642-16.759c-12.248-3.87-26.598-5.14-42.037-3.139
		c-30.253,3.922-57.198,19.415-72.716,39.442c14.428,7.713,33.436,11.057,54.464,8.331
		C1197.162,391.633,1219.177,381.153,1234.976,366.884z"/>
	<path fill="#9DAA9B" d="M1125.139,268.314c-4.169-7.036-13.283-7.98-16.752-1.713c-6.221,11.238-10.311,25.051-11.41,40.581
		c-2.153,30.43,7.692,59.911,24.245,79.092c10.42-12.613,17.466-30.58,18.962-51.732
		C1141.901,310.284,1135.992,286.628,1125.139,268.314z"/>
	<path fill="#9DAA9B" d="M1076.904,346.409c-4.169-7.036-13.283-7.98-16.752-1.713c-6.221,11.238-10.311,25.051-11.41,40.581
		c-2.153,30.43,7.692,59.911,24.245,79.092c10.42-12.613,17.466-30.58,18.962-51.732
		C1093.666,388.379,1087.757,364.723,1076.904,346.409z"/>
	<path fill="#9DAA9B" d="M1027.677,422.19c-4.17-7.036-13.283-7.98-16.752-1.713c-6.221,11.238-10.311,25.051-11.41,40.581
		c-2.153,30.43,7.692,59.911,24.245,79.092c10.42-12.613,17.466-30.58,18.962-51.732
		C1044.439,464.16,1038.53,440.505,1027.677,422.19z"/>
	<path fill="#9DAA9B" d="M1186.741,443.856c6.07-5.481,5.189-14.601-1.642-16.759c-12.248-3.87-26.598-5.14-42.037-3.139
		c-30.253,3.922-57.198,19.415-72.716,39.442c14.428,7.713,33.436,11.057,54.464,8.331
		C1148.927,468.605,1170.942,458.124,1186.741,443.856z"/>
	<path fill="#9DAA9B" d="M1137.514,519.513c6.07-5.481,5.189-14.601-1.642-16.759c-12.248-3.87-26.598-5.14-42.037-3.139
		c-30.253,3.922-57.198,19.415-72.716,39.442c14.428,7.713,33.436,11.057,54.464,8.331
		C1099.7,544.262,1121.715,533.782,1137.514,519.513z"/>
	<path fill="#AAA4A2" d="M894.707,406.22c0,0,14.109-69.816,16.288-105.745c2.179-35.93-6.659-43.614-13.555-46.612
		c-6.897-2.999-40.056,90.152-43.403,99.104c-3.348,8.952,20.753-153.512-11.565-165.259
		c-32.318-11.747-39.706,142.966-39.706,142.966s-12.226-77.195-30.372-72.792c-18.146,4.402-21.588,201.685-21.588,201.685
		l100.403,39.521L894.707,406.22z"/>
	<path fill="#D7D9C3" d="M906.83,1022.733c0,0,180.053,3.705,237.492-9.202s73.799-16.444,73.799-16.444l-46.021-47.468
		l78.581,36.404c0,0,92.936-28.153,169.639-106.684c76.704-78.532,110.667-135.205,110.667-135.205s-55.676-19.625-85.108-28.916
		c-29.432-9.291-46.791-10.33-46.791-10.33l-75.047,60.325l16.128-74.576c0,0-47.672-9.821-96.928-2.468
		c-49.256,7.352-104.044,24.161-104.044,24.161L907.219,874.388L906.83,1022.733z"/>
	<g>
		<path fill="#FFFFFF" d="M1012.645,930.981c16.227,14.664,32.793,29.3,51.045,41.426c25.991,15.288,53.562,27.846,80.632,41.124
			c-27.669-12.285-55.759-23.794-82.448-38.168c-18.98-11.587-36.194-25.661-53.224-39.905
			C1008.65,935.458,1012.645,930.981,1012.645,930.981L1012.645,930.981z"/>
	</g>
	<g>
		<path fill="#FFFFFF" d="M1530.988,744.133c-66.44,31.755-134.481,61.647-202.596,89.705
			c-47.719,19.569-96.272,38.532-145.081,55.195c-48.583,16.591-99.643,29.677-149.346,42.46
			c-57.286,14.513-114.829,28.008-172.738,39.766c88.865-23.364,178.733-47.245,266.986-72.884
			c9.792-3.057,21.938-6.576,31.603-9.812C1284.417,846.765,1409.091,793.765,1530.988,744.133L1530.988,744.133z"/>
	</g>
	<g>
		<path fill="#FFFFFF" d="M1229.092,865.421c25.506,17.876,51.064,35.994,78.117,51.48c3.766,2.059,7.912,4.126,11.95,5.681
			c11.039,4.46,22.18,8.701,33.448,12.603c-11.516-3.106-22.944-6.564-34.305-10.254c-5.603-1.729-11.421-4.296-16.705-6.909
			c-16.125-7.927-31.693-16.888-47.22-25.882c-10.33-6.027-20.577-12.139-30.809-18.383L1229.092,865.421L1229.092,865.421z"/>
	</g>
	<g>
		<path fill="#FFFFFF" d="M1351.484,818.358c19.631,7.898,39.284,15.996,59.435,22.478c3.47,1.055,8.736,2.259,12.294,3.141
			c0,0,24.756,6.045,24.756,6.045c-8.849-1.694-29.145-5.145-37.639-7.015c-12.413-3.112-24.574-7.056-36.739-10.963
			c-8.096-2.629-16.159-5.315-24.224-8.073L1351.484,818.358L1351.484,818.358z"/>
	</g>
	<path fill="#D7D9C3" d="M559.643,649.276c0,0-29.715-34.877-143.465-74.739S88.42,529.098,88.42,529.098
		s49.164,191.193,118.813,277.229s116.799,133.835,116.799,133.835l109.901-17.754l-69.399,45.938
		c0,0,129.041,71.101,200.503,111.054c71.462,39.954,153.81,44.732,153.81,44.732L559.643,649.276z"/>
	<g>
		<path fill="#FFFFFF" d="M381.748,743.185c0.565-23.803,0.169-47.895-2.401-71.614c-0.855-7.916-2.232-15.691-3.889-23.508
			c-6.886-31.24-16.085-62.051-25.607-92.612c10.821,30.248,21.274,60.591,29.501,91.698c4.142,15.602,6.403,31.743,7.859,47.805
			c1.466,16.084,2.302,32.134,2.535,48.344C389.747,743.297,381.748,743.185,381.748,743.185L381.748,743.185z"/>
	</g>
	<g>
		<path fill="#FFFFFF" d="M88.42,529.098c113.151,81.109,224.396,169.342,332.701,256.869c0,0-10.96-7.269-10.96-7.269
			c-3.648-2.437-7.22-4.971-10.834-7.453C292.591,695.552,188.202,613.728,88.42,529.098L88.42,529.098z"/>
	</g>
	<g>
		<path fill="#FFFFFF" d="M207.297,625.339c-0.69-15.266-1.783-30.654-3.696-45.834c-1.445-11.395-3.601-22.725-7.311-33.617
			c-1.256-3.623-2.645-7.22-4.47-10.614c6.18,9.856,9.883,21.072,13.005,32.224c4.871,18.803,7.839,37.945,10.446,57.185
			C215.27,624.683,207.297,625.339,207.297,625.339L207.297,625.339z"/>
	</g>
	<g>
		<path fill="#FFFFFF" d="M269.505,672.02c-18.617,9.854-38.751,16.392-59.069,21.542c-20.151,4.958-40.548,9.037-61.158,11.393
			c10.198-1.793,20.283-4.129,30.297-6.68c19.917-5.193,39.759-11.139,58.658-19.269c9.251-4.024,18.565-8.457,27.075-13.797
			C265.308,665.209,269.505,672.02,269.505,672.02L269.505,672.02z"/>
	</g>
	<path fill="#9DAA9B" d="M1109.926,1037.599c4.68,0.15,7.918-4.725,5.941-8.969c-3.546-7.61-8.989-14.93-16.176-21.156
		c-14.083-12.2-31.367-17.193-45.708-14.633c2.93,10.509,9.484,21.017,19.273,29.498
		C1084.483,1032.064,1097.743,1037.209,1109.926,1037.599z"/>
	<path fill="#9DAA9B" d="M1026.101,1065.904c4.68,0.15,7.918-4.725,5.941-8.969c-3.546-7.61-8.989-14.93-16.176-21.156
		c-14.083-12.2-31.367-17.193-45.708-14.633c2.93,10.509,9.484,21.017,19.273,29.498
		C1000.658,1060.368,1013.919,1065.513,1026.101,1065.904z"/>
	<path fill="#9DAA9B" d="M976.109,1085.284c4.68,0.15,7.918-4.725,5.941-8.969c-3.546-7.61-8.989-14.93-16.176-21.156
		c-14.083-12.2-31.367-17.193-45.708-14.633c2.93,10.509,9.484,21.017,19.273,29.498
		C950.666,1079.749,963.927,1084.894,976.109,1085.284z"/>
	<path fill="none" stroke="#9DAA9B" stroke-width="7" stroke-miterlimit="10" d="M1375.392,904.697
		c0,0-168.448,43.59-259.321,68.709c-90.873,25.119-258.548,92.791-258.548,92.791"/>
	<path fill="#9DAA9B" d="M1092.599,930.497c-0.511-4.655-5.793-7.173-9.717-4.618c-7.035,4.582-13.515,11.003-18.666,18.995
		c-10.094,15.661-12.602,33.476-8.048,47.313c9.992-4.382,19.472-12.351,26.488-23.237
		C1090.704,956.467,1093.929,942.613,1092.599,930.497z"/>
	<path fill="#9DAA9B" d="M1008.775,962.239c-0.511-4.655-5.793-7.173-9.717-4.618c-7.035,4.582-13.515,11.003-18.666,18.995
		c-10.094,15.661-12.602,33.476-8.048,47.313c9.992-4.382,19.472-12.351,26.488-23.237
		C1006.879,988.209,1010.105,974.355,1008.775,962.239z"/>
	<path fill="#9DAA9B" d="M1378.213,964.022c4.68,0.15,7.918-4.725,5.941-8.969c-3.546-7.61-8.989-14.93-16.176-21.156
		c-14.083-12.2-31.367-17.193-45.708-14.633c2.93,10.509,9.484,21.017,19.273,29.498
		C1352.77,958.486,1366.031,963.631,1378.213,964.022z"/>
	<path fill="#9DAA9B" d="M1327.469,976.609c4.68,0.15,7.918-4.725,5.941-8.969c-3.546-7.61-8.989-14.93-16.176-21.156
		c-14.083-12.2-31.367-17.193-45.708-14.633c2.93,10.509,9.484,21.017,19.273,29.498
		C1302.025,971.074,1315.286,976.219,1327.469,976.609z"/>
	<path fill="#9DAA9B" d="M1274.986,990.263c4.68,0.15,7.918-4.725,5.941-8.969c-3.546-7.61-8.989-14.93-16.176-21.156
		c-14.083-12.2-31.367-17.193-45.708-14.633c2.93,10.509,9.484,21.017,19.273,29.498
		C1249.542,984.728,1262.803,989.873,1274.986,990.263z"/>
	<path fill="#9DAA9B" d="M1189.576,1012.97c4.68,0.15,7.918-4.725,5.941-8.969c-3.546-7.61-8.989-14.93-16.176-21.156
		c-14.083-12.2-31.367-17.193-45.708-14.633c2.93,10.509,9.484,21.017,19.273,29.498
		C1164.133,1007.435,1177.394,1012.58,1189.576,1012.97z"/>
	<path fill="#9DAA9B" d="M1442.909,891.901c3.138-3.475,1.51-9.096-3.008-10.329c-8.099-2.211-17.203-2.786-26.599-1.323
		c-18.411,2.866-33.389,12.833-40.701,25.432c9.914,4.554,22.169,6.341,34.966,4.348
		C1422.245,907.744,1434.74,900.947,1442.909,891.901z"/>
	<path fill="#9DAA9B" d="M1357.367,857.211c-0.511-4.655-5.793-7.173-9.717-4.618c-7.035,4.582-13.515,11.003-18.666,18.995
		c-10.094,15.661-12.602,33.476-8.048,47.313c9.992-4.382,19.472-12.351,26.488-23.236
		C1355.471,883.18,1358.697,869.326,1357.367,857.211z"/>
	<path fill="#9DAA9B" d="M1310.142,871.369c-0.511-4.655-5.793-7.173-9.717-4.618c-7.035,4.582-13.515,11.003-18.666,18.995
		c-10.094,15.661-12.602,33.476-8.048,47.313c9.992-4.382,19.472-12.351,26.488-23.236
		C1308.247,897.338,1311.472,883.484,1310.142,871.369z"/>
	<path fill="#9DAA9B" d="M1257.659,885.077c-0.511-4.655-5.793-7.173-9.717-4.618c-7.035,4.582-13.515,11.003-18.666,18.995
		c-10.094,15.661-12.602,33.476-8.047,47.313c9.992-4.382,19.471-12.351,26.488-23.237
		C1255.763,911.047,1258.989,897.193,1257.659,885.077z"/>
	<path fill="#9DAA9B" d="M1172.25,910.333c-0.511-4.655-5.793-7.173-9.717-4.618c-7.035,4.582-13.515,11.003-18.666,18.995
		c-10.094,15.661-12.602,33.476-8.048,47.313c9.992-4.382,19.472-12.351,26.488-23.236
		C1170.354,936.302,1173.579,922.448,1172.25,910.333z"/>
	<path fill="none" stroke="#9DAA9B" stroke-width="7" stroke-miterlimit="10" d="M817.3,1043.669
		c0,0-313.165-94.681-447.578-121.624C235.309,895.101,130.973,898.6,130.973,898.6"/>
	<path fill="#9DAA9B" d="M476.288,865.428c-7.45-3.374-15.458,1.077-14.707,8.201c1.346,12.774,5.915,26.436,13.919,39.79
		c15.683,26.166,40.652,44.676,65.211,50.9c1.306-16.308-3.223-35.069-14.124-53.256
		C514.084,890.204,495.681,874.211,476.288,865.428z"/>
	<path fill="#9DAA9B" d="M580.275,895.381c-7.45-3.374-15.458,1.077-14.707,8.201c1.346,12.774,5.915,26.436,13.919,39.79
		c15.683,26.166,40.652,44.676,65.211,50.9c1.306-16.308-3.223-35.069-14.124-53.256
		C618.071,920.157,599.668,904.163,580.275,895.381z"/>
	<path fill="#555F34" d="M684.04,922.189c-7.45-3.374-15.458,1.077-14.707,8.201c1.346,12.774,5.915,26.436,13.919,39.79
		c15.683,26.166,40.652,44.676,65.211,50.9c1.306-16.308-3.223-35.069-14.124-53.256
		C721.837,946.965,703.433,930.972,684.04,922.189z"/>
	<path fill="#9DAA9B" d="M75.731,887.465c-7.364,3.558-9.077,12.559-3.126,16.547c10.67,7.15,24.088,12.396,39.468,14.807
		c30.138,4.723,60.348-2.588,80.862-17.457c-11.684-11.451-28.991-19.994-49.939-23.277C118.97,874.319,94.9,878.202,75.731,887.465
		z"/>
	<path fill="#9DAA9B" d="M220.835,810.044c-7.45-3.374-15.458,1.077-14.707,8.201c1.346,12.774,5.915,26.436,13.919,39.79
		c15.683,26.166,40.652,44.676,65.211,50.9c1.306-16.308-3.223-35.069-14.124-53.256
		C258.632,834.82,240.228,818.826,220.835,810.044z"/>
	<path fill="#9DAA9B" d="M193.642,980.232c-2.655,7.735,2.532,15.287,9.554,13.867c12.59-2.547,25.76-8.386,38.298-17.615
		c24.568-18.084,40.637-44.69,44.514-69.727c-16.359,0.24-34.607,6.521-51.684,19.091
		C214.738,940.265,200.554,960.096,193.642,980.232z"/>
	<path fill="#9DAA9B" d="M270.502,993.719c-2.655,7.735,2.532,15.287,9.554,13.867c12.59-2.547,25.76-8.386,38.298-17.615
		c24.568-18.084,40.637-44.69,44.514-69.727c-16.359,0.24-34.607,6.521-51.684,19.091
		C291.598,953.752,277.414,973.583,270.502,993.719z"/>
	<path fill="#9DAA9B" d="M355.058,1011.108c-2.655,7.735,2.532,15.287,9.554,13.867c12.59-2.547,25.76-8.386,38.298-17.615
		c24.568-18.084,40.637-44.69,44.514-69.727c-16.359,0.24-34.607,6.521-51.684,19.091
		C376.154,971.141,361.97,990.973,355.058,1011.108z"/>
	<path fill="#9DAA9B" d="M448.13,1033.714c-2.655,7.735,2.532,15.287,9.554,13.867c12.59-2.547,25.76-8.386,38.298-17.615
		c24.568-18.084,40.637-44.69,44.514-69.727c-16.359,0.24-34.607,6.521-51.684,19.091
		C469.225,993.747,455.041,1013.579,448.13,1033.714z"/>
	<path fill="#9DAA9B" d="M551.551,1060.866c-2.655,7.735,2.532,15.287,9.554,13.867c12.59-2.547,25.76-8.386,38.298-17.615
		c24.568-18.084,40.637-44.69,44.514-69.727c-16.359,0.24-34.607,6.521-51.684,19.091
		C572.647,1020.898,558.463,1040.73,551.551,1060.866z"/>
	<path fill="#555F34" d="M654.45,1094.115c-2.655,7.735,2.532,15.287,9.554,13.867c12.59-2.547,25.76-8.386,38.298-17.615
		c24.568-18.084,40.637-44.69,44.514-69.727c-16.359,0.24-34.607,6.521-51.684,19.091
		C675.546,1054.147,661.362,1073.979,654.45,1094.115z"/>
	<path fill="#9DAA9B" d="M300.233,823.607c-7.45-3.374-15.458,1.077-14.707,8.201c1.346,12.774,5.915,26.436,13.919,39.79
		c15.683,26.166,40.652,44.676,65.211,50.9c1.306-16.308-3.223-35.069-14.124-53.256C338.03,848.383,319.626,832.39,300.233,823.607
		z"/>
	<path fill="#9DAA9B" d="M384.44,841.127c-7.45-3.374-15.458,1.077-14.707,8.201c1.346,12.774,5.915,26.436,13.919,39.79
		c15.683,26.166,40.652,44.676,65.211,50.9c1.306-16.308-3.223-35.069-14.124-53.256
		C422.237,865.903,403.833,849.909,384.44,841.127z"/>
	<g>
		<g>
			<path fill="#323133" d="M985.466,1038.776c0,0-9.1,9.109-17.73,13.813c-8.63,4.704-10.85,5.751-16.354,3.163
				c-5.504-2.588-10.715-19.227-18.191-23.996c-7.475-4.769-14.427-6.557-22.86-1.234s-12.866,10.648-12.866,10.648l-2.194-23.471
				c0,0,7.618-5.744,16.406-10.754s17.092-4.589,22.449,1.28c5.357,5.869,9.809,17.983,14.857,23.951
				c5.048,5.967,7.887,8.468,14.044,8.295c6.158-0.173,19.083-7.691,19.083-7.691L985.466,1038.776z"/>
			<path d="M979.896,1035.744c2.311,6.127,6.649,7.274,16.06,3.556c9.411-3.718,18.327-9.038,19.026-14.027
				c0.7-4.988,0.31-5.913,0.31-5.913s-2.277,6.92-6.002,6.295c-3.725-0.625-0.658-6.558,0.05-7.927
				c0.708-1.369,5.306-6.067,12.997-7.517s13.355,0.178,19.921-1.054c6.565-1.232,9.098-5.851,9.098-5.851s-5.609,1.351-9.151,1.271
				c-3.542-0.08-5.268-0.173-5.439-1.536c-0.171-1.363,8.746-2.375,14.004-5.15s10.701-6.086,15.099-13.049
				c4.397-6.963,4.444-15.061,4.444-15.061s-4.727,9.571-12.201,14.784c-7.474,5.213-13.48,7.929-16.807,6.049
				c-3.328-1.88,5.603-3.8,9.854-10.32c4.289-6.578,3.378-11.471,3.378-11.471s-2.896,7.432-12.681,11.016
				c-8.246,3.021-18.819,2.523-23.919,2.991c-5.1,0.468-6.256,0.112-6.52-1.379c-0.264-1.49,2.106-3.267,4.487-3.868
				c2.381-0.6,3.155-0.464,3.155-0.464s-4.338-4.393-11.755-0.982c-7.417,3.411-11.765,9.959-14.708,14.728
				c-2.944,4.768-4.505,11.648-5.733,11.252c-1.228-0.396-2.849-2.19-2.656-4.718s1.782-5.449,1.782-5.449s-5.27,1.263-7.485,10.628
				c-2.215,9.366-3.156,13.491-1.961,21.037C977.736,1031.16,979.896,1035.744,979.896,1035.744z"/>
		</g>
		<g>
			<path d="M608.9,434.924c0,0-30.902-0.858-66.095-21.03s-44.206-39.056-35.194-64.807c9.013-25.751,18.057-47.884,55.908-69.367
				c37.395-21.225,102.892-28.488,102.892-28.488s-26.764,21.085-38.322,40.579c-11.368,19.174-21.765,39.68,6.562,60.71
				s63.949,9.442,63.949,9.442L608.9,434.924z"/>
			<g>
				<defs>
					<path id="XMLID_00000039127987624077295900000017042457841280751274_" d="M650.162,375.031c0,0-14.739-3.948-23.688-10.002
						s-13.95-15.792-13.95-15.792s-3.422,6.58,0,12.897c3.422,6.317,9.475,12.897,9.475,12.897s-30.525-10.22-26.583-44.218
						c5.409-46.655,43.165-68.695,43.165-68.695s-39.743,1.053-68.695,21.582s-35.795,33.426-40.533,55.009
						c-4.738,21.582,10.791,41.586,30.531,51.85c19.74,10.265,66.326,20.793,66.326,20.793L650.162,375.031z"/>
				</defs>
				<use xlink:href="#XMLID_00000039127987624077295900000017042457841280751274_"  overflow="visible" fill="#FFFFFF"/>
				<clipPath id="XMLID_00000114772069342034430900000013643393197957892763_">
					<use xlink:href="#XMLID_00000039127987624077295900000017042457841280751274_"  overflow="visible"/>
				</clipPath>
				<path clip-path="url(#XMLID_00000114772069342034430900000013643393197957892763_)" fill="#DCDCDC" d="M629.896,423.986
					l-80.013-32.11l-30.268-38.164l6.843-8.422c0,0,2.895,13.95,32.9,30.005c30.005,16.055,59.483,15.529,59.483,15.529
					s-34.479-11.844-49.745-33.426c-15.266-21.582,6.843-45.797,6.843-45.797s-9.212,28.426,6.58,43.165
					c15.792,14.739,28.952,21.319,28.952,21.319s-16.845-15.792-18.95-30.794s17.371-33.69,17.371-33.69l-2.369,47.639l8.989,11.634
					l5.487,4.158c0,0,15.415,6.357,27.597,8.024C661.779,384.722,629.896,423.986,629.896,423.986z"/>
			</g>
		</g>
		<g>
			<path d="M934.526,434.924c0,0,30.902-0.858,66.095-21.03s44.206-39.056,35.193-64.807c-9.013-25.751-18.057-47.884-55.908-69.367
				c-37.395-21.225-102.892-28.488-102.892-28.488s26.764,21.085,38.322,40.579c11.368,19.174,21.765,39.68-6.562,60.71
				c-28.326,21.03-63.949,9.442-63.949,9.442L934.526,434.924z"/>
			<g>
				<defs>
					<path id="XMLID_00000134208559940966824550000010412467318416500152_" d="M893.264,375.031c0,0,14.739-3.948,23.688-10.002
						s13.95-15.792,13.95-15.792s3.422,6.58,0,12.897c-3.422,6.317-9.475,12.897-9.475,12.897s30.525-10.22,26.583-44.218
						c-5.409-46.655-43.165-68.695-43.165-68.695s39.743,1.053,68.695,21.582s35.795,33.426,40.533,55.009
						c4.738,21.582-10.791,41.586-30.531,51.85c-19.74,10.265-66.326,20.793-66.326,20.793L893.264,375.031z"/>
				</defs>
				<use xlink:href="#XMLID_00000134208559940966824550000010412467318416500152_"  overflow="visible" fill="#FFFFFF"/>
				<clipPath id="XMLID_00000027569761634734779290000011959282248681238967_">
					<use xlink:href="#XMLID_00000134208559940966824550000010412467318416500152_"  overflow="visible"/>
				</clipPath>
				<path clip-path="url(#XMLID_00000027569761634734779290000011959282248681238967_)" fill="#DCDCDC" d="M913.53,423.986
					l80.013-32.11l30.268-38.164l-6.843-8.422c0,0-2.895,13.95-32.9,30.005c-30.005,16.055-59.483,15.529-59.483,15.529
					s34.479-11.844,49.745-33.426c15.266-21.582-6.843-45.797-6.843-45.797s9.212,28.426-6.58,43.165
					c-15.792,14.739-28.952,21.319-28.952,21.319s16.845-15.792,18.95-30.794s-17.371-33.69-17.371-33.69l2.369,47.639
					l-8.989,11.634l-5.487,4.158c0,0-15.415,6.357-27.597,8.024C881.647,384.722,913.53,423.986,913.53,423.986z"/>
			</g>
		</g>
		<g>
			<defs>
				<path id="XMLID_00000183928505058394604380000010009740728836872347_" d="M1270.194,591.549
					c-25.039-99.56-43.735-96.693-43.735-96.693s7.489,151.641-64.699,148.967c-30.751-1.139-56.667-11.942-76.291-23.967
					c-67.171-64.21-86.762-60.023-86.762-60.023H551.208c0,0-20.248,9.236-46.788,26.352l-0.253-0.959c0,0-0.777,0.952-2.276,2.603
					c-15.512,10.148-32.964,22.893-49.698,37.992c-18.036,9.442-40.239,17.056-65.78,18.002
					c-72.189,2.674-64.699-148.967-64.699-148.967s-18.696-2.866-43.735,96.693c-25.039,99.56,0.976,187.413,44.901,245.564
					c43.925,58.151,156.599,82.661,210.891,80.304c0.527-0.023,1.042-0.035,1.561-0.05c0.061,0.017,0.12,0.033,0.181,0.05
					c0.135-0.028,0.269-0.042,0.404-0.069c11.608-0.279,21.288,1.343,29.325,4.041c12.248,5.64,23.89,15.819,34.551,28.616
					c1.185,2.289,1.682,3.719,1.682,3.719l-0.651-2.466c32.84,40.179,56.124,104.849,58.564,136.579h229.868
					c2.348-30.519,25.85-94.361,58.194-136.965l-0.753,2.852c0,0,0.659-1.897,2.272-4.822c5.462-7.021,11.163-13.429,17.052-18.955
					c10.413-7.44,25.885-13.508,48.381-12.531c54.292,2.357,166.966-22.153,210.891-80.304
					C1269.218,778.962,1295.233,691.109,1270.194,591.549z"/>
			</defs>
			<use xlink:href="#XMLID_00000183928505058394604380000010009740728836872347_"  overflow="visible" fill="#323133"/>
			<clipPath id="XMLID_00000008111979295219214600000013144972249192929921_">
				<use xlink:href="#XMLID_00000183928505058394604380000010009740728836872347_"  overflow="visible"/>
			</clipPath>
			<path clip-path="url(#XMLID_00000008111979295219214600000013144972249192929921_)" fill="#555555" d="M1226.459,494.856
				c0,0,44.6,104.803,33.342,192.612s-46.36,129.945-126.086,169.543c-79.725,39.599-115.74,9.977-173.261,44.614
				s-109.812,195.954-109.812,195.954l75.365-34.999l368.692-5.447l63.043-567.237L1226.459,494.856z"/>
			<path clip-path="url(#XMLID_00000008111979295219214600000013144972249192929921_)" fill="#555555" d="M322.784,494.856
				c0,0-44.6,104.803-33.342,192.612c11.258,87.81,46.36,129.945,126.086,169.543c79.725,39.599,115.74,9.977,173.261,44.614
				c57.521,34.636,109.812,195.954,109.812,195.954l-75.365-34.999l-368.692-5.447l-63.043-567.237L322.784,494.856z"/>
		</g>
		<g>
			<ellipse cx="774.957" cy="680.02" rx="269.049" ry="214.803"/>
			<ellipse fill="#323133" cx="774.957" cy="478.726" rx="171.74" ry="153.807"/>
			<ellipse fill="#323133" cx="774.957" cy="652.936" rx="243.269" ry="201.395"/>
			<g>
				<ellipse fill="#555555" cx="774.957" cy="707.083" rx="197.652" ry="147.249"/>
				<g>
					<ellipse fill="#555555" cx="808.96" cy="624.711" rx="90.115" ry="79.941"/>
					<ellipse fill="#555555" cx="740.955" cy="624.711" rx="90.115" ry="79.941"/>
				</g>
			</g>
			<g>
				
					<ellipse transform="matrix(0.4593 -0.8883 0.8883 0.4593 -164.2809 1163.1803)" cx="873.358" cy="716.539" rx="49.647" ry="34.354"/>
				
					<ellipse transform="matrix(0.8883 -0.4593 0.4593 0.8883 -253.5348 390.8292)" cx="676.557" cy="716.539" rx="34.354" ry="49.647"/>
			</g>
			<path fill="#323133" d="M767.947,332.231c-0.451-7.13,6.487-13.372,15.495-13.942c4.467-0.282,8.601,0.885,11.692,3.001
				c-2.101-5.931-10.781-9.989-20.896-9.349c-11.357,0.718-20.199,7.08-19.748,14.211c0.368,5.818,6.81,10.346,15.338,11.427
				C768.748,335.984,768.07,334.179,767.947,332.231z"/>
			<g>
				<g>
					
						<ellipse transform="matrix(0.1946 -0.9809 0.9809 0.1946 327.9958 1351.5699)" fill="#323133" cx="987.042" cy="476.051" rx="19.613" ry="48.627"/>
					
						<ellipse transform="matrix(0.1946 -0.9809 0.9809 0.1946 323.1666 1354.3857)" cx="986.342" cy="480.399" rx="15.2" ry="45.355"/>
				</g>
				<g>
					
						<ellipse transform="matrix(0.9809 -0.1946 0.1946 0.9809 -81.8861 118.649)" fill="#323133" cx="562.873" cy="476.051" rx="48.627" ry="19.613"/>
					
						<ellipse transform="matrix(0.9809 -0.1946 0.1946 0.9809 -82.719 118.8684)" cx="563.573" cy="480.399" rx="45.355" ry="15.2"/>
				</g>
			</g>
		</g>
		<g>
			<circle fill="#FFFFFF" cx="774.789" cy="933.413" r="61.389"/>
			<g>
				<path fill="#231F20" d="M775.346,910.255l15.757,38.891l-23.801-18.748L775.346,910.255L775.346,910.255z M803.339,958.104
					l-24.238-58.33c-0.692-1.682-2.075-2.572-3.754-2.572c-1.682,0-3.167,0.89-3.858,2.572l-26.603,63.981h9.1l10.531-26.379
					l31.427,25.389c1.264,1.022,2.176,1.484,3.361,1.484c2.374,0,4.45-1.78,4.45-4.349
					C803.754,959.482,803.606,958.818,803.339,958.104L803.339,958.104z"/>
				<path fill="#231F20" d="M774.32,873.866c-32.834,0-59.547,26.713-59.547,59.547c0,32.834,26.713,59.546,59.547,59.546
					c32.834,0,59.547-26.712,59.547-59.546C833.866,900.579,807.154,873.866,774.32,873.866L774.32,873.866z M774.32,995.647
					c-34.316,0-62.234-27.918-62.234-62.234c0-34.316,27.918-62.234,62.234-62.234c34.316,0,62.234,27.918,62.234,62.234
					C836.554,967.729,808.635,995.647,774.32,995.647L774.32,995.647z"/>
			</g>
		</g>
		
			<ellipse transform="matrix(0.1636 -0.9865 0.9865 0.1636 -395.0614 1801.1818)" fill="#555555" cx="864.76" cy="1133.588" rx="59.378" ry="153.106"/>
		
			<ellipse transform="matrix(0.1636 -0.9865 0.9865 0.1636 -418.2344 1760.2667)" fill="#323133" cx="829.043" cy="1126.797" rx="52.494" ry="153.106"/>
		<path fill="#555555" d="M827.599,1108.533c3.276,19.748-19.024,41.393-55.871,58.409c-23.516,10.859-52.956,19.833-85.455,25.224
			c-83.418,13.838-155.393-1.171-160.759-33.522c-5.367-32.351,57.907-69.795,141.325-83.633S822.233,1076.181,827.599,1108.533z"/>
		<path fill="#323133" d="M825.198,1109.493c2.785,16.788-17.952,35.485-52.002,50.402c-21.731,9.521-48.885,17.502-78.807,22.465
			c-76.806,12.741-142.768,0.774-147.33-26.729s54.003-60.127,130.809-72.868S820.635,1081.99,825.198,1109.493z"/>
		<polygon points="850.643,1122.436 770.646,1167.427 776.86,1170.074 		"/>
		<polygon fill="#323133" points="859.214,1072.442 830.162,1110.667 795.442,1116.722 754.928,1109.477 712.746,1097.579 
			712.746,1062.581 851.747,1066.701 		"/>
		<g>
			<path d="M841.616,1136.812c2.178,7.085,16.044,12.105,30.241,12.581c13.624,0.457,45.562-1.019,46.939-1.638
				c1.377-0.619,6.879-5.888,7.207-11.474s-14.843-23.609-14.843-23.609s7.548-7.409-1.131-26.208
				c-8.679-18.799-17.618-19.75-22.729-22.183c-5.112-2.433-8.328-1.698-9.509-1.167s-32.925,15.804-36.073,17.218
				c-3.148,1.414-22.452,13.558-17.151,25.362c5.302,11.805,28.18,4.84,31.79,3.928c3.61-0.912,14.502-5.094,15.581-3.215
				c1.079,1.88-7.341,4.716-14.681,9.43C849.918,1120.553,839.042,1128.441,841.616,1136.812z"/>
			<polygon fill="#FFFFFF" points="834.723,1094.482 881.127,1068.471 894.199,1074.645 			"/>
		</g>
		<path d="M834.723,1112.215c0,0-33.263,7.375-57.886,12.273c-24.623,4.898-71.261,9.1-71.261,9.1s45.991-7.766,67.878-12.691
			c21.887-4.925,62.724-14.867,62.724-14.867L834.723,1112.215z"/>
		<g>
			<path d="M719.141,1124.586c-2.056,7.121-15.833,12.379-30.02,13.098c-13.614,0.69-45.573-0.237-46.96-0.832
				c-1.388-0.595-6.979-5.77-7.403-11.349s14.436-23.86,14.436-23.86s-7.674-7.279,0.681-26.224
				c8.355-18.945,17.276-20.049,22.345-22.569s8.298-1.84,9.487-1.331c1.189,0.51,33.191,15.237,36.363,16.597
				s22.681,13.17,17.583,25.064s-28.093,5.323-31.718,4.473c-3.625-0.85-14.587-4.845-15.634-2.947
				c-1.046,1.898,7.421,4.589,14.841,9.177C710.561,1108.472,721.57,1116.172,719.141,1124.586z"/>
			<polygon fill="#FFFFFF" points="645.595,1133.426 639.194,1124.925 708.877,1128.093 			"/>
		</g>
		<path d="M716.857,1100.043l24.075,6.924c8.246,2.372,16.626,4.249,25.096,5.622l25.501,4.133l3.545-0.835l-31.551-5.755
			c-6.393-1.166-12.714-2.698-18.932-4.59l-26.184-7.964L716.857,1100.043z"/>
		<path d="M624.964,1046.932"/>
		<g>
			<path fill="#555555" d="M888.529,499.342c0,0,2.008-20.248,0-30.288s-13.889-19.746-22.925-25.1
				c-9.036-5.355-13.722-6.191-13.722-6.191s12.773,9.036,18.769,15.228c5.996,6.191,9.845,10.542,9.176,23.427
				c-0.669,12.885-2.845,27.443-2.845,27.443L888.529,499.342z"/>
			<path d="M861.283,502.154c-24.793,0-46.118-10.144-55.68-24.707c4.233,19.601,24.954,34.484,49.897,34.484
				c17.041,0,32.108-6.953,41.3-17.605C886.791,499.248,874.535,502.154,861.283,502.154z"/>
		</g>
		<g>
			<path fill="#555555" d="M661.111,499.342c0,0-2.008-20.248,0-30.288c2.008-10.04,13.889-19.746,22.925-25.1
				c9.036-5.355,13.721-6.191,13.721-6.191s-12.773,9.036-18.769,15.228c-5.996,6.191-9.845,10.542-9.176,23.427
				c0.669,12.885,2.845,27.443,2.845,27.443L661.111,499.342z"/>
			<path d="M688.357,502.154c24.793,0,46.118-10.144,55.68-24.707c-4.233,19.601-24.954,34.484-49.897,34.484
				c-17.041,0-32.108-6.953-41.3-17.605C662.848,499.248,675.104,502.154,688.357,502.154z"/>
		</g>
		<g>
			<path d="M1238.593,507.085c0,0,0.654,36.622,15.695,39.238c15.041,2.616,47.74-34.006,58.203-61.473
				c10.464-27.467,1.308-26.159-9.81-38.584s-35.264-30.933-48.343-38.781s-19.89-4.383-15.312-1.767
				c4.578,2.616,37.165,30.83,30.625,44.563c-6.54,13.733-15.363,14.949-28.442,14.949s-23.49-28.138-22.889-38.584
				c1.271-22.106,13.733-30.736,9.81-31.39s-14.693,1.709-19.924,26.56c-5.232,24.851-11.186,53.866-5.301,70.869
				s3.644,24.209,14.108,22.901S1238.593,507.085,1238.593,507.085z"/>
			<polygon fill="#FFFFFF" points="1296.234,453.262 1308.63,469.155 1260.951,536.502 1265.084,507.616 			"/>
		</g>
		<g>
			<path d="M308.082,507.085c0,0-0.654,36.622-15.695,39.238c-15.041,2.616-47.74-34.006-58.203-61.473
				c-10.463-27.467-1.308-26.159,9.81-38.584s35.264-30.933,48.343-38.781s19.89-4.383,15.312-1.767
				c-4.578,2.616-37.165,30.83-30.625,44.563c6.54,13.733,15.363,14.949,28.442,14.949s23.49-28.138,22.889-38.584
				c-1.271-22.106-13.733-30.736-9.81-31.39s14.693,1.709,19.924,26.56c5.232,24.851,11.186,53.866,5.3,70.869
				s-3.644,24.209-14.108,22.901S308.082,507.085,308.082,507.085z"/>
			<polygon fill="#FFFFFF" points="250.441,453.262 238.045,469.155 285.724,536.502 281.591,507.616 			"/>
		</g>
		<polygon fill="#323133" points="727.841,1175.298 805.451,1147.852 836.178,1123.083 830.814,1113.057 822.192,1114.961 		"/>
	</g>
</g>
<g>
</g>
<g>
</g>
<g>
</g>
<g>
</g>
<g>
</g>
</svg>
