<?xml version="1.0" encoding="utf-8"?>
<!-- Generator: Adobe Illustrator 27.4.1, SVG Export Plug-In . SVG Version: 6.00 Build 0)  -->
<svg version="1.1" id="Layer_1" xmlns="http://www.w3.org/2000/svg" xmlns:xlink="http://www.w3.org/1999/xlink" x="0px" y="0px"
	 viewBox="0 0 1822 1822" enable-background="new 0 0 1822 1822" xml:space="preserve">
<g>
	<circle fill="#F8F7F1" cx="911" cy="911" r="871.122"/>
	<path fill="#E5D6BF" d="M941.745,625.958c0,0-36.325-150.404-66.382-223.432c-30.057-73.028-57.286-80.635-75.621-80.635
		c-18.335,0-1.918,213.017-0.7,233.627c1.218,20.61-102.834-321.869-186.512-317.305c-83.678,4.564,50.207,317.305,50.207,317.305
		S560.358,413.175,524.066,437.518s147.799,417.984,147.799,417.984l262.905-8.187L941.745,625.958z"/>
	<path fill="#AAA4A2" d="M758.993,726.509c0,0-35.423-87.445-57.587-128.761c-22.164-41.316-34.105-43.401-41.434-41.714
		s28.84,128.76,32.191,141.088c3.351,12.329-85.839-184.825-118.651-174.369c-32.812,10.456,64.169,186.914,64.169,186.914
		s-60.705-76.5-71.828-58.466c-11.123,18.034,117.17,238.705,117.17,238.705l103.947-29.138L758.993,726.509z"/>
	<path fill="#E5D6BF" d="M1233.148,826.976c0,0,92.807-103.266,135.406-211.286c42.6-108.021,40.071-136.928,14.71-141.492
		c-25.36-4.564-153.457,128.105-153.457,128.105s126.576-283.29,82.455-325.89s-236.198,371.291-236.198,371.291
		s107.71-255.663,32.745-283.049S968.78,790.438,968.78,790.438L1233.148,826.976z"/>
	<path fill="#555F34" d="M1142.498,693.836c-4.169-7.036-13.283-7.98-16.752-1.713c-6.221,11.238-10.311,25.051-11.41,40.581
		c-2.153,30.43,7.692,59.911,24.245,79.092c10.42-12.613,17.466-30.58,18.962-51.732
		C1159.26,735.805,1153.352,712.15,1142.498,693.836z"/>
	<path fill="#555F34" d="M1257.565,777.455c6.07-5.481,5.189-14.601-1.642-16.759c-12.248-3.87-26.598-5.14-42.037-3.139
		c-30.253,3.922-57.198,19.415-72.716,39.442c14.428,7.713,33.436,11.057,54.464,8.331
		C1219.751,802.203,1241.766,791.723,1257.565,777.455z"/>
	<path fill="none" stroke="#9DAA9B" stroke-width="7" stroke-miterlimit="10" d="M1340.969,442.538
		c0,0-126.845,189.945-165.315,253.082S1113.8,797.815,1113.8,797.815"/>
	<path fill="#9DAA9B" d="M1409.412,354.912c0.665-8.151-6.225-14.191-12.679-11.082c-11.572,5.573-22.895,14.48-32.77,26.517
		c-19.348,23.585-28.359,53.332-25.94,78.552c15.794-4.267,31.93-14.855,45.379-31.249
		C1398.826,398.848,1407.68,376.13,1409.412,354.912z"/>
	<path fill="#9DAA9B" d="M1401.939,502.367c6.07-5.481,5.189-14.601-1.642-16.759c-12.248-3.87-26.598-5.14-42.037-3.139
		c-30.253,3.922-57.198,19.415-72.716,39.442c14.428,7.713,33.436,11.057,54.464,8.331
		C1364.125,527.115,1386.14,516.635,1401.939,502.367z"/>
	<path fill="#9DAA9B" d="M1292.102,403.796c-4.169-7.036-13.283-7.98-16.752-1.713c-6.221,11.238-10.311,25.051-11.41,40.581
		c-2.153,30.43,7.692,59.911,24.245,79.092c10.42-12.613,17.466-30.58,18.962-51.732
		C1308.864,445.766,1302.955,422.111,1292.102,403.796z"/>
	<path fill="#9DAA9B" d="M1243.867,481.891c-4.169-7.036-13.283-7.98-16.752-1.713c-6.221,11.238-10.311,25.051-11.41,40.581
		c-2.153,30.43,7.692,59.911,24.245,79.092c10.42-12.613,17.466-30.58,18.962-51.732
		C1260.629,523.861,1254.72,500.206,1243.867,481.891z"/>
	<path fill="#9DAA9B" d="M1194.641,557.673c-4.17-7.036-13.283-7.98-16.752-1.713c-6.221,11.238-10.311,25.051-11.41,40.581
		c-2.153,30.43,7.692,59.911,24.245,79.092c10.42-12.613,17.465-30.58,18.962-51.732
		C1211.402,599.643,1205.494,575.987,1194.641,557.673z"/>
	<path fill="#9DAA9B" d="M1353.704,579.339c6.07-5.481,5.189-14.601-1.642-16.759c-12.248-3.87-26.598-5.14-42.037-3.139
		c-30.253,3.922-57.198,19.415-72.716,39.442c14.428,7.713,33.436,11.057,54.464,8.331
		C1315.89,604.087,1337.905,593.607,1353.704,579.339z"/>
	<path fill="#9DAA9B" d="M1304.478,654.996c6.07-5.481,5.189-14.601-1.642-16.759c-12.248-3.87-26.598-5.14-42.037-3.139
		c-30.253,3.922-57.198,19.415-72.716,39.442c14.428,7.713,33.436,11.057,54.464,8.331
		C1266.663,679.744,1288.678,669.264,1304.478,654.996z"/>
	<path fill="#AAA4A2" d="M1061.67,541.702c0,0,14.109-69.816,16.288-105.745s-6.659-43.614-13.555-46.612
		s-40.056,90.152-43.403,99.104c-3.348,8.952,20.753-153.512-11.565-165.259s-39.706,142.966-39.706,142.966
		s-12.226-77.195-30.372-72.792c-18.146,4.402-21.588,201.685-21.588,201.685l100.403,39.521L1061.67,541.702z"/>
	<path fill="#D7D9C3" d="M1073.793,1158.215c0,0,180.053,3.705,237.492-9.202c57.439-12.907,73.799-16.444,73.799-16.444
		l-46.021-47.468l78.581,36.404c0,0,92.936-28.153,169.639-106.684c76.704-78.532,110.667-135.205,110.667-135.205
		s-55.676-19.625-85.108-28.916c-29.432-9.291-46.791-10.33-46.791-10.33l-75.047,60.326l16.128-74.576
		c0,0-47.672-9.821-96.928-2.468c-49.256,7.352-104.044,24.161-104.044,24.161l-231.979,162.058L1073.793,1158.215z"/>
	<g>
		<path fill="#FFFFFF" d="M1179.609,1066.463c16.227,14.663,32.793,29.3,51.045,41.426c25.991,15.288,53.563,27.847,80.632,41.124
			c-27.669-12.285-55.759-23.793-82.448-38.168c-18.98-11.587-36.195-25.661-53.224-39.905
			C1175.614,1070.94,1179.609,1066.463,1179.609,1066.463L1179.609,1066.463z"/>
	</g>
	<g>
		<path fill="#FFFFFF" d="M1697.951,879.616c-66.44,31.755-134.481,61.647-202.596,89.706
			c-47.719,19.569-96.272,38.532-145.081,55.195c-48.583,16.591-99.643,29.677-149.346,42.46
			c-57.286,14.512-114.829,28.008-172.738,39.766c88.865-23.364,178.733-47.245,266.986-72.885
			c9.792-3.057,21.938-6.576,31.603-9.812C1451.38,982.248,1576.054,929.248,1697.951,879.616L1697.951,879.616z"/>
	</g>
	<g>
		<path fill="#FFFFFF" d="M1396.056,1000.904c25.506,17.877,51.064,35.994,78.117,51.48c3.766,2.06,7.912,4.125,11.95,5.681
			c11.039,4.46,22.18,8.701,33.448,12.603c-11.516-3.105-22.944-6.564-34.305-10.254c-5.603-1.729-11.42-4.296-16.705-6.909
			c-16.125-7.927-31.693-16.888-47.22-25.882c-10.33-6.027-20.577-12.139-30.809-18.384L1396.056,1000.904L1396.056,1000.904z"/>
	</g>
	<g>
		<path fill="#FFFFFF" d="M1518.447,953.841c19.631,7.898,39.284,15.995,59.435,22.478c3.47,1.055,8.736,2.259,12.294,3.141
			c0,0,24.756,6.045,24.756,6.045c-8.849-1.694-29.145-5.145-37.639-7.015c-12.413-3.112-24.574-7.056-36.739-10.963
			c-8.096-2.629-16.159-5.315-24.224-8.073L1518.447,953.841L1518.447,953.841z"/>
	</g>
	<path fill="#D7D9C3" d="M726.606,784.758c0,0-29.715-34.877-143.465-74.739c-113.749-39.862-327.759-45.44-327.759-45.44
		s49.164,191.193,118.813,277.229s116.799,133.835,116.799,133.835l109.901-17.754l-69.399,45.938
		c0,0,129.041,71.101,200.503,111.054s153.81,44.732,153.81,44.732L726.606,784.758z"/>
	<g>
		<path fill="#FFFFFF" d="M548.711,878.667c0.565-23.803,0.169-47.895-2.401-71.614c-0.855-7.916-2.232-15.69-3.889-23.508
			c-6.886-31.24-16.085-62.051-25.607-92.612c10.821,30.248,21.274,60.591,29.501,91.698c4.142,15.602,6.403,31.744,7.859,47.805
			c1.466,16.084,2.302,32.134,2.535,48.344L548.711,878.667L548.711,878.667z"/>
	</g>
	<g>
		<path fill="#FFFFFF" d="M255.383,664.58c113.152,81.108,224.396,169.342,332.701,256.868c0,0-10.96-7.269-10.96-7.269
			c-3.648-2.437-7.22-4.971-10.834-7.453C459.554,831.034,355.165,749.21,255.383,664.58L255.383,664.58z"/>
	</g>
	<g>
		<path fill="#FFFFFF" d="M374.26,760.822c-0.69-15.266-1.783-30.655-3.696-45.834c-1.445-11.395-3.601-22.725-7.311-33.617
			c-1.256-3.623-2.645-7.22-4.47-10.615c6.18,9.856,9.883,21.072,13.005,32.224c4.871,18.803,7.839,37.946,10.446,57.185
			C382.233,760.165,374.26,760.822,374.26,760.822L374.26,760.822z"/>
	</g>
	<g>
		<path fill="#FFFFFF" d="M436.468,807.502c-18.617,9.854-38.751,16.392-59.069,21.542c-20.151,4.957-40.548,9.038-61.158,11.393
			c10.198-1.793,20.283-4.129,30.297-6.679c19.917-5.194,39.759-11.139,58.658-19.269c9.251-4.024,18.565-8.457,27.075-13.797
			C432.271,800.691,436.468,807.502,436.468,807.502L436.468,807.502z"/>
	</g>
	<path fill="#9DAA9B" d="M1276.889,1173.081c4.68,0.15,7.918-4.725,5.941-8.969c-3.546-7.61-8.989-14.93-16.176-21.156
		c-14.083-12.2-31.367-17.193-45.708-14.633c2.93,10.509,9.484,21.017,19.273,29.498
		C1251.446,1167.546,1264.707,1172.691,1276.889,1173.081z"/>
	<path fill="#9DAA9B" d="M1193.065,1201.386c4.68,0.15,7.918-4.725,5.941-8.969c-3.546-7.61-8.989-14.93-16.176-21.156
		c-14.083-12.2-31.367-17.193-45.708-14.633c2.93,10.509,9.484,21.017,19.273,29.498
		C1167.621,1195.851,1180.882,1200.996,1193.065,1201.386z"/>
	<path fill="#9DAA9B" d="M1143.072,1220.767c4.68,0.15,7.918-4.725,5.941-8.969c-3.546-7.61-8.989-14.93-16.176-21.156
		c-14.083-12.2-31.367-17.193-45.708-14.633c2.93,10.509,9.484,21.017,19.273,29.498
		C1117.629,1215.231,1130.89,1220.376,1143.072,1220.767z"/>
	<path fill="none" stroke="#9DAA9B" stroke-width="7" stroke-miterlimit="10" d="M1542.355,1040.179
		c0,0-168.448,43.59-259.321,68.709c-90.873,25.119-258.548,92.791-258.548,92.791"/>
	<path fill="#9DAA9B" d="M1259.562,1065.979c-0.511-4.655-5.793-7.173-9.717-4.618c-7.035,4.582-13.515,11.003-18.666,18.995
		c-10.094,15.661-12.602,33.476-8.048,47.313c9.992-4.382,19.472-12.35,26.488-23.236
		C1257.667,1091.949,1260.892,1078.095,1259.562,1065.979z"/>
	<path fill="#9DAA9B" d="M1175.738,1097.721c-0.511-4.655-5.793-7.173-9.717-4.618c-7.035,4.582-13.515,11.003-18.666,18.995
		c-10.094,15.661-12.602,33.476-8.048,47.313c9.992-4.382,19.471-12.35,26.488-23.236
		C1173.843,1123.691,1177.068,1109.837,1175.738,1097.721z"/>
	<path fill="#9DAA9B" d="M1545.177,1099.504c4.68,0.15,7.918-4.725,5.941-8.969c-3.546-7.61-8.989-14.93-16.176-21.156
		c-14.083-12.2-31.367-17.193-45.708-14.633c2.93,10.509,9.484,21.017,19.273,29.498
		C1519.733,1093.969,1532.994,1099.114,1545.177,1099.504z"/>
	<path fill="#9DAA9B" d="M1494.432,1112.091c4.68,0.15,7.918-4.725,5.941-8.969c-3.546-7.61-8.989-14.93-16.176-21.156
		c-14.083-12.2-31.367-17.193-45.708-14.633c2.93,10.509,9.484,21.017,19.273,29.498
		C1468.989,1106.556,1482.25,1111.701,1494.432,1112.091z"/>
	<path fill="#9DAA9B" d="M1441.949,1125.745c4.68,0.15,7.918-4.725,5.941-8.969c-3.546-7.61-8.989-14.93-16.176-21.156
		c-14.083-12.2-31.367-17.193-45.708-14.633c2.93,10.509,9.484,21.017,19.273,29.498
		C1416.505,1120.21,1429.766,1125.355,1441.949,1125.745z"/>
	<path fill="#9DAA9B" d="M1356.539,1148.453c4.68,0.15,7.918-4.725,5.941-8.969c-3.546-7.61-8.989-14.93-16.176-21.156
		c-14.083-12.2-31.367-17.193-45.708-14.633c2.93,10.509,9.484,21.017,19.273,29.498
		C1331.096,1142.917,1344.357,1148.062,1356.539,1148.453z"/>
	<path fill="#9DAA9B" d="M1609.872,1027.383c3.138-3.475,1.51-9.096-3.008-10.329c-8.099-2.211-17.203-2.786-26.599-1.323
		c-18.411,2.866-33.389,12.833-40.701,25.432c9.914,4.554,22.169,6.341,34.966,4.348
		C1589.208,1043.226,1601.703,1036.429,1609.872,1027.383z"/>
	<path fill="#9DAA9B" d="M1524.33,992.693c-0.511-4.655-5.793-7.173-9.717-4.618c-7.035,4.582-13.515,11.003-18.666,18.995
		c-10.094,15.661-12.602,33.476-8.048,47.313c9.992-4.382,19.472-12.351,26.488-23.236
		C1522.434,1018.662,1525.66,1004.809,1524.33,992.693z"/>
	<path fill="#9DAA9B" d="M1477.105,1006.851c-0.511-4.655-5.793-7.173-9.717-4.618c-7.035,4.582-13.515,11.003-18.666,18.995
		c-10.094,15.661-12.602,33.476-8.048,47.313c9.992-4.382,19.472-12.351,26.488-23.236
		C1475.21,1032.82,1478.435,1018.967,1477.105,1006.851z"/>
	<path fill="#9DAA9B" d="M1424.622,1020.56c-0.511-4.655-5.793-7.173-9.717-4.618c-7.035,4.582-13.515,11.003-18.666,18.995
		c-10.094,15.661-12.602,33.476-8.047,47.313c9.992-4.382,19.471-12.351,26.488-23.237
		C1422.727,1046.529,1425.952,1032.676,1424.622,1020.56z"/>
	<path fill="#9DAA9B" d="M1339.213,1045.815c-0.511-4.655-5.793-7.173-9.717-4.618c-7.035,4.582-13.515,11.003-18.666,18.995
		c-10.094,15.661-12.602,33.476-8.048,47.313c9.992-4.382,19.472-12.35,26.488-23.236
		C1337.317,1071.784,1340.543,1057.931,1339.213,1045.815z"/>
	<path fill="none" stroke="#9DAA9B" stroke-width="7" stroke-miterlimit="10" d="M984.264,1179.152
		c0,0-313.165-94.681-447.578-121.625s-238.749-23.445-238.749-23.445"/>
	<path fill="#9DAA9B" d="M643.251,1000.91c-7.45-3.374-15.458,1.077-14.707,8.201c1.346,12.774,5.916,26.436,13.919,39.79
		c15.683,26.166,40.652,44.676,65.211,50.9c1.306-16.308-3.223-35.069-14.124-53.256
		C681.048,1025.686,662.644,1009.693,643.251,1000.91z"/>
	<path fill="#9DAA9B" d="M747.238,1030.863c-7.45-3.374-15.458,1.077-14.707,8.201c1.346,12.774,5.915,26.436,13.919,39.79
		c15.683,26.166,40.652,44.676,65.211,50.9c1.306-16.308-3.223-35.069-14.124-53.256
		C785.035,1055.639,766.631,1039.646,747.238,1030.863z"/>
	<path fill="#555F34" d="M851.004,1057.672c-7.45-3.374-15.458,1.077-14.707,8.201c1.346,12.774,5.915,26.436,13.919,39.79
		c15.683,26.166,40.652,44.676,65.211,50.9c1.306-16.308-3.223-35.069-14.124-53.256
		C888.8,1082.448,870.396,1066.454,851.004,1057.672z"/>
	<path fill="#9DAA9B" d="M242.695,1022.947c-7.364,3.558-9.077,12.559-3.126,16.547c10.67,7.151,24.088,12.396,39.468,14.807
		c30.138,4.723,60.348-2.588,80.862-17.457c-11.684-11.451-28.991-19.994-49.939-23.277
		C285.934,1009.801,261.863,1013.684,242.695,1022.947z"/>
	<path fill="#9DAA9B" d="M387.798,945.526c-7.45-3.374-15.458,1.077-14.707,8.201c1.346,12.774,5.915,26.436,13.919,39.79
		c15.683,26.166,40.652,44.676,65.211,50.9c1.306-16.308-3.223-35.069-14.124-53.256
		C425.595,970.302,407.191,954.308,387.798,945.526z"/>
	<path fill="#9DAA9B" d="M360.605,1115.714c-2.655,7.735,2.532,15.287,9.554,13.867c12.59-2.547,25.76-8.386,38.298-17.615
		c24.568-18.084,40.637-44.69,44.514-69.727c-16.359,0.24-34.607,6.521-51.684,19.091
		C381.701,1075.747,367.517,1095.579,360.605,1115.714z"/>
	<path fill="#9DAA9B" d="M437.465,1129.201c-2.655,7.735,2.532,15.287,9.554,13.867c12.59-2.547,25.76-8.386,38.298-17.615
		c24.568-18.084,40.637-44.69,44.514-69.727c-16.359,0.24-34.607,6.521-51.684,19.091
		C458.561,1089.234,444.377,1109.066,437.465,1129.201z"/>
	<path fill="#9DAA9B" d="M522.021,1146.591c-2.655,7.735,2.532,15.287,9.554,13.867c12.59-2.547,25.76-8.386,38.298-17.615
		c24.568-18.084,40.637-44.69,44.514-69.727c-16.359,0.24-34.607,6.521-51.684,19.091
		C543.117,1106.623,528.933,1126.455,522.021,1146.591z"/>
	<path fill="#9DAA9B" d="M615.093,1169.197c-2.655,7.735,2.532,15.287,9.554,13.867c12.59-2.547,25.76-8.386,38.298-17.615
		c24.568-18.084,40.637-44.69,44.514-69.727c-16.359,0.24-34.607,6.521-51.684,19.091
		C636.189,1129.229,622.005,1149.061,615.093,1169.197z"/>
	<path fill="#9DAA9B" d="M718.515,1196.348c-2.655,7.735,2.532,15.287,9.554,13.867c12.59-2.547,25.76-8.386,38.298-17.615
		c24.568-18.084,40.637-44.69,44.514-69.727c-16.359,0.24-34.607,6.521-51.684,19.091
		C739.61,1156.381,725.426,1176.213,718.515,1196.348z"/>
	<path fill="#555F34" d="M821.413,1229.597c-2.655,7.735,2.532,15.287,9.554,13.867c12.59-2.547,25.76-8.386,38.298-17.615
		c24.568-18.084,40.637-44.69,44.514-69.727c-16.359,0.24-34.607,6.521-51.684,19.091
		C842.509,1189.63,828.325,1209.461,821.413,1229.597z"/>
	<path fill="#9DAA9B" d="M467.196,959.089c-7.45-3.374-15.458,1.077-14.707,8.201c1.346,12.774,5.915,26.436,13.919,39.79
		c15.683,26.166,40.652,44.676,65.211,50.9c1.306-16.308-3.223-35.069-14.124-53.256
		C504.993,983.865,486.589,967.872,467.196,959.089z"/>
	<path fill="#9DAA9B" d="M551.403,976.609c-7.45-3.374-15.458,1.077-14.707,8.201c1.346,12.774,5.916,26.436,13.919,39.79
		c15.683,26.166,40.652,44.676,65.211,50.9c1.306-16.308-3.223-35.069-14.124-53.256
		C589.2,1001.385,570.796,985.392,551.403,976.609z"/>
	<g>
		<circle fill="none" cx="911" cy="911" r="814.215"/>
		<path fill="#71645E" d="M330.921,1218.052c-2.094-3.796-4.325-7.749-6.691-11.87c-2.37-4.117-4.809-8.196-7.322-12.234
			c-2.513-4.038-4.986-7.913-7.409-11.617c-2.428-3.706-4.703-6.971-6.832-9.792c3.029-0.722,5.564-1.643,7.609-2.771
			c1.604-0.885,3.663-2.498,6.182-4.839c5.02,9.795,9.96,19.347,14.814,28.66c4.854,9.314,9.938,18.787,15.252,28.418
			c5.314,9.631,10.617,18.983,15.908,28.057c5.292,9.072,10.738,18.345,16.346,27.813c-3.325,0.88-5.857,1.804-7.608,2.771
			c-1.898,1.048-3.958,2.657-6.182,4.839c-1.252-3.307-2.804-6.975-4.642-11.001c-1.844-4.028-3.801-8.182-5.877-12.462
			s-4.228-8.518-6.446-12.718c-2.223-4.199-4.38-8.198-6.473-11.99c-15.273,7.855-30.498,15.971-45.673,24.344l-37.649,20.773
			c-9.631,5.313-19.019,10.729-28.154,16.248c-9.14,5.517-18.111,10.992-26.917,16.421c-1.559-3.521-3.387-7.175-5.48-10.967
			c-2.095-3.797-4.21-7.291-6.355-10.483c9.288-4.555,18.702-9.227,28.245-14.014c9.537-4.79,19.126-9.841,28.758-15.154
			l37.649-20.772C301.148,1235.336,316.131,1226.782,330.921,1218.052z"/>
		<path fill="#71645E" d="M337.238,1325.594c4.097-3.412,8.125-6.81,12.08-10.188c3.954-3.382,7.704-6.638,11.254-9.776
			c3.548-3.137,6.534-5.862,8.955-8.169c1.832,3.319,3.464,5.856,4.894,7.619c1.428,1.759,3.575,3.881,6.448,6.357
			c-2.759,1.894-6.011,4.234-9.76,7.019c-3.751,2.787-7.662,5.742-11.729,8.875c-4.072,3.131-8.146,6.308-12.225,9.533
			c-4.081,3.225-7.828,6.223-11.245,8.996l-11.802,9.577l0.252,0.312c6.801-0.714,13.06-0.038,18.771,2.024
			c5.708,2.064,10.833,5.891,15.371,11.481c2.351,2.897,4.311,6.161,5.878,9.783c1.564,3.623,2.304,7.441,2.219,11.464
			c-0.087,4.019-1.256,8.186-3.505,12.502c-2.253,4.315-6.068,8.66-11.451,13.027c-4.453,3.612-9.119,7.228-13.997,10.842
			c-4.881,3.616-9.958,7.565-15.238,11.852l-10.095,8.191c-1.657,1.345-3.268,2.692-4.829,4.047
			c-1.565,1.354-3.029,2.671-4.392,3.951c-1.474-2.242-3.136-4.498-4.983-6.774c-1.765-2.175-3.589-4.215-5.478-6.115
			c5.549-4.162,11.278-8.424,17.184-12.786c5.901-4.363,11.858-8.979,17.864-13.853l9.474-7.687
			c7.765-6.302,12.421-12.571,13.972-18.809c1.546-6.237,0.182-11.995-4.103-17.275c-5.882-7.248-12.416-10.748-19.596-10.5
			c-7.184,0.248-14.812,3.648-22.887,10.202c-2.899,2.353-6.246,5.108-10.031,8.27c-3.791,3.16-7.583,6.366-11.381,9.621
			c-3.799,3.252-7.447,6.431-10.944,9.525c-3.5,3.097-6.304,5.671-8.412,7.727c-1.725-2.552-3.513-4.965-5.36-7.24
			c-1.849-2.278-3.841-4.525-5.982-6.736c2.548-1.726,5.697-3.979,9.448-6.767c3.749-2.784,7.685-5.765,11.808-8.938
			c4.121-3.174,8.273-6.414,12.458-9.723c4.181-3.308,8.034-6.391,11.555-9.248l28.11-22.811
			C329.327,1332.142,333.138,1329.007,337.238,1325.594z"/>
		<path fill="#71645E" d="M359.529,1450.538c11.063-12.107,22.62-18.975,34.675-20.604c12.053-1.627,23.593,2.593,34.618,12.666
			c5.215,4.767,8.977,9.692,11.284,14.781c2.304,5.084,3.499,10.151,3.587,15.197c0.084,5.047-0.922,9.951-3.017,14.717
			c-2.099,4.767-5.034,9.217-8.812,13.352c-0.9,0.984-1.803,1.922-2.705,2.811c-0.906,0.891-1.857,1.783-2.852,2.678
			c-5.227-4.953-10.403-9.865-15.529-14.731c-5.13-4.864-10.349-9.726-15.664-14.581c-3.248-2.968-6.52-5.864-9.806-8.688
			c-3.291-2.824-6.604-5.671-9.941-8.542c-0.55,0.403-1.273,1.097-2.171,2.08l-1.754,1.919c-3.508,3.84-6.226,7.95-8.15,12.33
			c-1.928,4.381-2.909,8.767-2.945,13.158c-0.041,4.389,0.863,8.736,2.712,13.042c1.844,4.306,4.836,8.348,8.97,12.124
			c1.968,1.798,4.233,3.373,6.796,4.719c2.561,1.35,5.251,2.454,8.077,3.317c2.822,0.863,5.679,1.442,8.572,1.737
			c2.889,0.294,5.651,0.286,8.28-0.021l0.334,1.118l-7.496,6.426c-5.112-0.336-10.624-1.669-16.531-3.997
			c-5.91-2.329-11.227-5.652-15.951-9.968c-5.315-4.858-9.423-10.101-12.317-15.725c-2.897-5.627-4.529-11.454-4.894-17.476
			c-0.367-6.024,0.521-11.939,2.669-17.745C351.71,1460.824,355.031,1455.462,359.529,1450.538z M424.8,1447.595
			c-3.643-3.329-7.483-5.301-11.522-5.922c-4.04-0.618-8.017-0.418-11.934,0.609c-3.917,1.026-7.669,2.657-11.247,4.895
			c-3.581,2.239-6.683,4.596-9.307,7.074c2.959,2.887,6.043,5.886,9.254,8.997c3.206,3.111,6.384,6.104,9.536,8.983
			c3.248,2.969,6.589,5.933,10.027,8.892c3.434,2.96,6.772,5.828,10.015,8.608c2.428-2.658,4.77-5.666,7.025-9.023
			c2.255-3.356,3.886-6.921,4.897-10.696c1.009-3.772,1.096-7.574,0.264-11.407C430.975,1454.773,428.639,1451.102,424.8,1447.595z"
			/>
		<path fill="#71645E" d="M503.291,1580.582c11.227-5.771,22.506-11.561,33.849-17.367c11.336-5.806,22.451-11.541,33.341-17.211
			c10.888-5.665,20.908-10.94,30.069-15.823c9.156-4.882,17.146-9.154,23.97-12.816c6.819-3.661,11.965-6.463,15.437-8.407
			c-2.579-1.542-5.176-3.048-7.791-4.521c-2.617-1.47-5.107-2.827-7.465-4.066c-5.312-2.794-11.253-5.82-17.818-9.087
			c-6.571-3.267-13.235-6.439-19.99-9.523c-6.76-3.083-13.223-6.008-19.39-8.783c-6.17-2.772-11.438-5.025-15.798-6.754
			c2.133-2.269,3.704-4.358,4.714-6.277c1.007-1.916,1.841-4.398,2.5-7.442c6.915,4.392,18.175,10.735,33.774,19.032
			c15.594,8.296,34.902,18.493,57.915,30.594c3.983,2.096,8.024,4.079,12.123,5.952c4.1,1.873,8.142,3.672,12.135,5.393
			l-2.094,3.982c-4.582,1.546-11.386,4.464-20.42,8.753c-9.034,4.287-19.126,9.246-30.274,14.868
			c-11.148,5.624-22.828,11.63-35.034,18.014c-12.212,6.388-23.815,12.523-34.819,18.41c-11.007,5.892-20.827,11.222-29.459,16.005
			c-8.635,4.78-14.987,8.358-19.062,10.735c3.384,2.16,6.496,4.03,9.334,5.614c2.837,1.589,5.73,3.155,8.683,4.707
			c5.604,2.947,12.19,6.27,19.757,9.967c7.564,3.694,15.151,7.26,22.763,10.697c7.607,3.436,14.81,6.657,21.607,9.667
			c6.796,3.009,12.229,5.301,16.299,6.876c-0.996,1.172-1.911,2.292-2.752,3.354c-0.844,1.066-1.574,2.188-2.194,3.366
			c-1.01,1.919-1.768,4.251-2.268,6.998c-5.232-2.941-10.081-5.631-14.54-8.069c-4.462-2.443-8.759-4.746-12.887-6.917
			c-4.132-2.173-8.188-4.306-12.17-6.399c-3.983-2.095-8.042-4.229-12.17-6.399c-5.753-3.024-12.318-6.479-19.694-10.355
			c-7.229-3.802-14.348-7.546-21.352-11.229c-7.009-3.686-13.406-7.005-19.199-9.954c-5.791-2.952-10.13-5.093-13.008-6.417
			l1.629-3.097C481.481,1591.71,492.064,1586.357,503.291,1580.582z"/>
		<path fill="#71645E" d="M639.192,1633.238c4.919-15.645,12.497-26.749,22.738-33.314c10.239-6.563,22.481-7.607,36.729-3.128
			c6.741,2.118,12.23,4.997,16.468,8.636c4.235,3.638,7.458,7.727,9.668,12.264c2.205,4.538,3.363,9.41,3.477,14.616
			c0.108,5.207-0.675,10.479-2.354,15.822c-0.4,1.272-0.823,2.502-1.266,3.689c-0.446,1.19-0.931,2.4-1.456,3.632
			c-6.829-2.285-13.595-4.554-20.295-6.801c-6.704-2.245-13.486-4.448-20.354-6.608c-4.198-1.319-8.386-2.564-12.557-3.738
			c-4.176-1.172-8.381-2.354-12.618-3.548c-0.328,0.599-0.691,1.533-1.09,2.803l-0.779,2.481c-1.56,4.96-2.29,9.834-2.185,14.616
			c0.101,4.786,1.062,9.176,2.882,13.171c1.816,3.998,4.471,7.558,7.964,10.681c3.489,3.125,7.907,5.525,13.249,7.206
			c2.543,0.799,5.261,1.27,8.152,1.408c2.891,0.144,5.796,0.008,8.723-0.401c2.923-0.409,5.757-1.09,8.504-2.044
			c2.743-0.952,5.244-2.125,7.499-3.513l0.774,0.872l-4.084,8.988c-4.775,1.854-10.336,2.973-16.674,3.354
			c-6.341,0.382-12.562-0.386-18.668-2.305c-6.869-2.158-12.806-5.179-17.804-9.057c-5.001-3.878-8.939-8.471-11.812-13.776
			c-2.876-5.307-4.567-11.044-5.071-17.214C636.445,1645.863,637.192,1639.6,639.192,1633.238z M697.121,1603.021
			c-4.707-1.479-9.021-1.646-12.943-0.505c-3.925,1.144-7.444,3.005-10.563,5.589c-3.118,2.584-5.83,5.646-8.129,9.186
			c-2.302,3.541-4.119,6.986-5.452,10.341c3.901,1.367,7.963,2.785,12.187,4.25c4.22,1.467,8.364,2.84,12.438,4.119
			c4.197,1.32,8.477,2.597,12.843,3.828c4.362,1.234,8.6,2.426,12.713,3.578c1.079-3.435,1.933-7.149,2.56-11.146
			c0.628-3.996,0.602-7.915-0.075-11.765c-0.678-3.846-2.203-7.329-4.575-10.453C705.748,1606.922,702.082,1604.58,697.121,1603.021
			z"/>
		<path fill="#71645E" d="M816.415,1641.112c-3.038-5.663-7.912-9.019-14.633-10.06c-9.224-1.43-16.417,0.358-21.574,5.358
			c-5.162,5.003-8.537,12.643-10.13,22.921l-2.604,16.798c-0.919,5.929-1.785,12.17-2.599,18.723
			c-0.812,6.554-1.301,12.519-1.456,17.89c-2.991-0.736-5.936-1.325-8.832-1.774c-2.9-0.449-5.885-0.779-8.955-0.983
			c1.474-5.165,2.816-10.997,4.024-17.488c1.21-6.493,2.272-12.703,3.192-18.633l3.185-20.554c0.919-5.93,1.785-12.171,2.598-18.724
			c0.813-6.553,1.328-12.712,1.55-18.481c3.584,1.233,6.498,2.021,8.74,2.367c1.053,0.164,2.22,0.242,3.505,0.24
			c1.281-0.005,2.799-0.003,4.554-0.003c-1.212,5.21-2.227,10.45-3.043,15.719l0.395,0.062c4.565-5.093,9.661-8.789,15.279-11.091
			c5.618-2.298,11.985-2.898,19.101-1.796c3.688,0.571,7.33,1.677,10.922,3.312c3.591,1.639,6.701,3.974,9.336,7.012
			c2.631,3.039,4.561,6.915,5.788,11.625c1.224,4.711,1.309,10.492,0.247,17.341c-0.878,5.668-1.914,11.478-3.106,17.431
			c-1.194,5.956-2.309,12.292-3.351,19.012l-1.991,12.847c-0.326,2.109-0.617,4.189-0.865,6.241
			c-0.252,2.054-0.454,4.012-0.607,5.876c-2.596-0.674-5.343-1.232-8.239-1.683c-2.768-0.428-5.49-0.717-8.165-0.859
			c1.324-6.809,2.714-13.813,4.166-21.01c1.45-7.195,2.771-14.613,3.956-22.257l1.868-12.057
			C820.201,1654.551,819.449,1646.778,816.415,1641.112z"/>
		<path fill="#71645E" d="M927.089,1679.226c-0.645-9.043,0.236-16.825,2.647-23.347c2.408-6.52,5.8-11.908,10.177-16.164
			c4.374-4.254,9.392-7.486,15.049-9.694c5.657-2.209,11.344-3.517,17.064-3.923c5.851-0.417,11.7,0.068,17.548,1.455
			c5.845,1.389,11.236,3.88,16.172,7.47c4.934,3.593,9.055,8.446,12.366,14.558c3.309,6.115,5.287,13.693,5.932,22.736
			c0.645,9.045-0.239,16.828-2.647,23.348c-2.411,6.521-5.802,11.91-10.177,16.163c-4.377,4.257-9.367,7.386-14.971,9.389
			c-5.605,2.004-11.335,3.214-17.186,3.631c-5.72,0.407-11.527,0.02-17.427-1.164s-11.316-3.57-16.251-7.163
			c-4.936-3.589-9.057-8.443-12.365-14.558C929.709,1695.851,927.733,1688.271,927.089,1679.226z M944.644,1677.976
			c0.398,5.585,1.28,10.936,2.647,16.051c1.367,5.117,3.393,9.619,6.076,13.503c2.683,3.888,6.104,6.884,10.265,8.992
			c4.161,2.111,9.165,2.958,15.02,2.54c5.85-0.417,10.687-1.965,14.506-4.643c3.819-2.679,6.781-6.129,8.886-10.357
			c2.105-4.228,3.472-8.971,4.1-14.228c0.627-5.259,0.743-10.681,0.344-16.267c-0.397-5.586-1.279-10.937-2.646-16.053
			c-1.367-5.115-3.393-9.613-6.076-13.502c-2.683-3.885-6.104-6.884-10.265-8.993c-4.161-2.109-9.168-2.955-15.019-2.539
			c-5.854,0.417-10.688,1.965-14.507,4.644s-6.781,6.131-8.886,10.358c-2.105,4.229-3.472,8.969-4.1,14.228
			C944.361,1666.967,944.246,1672.39,944.644,1677.976z"/>
		<path fill="#71645E" d="M1063.745,1571.409c-2.878,0.578-5.217,1.628-7.02,3.143c-1.805,1.521-3.183,3.292-4.134,5.319
			c-0.953,2.027-1.487,4.275-1.603,6.748c-0.116,2.47,0.089,5.014,0.612,7.628c0.473,2.353,1.383,5.708,2.734,10.059
			c1.349,4.354,2.757,8.493,4.226,12.411c3.397-0.683,6.759-1.39,10.079-2.125c3.32-0.733,6.678-1.443,10.078-2.126
			c0,0.683,0.033,1.354,0.1,2.02c0.064,0.67,0.165,1.329,0.296,1.98c0.132,0.656,0.293,1.303,0.491,1.941
			c0.196,0.643,0.426,1.275,0.688,1.902c-3.427,0.555-6.817,1.098-10.178,1.636c-3.359,0.54-6.739,1.149-10.138,1.83
			c2.861,14.251,5.732,28.397,8.621,42.434c2.886,14.041,5.957,28.147,9.21,42.315c-1.493,0.025-2.956,0.186-4.393,0.474
			c-1.44,0.29-2.813,0.564-4.118,0.827c-2.745,0.551-5.597,1.257-8.549,2.124c-1.947-14.43-4.252-28.623-6.915-42.571
			c-2.667-13.949-5.454-28.179-8.367-42.688c-2.353,0.473-4.692,1.012-7.02,1.613c-2.327,0.604-4.653,1.209-6.98,1.809
			c-0.002-0.678-0.035-1.351-0.1-2.02c-0.066-0.665-0.164-1.325-0.295-1.98c-0.132-0.653-0.297-1.298-0.492-1.94
			c-0.198-0.64-0.428-1.272-0.688-1.903c2.353-0.473,4.743-0.917,7.177-1.338c2.431-0.418,4.756-0.854,6.98-1.299
			c-0.761-3.79-1.195-7.987-1.304-12.591c-0.107-4.601,0.156-9.211,0.794-13.827c0.635-4.615,1.614-9.061,2.933-13.338
			c1.315-4.274,3.019-7.982,5.11-11.123c1.88-2.826,4.433-5.512,7.661-8.066c3.227-2.551,6.735-4.207,10.528-4.97
			c1.438-0.288,2.785-0.355,4.04-0.198c0.394,2.643,0.756,5.289,1.084,7.94c0.33,2.657,0.756,5.29,1.281,7.903l-1.059,0.824
			C1071.589,1570.855,1067.796,1570.597,1063.745,1571.409z"/>
		<path fill="#71645E" d="M1326.592,1616.507c-2.26,0.682-4.329,1.463-6.217,2.343c-1.892,0.88-3.892,1.812-6.006,2.796
			c-2.118,0.985-4.119,1.918-6.007,2.796c-1.891,0.88-3.822,1.961-5.795,3.249c-2.676-2.98-6.062-6.505-10.162-10.573
			c-4.099-4.064-8.494-8.271-13.181-12.616c-4.688-4.341-9.447-8.743-14.283-13.205c-4.833-4.46-9.396-8.726-13.679-12.798
			c-4.907,2.103-9.868,4.274-14.89,6.519c-5.021,2.246-10.026,4.527-15.012,6.85c-4.686,2.181-9.274,4.365-13.772,6.55
			c-4.497,2.188-9.055,4.448-13.667,6.776c0.648,14.037,1.491,27.295,2.522,39.776c1.028,12.481,2.181,22.656,3.453,30.518
			c-2.713,0.894-5.576,2.045-8.597,3.451c-3.024,1.408-5.749,2.858-8.175,4.358c-0.07-32.137-0.375-63.984-0.908-95.544
			c-0.536-31.554-1.203-63.598-2.01-96.133l4.306-2.005c7.707,7.077,16.047,14.728,25.027,22.957
			c8.977,8.23,18.084,16.538,27.321,24.923c9.234,8.386,18.434,16.698,27.6,24.931c9.166,8.238,17.732,15.875,25.7,22.921
			c7.968,7.044,15.118,13.324,21.451,18.83C1317.946,1609.687,1322.939,1613.794,1326.592,1616.507z M1193.375,1592.762
			c3.928-1.828,8.043-3.649,12.345-5.471c4.299-1.816,8.413-3.642,12.344-5.472c4.229-1.968,8.444-3.974,12.64-6.022
			c4.193-2.042,8.373-4.125,12.534-6.248l-51.958-45.856L1193.375,1592.762z"/>
		<path fill="#71645E" d="M1361.198,1493.38c-6.155-1.845-11.973-0.761-17.454,3.265c-7.523,5.525-11.335,11.882-11.434,19.065
			c-0.099,7.188,2.93,14.971,9.085,23.353l10.062,13.702c3.552,4.837,7.361,9.855,11.429,15.057
			c4.068,5.201,7.948,9.757,11.644,13.658c-2.633,1.6-5.129,3.27-7.491,5.004c-2.365,1.738-4.706,3.619-7.018,5.65
			c-2.619-4.69-5.802-9.759-9.547-15.197c-3.746-5.438-7.394-10.575-10.945-15.411l-12.312-16.766
			c-3.551-4.836-7.361-9.854-11.429-15.056s-8.067-9.914-11.998-14.142c3.403-1.67,6.018-3.179,7.847-4.521
			c0.858-0.63,1.739-1.401,2.643-2.313c0.902-0.91,1.975-1.984,3.213-3.228c2.835,4.536,5.832,8.954,8.987,13.251l0.322-0.236
			c-0.385-6.828,0.593-13.048,2.928-18.651c2.339-5.602,6.407-10.536,12.211-14.798c3.007-2.208,6.361-4.008,10.055-5.398
			c3.695-1.388,7.545-1.942,11.558-1.664c4.01,0.281,8.117,1.65,12.319,4.105c4.201,2.458,8.356,6.479,12.458,12.066
			c3.395,4.622,6.778,9.456,10.154,14.502c3.376,5.051,7.077,10.313,11.102,15.794l7.695,10.479
			c1.263,1.721,2.531,3.395,3.809,5.019c1.277,1.628,2.521,3.153,3.734,4.577c-2.311,1.363-4.645,2.914-7.008,4.649
			c-2.256,1.657-4.382,3.382-6.372,5.177c-3.889-5.744-7.869-11.673-11.941-17.782c-4.072-6.105-8.396-12.277-12.974-18.512
			l-7.221-9.834C1373.389,1500.184,1367.352,1495.231,1361.198,1493.38z"/>
		<path fill="#71645E" d="M1450.445,1502.822c2.119,0.182,4.359,0.105,6.724-0.228c2.362-0.333,4.758-1.018,7.181-2.061
			c2.425-1.036,4.645-2.529,6.661-4.473c1.822-1.756,3.298-3.733,4.424-5.929c1.124-2.194,1.828-4.444,2.105-6.75
			c0.279-2.306,0.016-4.642-0.788-7.018c-0.806-2.37-2.225-4.613-4.261-6.727c-2.866-2.975-5.907-4.446-9.112-4.412
			c-3.207,0.035-6.545,0.751-10.012,2.147c-3.469,1.398-7.06,3.148-10.776,5.246c-3.716,2.101-7.494,3.657-11.331,4.668
			c-3.839,1.017-7.709,1.18-11.608,0.492c-3.901-0.685-7.794-3.044-11.679-7.076c-3.054-3.169-5.324-6.58-6.812-10.24
			c-1.488-3.657-2.147-7.418-1.983-11.282c0.167-3.862,1.205-7.779,3.118-11.752c1.912-3.97,4.788-7.81,8.63-11.51
			c3.551-3.422,7.017-5.832,10.389-7.233c3.375-1.398,6.534-2.775,9.484-4.138c0.617,2.181,1.61,4.652,2.974,7.411
			c1.363,2.761,2.503,4.809,3.422,6.146l-1.729,1.665c-2.99-1.562-6.466-2.193-10.432-1.892c-3.967,0.307-7.583,2.029-10.847,5.174
			c-1.44,1.388-2.648,3.016-3.626,4.883c-0.977,1.869-1.579,3.839-1.808,5.908c-0.227,2.07,0.017,4.245,0.728,6.52
			c0.712,2.278,2.088,4.472,4.121,6.582c2.962,3.075,6.091,4.643,9.39,4.702c3.299,0.062,6.66-0.628,10.081-2.076
			c3.422-1.443,6.967-3.242,10.638-5.39c3.669-2.146,7.377-3.774,11.124-4.885c3.745-1.109,7.568-1.321,11.469-0.637
			c3.899,0.687,7.794,3.045,11.68,7.078c2.685,2.785,4.72,6.101,6.109,9.943c1.39,3.848,1.996,7.937,1.823,12.27
			c-0.176,4.334-1.268,8.629-3.28,12.881c-2.014,4.253-5.035,8.322-9.068,12.209c-4.417,4.255-8.53,7.386-12.338,9.388
			c-3.81,2.006-7.277,3.401-10.404,4.192c-0.624-1.802-1.669-4.085-3.125-6.849c-1.458-2.76-2.881-4.861-4.268-6.303l1.728-1.665
			C1446.565,1502.305,1448.327,1502.643,1450.445,1502.822z"/>
		<path fill="#71645E" d="M1423.533,1365.341c-2.123-1.825-3.291-4.148-3.504-6.969c-0.212-2.821,0.595-5.293,2.42-7.416
			c1.826-2.122,4.148-3.291,6.97-3.504c2.82-0.211,5.292,0.595,7.415,2.42c2.122,1.825,3.291,4.148,3.503,6.97
			c0.212,2.82-0.594,5.292-2.42,7.415c-1.825,2.123-4.148,3.291-6.969,3.503C1428.128,1367.973,1425.656,1367.166,1423.533,1365.341
			z M1480.103,1410.291c-4.55-3.912-9.392-7.943-14.526-12.095c-5.135-4.152-10.093-7.842-14.875-11.076
			c2.939-2.394,5.146-4.453,6.626-6.173c1.478-1.718,3.183-4.208,5.11-7.476c3.911,4.245,8.306,8.593,13.18,13.048
			c4.873,4.454,9.586,8.638,14.135,12.55l15.771,13.561c4.549,3.911,9.392,7.944,14.526,12.095
			c5.135,4.151,9.941,7.716,14.42,10.686c-2.204,2.151-4.261,4.34-6.172,6.562c-1.912,2.226-3.769,4.586-5.564,7.086
			c-3.607-3.981-7.851-8.202-12.724-12.656c-4.874-4.455-9.586-8.638-14.136-12.55L1480.103,1410.291z"/>
		<path fill="#71645E" d="M1571.761,1298.774c6.414,4.322,11.621,9.238,15.627,14.748c4.002,5.514,6.776,11.239,8.319,17.182
			c1.541,5.945,1.79,11.9,0.744,17.865c-1.048,5.967-3.356,11.605-6.934,16.912c-3.575,5.308-7.935,9.327-13.066,12.057
			c-5.134,2.731-10.05,4.123-14.748,4.171c0.526,6.143,1.235,12.009,2.133,17.596l-2.012,2.985c-2.506-2.009-5.58-4.362-9.229-7.062
			c-3.646-2.698-7.562-5.536-11.746-8.517c-4.182-2.977-8.468-5.984-12.853-9.021c-4.386-3.033-8.458-5.819-12.219-8.353
			l-30.021-20.227c-3.759-2.532-7.869-5.261-12.33-8.188c-4.46-2.921-8.886-5.783-13.271-8.58c-4.387-2.794-8.598-5.431-12.636-7.91
			c-4.036-2.478-7.513-4.538-10.427-6.182c2.64-2.72,4.591-5.022,5.858-6.904c0.819-1.216,1.594-2.544,2.322-3.983
			c0.728-1.438,1.503-3.003,2.325-4.703c1.989,1.822,5.312,4.465,9.974,7.926c4.659,3.464,9.913,7.243,15.753,11.338
			c5.842,4.098,11.85,8.307,18.022,12.624c6.173,4.321,11.766,8.252,16.777,11.786l0.224-0.331
			c-3.439-7.782-5.013-14.87-4.723-21.27c0.292-6.394,2.447-12.58,6.471-18.55c3.872-5.749,8.304-9.998,13.292-12.75
			c4.986-2.748,10.182-4.312,15.582-4.693c5.402-0.378,10.917,0.324,16.548,2.105
			C1561.151,1292.63,1566.565,1295.273,1571.761,1298.774z M1561.429,1313.034c-5.085-3.426-10.021-5.825-14.803-7.2
			c-4.781-1.371-9.19-1.93-13.222-1.673c-4.033,0.259-7.651,1.277-10.859,3.053c-3.208,1.78-5.781,4.104-7.717,6.979
			c-2.311,3.43-3.889,7.148-4.742,11.155c-0.851,4.008-0.593,8.161,0.771,12.457c1.366,4.296,3.933,8.72,7.701,13.268
			c3.769,4.552,9.081,9.133,15.936,13.751c22.226,14.975,38.776,14.392,49.655-1.754c2.308-3.427,3.519-7.192,3.633-11.298
			c0.112-4.104-0.818-8.39-2.794-12.856c-1.973-4.465-4.931-8.905-8.865-13.328
			C1572.189,1321.169,1567.292,1316.985,1561.429,1313.034z"/>
		<path fill="#71645E" d="M1536.305,1240.401c-4.771-2.377-9.502-4.699-14.187-6.962c-4.685-2.26-9.177-4.385-13.478-6.372
			c-4.299-1.987-7.993-3.625-11.079-4.915c2.302-3.011,3.969-5.527,5.007-7.544c1.036-2.016,2.114-4.834,3.229-8.461
			c2.842,1.766,6.323,3.816,10.438,6.159c4.118,2.343,8.456,4.766,13.021,7.261c4.562,2.499,9.201,4.999,13.912,7.496
			c4.712,2.502,9.085,4.787,13.114,6.86l32.189,16.562c4.031,2.075,8.434,4.305,13.205,6.683c4.774,2.383,9.502,4.703,14.188,6.962
			c4.684,2.263,9.148,4.37,13.389,6.327c4.242,1.958,7.786,3.521,10.635,4.686c-1.643,2.605-3.132,5.212-4.473,7.819
			c-1.344,2.609-2.6,5.337-3.763,8.186c-2.604-1.639-5.935-3.616-9.994-5.93c-4.058-2.312-8.37-4.718-12.932-7.216
			c-4.564-2.496-9.2-4.993-13.912-7.495c-4.711-2.499-9.083-4.786-13.114-6.861l-32.189-16.562
			C1545.482,1245.012,1541.079,1242.784,1536.305,1240.401z"/>
		<path fill="#71645E" d="M1615.531,1225.575c-15.32-5.852-25.947-14.086-31.885-24.703c-5.934-10.615-6.24-22.898-0.911-36.85
			c2.521-6.601,5.726-11.908,9.612-15.918c3.887-4.009,8.161-6.979,12.824-8.912c4.664-1.928,9.596-2.791,14.798-2.59
			c5.204,0.204,10.421,1.304,15.652,3.303c1.247,0.475,2.449,0.971,3.607,1.484c1.161,0.517,2.34,1.074,3.536,1.671
			c-2.691,6.68-5.362,13.296-8.009,19.85c-2.646,6.556-5.254,13.193-7.823,19.92c-1.57,4.109-3.063,8.216-4.487,12.309
			c-1.421,4.098-2.853,8.225-4.301,12.381c0.577,0.364,1.487,0.782,2.731,1.258l2.429,0.928c4.857,1.855,9.68,2.877,14.46,3.061
			c4.782,0.188,9.223-0.508,13.321-2.085c4.099-1.571,7.812-4.008,11.14-7.306c3.329-3.295,5.991-7.561,7.99-12.791
			c0.951-2.49,1.585-5.175,1.897-8.053c0.316-2.877,0.356-5.785,0.124-8.731c-0.231-2.941-0.74-5.812-1.528-8.611
			c-0.785-2.795-1.805-5.362-3.054-7.696l0.917-0.721l8.727,4.618c1.562,4.879,2.344,10.495,2.344,16.845
			c-0.001,6.353-1.142,12.517-3.425,18.495c-2.569,6.727-5.94,12.471-10.112,17.227c-4.173,4.758-8.993,8.414-14.463,10.961
			c-5.47,2.551-11.299,3.894-17.487,4.025C1627.969,1229.078,1621.761,1227.955,1615.531,1225.575z M1588.857,1165.932
			c-1.761,4.609-2.188,8.906-1.284,12.89c0.906,3.986,2.552,7.612,4.943,10.881c2.392,3.268,5.284,6.159,8.679,8.666
			c3.396,2.513,6.726,4.533,9.993,6.065c1.6-3.812,3.26-7.78,4.978-11.908c1.719-4.124,3.337-8.178,4.86-12.166
			c1.57-4.11,3.103-8.305,4.595-12.589c1.494-4.279,2.938-8.438,4.336-12.474c-3.363-1.285-7.02-2.361-10.971-3.228
			s-7.864-1.076-11.747-0.632c-3.88,0.443-7.449,1.756-10.71,3.938C1593.27,1157.555,1590.713,1161.074,1588.857,1165.932z"/>
	</g>
	<g>
		<g>
			<path fill="#323133" d="M1152.429,1174.258c0,0-9.1,9.109-17.73,13.813c-8.63,4.704-10.85,5.751-16.354,3.163
				c-5.505-2.588-10.715-19.227-18.191-23.996c-7.475-4.769-14.427-6.557-22.86-1.234c-8.433,5.323-12.865,10.648-12.865,10.648
				l-2.194-23.471c0,0,7.618-5.744,16.406-10.754c8.788-5.01,17.092-4.589,22.449,1.28c5.357,5.869,9.809,17.983,14.857,23.951
				c5.048,5.967,7.887,8.468,14.044,8.295c6.157-0.173,19.083-7.691,19.083-7.691L1152.429,1174.258z"/>
			<path d="M1146.859,1171.226c2.311,6.126,6.649,7.274,16.06,3.556s18.327-9.038,19.026-14.027c0.7-4.988,0.31-5.913,0.31-5.913
				s-2.277,6.92-6.002,6.295s-0.658-6.558,0.05-7.927c0.708-1.369,5.306-6.067,12.997-7.517c7.691-1.45,13.355,0.178,19.921-1.054
				c6.565-1.232,9.098-5.851,9.098-5.851s-5.609,1.351-9.151,1.271c-3.542-0.08-5.268-0.173-5.439-1.536
				c-0.171-1.363,8.746-2.375,14.004-5.15c5.258-2.776,10.701-6.086,15.099-13.049c4.397-6.963,4.444-15.061,4.444-15.061
				s-4.727,9.571-12.201,14.784s-13.48,7.929-16.807,6.049s5.603-3.8,9.854-10.32c4.289-6.578,3.378-11.471,3.378-11.471
				s-2.896,7.432-12.681,11.016c-8.246,3.021-18.819,2.523-23.919,2.991c-5.1,0.469-6.256,0.112-6.52-1.379
				c-0.265-1.49,2.106-3.267,4.487-3.868c2.381-0.6,3.155-0.464,3.155-0.464s-4.338-4.393-11.755-0.982s-11.765,9.959-14.708,14.728
				c-2.944,4.769-4.505,11.648-5.733,11.252c-1.228-0.396-2.849-2.19-2.656-4.718c0.193-2.528,1.782-5.449,1.782-5.449
				s-5.27,1.263-7.485,10.628c-2.215,9.365-3.156,13.491-1.961,21.037S1146.859,1171.226,1146.859,1171.226z"/>
		</g>
		<g>
			<path d="M775.864,570.407c0,0-30.902-0.858-66.095-21.03s-44.206-39.056-35.193-64.808c9.013-25.751,18.057-47.884,55.907-69.367
				c37.395-21.225,102.892-28.488,102.892-28.488s-26.764,21.085-38.322,40.579c-11.368,19.174-21.765,39.68,6.562,60.71
				c28.326,21.03,63.949,9.442,63.949,9.442L775.864,570.407z"/>
			<g>
				<defs>
					<path id="XMLID_00000039127987624077295900000017042457841280751274_" d="M817.126,510.513c0,0-14.739-3.948-23.688-10.002
						c-8.949-6.054-13.95-15.792-13.95-15.792s-3.422,6.58,0,12.897c3.422,6.317,9.475,12.897,9.475,12.897
						s-30.525-10.22-26.583-44.218c5.409-46.655,43.165-68.695,43.165-68.695s-39.743,1.053-68.695,21.582
						c-28.952,20.53-35.795,33.426-40.533,55.009c-4.738,21.582,10.791,41.586,30.531,51.85s66.326,20.793,66.326,20.793
						L817.126,510.513z"/>
				</defs>
				<use xlink:href="#XMLID_00000039127987624077295900000017042457841280751274_"  overflow="visible" fill="#FFFFFF"/>
				<clipPath id="XMLID_00000130618179046631044640000006895660032235992977_">
					<use xlink:href="#XMLID_00000039127987624077295900000017042457841280751274_"  overflow="visible"/>
				</clipPath>
				<path clip-path="url(#XMLID_00000130618179046631044640000006895660032235992977_)" fill="#DCDCDC" d="M796.859,559.468
					l-80.013-32.11l-30.268-38.164l6.843-8.422c0,0,2.895,13.95,32.9,30.005c30.005,16.055,59.483,15.529,59.483,15.529
					s-34.479-11.844-49.745-33.426c-15.266-21.582,6.843-45.797,6.843-45.797s-9.212,28.426,6.58,43.165
					c15.792,14.739,28.952,21.319,28.952,21.319s-16.845-15.792-18.95-30.794c-2.106-15.002,17.371-33.69,17.371-33.69
					l-2.369,47.639l8.989,11.634l5.487,4.158c0,0,15.415,6.357,27.597,8.024C828.742,520.205,796.859,559.468,796.859,559.468z"/>
			</g>
		</g>
		<g>
			<path d="M1101.489,570.407c0,0,30.902-0.858,66.095-21.03s44.206-39.056,35.193-64.808
				c-9.013-25.751-18.057-47.884-55.907-69.367c-37.395-21.225-102.892-28.488-102.892-28.488s26.764,21.085,38.322,40.579
				c11.369,19.174,21.765,39.68-6.562,60.71c-28.326,21.03-63.949,9.442-63.949,9.442L1101.489,570.407z"/>
			<g>
				<defs>
					<path id="XMLID_00000134208559940966824550000010412467318416500152_" d="M1060.227,510.513c0,0,14.739-3.948,23.688-10.002
						c8.949-6.054,13.95-15.792,13.95-15.792s3.422,6.58,0,12.897c-3.422,6.317-9.475,12.897-9.475,12.897
						s30.525-10.22,26.583-44.218c-5.409-46.655-43.165-68.695-43.165-68.695s39.743,1.053,68.695,21.582
						c28.952,20.53,35.795,33.426,40.533,55.009c4.738,21.582-10.791,41.586-30.531,51.85s-66.326,20.793-66.326,20.793
						L1060.227,510.513z"/>
				</defs>
				<use xlink:href="#XMLID_00000134208559940966824550000010412467318416500152_"  overflow="visible" fill="#FFFFFF"/>
				<clipPath id="XMLID_00000083060132789497417690000018161937989573421704_">
					<use xlink:href="#XMLID_00000134208559940966824550000010412467318416500152_"  overflow="visible"/>
				</clipPath>
				<path clip-path="url(#XMLID_00000083060132789497417690000018161937989573421704_)" fill="#DCDCDC" d="M1080.493,559.468
					l80.013-32.11l30.268-38.164l-6.843-8.422c0,0-2.895,13.95-32.9,30.005c-30.005,16.055-59.483,15.529-59.483,15.529
					s34.479-11.844,49.745-33.426c15.266-21.582-6.843-45.797-6.843-45.797s9.212,28.426-6.58,43.165
					c-15.792,14.739-28.952,21.319-28.952,21.319s16.845-15.792,18.95-30.794c2.106-15.002-17.371-33.69-17.371-33.69l2.369,47.639
					l-8.989,11.634l-5.487,4.158c0,0-15.415,6.357-27.597,8.024C1048.61,520.205,1080.493,559.468,1080.493,559.468z"/>
			</g>
		</g>
		<g>
			<defs>
				<path id="XMLID_00000183928505058394604380000010009740728836872347_" d="M1437.157,727.031
					c-25.039-99.56-43.735-96.693-43.735-96.693s7.489,151.641-64.699,148.967c-30.751-1.139-56.667-11.942-76.291-23.967
					c-67.171-64.21-86.762-60.023-86.762-60.023H718.171c0,0-20.248,9.236-46.788,26.352l-0.253-0.959c0,0-0.777,0.952-2.276,2.603
					c-15.512,10.148-32.964,22.893-49.698,37.992c-18.036,9.442-40.239,17.056-65.78,18.002
					c-72.189,2.674-64.699-148.967-64.699-148.967s-18.696-2.866-43.735,96.693c-25.039,99.56,0.976,187.413,44.901,245.564
					c43.925,58.151,156.599,82.661,210.891,80.304c0.527-0.023,1.042-0.035,1.561-0.05c0.061,0.017,0.12,0.033,0.181,0.05
					c0.135-0.028,0.269-0.042,0.404-0.069c11.608-0.279,21.288,1.344,29.325,4.041c12.248,5.64,23.89,15.819,34.551,28.616
					c1.185,2.289,1.682,3.719,1.682,3.719l-0.651-2.466c32.84,40.179,56.124,104.849,58.564,136.579h229.868
					c2.348-30.519,25.85-94.361,58.194-136.965l-0.753,2.852c0,0,0.659-1.897,2.272-4.822c5.462-7.021,11.163-13.429,17.052-18.955
					c10.413-7.44,25.885-13.508,48.381-12.531c54.292,2.357,166.966-22.153,210.891-80.304
					C1436.182,914.445,1462.196,826.591,1437.157,727.031z"/>
			</defs>
			<use xlink:href="#XMLID_00000183928505058394604380000010009740728836872347_"  overflow="visible" fill="#323133"/>
			<clipPath id="XMLID_00000168838786802742579450000018390133393601594530_">
				<use xlink:href="#XMLID_00000183928505058394604380000010009740728836872347_"  overflow="visible"/>
			</clipPath>
			<path clip-path="url(#XMLID_00000168838786802742579450000018390133393601594530_)" fill="#555555" d="M1393.423,630.338
				c0,0,44.6,104.803,33.342,192.612s-46.36,129.945-126.086,169.543c-79.725,39.599-115.74,9.977-173.261,44.614
				s-109.812,195.954-109.812,195.954l75.365-34.999l368.692-5.447l63.043-567.237L1393.423,630.338z"/>
			<path clip-path="url(#XMLID_00000168838786802742579450000018390133393601594530_)" fill="#555555" d="M489.748,630.338
				c0,0-44.6,104.803-33.342,192.612c11.258,87.81,46.36,129.945,126.086,169.543s115.74,9.977,173.261,44.614
				c57.521,34.636,109.812,195.954,109.812,195.954l-75.365-34.999l-368.692-5.447l-63.043-567.237L489.748,630.338z"/>
		</g>
		<g>
			<ellipse cx="941.921" cy="815.502" rx="269.049" ry="214.803"/>
			<ellipse fill="#323133" cx="941.921" cy="614.209" rx="171.74" ry="153.807"/>
			<ellipse fill="#323133" cx="941.921" cy="788.419" rx="243.269" ry="201.395"/>
			<g>
				<ellipse fill="#555555" cx="941.921" cy="842.565" rx="197.652" ry="147.249"/>
				<g>
					<ellipse fill="#555555" cx="975.923" cy="760.194" rx="90.115" ry="79.941"/>
					<ellipse fill="#555555" cx="907.918" cy="760.194" rx="90.115" ry="79.941"/>
				</g>
			</g>
			<g>
				
					<ellipse transform="matrix(0.4593 -0.8883 0.8883 0.4593 -194.3536 1384.7384)" cx="1040.321" cy="852.022" rx="49.647" ry="34.354"/>
				
					<ellipse transform="matrix(0.8883 -0.4593 0.4593 0.8883 -297.1106 482.6594)" cx="843.52" cy="852.022" rx="34.354" ry="49.647"/>
			</g>
			<path fill="#323133" d="M934.911,467.713c-0.451-7.13,6.487-13.372,15.495-13.942c4.467-0.282,8.601,0.885,11.692,3.001
				c-2.101-5.931-10.781-9.989-20.896-9.349c-11.357,0.718-20.199,7.08-19.748,14.211c0.368,5.818,6.81,10.346,15.338,11.427
				C935.711,471.466,935.034,469.661,934.911,467.713z"/>
			<g>
				<g>
					
						<ellipse transform="matrix(0.1946 -0.9809 0.9809 0.1946 329.573 1624.4553)" fill="#323133" cx="1154.005" cy="611.533" rx="19.613" ry="48.627"/>
					
						<ellipse transform="matrix(0.1946 -0.9809 0.9809 0.1946 324.7438 1627.2711)" cx="1153.305" cy="615.882" rx="15.2" ry="45.355"/>
				</g>
				<g>
					
						<ellipse transform="matrix(0.9809 -0.1946 0.1946 0.9809 -105.0611 153.734)" fill="#323133" cx="729.836" cy="611.533" rx="48.627" ry="19.613"/>
					
						<ellipse transform="matrix(0.9809 -0.1946 0.1946 0.9809 -105.8941 153.9534)" cx="730.536" cy="615.882" rx="45.355" ry="15.2"/>
				</g>
			</g>
		</g>
		<g>
			<circle fill="#FFFFFF" cx="941.752" cy="1068.895" r="61.389"/>
			<g>
				<path fill="#231F20" d="M942.31,1045.737l15.757,38.891l-23.801-18.749L942.31,1045.737L942.31,1045.737z M970.302,1093.587
					l-24.238-58.33c-0.692-1.682-2.075-2.572-3.754-2.572c-1.682,0-3.167,0.89-3.858,2.572l-26.603,63.981h9.1l10.531-26.379
					l31.427,25.389c1.264,1.022,2.176,1.484,3.361,1.484c2.374,0,4.45-1.78,4.45-4.349
					C970.717,1094.964,970.569,1094.3,970.302,1093.587L970.302,1093.587z"/>
				<path fill="#231F20" d="M941.283,1009.349c-32.834,0-59.547,26.713-59.547,59.547c0,32.834,26.713,59.546,59.547,59.546
					c32.834,0,59.547-26.712,59.547-59.546C1000.83,1036.061,974.117,1009.349,941.283,1009.349L941.283,1009.349z
					 M941.283,1131.129c-34.316,0-62.234-27.918-62.234-62.234c0-34.316,27.918-62.234,62.234-62.234
					c34.316,0,62.234,27.918,62.234,62.234C1003.517,1103.212,975.599,1131.129,941.283,1131.129L941.283,1131.129z"/>
			</g>
		</g>
		
			<ellipse transform="matrix(0.1636 -0.9865 0.9865 0.1636 -389.0771 2079.2051)" fill="#555555" cx="1031.724" cy="1269.07" rx="59.378" ry="153.106"/>
		
			<ellipse transform="matrix(0.1636 -0.9865 0.9865 0.1636 -412.2501 2038.29)" fill="#323133" cx="996.006" cy="1262.28" rx="52.494" ry="153.106"/>
		<path fill="#555555" d="M994.562,1244.015c3.276,19.748-19.024,41.393-55.871,58.409c-23.516,10.859-52.956,19.833-85.455,25.224
			c-83.418,13.838-155.393-1.171-160.759-33.522c-5.367-32.351,57.907-69.795,141.325-83.633S989.196,1211.664,994.562,1244.015z"/>
		<path fill="#323133" d="M992.161,1244.975c2.785,16.788-17.952,35.485-52.002,50.402c-21.731,9.521-48.885,17.502-78.807,22.466
			c-76.806,12.741-142.768,0.774-147.33-26.729s54.003-60.127,130.809-72.868S987.598,1217.472,992.161,1244.975z"/>
		<polygon points="1017.606,1257.918 937.61,1302.909 943.823,1305.556 		"/>
		<polygon fill="#323133" points="1026.177,1207.924 997.126,1246.15 962.405,1252.204 921.892,1244.959 879.71,1233.061 
			879.71,1198.063 1018.711,1202.183 		"/>
		<g>
			<path d="M1008.579,1272.294c2.178,7.085,16.043,12.105,30.241,12.581c13.624,0.457,45.562-1.019,46.939-1.638
				s6.879-5.888,7.207-11.474s-14.843-23.609-14.843-23.609s7.548-7.409-1.131-26.208c-8.679-18.799-17.617-19.75-22.729-22.183
				c-5.112-2.433-8.328-1.698-9.509-1.167c-1.181,0.53-32.925,15.805-36.073,17.218c-3.148,1.414-22.452,13.558-17.151,25.362
				c5.302,11.805,28.18,4.84,31.79,3.928s14.502-5.094,15.581-3.215c1.079,1.88-7.341,4.716-14.681,9.43
				C1016.881,1256.035,1006.006,1263.923,1008.579,1272.294z"/>
			<polygon fill="#FFFFFF" points="1001.686,1229.964 1048.09,1203.953 1061.162,1210.127 			"/>
		</g>
		<path d="M1001.686,1247.697c0,0-33.263,7.375-57.886,12.273c-24.623,4.898-71.261,9.1-71.261,9.1s45.991-7.766,67.878-12.691
			c21.887-4.925,62.724-14.868,62.724-14.868L1001.686,1247.697z"/>
		<g>
			<path d="M886.104,1260.068c-2.056,7.121-15.833,12.379-30.02,13.098c-13.614,0.69-45.573-0.237-46.96-0.832
				c-1.388-0.595-6.979-5.77-7.403-11.349s14.436-23.86,14.436-23.86s-7.674-7.278,0.681-26.224s17.276-20.049,22.345-22.569
				s8.298-1.84,9.487-1.33c1.189,0.51,33.191,15.237,36.363,16.597s22.681,13.17,17.583,25.064s-28.093,5.323-31.718,4.473
				c-3.625-0.85-14.587-4.845-15.634-2.947s7.421,4.589,14.841,9.177C877.524,1243.954,888.534,1251.654,886.104,1260.068z"/>
			<polygon fill="#FFFFFF" points="812.558,1268.908 806.158,1260.408 875.841,1263.575 			"/>
		</g>
		<path d="M883.821,1235.525l24.075,6.924c8.246,2.372,16.626,4.249,25.096,5.622l25.501,4.133l3.545-0.835l-31.551-5.755
			c-6.393-1.166-12.714-2.699-18.932-4.59l-26.184-7.964L883.821,1235.525z"/>
		<path d="M791.927,1182.415"/>
		<g>
			<path fill="#555555" d="M1055.492,634.824c0,0,2.008-20.248,0-30.288c-2.008-10.04-13.889-19.746-22.925-25.1
				s-13.722-6.191-13.722-6.191s12.773,9.036,18.77,15.228c5.996,6.191,9.845,10.542,9.176,23.427s-2.845,27.443-2.845,27.443
				L1055.492,634.824z"/>
			<path d="M1028.246,637.637c-24.793,0-46.118-10.144-55.68-24.707c4.233,19.601,24.954,34.484,49.897,34.484
				c17.041,0,32.107-6.953,41.3-17.605C1053.754,634.731,1041.498,637.637,1028.246,637.637z"/>
		</g>
		<g>
			<path fill="#555555" d="M828.074,634.824c0,0-2.008-20.248,0-30.288c2.008-10.04,13.889-19.746,22.925-25.1
				c9.036-5.355,13.721-6.191,13.721-6.191s-12.773,9.036-18.769,15.228c-5.996,6.191-9.845,10.542-9.176,23.427
				c0.669,12.885,2.845,27.443,2.845,27.443L828.074,634.824z"/>
			<path d="M855.32,637.637c24.793,0,46.118-10.144,55.68-24.707c-4.233,19.601-24.954,34.484-49.897,34.484
				c-17.041,0-32.108-6.953-41.3-17.605C829.812,634.731,842.068,637.637,855.32,637.637z"/>
		</g>
		<g>
			<path d="M1405.557,642.567c0,0,0.654,36.622,15.695,39.238c15.041,2.616,47.74-34.006,58.203-61.473s1.308-26.159-9.81-38.584
				c-11.117-12.425-35.264-30.933-48.343-38.781s-19.89-4.383-15.312-1.767c4.578,2.616,37.165,30.83,30.625,44.563
				s-15.363,14.949-28.442,14.949s-23.49-28.138-22.889-38.584c1.271-22.106,13.733-30.737,9.81-31.39
				c-3.924-0.654-14.693,1.709-19.924,26.56c-5.232,24.851-11.186,53.866-5.301,70.869c5.886,17.003,3.644,24.209,14.108,22.901
				C1394.439,649.761,1405.557,642.567,1405.557,642.567z"/>
			<polygon fill="#FFFFFF" points="1463.197,588.744 1475.594,604.637 1427.915,671.984 1432.047,643.098 			"/>
		</g>
		<g>
			<path d="M475.045,642.567c0,0-0.654,36.622-15.695,39.238c-15.041,2.616-47.74-34.006-58.203-61.473
				c-10.464-27.467-1.308-26.159,9.81-38.584c11.117-12.425,35.264-30.933,48.343-38.781s19.89-4.383,15.312-1.767
				c-4.578,2.616-37.165,30.83-30.625,44.563s15.363,14.949,28.442,14.949s23.49-28.138,22.889-38.584
				c-1.271-22.106-13.733-30.737-9.81-31.39c3.924-0.654,14.693,1.709,19.924,26.56c5.232,24.851,11.186,53.866,5.3,70.869
				c-5.886,17.003-3.644,24.209-14.108,22.901C486.162,649.761,475.045,642.567,475.045,642.567z"/>
			<polygon fill="#FFFFFF" points="417.405,588.744 405.008,604.637 452.687,671.984 448.555,643.098 			"/>
		</g>
		<polygon fill="#323133" points="894.805,1310.781 972.414,1283.334 1003.141,1258.565 997.778,1248.539 989.155,1250.443 		"/>
	</g>
</g>
<g>
</g>
<g>
</g>
<g>
</g>
<g>
</g>
<g>
</g>
</svg>
