<?xml version="1.0" encoding="UTF-8"?>
<svg id="Layer_2" data-name="Layer 2" xmlns="http://www.w3.org/2000/svg" viewBox="0 0 1296 1728">
  <defs>
    <style>
      .cls-1 {
        fill: #f6bdc0;
      }

      .cls-2, .cls-3 {
        fill: #fff;
      }

      .cls-4 {
        fill: #f15b52;
      }

      .cls-5, .cls-6 {
        fill: #333233;
      }

      .cls-7 {
        fill: #abd9f3;
      }

      .cls-8 {
        fill: #dd9099;
      }

      .cls-9 {
        fill: #1e1f1e;
      }

      .cls-10 {
        fill: #707070;
      }

      .cls-11, .cls-12 {
        fill: #565656;
      }

      .cls-13 {
        fill: #4a8bc9;
      }

      .cls-13, .cls-12, .cls-14, .cls-6, .cls-15, .cls-16, .cls-17, .cls-3, .cls-18 {
        stroke-miterlimit: 10;
      }

      .cls-13, .cls-12, .cls-14, .cls-6, .cls-15, .cls-16, .cls-3, .cls-18 {
        stroke: #000;
      }

      .cls-13, .cls-12, .cls-14, .cls-6, .cls-15, .cls-18 {
        stroke-width: 9px;
      }

      .cls-14 {
        fill: #1569b5;
      }

      .cls-15 {
        fill: #006bb6;
      }

      .cls-16, .cls-17 {
        stroke-linecap: round;
      }

      .cls-16, .cls-17, .cls-3 {
        stroke-width: 8px;
      }

      .cls-16, .cls-17, .cls-18 {
        fill: none;
      }

      .cls-17 {
        stroke: #fff;
      }
    </style>
  </defs>
  <ellipse class="cls-15" cx="630" cy="373.01" rx="18" ry="13.5"/>
  <path class="cls-12" d="M965.46,1072.7c0-86.76-147.49-198.17-329.44-198.17s-329.44,111.41-329.44,198.17c0,44.19,38.28,84.11,99.87,112.66l18.71,174.57s130.86-52.51,207-54.46c147.19-3.77,216,54.46,216,54.46l11.62-171.94c64.98-28.69,105.67-69.72,105.67-115.28Z"/>
  <path class="cls-6" d="M983.16,954.93s-9,27-18,36-36,27-36,27l-18-27s27-9,36-18l36-36v18Z"/>
  <path class="cls-5" d="M840.85,1195.74c75.92-28.78,124.6-73.19,124.6-123.03,0-62.73-77.12-138.34-188.6-175.41l-252.69,39.64s180,72,270,90,81,54,81,90c0,31.3-27.2,69.39-34.31,78.81Z"/>
  <path class="cls-18" d="M965.46,1072.7c0,86.76-147.49,157.09-329.44,157.09s-329.44-70.33-329.44-157.09,147.49-198.17,329.44-198.17,329.44,111.41,329.44,198.17Z"/>
  <g>
    <ellipse class="cls-6" cx="905.12" cy="687.87" rx="46.52" ry="28.58" transform="translate(-132.06 222.4) rotate(-13.06)"/>
    <ellipse class="cls-6" cx="366.92" cy="687.64" rx="28.58" ry="46.52" transform="translate(-385.85 889.63) rotate(-76.94)"/>
  </g>
  <g>
    <g>
      <path class="cls-11" d="M926.92,731.41c11.4,54.28,20.68,132.47-5.97,174.36-51.65,81.18-181.85,104.49-289.48,104.49s-229.93,.97-280.49-84.23c-23.88-40.25-19.74-148.69-6.32-194.62,42.6-145.77,77.5-249.49,283.21-245.81,216.59,3.88,267.64,96.22,299.05,245.81Z"/>
      <path class="cls-5" d="M926.92,731.41c-31.41-149.58-82.45-241.93-299.05-245.81-46.84-.84-84.83,3.89-116.06,13.42,199.91,10.32,249.53,94.27,280.58,226.61,11.79,50.26,21.4,122.64-6.18,161.42-53.44,75.16-188.15,96.74-299.52,96.74-23.46,0-47.28,.04-70.78-.58,59.07,27.49,139.27,27.04,215.55,27.04,107.64,0,237.83-23.31,289.48-104.49,26.65-41.89,17.37-120.07,5.97-174.36Z"/>
    </g>
    <path class="cls-18" d="M926.92,731.41c11.4,54.28,20.68,132.47-5.97,174.36-51.65,81.18-181.85,104.49-289.48,104.49s-229.93,.97-280.49-84.23c-23.88-40.25-19.74-148.69-6.32-194.62,42.6-145.77,77.5-249.49,283.21-245.81,216.59,3.88,267.64,96.22,299.05,245.81Z"/>
  </g>
  <ellipse class="cls-10" cx="639" cy="1156.01" rx="126" ry="130.5"/>
  <g>
    <g>
      <ellipse class="cls-1" cx="861.28" cy="836.03" rx="47.75" ry="38.51"/>
      <path class="cls-17" d="M846.18,810.61s-6.07,1.04-11.38,5.48c-5.75,4.81-8.01,8.85-8.01,8.85"/>
    </g>
    <g>
      <ellipse class="cls-1" cx="410.76" cy="836.03" rx="47.75" ry="38.51"/>
      <path class="cls-17" d="M395.65,810.61s-6.07,1.04-11.38,5.48c-5.75,4.81-8.01,8.85-8.01,8.85"/>
    </g>
  </g>
  <g>
    <g>
      <circle cx="477.17" cy="762.68" r="47.92"/>
      <circle class="cls-2" cx="493.44" cy="743.78" r="13.78"/>
      <path class="cls-16" d="M443.05,730.68s-3.14-.51-8.78-2.93-9.41-6.45-9.41-6.45"/>
    </g>
    <g>
      <circle cx="794.87" cy="762.68" r="47.92"/>
      <circle class="cls-2" cx="806.6" cy="743.78" r="13.78"/>
      <path class="cls-16" d="M828.99,730.68s3.14-.51,8.78-2.93,9.41-6.45,9.41-6.45"/>
    </g>
  </g>
  <g>
    <ellipse class="cls-1" cx="636.02" cy="894.11" rx="165.98" ry="107.4"/>
    <g>
      <ellipse cx="571.7" cy="856.64" rx="23.98" ry="13.85" transform="translate(-188.49 161.81) rotate(-13.85)"/>
      <ellipse cx="700.34" cy="856.64" rx="13.85" ry="23.98" transform="translate(-299.07 1331.49) rotate(-76.15)"/>
    </g>
    <path class="cls-8" d="M727.34,804.42c19.25,20.03,30.69,45.06,30.69,72.22,0,74.77-97.02,109.75-179.74,109.75-12.5,0-23.95-1.01-34.4-2.94,26.36,11.4,58.04,18.05,92.12,18.05,91.67,0,165.98-48.08,165.98-107.4,0-37.48-29.68-70.47-74.66-89.69Z"/>
    <path class="cls-2" d="M652.68,787.25c-5.48-.35-11.04-.54-16.66-.54-90.12,0-163.47,46.47-165.92,104.4,22.81-53,101.35-99.93,182.58-103.87Z"/>
    <ellipse class="cls-18" cx="636.02" cy="894.11" rx="165.98" ry="107.4"/>
  </g>
  <path class="cls-18" d="M823.81,1073.83s1.5,56.33-10.29,79.93-39.95,48.72-39.95,48.72l8.1,10.63s49.21-9.25,84.5-25.92"/>
  <path class="cls-18" d="M448.23,1073.83s-1.5,56.33,10.29,79.93,39.95,48.72,39.95,48.72l-8.1,10.63s-49.21-9.25-84.5-25.92"/>
  <path class="cls-6" d="M784.74,1202.06c-11.55-17.23-37.79-19.88-58.6-5.92-15.61,10.47-23.72,27.3-21.94,42.33,.21,1.8,1.71,3.18,3.53,3.18h16.93c1.47,0,2.47,1.51,1.88,2.86l-6.26,14.42c-.76,1.74,0,3.76,1.7,4.6,13.11,6.48,30.97,5.06,46-5.01,20.81-13.96,28.32-39.23,16.77-56.46Z"/>
  <path class="cls-6" d="M490.91,1202.06c11.55-17.23,37.79-19.88,58.6-5.92,15.61,10.47,23.72,27.3,21.94,42.33-.21,1.8-1.71,3.18-3.53,3.18h-16.93c-1.47,0-2.47,1.51-1.88,2.86l6.26,14.42c.76,1.74,0,3.76-1.7,4.6-13.11,6.48-30.97,5.06-46-5.01-20.81-13.96-28.32-39.23-16.77-56.46Z"/>
  <path class="cls-5" d="M971.11,1181.13l-18.15,4.91c-7.11,1.93-14.44-2.28-16.37-9.39l-4.99-18.45c-1.13-4.17-4.76-7.23-9.07-7.48-37.2-2.21-78.06,20.54-102.67,61.03-32.87,54.07-24.32,119.29,19.1,145.68,43.41,26.39,105.25,3.95,138.11-50.12,25.3-41.63,26.05-89.86,5.25-121.9-2.41-3.7-6.93-5.43-11.19-4.28Z"/>
  <path class="cls-9" d="M994.05,1213.1c-6.03,23.3-22.53,71.64-61.54,106.16-25.4,22.48-68.54,33.7-92.96,38.51,43.38,25.81,104.79,3.34,137.5-50.48,18.76-30.87,24.01-65.37,16.99-94.2Z"/>
  <path class="cls-5" d="M300.93,1181.13l18.15,4.91c7.11,1.93,14.44-2.28,16.37-9.39l4.99-18.45c1.13-4.17,4.76-7.23,9.07-7.48,37.2-2.21,78.06,20.54,102.67,61.03,32.87,54.07,24.32,119.29-19.1,145.68-43.41,26.39-105.25,3.95-138.11-50.12-25.3-41.63-26.05-89.86-5.25-121.9,2.41-3.7,6.93-5.43,11.19-4.28Z"/>
  <path class="cls-9" d="M461.49,1229.8s3.99,78.53-52.4,104.13c-25.88,11.75-54.56,14-78.03,12.99,32.2,23.51,71.64,28.98,102.04,10.5,38.67-23.51,49.68-77.82,28.39-127.63Z"/>
  <path class="cls-18" d="M971.11,1181.13l-18.15,4.91c-7.11,1.93-14.44-2.28-16.37-9.39l-4.99-18.45c-1.13-4.17-4.76-7.23-9.07-7.48-37.2-2.21-78.06,20.54-102.67,61.03-32.87,54.07-24.32,119.29,19.1,145.68,43.41,26.39,105.25,3.95,138.11-50.12,25.3-41.63,26.05-89.86,5.25-121.9-2.41-3.7-6.93-5.43-11.19-4.28Z"/>
  <path class="cls-18" d="M300.93,1181.13l18.15,4.91c7.11,1.93,14.44-2.28,16.37-9.39l4.99-18.45c1.13-4.17,4.76-7.23,9.07-7.48,37.2-2.21,78.06,20.54,102.67,61.03,32.87,54.07,24.32,119.29-19.1,145.68-43.41,26.39-105.25,3.95-138.11-50.12-25.3-41.63-26.05-89.86-5.25-121.9,2.41-3.7,6.93-5.43,11.19-4.28Z"/>
  <path class="cls-6" d="M1001.16,864.93s27,36,18,72-36,27-54,18-18-36,0-54l36-36Z"/>
  <path class="cls-14" d="M909.98,584.51s-2.5-218.13-306-208.44c-272.9,8.71-234,261-234,261l342-27,198-25.56Z"/>
  <path class="cls-13" d="M371.9,642.51s63-54,270-63,270,0,270,0c0,0,135,72,99,99s-225-54-315-27-143.66,74.18-206.83,73.09-117.17-82.09-117.17-82.09Z"/>
  <g>
    <path class="cls-3" d="M805.3,471.09s9.25,17.79,21.9,27.59c12.65,9.8,32.96,13.64,36.45,12.04s18.78-41.26,24.09-55.4c5.31-14.14,7.16-42.4-3.63-39.69s-9.57,23.03-38.81,37.62c-29.24,14.59-40,17.83-40,17.83Z"/>
    <path class="cls-3" d="M487.86,471.09s-9.25,17.79-21.9,27.59c-12.65,9.8-32.96,13.64-36.45,12.04s-18.78-41.26-24.09-55.4-7.16-42.4,3.63-39.69,9.57,23.03,38.81,37.62,40,17.83,40,17.83Z"/>
  </g>
  <g>
    <g>
      <path class="cls-4" d="M729.04,494.52c0,44.97-36.46,81.43-81.43,81.43s-81.43-36.45-81.43-81.43,36.46-81.43,81.43-81.43,81.43,36.46,81.43,81.43"/>
      <path class="cls-2" d="M686.42,527.99l-32.41-78.01c-.92-2.25-2.77-3.44-5.02-3.44s-4.23,1.19-5.16,3.44l-35.58,85.56h12.17l14.08-35.28,42.03,33.95c1.69,1.37,2.91,1.99,4.5,1.99,3.17,0,5.95-2.38,5.95-5.82,0-.56-.2-1.45-.56-2.4m-37.44-63.99l21.07,52.01-31.83-25.07,10.76-26.94h0Z"/>
    </g>
    <circle class="cls-18" cx="648" cy="494.51" r="81"/>
  </g>
  <path class="cls-7" d="M405,646.61s35.12,53.98,81,54.88c45,.88,90-27,126-45s99-27.88,99-27.88c0,0-36-8.12-99,9.88-63,18-90,36-126,36s-81-27.88-81-27.88Z"/>
</svg>