<?xml version="1.0" encoding="UTF-8"?>
<svg id="Layer_1" data-name="Layer 1" xmlns="http://www.w3.org/2000/svg" version="1.1" viewBox="0 0 280 280">
  <g>
    <path d="M141.459,16.631c.673-.014,1.372.011,1.976.308,1.074.528,1.578,1.76,1.948,2.898.75,2.312,1.322,4.682,1.71,7.082.433,2.679.603,5.566-.654,7.971-.292.558-.665,1.088-1.174,1.46-.591.432-1.322.621-2.043.751-1.761.317-3.576.33-5.341.037-.803-.133-1.632-.348-2.233-.895-.543-.494-.835-1.201-1.075-1.894-1.114-3.228-1.424-6.663-1.484-10.058-.023-1.328-.487-3.725.532-4.702.68-.652,1.711-1.533,2.543-2.006,1.485-.845,3.63-.916,5.295-.951Z" fill="#fdbb49" stroke-width="0"/>
    <path d="M179.85,127.617c-3.132-.833-6.411-.883-9.652-.928-20.267-.284-40.533-.568-60.8-.851-2.396-.034-4.868-.053-7.085.857-2.682,1.101-4.684,3.442-7.306,4.682-1.208.571-2.699,1.071-3.08,2.352-.121.406-.105.838-.083,1.261.317,6.065,1.687,12.129,4.507,17.509,2.819,5.379,7.142,10.048,12.552,12.808,8.183,4.175,17.866,3.682,27.033,3.089,9.535-.617,19.07-1.233,28.606-1.85,4.427-.286,8.867-.574,13.224-1.41,2.187-.419,4.562-1.125,5.744-3.012.634-1.012.829-2.229,1.011-3.409,1.022-6.634,2.043-13.267,3.065-19.901.423-2.748,1.092-5.018-.751-7.191-1.732-2.043-4.446-3.331-6.984-4.005Z" fill="#565656" stroke-width="0"/>
    <g>
      <g>
        <polygon points="175.802 156.158 175.802 208.048 138.933 213.51 138.933 161.62 175.802 156.158" fill="#1169b3" stroke-width="0"/>
        <polygon points="175.802 156.158 138.933 161.62 104.112 154.792 141.664 148.647 175.802 156.158" fill="#abd7f1" stroke-width="0"/>
        <polygon points="138.933 161.62 138.933 213.51 104.112 208.048 104.112 154.792 138.933 161.62" fill="#4d8bc8" stroke-width="0"/>
      </g>
      <g>
        <polyline points="138.933 213.51 104.112 208.048 104.112 154.792" fill="none" stroke="#010101" stroke-miterlimit="10" stroke-width="1.707"/>
        <polyline points="175.802 156.158 175.802 208.048 138.933 213.51 138.933 161.62" fill="none" stroke="#010101" stroke-miterlimit="10" stroke-width="1.707"/>
        <polygon points="104.112 154.792 141.664 148.647 175.802 156.158 138.933 161.62 104.112 154.792" fill="none" stroke="#010101" stroke-miterlimit="10" stroke-width="1.707"/>
      </g>
    </g>
    <path d="M104.143,152.633c-2.678,18.073,14.057,30.122,14.057,30.122-71.623-15.396-25.436-52.211-25.436-52.211" fill="#565656" stroke="#010101" stroke-linecap="round" stroke-miterlimit="10" stroke-width="1.673"/>
    <path d="M187.218,128.535s46.187,36.816-25.436,52.211c0,0,16.734-9.371,14.057-27.444" fill="#565656" stroke="#010101" stroke-linecap="round" stroke-miterlimit="10" stroke-width="1.673"/>
    <path d="M172.884,137.136s26.522,19.643,3.302,39.738c0,0,48.373-13.707,12.577-46.812l-15.879,7.074Z" fill="#323133" stroke-width="0"/>
    <path d="M200.841,77.696c.228,2.798-2.825,5.355-6.921,5.911-.214.027-.435.054-.656.067l-.616.241c-1.285-3.307-2.805-6.54-4.552-9.686,1.212-.656,2.691-1.104,4.311-1.232,4.425-.355,8.2,1.747,8.434,4.699Z" fill="#323133" stroke-width="0"/>
    <path d="M104.142,138.695s73.238-2.362,78.99,10.561l3.576-3.634-8.514-10.267-74.051,3.34Z" fill="#323133" stroke-width="0"/>
    <path d="M188.096,74.229c1.747,3.146,3.267,6.379,4.552,9.686,3.588,9.251,5.335,19.077,4.994,29.178-.08,2.457-.288,4.953-1.138,7.263-1.104,3.005-3.233,5.536-5.623,7.664-11.426,10.188-28.007,11.587-43.315,11.868-13.555.254-27.17.027-40.584-1.975-4.88-.73-9.853-1.74-14.023-4.384-16.647-10.569-10.603-34.339-3.923-50.491.803-1.948,1.62-3.789,2.403-5.475.609-1.305,1.252-2.624,1.921-3.936.134-.268.274-.529.408-.79h.007l.502.683,2.798,3.802c1.011,1.459,2.818,2.35,4.759,2.35h77.949c1.948,0,3.748-.89,4.759-2.35l2.999-4.076c.187.328.375.656.556.984Z" fill="#565656" stroke-width="0"/>
    <path d="M189.863,62.381c2.149,1.285,2.778,3.822,1.426,5.777l-3.748,5.087-2.999,4.076c-1.011,1.459-2.811,2.35-4.759,2.35h-77.949c-1.941,0-3.748-.89-4.759-2.35l-2.798-3.802-.502-.683-3.447-4.679c-1.352-1.955-.723-4.492,1.426-5.777l5.87-3.508.348.013-.154,3.561c-.047,1.252,1.024,2.323,2.45,2.45l24.118,2.115,1.171.1,13.1,1.151c1.473.127,2.952.127,4.425,0l12.618-1.111,1.653-.147,24.071-2.109c1.446-.127,2.537-1.212,2.497-2.49l-.154-3.528.228-.007,5.87,3.508Z" fill="#fdbb49" stroke-width="0"/>
    <path d="M183.919,62.407c.04,1.279-1.051,2.363-2.497,2.49l-24.071,2.109-.04-.442-2.155-20.804-4.773-24.325.475-.094c18.381,2.022,31.267,13.816,32.599,30.497l.308,7.042.154,3.528Z" fill="#fdbb49" stroke-width="0"/>
    <path d="M157.312,66.564l.04.442-1.653.147-12.618,1.111c-1.473.127-2.952.127-4.425,0l-13.1-1.151-1.171-.1.04-.448,2.155-20.804h28.576l2.155,20.804Z" fill="#fdbb49" stroke-width="0"/>
    <polygon points="150.384 21.435 155.156 45.76 146.26 45.76 144.259 18.001 144.654 17.974 149.761 18.249 150.384 21.435" fill="#fdbb49" stroke-width="0"/>
    <polygon points="137.478 17.988 135.477 45.76 126.581 45.76 131.434 21.509 131.481 21.281 131.976 18.249 137.19 17.968 137.478 17.988" fill="#fdbb49" stroke-width="0"/>
    <path d="M96.782,135.452s64.06,5.605,69.572-6.995c5.513-12.6,14.039-27.486-8.337-48.787l23.809-.343,5.79-5.995s20.475,40.163,3.15,55.125c0,0-13.829,12.005-40.383,11.515-26.554-.49-47.574-.676-53.602-4.52Z" fill="#323133" stroke-width="0"/>
    <polygon points="101.779 79.632 165.169 88.503 161.629 79.632 101.779 79.632" fill="#323133" stroke-width="0"/>
    <path d="M131.434,21.509l-4.853,24.251-2.155,20.804-.04.448-24.118-2.115c-1.426-.127-2.497-1.198-2.45-2.45l.154-3.561.308-7.049c1.513-16.011,14.131-28.388,32.425-30.477l.73.147Z" fill="#fdbb49" stroke-width="0"/>
    <path d="M93.105,73.492l.254.134c-.669,1.312-1.312,2.631-1.921,3.936-.783,1.687-1.6,3.528-2.403,5.475l-.991-.033c-4.425-.308-7.845-2.945-7.644-5.897.208-2.952,3.956-5.094,8.387-4.786,1.613.114,3.093.535,4.317,1.171Z" fill="#323133" stroke-width="0"/>
    <path d="M187.541,73.245c.187.328.375.656.556.984,1.747,3.146,3.267,6.379,4.552,9.686,3.588,9.251,5.335,19.077,4.994,29.178-.08,2.457-.288,4.953-1.138,7.263-1.104,3.005-3.233,5.536-5.623,7.664-11.426,10.188-28.007,11.587-43.315,11.868-13.555.254-27.17.027-40.584-1.975-4.88-.73-9.853-1.74-14.023-4.384-16.647-10.569-10.603-34.339-3.923-50.491.803-1.948,1.62-3.789,2.403-5.475.609-1.305,1.252-2.624,1.921-3.936.134-.268.274-.529.408-.79" fill="none" stroke="#010101" stroke-miterlimit="10" stroke-width="1.673"/>
    <path d="M187.447,74.603c.208-.134.422-.261.649-.375,1.212-.656,2.691-1.104,4.311-1.232,4.425-.355,8.2,1.747,8.434,4.699.228,2.798-2.825,5.355-6.921,5.911-.214.027-.435.054-.656.067" fill="none" stroke="#010101" stroke-miterlimit="10" stroke-width="1.673"/>
    <path d="M88.045,83.004c-4.425-.308-7.845-2.945-7.644-5.897.208-2.952,3.956-5.094,8.387-4.786,1.613.114,3.093.535,4.317,1.171" fill="none" stroke="#010101" stroke-miterlimit="10" stroke-width="1.673"/>
    <path d="M150.859,21.341c18.381,2.022,31.267,13.816,32.599,30.497l.308,7.042.154,3.528c.04,1.279-1.051,2.363-2.497,2.49l-24.071,2.109-1.653.147-12.618,1.111c-1.473.127-2.952.127-4.425,0l-13.1-1.151-1.171-.1-24.118-2.115c-1.426-.127-2.497-1.198-2.45-2.45l.154-3.561.308-7.049c1.513-16.011,14.8-28.388,33.094-30.477" fill="none" stroke="#010101" stroke-miterlimit="10" stroke-width="1.673"/>
    <path d="M124.425,66.564" fill="none" stroke="#010101" stroke-miterlimit="10" stroke-width="1.673"/>
    <path d="M126.581,45.76" fill="none" stroke="#010101" stroke-miterlimit="10" stroke-width="1.673"/>
    <path d="M155.156,45.76" fill="none" stroke="#010101" stroke-miterlimit="10" stroke-width="1.673"/>
    <path d="M157.312,66.564" fill="none" stroke="#010101" stroke-miterlimit="10" stroke-width="1.673"/>
    <polyline points="135.477 45.76 126.581 45.76 131.434 21.509 131.481 21.281 131.976 18.249 137.19 17.298 140.808 16.632 144.654 17.305 149.761 18.249 150.384 21.435 155.156 45.76 146.26 45.76" fill="none" stroke="#010101" stroke-miterlimit="10" stroke-width="1.673"/>
    <path d="M141.327,79.671h38.456c1.948,0,3.748-.89,4.759-2.35l2.999-4.076,3.748-5.087c1.352-1.955.723-4.492-1.426-5.777l-5.87-3.508" fill="none" stroke="#010101" stroke-miterlimit="10" stroke-width="1.673"/>
    <path d="M141.327,79.671h-39.493c-1.941,0-3.748-.89-4.759-2.35l-2.798-3.802-.502-.683-3.447-4.679c-1.352-1.955-.723-4.492,1.426-5.777l5.87-3.508" fill="none" stroke="#010101" stroke-miterlimit="10" stroke-width="1.673"/>
    <path d="M191.429,35.229c.433,2.801-5.605,13.315-7.73,15.079,0,0-6.691.072-10.007-8.995,0,0,10.287-1.584,15.576-7.67,0,0,1.728-1.225,2.162,1.586Z" fill="#faf4ed" stroke-width="0"/>
    <path d="M173.692,41.313s10.287-1.584,15.576-7.67c0,0,1.728-1.225,2.162,1.586.433,2.801-5.605,13.315-7.73,15.079,0,0-6.691.072-10.007-8.995Z" fill="none" stroke="#010101" stroke-miterlimit="10" stroke-width="1.673"/>
    <ellipse cx="96.782" cy="107.115" rx="9.371" ry="7.363" fill="#f6bdc0" stroke-width="0"/>
    <ellipse cx="183.131" cy="107.115" rx="9.371" ry="7.363" fill="#f6bdc0" stroke-width="0"/>
    <g>
      <circle cx="109.835" cy="93.058" r="9.037" fill="#010101" stroke-width="0"/>
      <circle cx="112.846" cy="89.378" r="2.678" fill="#faf4ed" stroke-width="0"/>
    </g>
    <g>
      <circle cx="170.079" cy="93.058" r="9.037" fill="#010101" stroke-width="0"/>
      <circle cx="173.09" cy="89.378" r="2.678" fill="#faf4ed" stroke-width="0"/>
    </g>
    <path d="M175.768,86.946s2.343-.427,4.351-1.765" fill="none" stroke="#010101" stroke-linecap="round" stroke-miterlimit="10" stroke-width="1.673"/>
    <ellipse cx="139.957" cy="118.16" rx="31.795" ry="20.416" fill="#f6bdc0" stroke="#010101" stroke-miterlimit="10" stroke-width="1.673"/>
    <path d="M104.047,86.946s-2.343-.427-4.351-1.765" fill="none" stroke="#010101" stroke-linecap="round" stroke-miterlimit="10" stroke-width="1.673"/>
    <ellipse cx="128.575" cy="110.797" rx="4.637" ry="2.834" transform="translate(-25.137 38.824) rotate(-15.662)" fill="#010101" stroke-width="0"/>
    <ellipse cx="153.342" cy="110.797" rx="2.834" ry="4.637" transform="translate(5.263 228.535) rotate(-74.338)" fill="#010101" stroke-width="0"/>
    <path d="M194.938,135.515s6.383-2.294,7.722-6.979h4.016s-3.02,11.667-8.204,11.858l-3.534-4.879Z" fill="#323133" stroke="#010101" stroke-miterlimit="10" stroke-width="1.673"/>
    <path d="M209.05,112.964c-1.294,4.742-6.821,6.913-7.768,11.7-.419,2.117.488,5.094,2.671,5.825,1.58.53,3.631.965,5.216.225,3.225-1.506,3.408-6.421,3.479-9.437.061-2.593-.593-7.301-3.597-8.313Z" fill="#323133" stroke="#010101" stroke-miterlimit="10" stroke-width="1.673"/>
    <path d="M162.244,46.568c0,11.841-9.598,21.439-21.439,21.439s-21.439-9.598-21.439-21.439,9.599-21.439,21.439-21.439,21.439,9.599,21.439,21.439" fill="#f15b52" stroke="#010101" stroke-miterlimit="10" stroke-width="1.673"/>
    <path d="M141.166,38.533l5.549,13.693-8.381-6.601,2.832-7.092ZM151.022,55.38l-8.534-20.537c-.243-.593-.73-.906-1.322-.906s-1.114.313-1.358.906l-9.367,22.527h3.204l3.707-9.289,11.065,8.94c.445.36.766.523,1.184.523.835,0,1.567-.627,1.567-1.532,0-.147-.052-.381-.146-.632" fill="#fff" stroke-width="0"/>
    <path d="M120.968,26.243s-22.211,9.884-20.251,35.118l4.712.901s-2.073-21.218,15.54-36.019Z" fill="#fdf6ef" stroke-width="0"/>
    <path d="M91.731,33.379c5.542,5.852,15.895,6.994,15.895,6.994-2.918,9.197-9.612,9.412-9.612,9.412-2.193-1.672-8.686-11.91-8.372-14.729.31-2.824,2.088-1.677,2.088-1.677Z" fill="#faf4ed" stroke-width="0"/>
    <path d="M107.626,40.373s-10.353-1.142-15.895-6.994c0,0-1.778-1.147-2.088,1.677-.315,2.819,6.179,13.057,8.372,14.729,0,0,6.693-.215,9.612-9.412Z" fill="none" stroke="#010101" stroke-miterlimit="10" stroke-width="1.673"/>
    <path d="M124.98,136.172s54.762-.627,33.54-34.583c0,0,12.33,5.605,13.232,14.268s-4.674,17.29-21.573,21.639c0,0-16.173,3.241-25.199-1.324Z" fill="#de9098" stroke-width="0"/>
    <path d="M138.181,98.644s-24.633-.363-29.315,17.213c0,0,7.875-13.388,29.315-17.213Z" fill="#fdf6ef" stroke-width="0"/>
    <ellipse cx="139.957" cy="118.16" rx="31.795" ry="20.416" fill="none" stroke="#010101" stroke-miterlimit="10" stroke-width="1.673"/>
    <path d="M90.71,105.077c.074-.127.153-.252.237-.373.04-.058.082-.114.124-.17.057-.077-.117.146-.032.043.027-.033.053-.065.08-.097.186-.22.389-.424.608-.611.053-.046.108-.09.163-.134.074-.06-.15.112-.042.033.028-.021.056-.042.085-.062.12-.086.243-.167.37-.242.12-.072.244-.139.37-.201.069-.034.14-.065.21-.098.083-.039-.196.078-.052.022.039-.015.078-.031.118-.046.197-.075.361-.174.471-.362.099-.169.141-.418.079-.607-.121-.375-.556-.707-.969-.55-1.329.505-2.46,1.424-3.179,2.659-.207.356-.094.879.283,1.077s.856.098,1.077-.283h0Z" fill="#fdf6ef" stroke-width="0"/>
    <path d="M177.331,105.098c.046-.066.093-.132.14-.197.062-.084-.011.02-.035.045.027-.028.051-.063.076-.094.098-.118.2-.231.308-.34.113-.115.231-.225.354-.329.055-.047.112-.092.168-.138.075-.061-.14.102-.025.021.033-.023.065-.047.098-.071.25-.176.515-.332.79-.465.065-.031.133-.058.198-.09-.213.107.021-.007.081-.029.151-.056.305-.104.46-.147.397-.109.681-.564.55-.969s-.543-.667-.969-.55c-1.453.4-2.704,1.319-3.554,2.558-.234.341-.075.889.283,1.077.4.212.828.081,1.077-.283h0Z" fill="#fdf6ef" stroke-width="0"/>
    <path d="M90.413,132.629s-25.539,21.256-2.558,39.058c0,0-17.076-14.805,2.558-39.058Z" fill="#787878" stroke-width="0"/>
    <path d="M104.143,152.633c-2.678,18.073,14.057,30.122,14.057,30.122-71.623-15.396-27.011-50.636-27.011-50.636" fill="none" stroke="#010101" stroke-linecap="round" stroke-miterlimit="10" stroke-width="1.673"/>
    <path d="M188.793,130.11s44.612,35.241-27.011,50.636c0,0,16.734-9.371,14.057-27.444" fill="none" stroke="#010101" stroke-linecap="round" stroke-miterlimit="10" stroke-width="1.673"/>
    <path d="M165.401,187.865c3.865-2.965,5.256-7.312,2.744-10.586-2.512-3.274-7.682-3.525-11.547-.56-3.026,2.322-4.536,5.49-3.843,8.328.192.787,4.71-.753,5.255-.042.622.811-2.749,3.737-1.861,4.174,2.697,1.328,6.344.917,9.251-1.313Z" fill="#323133" stroke="#010101" stroke-miterlimit="10" stroke-width="1.673"/>
    <path d="M114.615,189.158c-3.865-2.965-5.256-7.312-2.744-10.586,2.512-3.274,7.682-3.525,11.547-.56,3.026,2.322,4.536,5.49,3.843,8.328-.192.787-4.71-.753-5.255-.042-.622.811,2.749,3.737,1.861,4.174-2.697,1.328-6.344.917-9.251-1.313Z" fill="#323133" stroke="#010101" stroke-miterlimit="10" stroke-width="1.673"/>
    <g>
      <path d="M105.3,181.856c4.513,11.095,1.889,21.85-7.511,25.674-9.4,3.823-20.679-2.072-25.191-13.167-3.629-8.924-2.643-17.627,2.773-22.681,1.318-1.23,5.043,2.574,6.883,1.825,1.719-.699,1.355-5.891,3.146-5.968,8.007-.344,16.213,5.25,19.9,14.317Z" fill="#323133" stroke="#010101" stroke-miterlimit="10" stroke-width="1.673"/>
      <path d="M80.273,204.565s24.332,5.15,26.069-19.729c0,0,6.763,35.199-26.069,19.729Z" fill="#1e1e1e" stroke-width="0"/>
      <path d="M105.3,181.856c4.513,11.095,1.889,21.85-7.511,25.674-9.4,3.823-20.679-2.072-25.191-13.167-3.629-8.924-2.643-17.627,2.773-22.681,1.318-1.23,5.043,2.574,6.883,1.825,1.719-.699,1.355-5.891,3.146-5.968,8.007-.344,16.213,5.25,19.9,14.317Z" fill="none" stroke="#010101" stroke-miterlimit="10" stroke-width="1.673"/>
    </g>
    <g>
      <path d="M174.379,179.592c-5.989,10.373-5.058,21.557,3.73,26.631,8.788,5.074,20.768.778,26.757-9.595,4.689-8.122,5.136-16.74.891-22.534-1.177-1.606-5.795,1.184-7.702.083-2.176-1.257-1.468-6.118-3.896-6.275-7.377-.478-15.274,3.886-19.78,11.691Z" fill="#323133" stroke="#010101" stroke-miterlimit="10" stroke-width="1.673"/>
      <path d="M178.167,206.42s24.923.137,29.787-27.888c0,0,3.288,35.763-29.787,27.888Z" fill="#1e1e1e" stroke-width="0"/>
      <path d="M174.379,179.592c-5.989,10.373-5.058,21.557,3.73,26.631,8.788,5.074,20.768.778,26.757-9.595,4.689-8.122,5.136-16.74.891-22.534-1.177-1.606-5.795,1.184-7.702.083-2.176-1.257-1.468-6.118-3.896-6.275-7.377-.478-15.274,3.886-19.78,11.691Z" fill="none" stroke="#010101" stroke-miterlimit="10" stroke-width="1.673"/>
    </g>
  </g>
  <path d="M90.323,240.01h-8.713l-1.451,3.146h-4.775l7.256-14.514c.34-.679,1.034-1.108,1.793-1.108h3.065c.76,0,1.455.43,1.794,1.11l7.236,14.512h-4.752l-1.453-3.146ZM89.003,237.171l-2.002-4.29c-.242-.55-.748-1.87-1.012-2.685h-.045c-.264.814-.77,2.135-1.012,2.685l-2.002,4.29h6.072Z" fill="#432011" stroke-width="0"/>
  <path d="M101.235,227.534h2.727l8.164,8.867c.461.506.924,1.166,1.232,1.782h.088v-10.649h4.025v13.618c0,1.107-.897,2.004-2.004,2.004h-2.418l-8.471-8.978c-.441-.483-1.012-1.276-1.232-1.782h-.088v10.76h-4.027v-13.618c0-1.107.897-2.004,2.004-2.004Z" fill="#432011" stroke-width="0"/>
  <path d="M119.911,239.702l3.17-2.223c1.297,1.826,3.695,3.059,6.908,3.059,2.838,0,4.158-.572,4.158-1.805,0-.968-.66-1.364-2.529-1.562l-4.797-.527c-3.83-.418-5.656-1.826-5.656-4.709,0-3.103,3.016-4.929,8.361-4.929,3.961,0,7.041,1.034,8.979,3.213l-2.795,2.354c-1.166-1.54-3.41-2.486-6.402-2.486-2.422,0-3.74.572-3.74,1.629,0,.968.658,1.342,2.662,1.562l4.312.419c4.312.439,6.094,1.716,6.094,4.62,0,3.455-3.234,5.369-8.867,5.369-4.621,0-8.25-1.519-9.857-3.982Z" fill="#432011" stroke-width="0"/>
  <path d="M141.802,243.157v-15.622h4.443v15.622h-4.443Z" fill="#432011" stroke-width="0"/>
  <path d="M168.644,238.712c0,2.288-1.562,4.444-5.875,4.444h-10.057c-1.104,0-1.999-.895-1.999-1.999v-11.624c0-1.104.895-1.999,1.999-1.999h9.97c3.873,0,5.566,1.716,5.566,3.96,0,1.585-.967,3.015-3.08,3.455,2.377.352,3.477,1.716,3.477,3.763ZM155.156,230.439v3.41h6.293c1.826,0,2.201-.924,2.201-1.804,0-.771-.439-1.606-2.201-1.606h-6.293ZM164.046,238.36c0-1.078-.727-1.826-2.377-1.826h-6.514v3.719h6.492c1.693,0,2.398-.814,2.398-1.893Z" fill="#432011" stroke-width="0"/>
  <path d="M172.052,227.534h4.443v12.146h10.584v3.477h-13.032c-1.102,0-1.995-.893-1.995-1.995v-13.627Z" fill="#432011" stroke-width="0"/>
  <path d="M206.087,240.054v1.102c0,1.105-.896,2.001-2.001,2.001h-11.928c-1.105,0-2.001-.896-2.001-2.001v-11.62c0-1.105.896-2.001,2.001-2.001h11.774c1.105,0,2.001.896,2.001,2.001v1.102h-11.332v3.146h7.959v2.904h-7.959v3.366h11.486Z" fill="#432011" stroke-width="0"/>
  <path d="M95.12,259.712c0,2.288-1.562,4.444-5.875,4.444h-10.059c-1.103,0-1.997-.894-1.997-1.997v-11.628c0-1.103.894-1.997,1.997-1.997h9.971c3.873,0,5.566,1.716,5.566,3.96,0,1.585-.967,3.015-3.08,3.455,2.377.352,3.477,1.716,3.477,3.763ZM81.632,251.439v3.41h6.293c1.826,0,2.201-.924,2.201-1.804,0-.771-.439-1.606-2.201-1.606h-6.293ZM90.523,259.36c0-1.078-.727-1.826-2.377-1.826h-6.514v3.719h6.492c1.693,0,2.398-.814,2.398-1.893Z" fill="#432011" stroke-width="0"/>
  <path d="M102.269,248.534v8.163c0,2.641,1.672,4.511,4.754,4.511,2.992,0,4.73-1.893,4.73-4.511v-8.163h4.443v8.625c0,4.488-3.277,7.525-9.174,7.525s-9.199-3.059-9.199-7.569v-8.581h4.445Z" fill="#432011" stroke-width="0"/>
  <path d="M120.044,264.157v-15.622h4.445v15.622h-4.445Z" fill="#432011" stroke-width="0"/>
  <path d="M128.954,248.534h4.443v12.146h10.584v3.477h-13.026c-1.106,0-2.002-.896-2.002-2.002v-13.62Z" fill="#432011" stroke-width="0"/>
  <path d="M147.06,250.537c0-1.106.896-2.002,2.002-2.002h7.92c5.744,0,9.418,2.662,9.418,7.547s-3.895,8.075-9.482,8.075h-7.855c-1.106,0-2.002-.896-2.002-2.002v-11.618ZM156.345,261.142c3.344,0,5.391-1.848,5.391-4.994,0-3.037-2.223-4.599-5.436-4.599h-4.797v9.593h4.842Z" fill="#432011" stroke-width="0"/>
  <path d="M185.255,261.054v1.104c0,1.104-.895,1.998-1.998,1.998h-11.934c-1.104,0-1.999-.895-1.999-1.999v-11.624c0-1.104.895-1.999,1.999-1.999h11.78c1.104,0,1.998.895,1.998,1.998v1.104h-11.332v3.146h7.957v2.904h-7.957v3.366h11.486Z" fill="#432011" stroke-width="0"/>
  <path d="M198.122,258.634h-4.555v5.522h-4.445v-13.624c0-1.104.895-1.998,1.998-1.998h8.652c5.016,0,6.469,2.574,6.469,4.95,0,1.738-.881,3.785-3.521,4.621l4.094,6.051h-4.996l-3.695-5.522ZM193.568,255.795h5.193c2.156,0,2.793-1.078,2.793-2.178,0-1.079-.637-2.112-2.771-2.112h-5.215v4.29Z" fill="#432011" stroke-width="0"/>
</svg>