<?xml version="1.0" encoding="UTF-8"?>
<svg id="Layer_1" data-name="Layer 1" xmlns="http://www.w3.org/2000/svg" viewBox="0 0 216 216">
  <defs>
    <style>
      .cls-1 {
        fill: #4d9695;
      }

      .cls-1, .cls-2, .cls-3, .cls-4, .cls-5, .cls-6, .cls-7, .cls-8, .cls-9, .cls-10, .cls-11, .cls-12, .cls-13, .cls-14, .cls-15, .cls-16, .cls-17 {
        stroke-width: 0px;
      }

      .cls-2 {
        fill: #010101;
      }

      .cls-3 {
        fill: #1e1f1e;
      }

      .cls-4 {
        fill: #75bbbe;
      }

      .cls-5 {
        fill: #2d3b4e;
      }

      .cls-6 {
        fill: #bbc9dc;
      }

      .cls-7 {
        fill: #575757;
      }

      .cls-8 {
        fill: #0b182c;
      }

      .cls-9 {
        fill: #717171;
      }

      .cls-10 {
        fill: #343333;
      }

      .cls-11 {
        fill: #ba98af;
      }

      .cls-12 {
        fill: #465467;
      }

      .cls-13 {
        fill: #b5dbda;
      }

      .cls-14 {
        fill: #fff;
      }

      .cls-15 {
        fill: #ac7894;
      }

      .cls-16 {
        fill: #f3f3f3;
      }

      .cls-17 {
        fill: #f15d53;
      }
    </style>
  </defs>
  <circle class="cls-16" cx="108" cy="108" r="108"/>
  <circle class="cls-8" cx="108" cy="108" r="102.6"/>
  <g>
    <path class="cls-7" d="M162.71,139.06c0-14.3-24.35-32.71-54.4-32.71s-54.4,18.42-54.4,32.71c0,7.27,6.3,13.87,16.48,18.6l3.09,28.84s21.63-8.66,34.17-8.97c24.29-.61,35.68,8.97,35.68,8.97l1.94-28.41c10.72-4.73,17.45-11.51,17.45-19.02Z"/>
    <path class="cls-2" d="M143.99,188.01l-1.15-.97s-2.85-2.36-8.6-4.66c-5.27-2.06-14.18-4.48-26.6-4.18-12.3.3-33.68,8.84-33.93,8.97l-.91.36-3.15-29.38c-10.66-5.03-16.54-11.81-16.54-19.08s6.06-15.75,16.3-22.35c5.15-3.33,11.21-6.12,17.51-8,6.91-2.06,14.12-3.15,21.39-3.15s14.48,1.03,21.39,3.15c6.3,1.88,12.36,4.66,17.51,8,10.18,6.6,16.3,14.96,16.3,22.35,0,3.88-1.64,7.57-4.91,11.09-3.03,3.21-7.21,6.06-12.6,8.48l-2,29.38ZM108.3,107.07c-7.09,0-14.18,1.03-20.96,3.09-6.18,1.82-12.06,4.54-17.08,7.82-4.79,3.09-8.72,6.66-11.45,10.42-2.73,3.7-4.12,7.39-4.12,10.72s1.45,6.66,4.24,9.75,6.72,5.82,11.81,8.18l.36.18,3.03,28.29c1.82-.73,6.24-2.36,11.51-4.06,9.33-2.97,16.72-4.54,21.99-4.66,12.66-.3,21.81,2.18,27.26,4.3,3.88,1.51,6.42,3.09,7.82,4l1.88-27.5.42-.18c5.33-2.36,9.57-5.15,12.48-8.3,2.97-3.21,4.48-6.54,4.48-10.06,0-3.33-1.45-7.03-4.12-10.72-2.73-3.7-6.66-7.27-11.45-10.42-5.03-3.27-10.9-5.94-17.08-7.82-6.85-2-13.93-3.03-21.02-3.03Z"/>
  </g>
  <g>
    <path class="cls-10" d="M165.61,125.67s-1.51,4.48-2.97,5.94c-1.51,1.51-5.94,4.48-5.94,4.48l-2.97-4.48s4.48-1.51,5.94-2.97l5.94-5.94v2.97h0Z"/>
    <path class="cls-2" d="M156.47,137.12l-3.94-5.88.91-.3c1.21-.42,4.54-1.7,5.63-2.79l7.21-7.21v4.91l-.06.12c-.06.18-1.58,4.66-3.15,6.24-1.51,1.51-5.88,4.42-6.06,4.54l-.55.36ZM154.89,131.97l2,3.03c1.27-.85,4.12-2.85,5.21-3.94s2.3-4.24,2.73-5.51v-1.03l-4.66,4.66c-1.15,1.15-3.88,2.3-5.27,2.79Z"/>
  </g>
  <path class="cls-10" d="M142.11,159.35c12.54-4.73,20.6-12.06,20.6-20.29,0-10.36-12.72-22.84-31.14-28.96l-41.74,6.54s29.75,11.87,44.59,14.84c14.84,2.97,13.39,8.91,13.39,14.84,0,5.21-4.54,11.51-5.69,13.03Z"/>
  <path class="cls-2" d="M108.3,165.71c-14.66,0-28.41-2.73-38.77-7.69-10.54-5.03-16.36-11.75-16.36-19.02s6.06-15.75,16.3-22.35c5.15-3.33,11.21-6.12,17.51-8,6.91-2.06,14.12-3.15,21.39-3.15s14.48,1.03,21.39,3.15c6.3,1.88,12.36,4.66,17.51,8,10.18,6.6,16.3,14.96,16.3,22.35s-5.82,13.99-16.36,19.02c-10.48,4.97-24.29,7.69-38.89,7.69ZM108.3,107.07c-7.09,0-14.18,1.03-20.96,3.09-6.18,1.82-12.06,4.54-17.08,7.82-4.79,3.09-8.72,6.66-11.45,10.42-2.73,3.7-4.12,7.39-4.12,10.72,0,6.6,5.51,12.9,15.51,17.69,10.18,4.85,23.75,7.51,38.17,7.51s27.99-2.67,38.17-7.51c10-4.79,15.51-11.03,15.51-17.69,0-3.33-1.45-7.03-4.12-10.72-2.73-3.7-6.66-7.27-11.45-10.42-5.03-3.27-10.9-5.94-17.08-7.82-6.91-2.06-13.99-3.09-21.08-3.09Z"/>
  <g>
    <g>
      <ellipse class="cls-10" cx="152.7" cy="75.51" rx="7.69" ry="4.73" transform="translate(-13.12 36.47) rotate(-13.06)"/>
      <path class="cls-2" d="M151.07,81.2c-1.09,0-2.18-.18-3.15-.48-1.88-.61-3.09-1.82-3.45-3.27h0c-.36-1.51.24-3.09,1.64-4.48,1.33-1.27,3.21-2.3,5.33-2.79,4.6-1.09,8.72.42,9.45,3.39.36,1.51-.24,3.09-1.64,4.48-1.33,1.27-3.21,2.3-5.33,2.79-.97.24-1.94.36-2.85.36ZM154.34,71.33c-.79,0-1.64.12-2.54.3-1.88.42-3.51,1.27-4.6,2.36-1.03,1.03-1.45,2.12-1.21,3.09h0c.24.97,1.09,1.76,2.48,2.18,1.51.48,3.33.55,5.21.12,1.88-.42,3.51-1.27,4.6-2.36,1.03-1.03,1.45-2.12,1.21-3.09-.36-1.58-2.54-2.61-5.15-2.61Z"/>
    </g>
    <g>
      <ellipse class="cls-10" cx="63.88" cy="75.51" rx="4.73" ry="7.69" transform="translate(-24.12 120.67) rotate(-76.94)"/>
      <path class="cls-2" d="M65.53,81.14c-.91,0-1.94-.12-2.91-.36-2.12-.48-4-1.45-5.33-2.79-1.39-1.39-2-2.97-1.64-4.48s1.58-2.67,3.45-3.27c1.76-.61,3.88-.61,6-.12,4.6,1.09,7.63,4.24,6.97,7.21h0c-.55,2.42-3.21,3.82-6.54,3.82ZM62.2,71.33c-.97,0-1.88.12-2.67.42-1.33.48-2.24,1.21-2.48,2.18-.24.97.24,2.06,1.21,3.09,1.09,1.09,2.79,1.94,4.6,2.36,3.63.85,7.15-.18,7.63-2.3h0c.48-2.12-2.18-4.6-5.88-5.45-.73-.24-1.58-.3-2.42-.3Z"/>
    </g>
  </g>
  <path class="cls-12" d="M156.34,82.71c1.88,8.97,3.39,21.87-.97,28.78-8.54,13.39-30.05,17.27-47.8,17.27s-37.98.18-46.28-13.93c-3.94-6.66-3.27-24.54-1.03-32.11,7.03-24.05,12.78-41.2,46.77-40.59,35.68.67,44.1,15.87,49.31,40.59Z"/>
  <path class="cls-5" d="M156.34,82.71c-5.21-24.72-13.63-39.92-49.37-40.59-7.75-.12-13.99.67-19.14,2.24,33.02,1.7,41.2,15.57,46.35,37.44,1.94,8.3,3.51,20.23-1.03,26.66-8.84,12.42-31.08,15.99-49.43,15.99-3.88,0-7.82,0-11.69-.12,9.75,4.54,23.02,4.48,35.56,4.48,17.75,0,39.26-3.88,47.8-17.27,4.36-6.97,2.85-19.87.97-28.84Z"/>
  <path class="cls-2" d="M106.3,129.48c-8.91,0-18.05-.06-26.11-1.76-9.39-2-15.81-6.12-19.63-12.54-2.48-4.18-2.91-11.87-2.91-16.11-.06-6.18.67-12.72,1.82-16.66,3.82-12.96,6.97-22.72,13.45-29.81,7.27-8,18.05-11.57,34.05-11.27,17.21.3,28.84,3.94,36.65,11.45,7.94,7.63,11.15,18.78,13.45,29.69h0c3.63,17.14,1.39,25.44-1.09,29.32-4,6.24-11.03,10.97-20.84,13.93-9.87,3.03-20.42,3.63-27.56,3.63h-.61c-.24.12-.42.12-.67.12ZM105.21,42.85c-14.54,0-24.48,3.45-31.2,10.78-6.24,6.85-9.39,16.48-13.15,29.26-2.24,7.75-2.73,25.32.97,31.56,3.57,6.06,9.69,9.87,18.66,11.81,8.06,1.7,17.39,1.7,26.41,1.7h.61c7.03,0,17.45-.61,27.14-3.57,9.51-2.91,16.24-7.39,19.99-13.33,4.48-7.03,2.48-20.72.91-28.23h0c-2.24-10.66-5.39-21.57-13.03-28.96-7.51-7.27-18.84-10.78-35.62-11.09-.55.06-1.15.06-1.7.06Z"/>
  <ellipse class="cls-9" cx="108.79" cy="152.81" rx="20.78" ry="21.57"/>
  <ellipse class="cls-11" cx="145.5" cy="99.98" rx="7.88" ry="6.36"/>
  <path class="cls-6" d="M139.81,98.83c-.12,0-.24,0-.3-.06-.3-.18-.42-.61-.24-.91.06-.06.48-.79,1.45-1.64,1.03-.85,2.12-1.03,2.18-1.03.36-.06.73.18.79.55.06.36-.18.73-.55.79,0,0-.85.18-1.58.79-.85.67-1.15,1.27-1.15,1.27-.18.12-.42.24-.61.24Z"/>
  <ellipse class="cls-11" cx="71.11" cy="99.98" rx="7.88" ry="6.36"/>
  <path class="cls-6" d="M65.41,98.83c-.12,0-.24,0-.3-.06-.3-.18-.42-.61-.24-.91.06-.06.48-.79,1.45-1.64,1.03-.85,2.12-1.03,2.18-1.03.36-.06.73.18.79.55.06.36-.18.73-.55.79,0,0-.85.18-1.58.79-.85.67-1.15,1.27-1.15,1.27-.18.12-.36.24-.61.24Z"/>
  <circle class="cls-8" cx="82.07" cy="87.86" r="7.94"/>
  <circle class="cls-6" cx="84.74" cy="84.77" r="2.3"/>
  <path class="cls-8" d="M76.44,83.26h-.12c-.06,0-.61-.12-1.58-.55-1.03-.42-1.76-1.21-1.76-1.21-.24-.24-.24-.67.06-.91.24-.24.67-.24.91.06,0,0,.55.55,1.33.91.85.36,1.27.42,1.27.42.36.06.61.42.55.79-.06.24-.36.48-.67.48Z"/>
  <circle class="cls-8" cx="134.53" cy="87.86" r="7.94"/>
  <circle class="cls-6" cx="136.47" cy="84.77" r="2.3"/>
  <path class="cls-8" d="M140.17,83.26c-.3,0-.61-.24-.67-.55-.06-.36.18-.73.55-.79,0,0,.48-.06,1.27-.42s1.33-.91,1.33-.91c.24-.24.67-.3.91,0,.24.24.3.67.06.91,0,.06-.73.79-1.76,1.21-.97.42-1.51.55-1.58.55h-.12Z"/>
  <ellipse class="cls-11" cx="108.3" cy="109.55" rx="27.38" ry="17.75"/>
  <ellipse class="cls-8" cx="97.69" cy="103.37" rx="3.94" ry="2.3" transform="translate(-21.91 26.39) rotate(-13.85)"/>
  <ellipse class="cls-8" cx="118.9" cy="103.38" rx="2.3" ry="3.94" transform="translate(-9.95 194.07) rotate(-76.15)"/>
  <path class="cls-15" d="M123.39,94.77c3.15,3.33,5.09,7.45,5.09,11.93,0,12.36-15.99,18.11-29.69,18.11-2.06,0-3.94-.18-5.69-.48,4.36,1.88,9.57,2.97,15.21,2.97,15.15,0,27.38-7.94,27.38-17.75,0-6.18-4.91-11.63-12.3-14.78Z"/>
  <path class="cls-6" d="M111.03,91.92c-.91-.06-1.82-.06-2.73-.06-14.9,0-26.96,7.69-27.38,17.27,3.76-8.78,16.72-16.54,30.11-17.21Z"/>
  <path class="cls-8" d="M108.3,128.03c-7.45,0-14.48-1.88-19.81-5.33-5.39-3.51-8.36-8.18-8.36-13.15s2.97-9.69,8.36-13.15c5.27-3.45,12.3-5.33,19.81-5.33s14.48,1.88,19.81,5.33c5.39,3.51,8.36,8.18,8.36,13.15s-2.97,9.69-8.36,13.15c-5.33,3.45-12.36,5.33-19.81,5.33ZM108.3,92.59c-14.72,0-26.66,7.63-26.66,16.96s11.93,16.96,26.66,16.96,26.66-7.63,26.66-16.96-12-16.96-26.66-16.96Z"/>
  <path class="cls-2" d="M132.05,163.05l-2.06-2.67.48-.48c.06-.06,4.54-4.12,6.42-7.82,1.82-3.7,1.64-12.78,1.64-12.84l1.51-.06c0,.36.24,9.51-1.76,13.57-1.64,3.27-4.97,6.6-6.24,7.82l.67.85c1.76-.36,8.42-1.82,13.33-4.12l.61,1.33c-5.82,2.79-13.81,4.3-14.12,4.36l-.48.06Z"/>
  <path class="cls-2" d="M84.55,163.05l-.42-.06c-.36-.06-8.3-1.58-14.12-4.36l.61-1.33c4.91,2.3,11.57,3.76,13.33,4.12l.67-.85c-1.27-1.21-4.66-4.54-6.24-7.82-2-4-1.76-13.15-1.76-13.57l1.51.06c0,.12-.24,9.15,1.64,12.84,1.88,3.7,6.36,7.75,6.42,7.82l.48.48-2.12,2.67Z"/>
  <g>
    <circle class="cls-4" cx="108.79" cy="164.86" r="18.42"/>
    <path class="cls-2" d="M108.79,146.45c3.51,0,7.03.97,10.12,3.03,8.48,5.63,10.84,17.02,5.21,25.57-3.57,5.39-9.39,8.3-15.39,8.3-3.51,0-7.03-.97-10.12-3.03-8.48-5.63-10.84-17.02-5.21-25.57,3.51-5.39,9.39-8.3,15.39-8.3M108.79,145.24h0c-6.6,0-12.78,3.27-16.42,8.84-2.91,4.36-3.88,9.63-2.85,14.78,1.03,5.15,4.06,9.57,8.42,12.48,3.21,2.12,6.97,3.27,10.78,3.27,6.6,0,12.78-3.27,16.42-8.84,2.91-4.36,3.88-9.63,2.85-14.78s-4.06-9.57-8.42-12.48c-3.21-2.12-6.97-3.27-10.78-3.27h0Z"/>
  </g>
  <path class="cls-1" d="M121.93,151.96c-.91-.91-1.88-1.76-2.97-2.48-.3-.18-.61-.36-.91-.55-.36,4.3-2.73,10.36-6.72,16.36-4.73,7.21-10.42,12.3-14.6,13.51.61.48,1.21.97,1.88,1.45.85.55,1.7,1.03,2.61,1.45,4.3-2.73,9.21-7.75,13.45-14.12,3.57-5.51,6.06-10.97,7.27-15.63Z"/>
  <path class="cls-1" d="M102.97,182.37c7.69,2.54,16.48-.24,21.2-7.33,4.42-6.72,3.88-15.27-.73-21.32l-20.48,28.66Z"/>
  <g>
    <path class="cls-10" d="M132.84,160.44c-1.88-2.85-6.24-3.27-9.69-.97-2.61,1.76-3.94,4.48-3.63,6.97.06.3.3.55.61.55h2.79c.24,0,.42.24.3.48l-1.03,2.36c-.12.3,0,.61.3.79,2.18,1.09,5.09.85,7.57-.85,3.45-2.36,4.73-6.54,2.79-9.33Z"/>
    <path class="cls-2" d="M125.39,171.95c-1.15,0-2.24-.24-3.27-.73-.67-.3-.91-1.09-.61-1.7l.79-1.82h-2.18c-.67,0-1.21-.48-1.33-1.15-.36-2.85,1.21-5.88,3.94-7.69,3.76-2.54,8.6-2,10.72,1.15h0c2.12,3.15.79,7.82-2.97,10.36-1.58,1.03-3.33,1.58-5.09,1.58ZM122.96,169.95c2,.91,4.6.61,6.72-.85,3.09-2.06,4.24-5.82,2.54-8.3h0c-1.7-2.48-5.57-2.85-8.66-.79-2.24,1.51-3.51,3.88-3.33,6.18h2.67c.36,0,.73.18.91.48s.24.67.06,1.03l-.91,2.24Z"/>
  </g>
  <g>
    <path class="cls-10" d="M84.31,160.44c1.88-2.85,6.24-3.27,9.69-.97,2.61,1.76,3.94,4.48,3.63,6.97-.06.3-.3.55-.61.55h-2.79c-.24,0-.42.24-.3.48l1.03,2.36c.12.3,0,.61-.3.79-2.18,1.09-5.09.85-7.57-.85-3.45-2.36-4.66-6.54-2.79-9.33Z"/>
    <path class="cls-2" d="M91.76,171.95c-1.7,0-3.51-.55-5.09-1.64-3.76-2.54-5.09-7.15-2.97-10.36h0c2.12-3.15,6.91-3.7,10.72-1.15,2.73,1.82,4.3,4.85,3.94,7.69-.06.67-.67,1.15-1.33,1.15h-2.18l.79,1.82c.3.67,0,1.39-.61,1.7-1.03.55-2.12.79-3.27.79ZM84.98,160.81c-1.7,2.48-.55,6.24,2.54,8.3,2.12,1.45,4.73,1.76,6.72.85l-.97-2.24c-.12-.36-.12-.73.06-1.03.18-.3.55-.48.91-.48h2.67c.18-2.24-1.09-4.66-3.33-6.18-3.09-2.06-6.97-1.7-8.6.79h0Z"/>
  </g>
  <path class="cls-10" d="M163.61,156.93l-2.97.79c-1.15.3-2.36-.36-2.73-1.58l-.85-3.03c-.18-.67-.79-1.21-1.51-1.21-6.12-.36-12.9,3.39-16.96,10.06-5.45,8.91-4,19.69,3.15,24.05,7.15,4.36,17.39.67,22.78-8.3,4.18-6.85,4.3-14.84.85-20.11-.3-.55-1.03-.85-1.76-.67Z"/>
  <path class="cls-3" d="M167.43,162.26c-.97,3.82-3.7,11.81-10.18,17.51-4.18,3.7-11.33,5.57-15.33,6.36,7.15,4.24,17.33.55,22.72-8.36,3.03-5.09,3.94-10.78,2.79-15.51Z"/>
  <path class="cls-10" d="M52.99,156.93l2.97.79c1.15.3,2.36-.36,2.73-1.58l.85-3.03c.18-.67.79-1.21,1.51-1.21,6.12-.36,12.9,3.39,16.96,10.06,5.45,8.91,4,19.69-3.15,24.05-7.15,4.36-17.39.67-22.78-8.3-4.18-6.85-4.3-14.84-.85-20.11.3-.55,1.03-.85,1.76-.67Z"/>
  <path class="cls-3" d="M79.47,164.99s.67,12.96-8.66,17.21c-4.3,1.94-9.03,2.3-12.9,2.12,5.33,3.88,11.81,4.79,16.84,1.76,6.42-3.88,8.24-12.84,4.73-21.08Z"/>
  <path class="cls-2" d="M148.47,188.61c-2.54,0-4.91-.67-7.03-1.94-3.63-2.24-6-6.06-6.66-10.84-.61-4.73.55-9.75,3.27-14.24,4.12-6.72,11.03-10.84,17.63-10.42,1.03.06,1.88.79,2.18,1.76l.85,3.03c.18.79,1.03,1.21,1.82,1.03l2.97-.79.18.73-.18-.73c1.03-.3,2.06.12,2.67,1.03,1.82,2.79,2.67,6.18,2.54,9.87-.12,3.76-1.33,7.57-3.39,11.03-2.73,4.48-6.66,7.82-11.15,9.45-1.94.73-3.88,1.03-5.69,1.03ZM154.77,152.63c-5.82,0-11.81,3.76-15.45,9.75-2.54,4.18-3.63,8.91-3.03,13.27.55,4.3,2.67,7.82,5.94,9.75,3.27,2,7.33,2.24,11.39.79,4.12-1.51,7.82-4.6,10.36-8.78,1.94-3.21,3.03-6.79,3.15-10.3.12-3.39-.67-6.54-2.3-9.03-.24-.36-.67-.48-1.03-.42l-2.97.79c-1.58.42-3.21-.48-3.63-2.06l-.85-3.03c-.12-.36-.42-.67-.85-.67-.24,0-.48-.06-.73-.06Z"/>
  <path class="cls-2" d="M68.14,188.61c-6.18,0-12.78-3.82-16.78-10.42-2.06-3.45-3.27-7.27-3.39-11.03-.12-3.7.73-7.15,2.54-9.87.55-.91,1.64-1.27,2.67-1.03l2.97.79c.79.18,1.58-.24,1.82-1.03l.85-3.03c.24-1.03,1.15-1.7,2.18-1.76,6.6-.42,13.51,3.7,17.63,10.42,5.63,9.27,4.12,20.54-3.39,25.08-2.18,1.27-4.6,1.88-7.09,1.88ZM52.51,157.65c-.3,0-.61.18-.79.42-1.64,2.48-2.42,5.63-2.3,9.03.12,3.51,1.21,7.09,3.15,10.3,5.21,8.54,14.96,12.18,21.81,8,6.79-4.12,8.12-14.48,2.91-23.02-3.82-6.24-10.18-10.06-16.3-9.69-.36,0-.73.3-.85.67l-.85,3.03c-.42,1.58-2.06,2.48-3.63,2.06l-2.97-.79s-.06,0-.18,0Z"/>
  <g>
    <path class="cls-10" d="M168.58,110.82s4.48,5.94,2.97,11.87c-1.51,5.94-5.94,4.48-8.91,2.97s-2.97-5.94,0-8.91c2.97-2.97,5.94-5.94,5.94-5.94Z"/>
    <path class="cls-2" d="M167.13,127.73c-1.76,0-3.51-.73-4.79-1.39-1.39-.67-2.3-2-2.54-3.57-.36-2.18.55-4.66,2.36-6.48l6.54-6.54.48.67c.18.24,4.66,6.3,3.09,12.54-.55,2.24-1.64,3.76-3.09,4.42-.67.24-1.39.36-2.06.36ZM168.46,111.98l-5.33,5.33c-1.51,1.51-2.24,3.51-1.94,5.21.18,1.15.79,2,1.76,2.48,2.48,1.21,4.3,1.58,5.57.97,1.09-.48,1.82-1.64,2.3-3.45,1.09-4.36-1.27-8.84-2.36-10.54Z"/>
  </g>
  <g>
    <path class="cls-14" d="M108.42,25.22c-34.29,0-62.1,27.99-62.1,62.58,0,25.14,27.81,46.22,62.1,46.22s62.1-23.08,62.1-46.22c0-34.53-27.81-62.58-62.1-62.58ZM155.25,102.71c-5.09,27.87-23.02,11.81-48.77,11.81s-38.95,18.9-44.59-11.81c-4.91-26.72,20.9-46.28,46.65-46.28s51.31,21.02,46.71,46.28Z"/>
    <path class="cls-2" d="M108.42,134.94c-16.72,0-32.53-4.91-44.47-13.87-12-8.97-18.54-20.78-18.54-33.26,0-35.02,28.29-63.49,63.01-63.49s63.01,28.47,63.01,63.49c0,11.57-6.79,23.45-18.54,32.53-12.24,9.45-28.05,14.6-44.47,14.6ZM108.42,26.13c-33.74,0-61.19,27.69-61.19,61.67,0,11.93,6.36,23.2,17.81,31.81,11.63,8.72,27.02,13.51,43.38,13.51s31.44-5.09,43.38-14.24c11.33-8.72,17.81-20.05,17.81-31.08,0-33.99-27.44-61.67-61.19-61.67ZM74.44,121.18c-2.06,0-3.88-.42-5.57-1.45-3.76-2.36-6.18-7.51-7.88-16.84-2-10.78.79-21.02,7.94-29.69,9.09-10.9,24.29-17.69,39.62-17.69s29.99,6.91,39.26,18.05c7.21,8.66,10.18,19.08,8.3,29.32l-.91-.18.91.18c-1.39,7.69-3.82,12.42-7.51,14.96-5.33,3.57-12.42,2.12-21.39.3-6.12-1.27-13.09-2.67-20.72-2.67-8.12,0-14.9,1.88-20.84,3.51-4.24,1.15-7.94,2.18-11.21,2.18ZM108.61,57.33c-14.78,0-29.44,6.54-38.23,17.08-6.85,8.18-9.45,17.93-7.57,28.17,1.58,8.66,3.82,13.63,7.09,15.63,3.63,2.3,8.78.85,15.33-.97,5.76-1.64,12.9-3.57,21.32-3.57,7.82,0,14.9,1.45,21.08,2.73,8.54,1.76,15.33,3.15,19.99,0,3.27-2.18,5.45-6.72,6.79-13.75,1.76-9.69-1.03-19.63-7.88-27.87-9.03-10.78-23.57-17.45-37.92-17.45Z"/>
  </g>
  <g>
    <path class="cls-16" d="M148.47,58.78c9.75,12.66,18.72,36.35,18.72,36.35l3.15-10.12c-2.91-32.59-23.87-55.86-55.92-58.76-.06,0,22.72,17.81,34.05,32.53Z"/>
    <path class="cls-2" d="M108.3,135.3c-16.72,0-32.53-4.91-44.47-13.87-12-8.97-18.54-20.78-18.54-33.26,0-35.02,28.29-63.49,63.01-63.49s63.01,28.47,63.01,63.49c0,11.57-6.79,23.45-18.54,32.53-12.24,9.39-28.05,14.6-44.47,14.6ZM108.3,26.49c-33.74,0-61.19,27.69-61.19,61.67,0,11.93,6.36,23.2,17.81,31.81,11.63,8.72,27.02,13.51,43.38,13.51s31.44-5.09,43.38-14.24c11.33-8.72,17.81-20.05,17.81-31.08,0-34.05-27.44-61.67-61.19-61.67Z"/>
  </g>
  <g>
    <path class="cls-9" d="M48.75,70.3s4.79,6,4.66,17.14c-.12,11.15-3.03,16.05-3.03,16.05,0,0-8.66.06-9.03-16.6-.3-16.66,7.39-16.6,7.39-16.6Z"/>
    <path class="cls-2" d="M50.39,104.4c-.55,0-9.57-.3-9.94-17.51-.18-7.39,1.21-12.6,4.06-15.45,2.06-2.06,4.18-2.06,4.24-2.06h.42l.24.36c.18.24,5.03,6.36,4.91,17.69-.12,11.27-3.03,16.3-3.15,16.54l-.24.42h-.55ZM48.33,71.26c-.55.12-1.58.48-2.61,1.51-1.7,1.76-3.63,5.57-3.45,14.06.3,13.27,5.82,15.33,7.57,15.63.67-1.51,2.54-6.36,2.67-15.08.12-9.03-3.15-14.6-4.18-16.11Z"/>
  </g>
  <g>
    <path class="cls-9" d="M167.13,70.3s-4.79,6-4.66,17.14c.12,11.15,3.03,16.05,3.03,16.05,0,0,8.66.06,9.03-16.6.36-16.66-7.39-16.6-7.39-16.6Z"/>
    <path class="cls-2" d="M165.49,104.4h-.55l-.24-.42c-.12-.18-3.03-5.27-3.15-16.54-.12-11.33,4.66-17.45,4.91-17.69l.24-.36h.42c.06,0,2.18,0,4.24,2.06,2.85,2.85,4.18,8.06,4.06,15.45-.36,17.21-9.39,17.51-9.94,17.51ZM167.55,71.26c-1.03,1.51-4.3,7.09-4.18,16.11.06,8.78,1.94,13.63,2.67,15.08,1.76-.3,7.33-2.36,7.57-15.63.18-8.48-1.76-12.36-3.45-14.06-1.09-1.03-2.06-1.39-2.61-1.51Z"/>
  </g>
  <g>
    <g>
      <path class="cls-14" d="M134.17,42.49s1.51,2.91,3.63,4.54,5.45,2.24,6,2c.61-.24,3.09-6.79,4-9.15.85-2.36,1.15-7.03-.61-6.54-1.76.42-1.58,3.82-6.42,6.24-4.85,2.36-6.6,2.91-6.6,2.91Z"/>
      <path class="cls-2" d="M143.38,49.76c-1.45,0-4.24-.85-6-2.18-2.18-1.7-3.76-4.66-3.82-4.79l-.36-.73.79-.24c.06,0,1.82-.61,6.48-2.91,2.73-1.33,3.76-3.03,4.48-4.24.55-.91,1.09-1.76,2.06-2,.55-.12,1.09,0,1.45.42,1.21,1.33.61,5.27-.06,6.97-3.39,9.09-4,9.39-4.3,9.51-.24.12-.42.18-.73.18ZM143.38,48.55h0ZM135.08,42.85c.55.91,1.7,2.61,3.03,3.7,1.76,1.33,4.54,1.94,5.27,1.94.48-.73,2-4.3,3.7-8.78.73-1.94.91-4.97.3-5.63q-.06-.06-.12,0c-.42.12-.73.55-1.21,1.39-.79,1.27-2,3.21-5.03,4.79-3.09,1.45-4.97,2.24-5.94,2.61Z"/>
    </g>
    <g>
      <path class="cls-14" d="M81.71,42.49s-1.51,2.91-3.63,4.54-5.45,2.24-6,2c-.61-.24-3.09-6.79-4-9.15-.85-2.36-1.15-7.03.61-6.54,1.76.42,1.58,3.82,6.42,6.24s6.6,2.91,6.6,2.91Z"/>
      <path class="cls-2" d="M72.56,49.76c-.3,0-.55-.06-.73-.12-.3-.12-.91-.42-4.3-9.51-.67-1.76-1.27-5.69-.06-6.97.36-.42.91-.55,1.45-.42.97.24,1.45,1.03,2.06,2,.73,1.21,1.76,2.91,4.48,4.24,4.66,2.36,6.48,2.91,6.48,2.91l.79.24-.36.73c-.06.12-1.64,3.09-3.82,4.79-1.33,1.03-2.97,1.58-3.82,1.82-.36.06-1.39.3-2.18.3ZM72.5,48.55h0ZM72.44,48.43c.73.06,3.51-.55,5.27-1.94,1.39-1.03,2.48-2.73,3.03-3.7-.97-.36-2.79-1.15-5.94-2.73-3.09-1.51-4.24-3.45-5.03-4.79-.55-.85-.79-1.27-1.21-1.39h-.12c-.61.67-.42,3.7.3,5.63,1.7,4.6,3.21,8.24,3.7,8.91Z"/>
    </g>
  </g>
  <g>
    <g>
      <path class="cls-17" d="M120.24,40.79c0,6.85-5.51,12.36-12.36,12.36s-12.36-5.51-12.36-12.36,5.51-12.36,12.36-12.36c6.85-.06,12.36,5.51,12.36,12.36"/>
      <path class="cls-14" d="M113.75,45.88l-4.91-11.87c-.12-.36-.42-.55-.79-.55s-.67.18-.79.55l-5.39,12.96h1.88l2.12-5.33,6.36,5.15c.24.18.42.3.67.3.48,0,.91-.36.91-.91.06-.06,0-.18-.06-.3M108.06,36.13l3.21,7.88-4.85-3.82,1.64-4.06h0Z"/>
    </g>
    <path class="cls-2" d="M107.94,53.76c-7.15,0-12.96-5.82-12.96-12.96s5.82-12.96,12.96-12.96,12.96,5.82,12.96,12.96-5.82,12.96-12.96,12.96ZM107.94,29.16c-6.42,0-11.63,5.21-11.63,11.63s5.21,11.63,11.63,11.63,11.63-5.21,11.63-11.63-5.21-11.63-11.63-11.63Z"/>
  </g>
  <g>
    <path class="cls-13" d="M112.42,145.54c.3.06.61.12.91.18,2.85-1.7,5.33-2.12,7.03-1.03,4,2.67,1.58,13.33-5.45,23.93-6.97,10.6-15.87,17.02-19.87,14.36-1.45-.97-2.06-3.09-1.88-5.82-.24-.3-.42-.61-.61-.91-1.39,5.69-.91,10.18,1.7,11.93,5.03,3.33,15.87-4.36,24.35-17.14,8.42-12.78,11.21-25.81,6.24-29.08-2.85-1.94-7.45-.36-12.42,3.57Z"/>
    <path class="cls-2" d="M121.99,141.12c1.03,0,2,.24,2.79.79,5.03,3.33,2.24,16.36-6.24,29.08-7.09,10.78-15.93,17.87-21.57,17.87-1.03,0-2-.24-2.79-.79-2.67-1.76-3.09-6.18-1.7-11.93.18.3.42.61.61.91-.18,2.79.42,4.85,1.88,5.82.61.42,1.33.61,2.12.61,4.54,0,11.81-6,17.75-14.96,6.97-10.6,9.39-21.26,5.45-23.93-.61-.42-1.33-.61-2.12-.61-1.39,0-3.09.61-4.91,1.64-.3-.06-.61-.12-.91-.18,3.63-2.73,6.97-4.3,9.63-4.3M121.99,139.9c-2.91,0-6.48,1.64-10.36,4.66l-2.18,1.7,2.73.42c.24.06.55.12.85.18l.48.12.42-.24c1.64-.97,3.15-1.45,4.24-1.45.61,0,1.09.12,1.45.36,2.97,1.94,1.27,11.57-5.76,22.23-6.24,9.45-13.15,14.42-16.72,14.42-.61,0-1.09-.12-1.45-.36-1.03-.67-1.51-2.36-1.33-4.73v-.42l-.24-.36c-.18-.24-.42-.55-.61-.85l-1.51-2.36-.67,2.73c-1.58,6.54-.79,11.21,2.24,13.21.97.67,2.12.97,3.45.97,6.24,0,15.27-7.39,22.6-18.42,4.18-6.3,7.09-12.84,8.3-18.54,1.27-6,.42-10.36-2.42-12.24-1.09-.73-2.24-1.03-3.51-1.03h0Z"/>
  </g>
  <circle class="cls-6" cx="35.52" cy="58.21" r="2.7"/>
  <circle class="cls-6" cx="186.35" cy="139.9" r="2.7"/>
  <circle class="cls-12" cx="21.3" cy="73.52" r="1.35"/>
  <circle class="cls-12" cx="197.93" cy="120.53" r="1.35"/>
  <circle class="cls-6" cx="161.93" cy="32.03" r="1.89"/>
  <circle class="cls-6" cx="34.43" cy="122.03" r="1.89"/>
  <circle class="cls-5" cx="178.43" cy="156.53" r="1.62"/>
  <circle class="cls-5" cx="53.18" cy="39.53" r="1.62"/>
  <circle class="cls-12" cx="47.95" cy="113.33" r="1.35"/>
  <circle class="cls-5" cx="24.68" cy="99.53" r="1.62"/>
  <circle class="cls-5" cx="19.43" cy="137.03" r="1.62"/>
  <circle class="cls-12" cx="41.93" cy="152.03" r="1.35"/>
  <circle class="cls-6" cx="116.93" cy="197.03" r="1.89"/>
  <circle class="cls-5" cx="83.93" cy="191.78" r="1.62"/>
  <circle class="cls-12" cx="138.68" cy="192.53" r="1.35"/>
  <circle class="cls-5" cx="180.68" cy="110.78" r="1.62"/>
  <circle class="cls-6" cx="191.93" cy="92.03" r="1.89"/>
  <circle class="cls-5" cx="190.43" cy="62.03" r="1.62"/>
  <circle class="cls-12" cx="169.43" cy="54.53" r="1.35"/>
  <circle class="cls-12" cx="71.93" cy="20.03" r="1.35"/>
  <circle class="cls-5" cx="90.68" cy="20.78" r="1.62"/>
  <circle class="cls-12" cx="116.93" cy="14.03" r="1.35"/>
  <circle class="cls-5" cx="146.93" cy="24.53" r="1.62"/>
</svg>